%TF.GenerationSoftware,KiCad,Pcbnew,7.0.11*%
%TF.CreationDate,2024-08-27T07:46:35-07:00*%
%TF.ProjectId,nightLight,6e696768-744c-4696-9768-742e6b696361,rev?*%
%TF.SameCoordinates,Original*%
%TF.FileFunction,Soldermask,Top*%
%TF.FilePolarity,Negative*%
%FSLAX46Y46*%
G04 Gerber Fmt 4.6, Leading zero omitted, Abs format (unit mm)*
G04 Created by KiCad (PCBNEW 7.0.11) date 2024-08-27 07:46:35*
%MOMM*%
%LPD*%
G01*
G04 APERTURE LIST*
G04 Aperture macros list*
%AMRoundRect*
0 Rectangle with rounded corners*
0 $1 Rounding radius*
0 $2 $3 $4 $5 $6 $7 $8 $9 X,Y pos of 4 corners*
0 Add a 4 corners polygon primitive as box body*
4,1,4,$2,$3,$4,$5,$6,$7,$8,$9,$2,$3,0*
0 Add four circle primitives for the rounded corners*
1,1,$1+$1,$2,$3*
1,1,$1+$1,$4,$5*
1,1,$1+$1,$6,$7*
1,1,$1+$1,$8,$9*
0 Add four rect primitives between the rounded corners*
20,1,$1+$1,$2,$3,$4,$5,0*
20,1,$1+$1,$4,$5,$6,$7,0*
20,1,$1+$1,$6,$7,$8,$9,0*
20,1,$1+$1,$8,$9,$2,$3,0*%
G04 Aperture macros list end*
%ADD10C,0.010000*%
%ADD11RoundRect,0.250000X-0.312500X-0.625000X0.312500X-0.625000X0.312500X0.625000X-0.312500X0.625000X0*%
%ADD12RoundRect,0.250000X0.625000X-0.312500X0.625000X0.312500X-0.625000X0.312500X-0.625000X-0.312500X0*%
%ADD13RoundRect,0.250000X0.325000X0.650000X-0.325000X0.650000X-0.325000X-0.650000X0.325000X-0.650000X0*%
%ADD14R,2.500000X1.150000*%
%ADD15RoundRect,0.381000X-0.762000X-0.381000X0.762000X-0.381000X0.762000X0.381000X-0.762000X0.381000X0*%
%ADD16RoundRect,0.250000X0.312500X0.625000X-0.312500X0.625000X-0.312500X-0.625000X0.312500X-0.625000X0*%
%ADD17C,2.400000*%
%ADD18RoundRect,0.250000X-0.325000X-0.650000X0.325000X-0.650000X0.325000X0.650000X-0.325000X0.650000X0*%
%ADD19R,1.425000X0.450000*%
%ADD20RoundRect,0.150000X-0.825000X-0.150000X0.825000X-0.150000X0.825000X0.150000X-0.825000X0.150000X0*%
%ADD21R,1.000000X2.510000*%
%ADD22R,2.510000X1.000000*%
%ADD23RoundRect,0.150000X-0.512500X-0.150000X0.512500X-0.150000X0.512500X0.150000X-0.512500X0.150000X0*%
%ADD24RoundRect,1.250000X-1.250000X-1.250000X1.250000X-1.250000X1.250000X1.250000X-1.250000X1.250000X0*%
%ADD25R,3.150000X1.000000*%
%ADD26C,0.800000*%
G04 APERTURE END LIST*
%TO.C,D1*%
D10*
X160725000Y-117580000D02*
X159275000Y-117580000D01*
X159275000Y-116300000D01*
X160725000Y-116300000D01*
X160725000Y-117580000D01*
G36*
X160725000Y-117580000D02*
G01*
X159275000Y-117580000D01*
X159275000Y-116300000D01*
X160725000Y-116300000D01*
X160725000Y-117580000D01*
G37*
X160725000Y-120700000D02*
X159275000Y-120700000D01*
X159275000Y-119420000D01*
X160725000Y-119420000D01*
X160725000Y-120700000D01*
G36*
X160725000Y-120700000D02*
G01*
X159275000Y-120700000D01*
X159275000Y-119420000D01*
X160725000Y-119420000D01*
X160725000Y-120700000D01*
G37*
%TD*%
D11*
%TO.C,R2*%
X133000000Y-77000000D03*
X135925000Y-77000000D03*
%TD*%
D12*
%TO.C,R4*%
X125000000Y-125462500D03*
X125000000Y-122537500D03*
%TD*%
D13*
%TO.C,C1*%
X141475000Y-132000000D03*
X138525000Y-132000000D03*
%TD*%
D14*
%TO.C,L1*%
X140000000Y-127075000D03*
X140000000Y-128925000D03*
%TD*%
D15*
%TO.C,U1*%
X148000000Y-113000000D03*
X152000000Y-113000000D03*
%TD*%
D16*
%TO.C,R1*%
X142925000Y-77000000D03*
X140000000Y-77000000D03*
%TD*%
D17*
%TO.C,D1*%
X160000000Y-118500000D03*
%TD*%
D18*
%TO.C,C4*%
X166525000Y-122800000D03*
X169475000Y-122800000D03*
%TD*%
D19*
%TO.C,IC1*%
X135212000Y-129975000D03*
X135212000Y-129325000D03*
X135212000Y-128675000D03*
X135212000Y-128025000D03*
X130788000Y-128025000D03*
X130788000Y-128675000D03*
X130788000Y-129325000D03*
X130788000Y-129975000D03*
%TD*%
D20*
%TO.C,U2*%
X147525000Y-76190000D03*
X147525000Y-77460000D03*
X147525000Y-78730000D03*
X147525000Y-80000000D03*
X147525000Y-81270000D03*
X147525000Y-82540000D03*
X147525000Y-83810000D03*
X152475000Y-83810000D03*
X152475000Y-82540000D03*
X152475000Y-81270000D03*
X152475000Y-80000000D03*
X152475000Y-78730000D03*
X152475000Y-77460000D03*
X152475000Y-76190000D03*
%TD*%
D16*
%TO.C,R6*%
X169442500Y-115181250D03*
X166517500Y-115181250D03*
%TD*%
D21*
%TO.C,J4*%
X166000000Y-77345000D03*
X163460000Y-80655000D03*
X160920000Y-77345000D03*
%TD*%
D12*
%TO.C,R5*%
X128000000Y-127462500D03*
X128000000Y-124537500D03*
%TD*%
D22*
%TO.C,J2*%
X175345000Y-113460000D03*
X178655000Y-116000000D03*
X175345000Y-118540000D03*
%TD*%
D16*
%TO.C,R7*%
X169500000Y-125800000D03*
X166537500Y-125800000D03*
%TD*%
D22*
%TO.C,J3*%
X121345000Y-113460000D03*
X124655000Y-116000000D03*
X121345000Y-118540000D03*
%TD*%
D23*
%TO.C,U3*%
X166612500Y-118137500D03*
X166612500Y-119087500D03*
X166612500Y-120037500D03*
X168887500Y-120037500D03*
X168887500Y-118137500D03*
%TD*%
D18*
%TO.C,C3*%
X130525000Y-122000000D03*
X133475000Y-122000000D03*
%TD*%
D13*
%TO.C,C5*%
X169475000Y-112000000D03*
X166525000Y-112000000D03*
%TD*%
D24*
%TO.C,BT1*%
X180480000Y-100000000D03*
X119520000Y-100000000D03*
%TD*%
D25*
%TO.C,SW2*%
X140525000Y-81000000D03*
X135475000Y-81000000D03*
%TD*%
D18*
%TO.C,C2*%
X130525000Y-125175000D03*
X133475000Y-125175000D03*
%TD*%
D22*
%TO.C,J1*%
X148345000Y-65460000D03*
X151655000Y-68000000D03*
X148345000Y-70540000D03*
%TD*%
D16*
%TO.C,R3*%
X141462500Y-124000000D03*
X138537500Y-124000000D03*
%TD*%
D26*
%TO.C,B1*%
X144642685Y-102400527D03*
%TD*%
M02*
