%TF.GenerationSoftware,KiCad,Pcbnew,7.0.11*%
%TF.CreationDate,2024-08-27T07:46:35-07:00*%
%TF.ProjectId,nightLight,6e696768-744c-4696-9768-742e6b696361,rev?*%
%TF.SameCoordinates,Original*%
%TF.FileFunction,Soldermask,Bot*%
%TF.FilePolarity,Negative*%
%FSLAX46Y46*%
G04 Gerber Fmt 4.6, Leading zero omitted, Abs format (unit mm)*
G04 Created by KiCad (PCBNEW 7.0.11) date 2024-08-27 07:46:35*
%MOMM*%
%LPD*%
G01*
G04 APERTURE LIST*
%ADD10C,0.200000*%
%ADD11C,2.400000*%
%ADD12C,0.800000*%
G04 APERTURE END LIST*
D10*
X162236997Y-99800000D02*
G75*
G03*
X136736997Y-99800000I-12750000J0D01*
G01*
X136736997Y-99800000D02*
G75*
G03*
X162236997Y-99800000I12750000J0D01*
G01*
X162826007Y-99200000D02*
G75*
G03*
X138199999Y-99200000I-12313004J0D01*
G01*
X138199999Y-99200000D02*
G75*
G03*
X162826007Y-99200000I12313004J0D01*
G01*
X163800000Y-99400000D02*
G75*
G03*
X137800000Y-99400000I-13000000J0D01*
G01*
X137800000Y-99400000D02*
G75*
G03*
X163800000Y-99400000I13000000J0D01*
G01*
X163200000Y-98800000D02*
G75*
G03*
X136800000Y-98800000I-13200000J0D01*
G01*
X136800000Y-98800000D02*
G75*
G03*
X163200000Y-98800000I13200000J0D01*
G01*
%TO.C,REF\u002A\u002A*%
G36*
X178542856Y-127681780D02*
G01*
X178842752Y-127770763D01*
X178932274Y-127907279D01*
X178803245Y-128114008D01*
X178365973Y-128291906D01*
X177650910Y-128424276D01*
X177212581Y-128438595D01*
X176826472Y-128345377D01*
X176681536Y-128161181D01*
X176835796Y-127921776D01*
X177017232Y-127831431D01*
X177484589Y-127723063D01*
X178041633Y-127669530D01*
X178542856Y-127681780D01*
G37*
G36*
X178164496Y-129791355D02*
G01*
X178683333Y-129912829D01*
X178972168Y-130049376D01*
X179114681Y-130245525D01*
X178926815Y-130401372D01*
X178424651Y-130481560D01*
X178026028Y-130483981D01*
X177392521Y-130409429D01*
X176955137Y-130251203D01*
X176793583Y-130031309D01*
X176836368Y-129940674D01*
X177130337Y-129812216D01*
X177609939Y-129760130D01*
X178164496Y-129791355D01*
G37*
G36*
X176225110Y-133534088D02*
G01*
X176733818Y-133782349D01*
X177213377Y-134121670D01*
X177455051Y-134382780D01*
X177523195Y-134668241D01*
X177278617Y-134828158D01*
X177076246Y-134788381D01*
X176698825Y-134587072D01*
X176266280Y-134283896D01*
X175869383Y-133949833D01*
X175598903Y-133655867D01*
X175545611Y-133472975D01*
X175793101Y-133418058D01*
X176225110Y-133534088D01*
G37*
G36*
X173082966Y-135755697D02*
G01*
X173315689Y-135994413D01*
X173613258Y-136538455D01*
X173873424Y-137117757D01*
X173975566Y-137490392D01*
X173899843Y-137671989D01*
X173648029Y-137723007D01*
X173455491Y-137663213D01*
X173167259Y-137365620D01*
X172930320Y-136915891D01*
X172784866Y-136424090D01*
X172771092Y-136000280D01*
X172929187Y-135754523D01*
X173082966Y-135755697D01*
G37*
G36*
X178204538Y-125445001D02*
G01*
X178299822Y-125612407D01*
X178244335Y-125777818D01*
X177966492Y-125973437D01*
X177412774Y-126253947D01*
X177034572Y-126419994D01*
X176513428Y-126568948D01*
X176224453Y-126525303D01*
X176201682Y-126288096D01*
X176274424Y-126187174D01*
X176596891Y-125956424D01*
X177064046Y-125719303D01*
X177562980Y-125523339D01*
X177980780Y-125416063D01*
X178204538Y-125445001D01*
G37*
G36*
X174964988Y-135008457D02*
G01*
X175425948Y-135473327D01*
X175623364Y-135720328D01*
X175902422Y-136155518D01*
X175926429Y-136414712D01*
X175706153Y-136538861D01*
X175589604Y-136503333D01*
X175284571Y-136270520D01*
X174908436Y-135902110D01*
X174546450Y-135490705D01*
X174283866Y-135128906D01*
X174205934Y-134909314D01*
X174284484Y-134795135D01*
X174565748Y-134773724D01*
X174964988Y-135008457D01*
G37*
G36*
X177417558Y-131771938D02*
G01*
X177599519Y-131827013D01*
X178080430Y-132004877D01*
X178369227Y-132159932D01*
X178447295Y-132262041D01*
X178475910Y-132591476D01*
X178455997Y-132633928D01*
X178295932Y-132722418D01*
X177954790Y-132672647D01*
X177361383Y-132477325D01*
X176955956Y-132324164D01*
X176586399Y-132148818D01*
X176456201Y-132000274D01*
X176503401Y-131831928D01*
X176581002Y-131741250D01*
X176881766Y-131666778D01*
X177417558Y-131771938D01*
G37*
G36*
X171493479Y-122043120D02*
G01*
X172986949Y-122543596D01*
X174378550Y-123375267D01*
X174413587Y-123401608D01*
X175089264Y-123941851D01*
X175490623Y-124371920D01*
X175647657Y-124764580D01*
X175590363Y-125192596D01*
X175348739Y-125728733D01*
X175198637Y-126003006D01*
X174887455Y-126519690D01*
X174639755Y-126868626D01*
X174526840Y-127023023D01*
X174504898Y-127281755D01*
X174749465Y-127615469D01*
X175224770Y-128220744D01*
X175732645Y-129190740D01*
X175970039Y-130154690D01*
X175975102Y-130574360D01*
X175771458Y-131540215D01*
X175313854Y-132425337D01*
X174657142Y-133106405D01*
X174539087Y-133185150D01*
X173961127Y-133476221D01*
X173252031Y-133743597D01*
X172559461Y-133936741D01*
X172031082Y-134005120D01*
X171907354Y-134111552D01*
X171855553Y-134518844D01*
X171843408Y-134732407D01*
X171748150Y-135310136D01*
X171587994Y-135940326D01*
X171313039Y-136843085D01*
X170400474Y-136931763D01*
X169937393Y-136948762D01*
X169130493Y-136907147D01*
X168349001Y-136800635D01*
X168020996Y-136728769D01*
X166581345Y-136201448D01*
X165281867Y-135384726D01*
X164165166Y-134325635D01*
X163273847Y-133071209D01*
X162650515Y-131668482D01*
X162337775Y-130164489D01*
X162336449Y-130150267D01*
X162266022Y-129560494D01*
X162146360Y-129206216D01*
X161905670Y-128968243D01*
X161472160Y-128727383D01*
X161428149Y-128705083D01*
X160939492Y-128490885D01*
X160615059Y-128455438D01*
X160328606Y-128582777D01*
X159816583Y-128914932D01*
X159333696Y-129205224D01*
X159052640Y-129325327D01*
X158920742Y-129295424D01*
X158885320Y-129135694D01*
X158902983Y-129031437D01*
X159136222Y-128648374D01*
X159593553Y-128186767D01*
X159892261Y-127921978D01*
X160162395Y-127622545D01*
X160255787Y-127353340D01*
X160235345Y-126997825D01*
X160216949Y-126634446D01*
X160411487Y-125800354D01*
X160929314Y-125099003D01*
X161078187Y-124955770D01*
X161245564Y-124706387D01*
X161274480Y-124382092D01*
X161193815Y-123846079D01*
X161128633Y-123290002D01*
X161151299Y-122742598D01*
X161269568Y-122391842D01*
X161469517Y-122315041D01*
X161562808Y-122440998D01*
X161708582Y-122836403D01*
X161848422Y-123395868D01*
X161956938Y-123881830D01*
X162085675Y-124232924D01*
X162260355Y-124380643D01*
X162537570Y-124408109D01*
X162919373Y-124437372D01*
X163468975Y-124564895D01*
X163504699Y-124577388D01*
X163816963Y-124617473D01*
X164118759Y-124466231D01*
X164518181Y-124072987D01*
X164544894Y-124044366D01*
X165026237Y-123628389D01*
X165688430Y-123168507D01*
X166396495Y-122759133D01*
X166810435Y-122560409D01*
X168364365Y-122048372D01*
X169938999Y-121876994D01*
X171493479Y-122043120D01*
G37*
G36*
X181569106Y-79188853D02*
G01*
X181952532Y-79477212D01*
X182351601Y-79869521D01*
X182664397Y-80261355D01*
X182789002Y-80548286D01*
X182741968Y-80704614D01*
X182500666Y-80738655D01*
X182083315Y-80518036D01*
X181522281Y-80055351D01*
X181229559Y-79728776D01*
X181052782Y-79373080D01*
X181100722Y-79143654D01*
X181383273Y-79107937D01*
X181569106Y-79188853D01*
G37*
G36*
X180124439Y-80548720D02*
G01*
X180472622Y-80882636D01*
X180805164Y-81327523D01*
X181045611Y-81803056D01*
X181126670Y-82112089D01*
X181068017Y-82347342D01*
X180827872Y-82303604D01*
X180443661Y-81970469D01*
X180185576Y-81666661D01*
X179835476Y-81133446D01*
X179675538Y-80696685D01*
X179740143Y-80431582D01*
X179837075Y-80406098D01*
X180124439Y-80548720D01*
G37*
G36*
X176502645Y-81842129D02*
G01*
X176691451Y-82247649D01*
X176828263Y-82796922D01*
X176876583Y-83382396D01*
X176831906Y-83735367D01*
X176657032Y-83971059D01*
X176377317Y-83886495D01*
X176277707Y-83705901D01*
X176189317Y-83287381D01*
X176143528Y-82761154D01*
X176144314Y-82242382D01*
X176195645Y-81846225D01*
X176301493Y-81687840D01*
X176502645Y-81842129D01*
G37*
G36*
X172969868Y-81268650D02*
G01*
X172936593Y-81600370D01*
X172711106Y-82178025D01*
X172434567Y-82749691D01*
X172214767Y-83067462D01*
X172026982Y-83126183D01*
X171826037Y-82966076D01*
X171748081Y-82780148D01*
X171790778Y-82368061D01*
X171982989Y-81897475D01*
X172266235Y-81469927D01*
X172582038Y-81186955D01*
X172871920Y-81150094D01*
X172969868Y-81268650D01*
G37*
G36*
X182735254Y-77661622D02*
G01*
X183217181Y-77867064D01*
X183688007Y-78123307D01*
X184038742Y-78374404D01*
X184160402Y-78564414D01*
X184093409Y-78745013D01*
X183931031Y-78808831D01*
X183602585Y-78721732D01*
X183031778Y-78477868D01*
X182661475Y-78294882D01*
X182212385Y-77991408D01*
X182060070Y-77741986D01*
X182227143Y-77572069D01*
X182351212Y-77562920D01*
X182735254Y-77661622D01*
G37*
G36*
X174675217Y-81773327D02*
G01*
X174752028Y-82230046D01*
X174692216Y-82881974D01*
X174629899Y-83191973D01*
X174475899Y-83685478D01*
X174292776Y-83870476D01*
X174056082Y-83781536D01*
X174008381Y-83669417D01*
X173990656Y-83286099D01*
X174031099Y-82761153D01*
X174113574Y-82219410D01*
X174221941Y-81785699D01*
X174340065Y-81584849D01*
X174478022Y-81571629D01*
X174675217Y-81773327D01*
G37*
G36*
X178293607Y-81367864D02*
G01*
X178543984Y-81550393D01*
X178807826Y-82028430D01*
X178882599Y-82203221D01*
X179055471Y-82685949D01*
X179122327Y-83006848D01*
X179094288Y-83132286D01*
X178860320Y-83365963D01*
X178815000Y-83377996D01*
X178644325Y-83312260D01*
X178463170Y-83018937D01*
X178231360Y-82438811D01*
X178088085Y-82029786D01*
X177984861Y-81633978D01*
X178014963Y-81438759D01*
X178174263Y-81366705D01*
X178293607Y-81367864D01*
G37*
G36*
X175801027Y-63732745D02*
G01*
X175764505Y-63885174D01*
X175555308Y-64251005D01*
X175216621Y-64717745D01*
X174914105Y-65113243D01*
X174727902Y-65437541D01*
X174727025Y-65666305D01*
X174884176Y-65896319D01*
X175107177Y-66207607D01*
X175362766Y-66710597D01*
X175376159Y-66745994D01*
X175546171Y-67010968D01*
X175856020Y-67144941D01*
X176414006Y-67198143D01*
X176453101Y-67200209D01*
X177081160Y-67301554D01*
X177859099Y-67513217D01*
X178627833Y-67792486D01*
X179046140Y-67981845D01*
X180437230Y-68843094D01*
X181580668Y-69939174D01*
X182452610Y-71236758D01*
X183029206Y-72702522D01*
X183286613Y-74303138D01*
X183288956Y-74346910D01*
X183309423Y-75211770D01*
X183237959Y-75795672D01*
X183038104Y-76168363D01*
X182673397Y-76399598D01*
X182107379Y-76559125D01*
X181800791Y-76620439D01*
X181204963Y-76714178D01*
X180778444Y-76748720D01*
X180587589Y-76761467D01*
X180375285Y-76910969D01*
X180276849Y-77312824D01*
X180118703Y-78065992D01*
X179702098Y-79078549D01*
X179116263Y-79880018D01*
X178798032Y-80153656D01*
X177927244Y-80618495D01*
X176955059Y-80836895D01*
X176011205Y-80771607D01*
X175874999Y-80731788D01*
X175280519Y-80476141D01*
X174619899Y-80104809D01*
X174026767Y-79698420D01*
X173634750Y-79337611D01*
X173473688Y-79311243D01*
X173128386Y-79533364D01*
X172956981Y-79661335D01*
X172453185Y-79959721D01*
X171867485Y-80242112D01*
X170999194Y-80611767D01*
X170344677Y-79969703D01*
X170033992Y-79625889D01*
X169547206Y-78981018D01*
X169126465Y-78313895D01*
X168970681Y-78016435D01*
X168449241Y-76574643D01*
X168239598Y-75054206D01*
X168333108Y-73517993D01*
X168721125Y-72028874D01*
X169395007Y-70649718D01*
X170346107Y-69443397D01*
X170356149Y-69433240D01*
X170762672Y-69000191D01*
X170957147Y-68680799D01*
X170984733Y-68343453D01*
X170890587Y-67856544D01*
X170879381Y-67808495D01*
X170729362Y-67296479D01*
X170547975Y-67025163D01*
X170266299Y-66887579D01*
X169682732Y-66708852D01*
X169149962Y-66525535D01*
X168877298Y-66387435D01*
X168815423Y-66267173D01*
X168915014Y-66137366D01*
X169006234Y-66083882D01*
X169449599Y-66016326D01*
X170097177Y-66069946D01*
X170492024Y-66128567D01*
X170895041Y-66143030D01*
X171161296Y-66041530D01*
X171420496Y-65797350D01*
X171687036Y-65549682D01*
X172451034Y-65162563D01*
X173321153Y-65108421D01*
X173526569Y-65130397D01*
X173825196Y-65098315D01*
X174092206Y-64912012D01*
X174450966Y-64505677D01*
X174835048Y-64098305D01*
X175268952Y-63763804D01*
X175613670Y-63628942D01*
X175801027Y-63732745D01*
G37*
G36*
X142937802Y-63381784D02*
G01*
X143310502Y-63671524D01*
X143782670Y-64224601D01*
X144014235Y-64597046D01*
X144126560Y-64978035D01*
X144039510Y-65195651D01*
X143755049Y-65181761D01*
X143586090Y-65069805D01*
X143258562Y-64719245D01*
X142933679Y-64263599D01*
X142693677Y-63823401D01*
X142620790Y-63519192D01*
X142694256Y-63373406D01*
X142937802Y-63381784D01*
G37*
G36*
X144856933Y-62131087D02*
G01*
X145177460Y-62525879D01*
X145378868Y-62869887D01*
X145631057Y-63455796D01*
X145712722Y-63913695D01*
X145603064Y-64163552D01*
X145503180Y-64171816D01*
X145244948Y-63981461D01*
X144960039Y-63592156D01*
X144709801Y-63096283D01*
X144555583Y-62586221D01*
X144529419Y-62267808D01*
X144628032Y-62046314D01*
X144856933Y-62131087D01*
G37*
G36*
X149514741Y-61345075D02*
G01*
X149581478Y-61540222D01*
X149595850Y-61967733D01*
X149549565Y-62493917D01*
X149458707Y-63004670D01*
X149339364Y-63385896D01*
X149207621Y-63523494D01*
X149036316Y-63336620D01*
X148920797Y-62904474D01*
X148881443Y-62339789D01*
X148935524Y-61754819D01*
X149040815Y-61414968D01*
X149253960Y-61213223D01*
X149514741Y-61345075D01*
G37*
G36*
X153837048Y-63041832D02*
G01*
X153881534Y-63238473D01*
X153767926Y-63636885D01*
X153496919Y-64066945D01*
X153143734Y-64438812D01*
X152783590Y-64662646D01*
X152491712Y-64648610D01*
X152415839Y-64514847D01*
X152506211Y-64193945D01*
X152828581Y-63664221D01*
X153200188Y-63149260D01*
X153471828Y-62874484D01*
X153666957Y-62849264D01*
X153837048Y-63041832D01*
G37*
G36*
X141502390Y-65176719D02*
G01*
X142022177Y-65515998D01*
X142355080Y-65760507D01*
X142744650Y-66137354D01*
X142851339Y-66409436D01*
X142657298Y-66547759D01*
X142533526Y-66535225D01*
X142172457Y-66371335D01*
X141733526Y-66085327D01*
X141314350Y-65751219D01*
X141012546Y-65443032D01*
X140925729Y-65234783D01*
X141023064Y-65068562D01*
X141194058Y-65033909D01*
X141502390Y-65176719D01*
G37*
G36*
X151782485Y-61851518D02*
G01*
X151809992Y-61970216D01*
X151760886Y-62350789D01*
X151629901Y-62860737D01*
X151454607Y-63379928D01*
X151272572Y-63788232D01*
X151121366Y-63965519D01*
X150983209Y-63954582D01*
X150824034Y-63721706D01*
X150827699Y-63258587D01*
X150999808Y-62626950D01*
X151115009Y-62332481D01*
X151352366Y-61873216D01*
X151564831Y-61722828D01*
X151782485Y-61851518D01*
G37*
G36*
X147182459Y-61516925D02*
G01*
X147309927Y-61837248D01*
X147437477Y-62448815D01*
X147507550Y-62876505D01*
X147540473Y-63284224D01*
X147476930Y-63471251D01*
X147307538Y-63514547D01*
X147190207Y-63492682D01*
X146975331Y-63269449D01*
X146798507Y-62752859D01*
X146755222Y-62567739D01*
X146668801Y-62062325D01*
X146658685Y-61734692D01*
X146708079Y-61616029D01*
X146979071Y-61426530D01*
X147025792Y-61422550D01*
X147182459Y-61516925D01*
G37*
G36*
X149334396Y-64476216D02*
G01*
X149461619Y-64539082D01*
X150002674Y-64894075D01*
X150588776Y-65374482D01*
X151102329Y-65877693D01*
X151425737Y-66301093D01*
X151579773Y-66355029D01*
X151958399Y-66196244D01*
X152149423Y-66099980D01*
X152697380Y-65893611D01*
X153323218Y-65717216D01*
X154242507Y-65503954D01*
X154775588Y-66249919D01*
X155021850Y-66642460D01*
X155389260Y-67362063D01*
X155687764Y-68092112D01*
X155789528Y-68412105D01*
X156052681Y-69922540D01*
X155995118Y-71456281D01*
X155636269Y-72952918D01*
X154995563Y-74352036D01*
X154092432Y-75593221D01*
X152946306Y-76616059D01*
X152934652Y-76624318D01*
X152459107Y-76980196D01*
X152212125Y-77260966D01*
X152126379Y-77588396D01*
X152134543Y-78084256D01*
X152137236Y-78133521D01*
X152196064Y-78663809D01*
X152327582Y-78962500D01*
X152581088Y-79146907D01*
X153124754Y-79424253D01*
X153617597Y-79697300D01*
X153862138Y-79880650D01*
X153902190Y-80009829D01*
X153781571Y-80120370D01*
X153682450Y-80157202D01*
X153234089Y-80146742D01*
X152605660Y-79981486D01*
X152226991Y-79855191D01*
X151832608Y-79770965D01*
X151552774Y-79824687D01*
X151255110Y-80020149D01*
X150949612Y-80217769D01*
X150129998Y-80466341D01*
X149263697Y-80368565D01*
X149065217Y-80311253D01*
X148765556Y-80290992D01*
X148470251Y-80428098D01*
X148046382Y-80765962D01*
X147597396Y-81100450D01*
X147111998Y-81354523D01*
X146749099Y-81427477D01*
X146582614Y-81292716D01*
X146645050Y-81148945D01*
X146914594Y-80824999D01*
X147329184Y-80424161D01*
X147695783Y-80087203D01*
X147935470Y-79800166D01*
X147976059Y-79575030D01*
X147861237Y-79321221D01*
X147695678Y-78975939D01*
X147531315Y-78436207D01*
X147524273Y-78399023D01*
X147402855Y-78108552D01*
X147120978Y-77922810D01*
X146580708Y-77773523D01*
X146542565Y-77764699D01*
X145941646Y-77555832D01*
X145212280Y-77212297D01*
X144503720Y-76803782D01*
X144124650Y-76544662D01*
X142904248Y-75454937D01*
X141968513Y-74176953D01*
X141335142Y-72747671D01*
X141021832Y-71204050D01*
X141046280Y-69583052D01*
X141051573Y-69539539D01*
X141181599Y-68684264D01*
X141353370Y-68121643D01*
X141614907Y-67789318D01*
X142014226Y-67624927D01*
X142599346Y-67566111D01*
X142911925Y-67558967D01*
X143514977Y-67570117D01*
X143941015Y-67610163D01*
X144131184Y-67630752D01*
X144366223Y-67520388D01*
X144532945Y-67141730D01*
X144819476Y-66427466D01*
X145405580Y-65502635D01*
X146121688Y-64815072D01*
X146482601Y-64600851D01*
X147420879Y-64294285D01*
X148416218Y-64248021D01*
X149334396Y-64476216D01*
G37*
G36*
X126780129Y-114007675D02*
G01*
X127207802Y-114225072D01*
X127668933Y-114542124D01*
X128045018Y-114873688D01*
X128217555Y-115134623D01*
X128198381Y-115296743D01*
X127966657Y-115372169D01*
X127517337Y-115227373D01*
X126884481Y-114869141D01*
X126539497Y-114598358D01*
X126303640Y-114278763D01*
X126311012Y-114044497D01*
X126583068Y-113960258D01*
X126780129Y-114007675D01*
G37*
G36*
X125593548Y-115597747D02*
G01*
X125994425Y-115866129D01*
X126399170Y-116246511D01*
X126718539Y-116673067D01*
X126852029Y-116963329D01*
X126835118Y-117205193D01*
X126591027Y-117203820D01*
X126154804Y-116942464D01*
X125847885Y-116688088D01*
X125410512Y-116223767D01*
X125177161Y-115821414D01*
X125194750Y-115549120D01*
X125285784Y-115507192D01*
X125593548Y-115597747D01*
G37*
G36*
X122251376Y-117500423D02*
G01*
X122507731Y-117866997D01*
X122737845Y-118384168D01*
X122887097Y-118952357D01*
X122904392Y-119307724D01*
X122773102Y-119570202D01*
X122482952Y-119535494D01*
X122353495Y-119374942D01*
X122193773Y-118978128D01*
X122057301Y-118467847D01*
X121967992Y-117956820D01*
X121949751Y-117557768D01*
X122026487Y-117383409D01*
X122251376Y-117500423D01*
G37*
G36*
X118672686Y-117549117D02*
G01*
X118697518Y-117881576D01*
X118575766Y-118489610D01*
X118402697Y-119100612D01*
X118241417Y-119451723D01*
X118066682Y-119542160D01*
X117840987Y-119419380D01*
X117731929Y-119249814D01*
X117702420Y-118836572D01*
X117809994Y-118339759D01*
X118014694Y-117869521D01*
X118276562Y-117536010D01*
X118555639Y-117449371D01*
X118672686Y-117549117D01*
G37*
G36*
X127663360Y-112301146D02*
G01*
X128173640Y-112419782D01*
X128681809Y-112590374D01*
X129070818Y-112776752D01*
X129223625Y-112942749D01*
X129189010Y-113132237D01*
X129040181Y-113223283D01*
X128701600Y-113194542D01*
X128097119Y-113053501D01*
X127700666Y-112937597D01*
X127205701Y-112716718D01*
X127012388Y-112497534D01*
X127147418Y-112301187D01*
X127268012Y-112270633D01*
X127663360Y-112301146D01*
G37*
G36*
X120439763Y-117749996D02*
G01*
X120594715Y-118186439D01*
X120649018Y-118838849D01*
X120641479Y-119154960D01*
X120575515Y-119667709D01*
X120427299Y-119881695D01*
X120178756Y-119835208D01*
X120112311Y-119733076D01*
X120028292Y-119358659D01*
X119976965Y-118834666D01*
X119964114Y-118286831D01*
X119995522Y-117840892D01*
X120076974Y-117622580D01*
X120210540Y-117585606D01*
X120439763Y-117749996D01*
G37*
G36*
X124211042Y-116858645D02*
G01*
X124553887Y-117283604D01*
X124657876Y-117442755D01*
X124911946Y-117888131D01*
X125033510Y-118192545D01*
X125027679Y-118320946D01*
X124837843Y-118591702D01*
X124795301Y-118611421D01*
X124615804Y-118576321D01*
X124386466Y-118318912D01*
X124057440Y-117787852D01*
X123845315Y-117409921D01*
X123674928Y-117038051D01*
X123670673Y-116840570D01*
X123815041Y-116741949D01*
X123932774Y-116722366D01*
X124211042Y-116858645D01*
G37*
G36*
X118415755Y-99787997D02*
G01*
X118406257Y-99944452D01*
X118263764Y-100341051D01*
X118011272Y-100859513D01*
X117782028Y-101301535D01*
X117654968Y-101653239D01*
X117693829Y-101878680D01*
X117888533Y-102077911D01*
X118162201Y-102345746D01*
X118501251Y-102796712D01*
X118520587Y-102829245D01*
X118734028Y-103060671D01*
X119062434Y-103138804D01*
X119621181Y-103094305D01*
X119660041Y-103089551D01*
X120296157Y-103080295D01*
X121099033Y-103153654D01*
X121904582Y-103295191D01*
X122349416Y-103409035D01*
X123868927Y-104015640D01*
X125185326Y-104896512D01*
X126269343Y-106022972D01*
X127091708Y-107366342D01*
X127623148Y-108897944D01*
X127633056Y-108940643D01*
X127803394Y-109788810D01*
X127834409Y-110376251D01*
X127702307Y-110777985D01*
X127383294Y-111069037D01*
X126853577Y-111324428D01*
X126562293Y-111438050D01*
X125991796Y-111633829D01*
X125577755Y-111741911D01*
X125392012Y-111787606D01*
X125208894Y-111971702D01*
X125181736Y-112384546D01*
X125156778Y-113153733D01*
X124922331Y-114223250D01*
X124484570Y-115114272D01*
X124218690Y-115439012D01*
X123441850Y-116048001D01*
X122522359Y-116431901D01*
X121581507Y-116531503D01*
X121440456Y-116515941D01*
X120810615Y-116367409D01*
X120095550Y-116116432D01*
X119440860Y-115819214D01*
X118992145Y-115531960D01*
X118828951Y-115533961D01*
X118527467Y-115812668D01*
X118380888Y-115968459D01*
X117936559Y-116349795D01*
X117408794Y-116729602D01*
X116617884Y-117244418D01*
X115861818Y-116725764D01*
X115496150Y-116441123D01*
X114904778Y-115890579D01*
X114374585Y-115306652D01*
X114169514Y-115040762D01*
X113405632Y-113711421D01*
X112935153Y-112250488D01*
X112760481Y-110721376D01*
X112884021Y-109187500D01*
X113308176Y-107712280D01*
X114035352Y-106359128D01*
X114043478Y-106347381D01*
X114368626Y-105850319D01*
X114504685Y-105502009D01*
X114473272Y-105164999D01*
X114296006Y-104701835D01*
X114276626Y-104656462D01*
X114039976Y-104178275D01*
X113814231Y-103942579D01*
X113512944Y-103855997D01*
X112907206Y-103781321D01*
X112350697Y-103693303D01*
X112058195Y-103604649D01*
X111976376Y-103496959D01*
X112051914Y-103351830D01*
X112132461Y-103283318D01*
X112557359Y-103139799D01*
X113204410Y-103080153D01*
X113603438Y-103069319D01*
X114002844Y-103013579D01*
X114247428Y-102867387D01*
X114460289Y-102581907D01*
X114679773Y-102291718D01*
X115364941Y-101777812D01*
X116212439Y-101573399D01*
X116418551Y-101559371D01*
X116707070Y-101475920D01*
X116937673Y-101246082D01*
X117220423Y-100783622D01*
X117527930Y-100315744D01*
X117897157Y-99910978D01*
X118213219Y-99718305D01*
X118415755Y-99787997D01*
G37*
G36*
X187769106Y-106588853D02*
G01*
X188152532Y-106877212D01*
X188551601Y-107269521D01*
X188864397Y-107661355D01*
X188989002Y-107948286D01*
X188941968Y-108104614D01*
X188700666Y-108138655D01*
X188283315Y-107918036D01*
X187722281Y-107455351D01*
X187429559Y-107128776D01*
X187252782Y-106773080D01*
X187300722Y-106543654D01*
X187583273Y-106507937D01*
X187769106Y-106588853D01*
G37*
G36*
X186324439Y-107948720D02*
G01*
X186672622Y-108282636D01*
X187005164Y-108727523D01*
X187245611Y-109203056D01*
X187326670Y-109512089D01*
X187268017Y-109747342D01*
X187027872Y-109703604D01*
X186643661Y-109370469D01*
X186385576Y-109066661D01*
X186035476Y-108533446D01*
X185875538Y-108096685D01*
X185940143Y-107831582D01*
X186037075Y-107806098D01*
X186324439Y-107948720D01*
G37*
G36*
X182702645Y-109242129D02*
G01*
X182891451Y-109647649D01*
X183028263Y-110196922D01*
X183076583Y-110782396D01*
X183031906Y-111135367D01*
X182857032Y-111371059D01*
X182577317Y-111286495D01*
X182477707Y-111105901D01*
X182389317Y-110687381D01*
X182343528Y-110161154D01*
X182344314Y-109642382D01*
X182395645Y-109246225D01*
X182501493Y-109087840D01*
X182702645Y-109242129D01*
G37*
G36*
X179169868Y-108668650D02*
G01*
X179136593Y-109000370D01*
X178911106Y-109578025D01*
X178634567Y-110149691D01*
X178414767Y-110467462D01*
X178226982Y-110526183D01*
X178026037Y-110366076D01*
X177948081Y-110180148D01*
X177990778Y-109768061D01*
X178182989Y-109297475D01*
X178466235Y-108869927D01*
X178782038Y-108586955D01*
X179071920Y-108550094D01*
X179169868Y-108668650D01*
G37*
G36*
X188935254Y-105061622D02*
G01*
X189417181Y-105267064D01*
X189888007Y-105523307D01*
X190238742Y-105774404D01*
X190360402Y-105964414D01*
X190293409Y-106145013D01*
X190131031Y-106208831D01*
X189802585Y-106121732D01*
X189231778Y-105877868D01*
X188861475Y-105694882D01*
X188412385Y-105391408D01*
X188260070Y-105141986D01*
X188427143Y-104972069D01*
X188551212Y-104962920D01*
X188935254Y-105061622D01*
G37*
G36*
X180875217Y-109173327D02*
G01*
X180952028Y-109630046D01*
X180892216Y-110281974D01*
X180829899Y-110591973D01*
X180675899Y-111085478D01*
X180492776Y-111270476D01*
X180256082Y-111181536D01*
X180208381Y-111069417D01*
X180190656Y-110686099D01*
X180231099Y-110161153D01*
X180313574Y-109619410D01*
X180421941Y-109185699D01*
X180540065Y-108984849D01*
X180678022Y-108971629D01*
X180875217Y-109173327D01*
G37*
G36*
X184493607Y-108767864D02*
G01*
X184743984Y-108950393D01*
X185007826Y-109428430D01*
X185082599Y-109603221D01*
X185255471Y-110085949D01*
X185322327Y-110406848D01*
X185294288Y-110532286D01*
X185060320Y-110765963D01*
X185015000Y-110777996D01*
X184844325Y-110712260D01*
X184663170Y-110418937D01*
X184431360Y-109838811D01*
X184288085Y-109429786D01*
X184184861Y-109033978D01*
X184214963Y-108838759D01*
X184374263Y-108766705D01*
X184493607Y-108767864D01*
G37*
G36*
X182001027Y-91132745D02*
G01*
X181964505Y-91285174D01*
X181755308Y-91651005D01*
X181416621Y-92117745D01*
X181114105Y-92513243D01*
X180927902Y-92837541D01*
X180927025Y-93066305D01*
X181084176Y-93296319D01*
X181307177Y-93607607D01*
X181562766Y-94110597D01*
X181576159Y-94145994D01*
X181746171Y-94410968D01*
X182056020Y-94544941D01*
X182614006Y-94598143D01*
X182653101Y-94600209D01*
X183281160Y-94701554D01*
X184059099Y-94913217D01*
X184827833Y-95192486D01*
X185246140Y-95381845D01*
X186637230Y-96243094D01*
X187780668Y-97339174D01*
X188652610Y-98636758D01*
X189229206Y-100102522D01*
X189486613Y-101703138D01*
X189488956Y-101746910D01*
X189509423Y-102611770D01*
X189437959Y-103195672D01*
X189238104Y-103568363D01*
X188873397Y-103799598D01*
X188307379Y-103959125D01*
X188000791Y-104020439D01*
X187404963Y-104114178D01*
X186978444Y-104148720D01*
X186787589Y-104161467D01*
X186575285Y-104310969D01*
X186476849Y-104712824D01*
X186318703Y-105465992D01*
X185902098Y-106478549D01*
X185316263Y-107280018D01*
X184998032Y-107553656D01*
X184127244Y-108018495D01*
X183155059Y-108236895D01*
X182211205Y-108171607D01*
X182074999Y-108131788D01*
X181480519Y-107876141D01*
X180819899Y-107504809D01*
X180226767Y-107098420D01*
X179834750Y-106737611D01*
X179673688Y-106711243D01*
X179328386Y-106933364D01*
X179156981Y-107061335D01*
X178653185Y-107359721D01*
X178067485Y-107642112D01*
X177199194Y-108011767D01*
X176544677Y-107369703D01*
X176233992Y-107025889D01*
X175747206Y-106381018D01*
X175326465Y-105713895D01*
X175170681Y-105416435D01*
X174649241Y-103974643D01*
X174439598Y-102454206D01*
X174533108Y-100917993D01*
X174921125Y-99428874D01*
X175595007Y-98049718D01*
X176546107Y-96843397D01*
X176556149Y-96833240D01*
X176962672Y-96400191D01*
X177157147Y-96080799D01*
X177184733Y-95743453D01*
X177090587Y-95256544D01*
X177079381Y-95208495D01*
X176929362Y-94696479D01*
X176747975Y-94425163D01*
X176466299Y-94287579D01*
X175882732Y-94108852D01*
X175349962Y-93925535D01*
X175077298Y-93787435D01*
X175015423Y-93667173D01*
X175115014Y-93537366D01*
X175206234Y-93483882D01*
X175649599Y-93416326D01*
X176297177Y-93469946D01*
X176692024Y-93528567D01*
X177095041Y-93543030D01*
X177361296Y-93441530D01*
X177620496Y-93197350D01*
X177887036Y-92949682D01*
X178651034Y-92562563D01*
X179521153Y-92508421D01*
X179726569Y-92530397D01*
X180025196Y-92498315D01*
X180292206Y-92312012D01*
X180650966Y-91905677D01*
X181035048Y-91498305D01*
X181468952Y-91163804D01*
X181813670Y-91028942D01*
X182001027Y-91132745D01*
G37*
G36*
X120878225Y-92235796D02*
G01*
X120968570Y-92417232D01*
X121076938Y-92884589D01*
X121130471Y-93441633D01*
X121118221Y-93942856D01*
X121029238Y-94242752D01*
X120892722Y-94332274D01*
X120685993Y-94203245D01*
X120508095Y-93765973D01*
X120375725Y-93050910D01*
X120361406Y-92612581D01*
X120454624Y-92226472D01*
X120638820Y-92081536D01*
X120878225Y-92235796D01*
G37*
G36*
X118859327Y-92236368D02*
G01*
X118987785Y-92530337D01*
X119039871Y-93009939D01*
X119008646Y-93564496D01*
X118887172Y-94083333D01*
X118750625Y-94372168D01*
X118554476Y-94514681D01*
X118398629Y-94326815D01*
X118318441Y-93824651D01*
X118316020Y-93426028D01*
X118390572Y-92792521D01*
X118548798Y-92355137D01*
X118768692Y-92193583D01*
X118859327Y-92236368D01*
G37*
G36*
X115381943Y-91193101D02*
G01*
X115265913Y-91625110D01*
X115017652Y-92133818D01*
X114678331Y-92613377D01*
X114417221Y-92855051D01*
X114131760Y-92923195D01*
X113971843Y-92678617D01*
X114011620Y-92476246D01*
X114212929Y-92098825D01*
X114516105Y-91666280D01*
X114850168Y-91269383D01*
X115144134Y-90998903D01*
X115327026Y-90945611D01*
X115381943Y-91193101D01*
G37*
G36*
X113045478Y-88329187D02*
G01*
X113044304Y-88482966D01*
X112805588Y-88715689D01*
X112261546Y-89013258D01*
X111682244Y-89273424D01*
X111309609Y-89375566D01*
X111128012Y-89299843D01*
X111076994Y-89048029D01*
X111136788Y-88855491D01*
X111434381Y-88567259D01*
X111884110Y-88330320D01*
X112375911Y-88184866D01*
X112799721Y-88171092D01*
X113045478Y-88329187D01*
G37*
G36*
X122612827Y-91674424D02*
G01*
X122843577Y-91996891D01*
X123080698Y-92464046D01*
X123276662Y-92962980D01*
X123383938Y-93380780D01*
X123355000Y-93604538D01*
X123187594Y-93699822D01*
X123022183Y-93644335D01*
X122826564Y-93366492D01*
X122546054Y-92812774D01*
X122380007Y-92434572D01*
X122231053Y-91913428D01*
X122274698Y-91624453D01*
X122511905Y-91601682D01*
X122612827Y-91674424D01*
G37*
G36*
X114004866Y-89684484D02*
G01*
X114026277Y-89965748D01*
X113791544Y-90364988D01*
X113326674Y-90825948D01*
X113079673Y-91023364D01*
X112644483Y-91302422D01*
X112385289Y-91326429D01*
X112261140Y-91106153D01*
X112296668Y-90989604D01*
X112529481Y-90684571D01*
X112897891Y-90308436D01*
X113309296Y-89946450D01*
X113671095Y-89683866D01*
X113890687Y-89605934D01*
X114004866Y-89684484D01*
G37*
G36*
X116968073Y-91903401D02*
G01*
X117058751Y-91981002D01*
X117133223Y-92281766D01*
X117028063Y-92817558D01*
X116972988Y-92999519D01*
X116795124Y-93480430D01*
X116640069Y-93769227D01*
X116537960Y-93847295D01*
X116208525Y-93875910D01*
X116166073Y-93855997D01*
X116077583Y-93695932D01*
X116127354Y-93354790D01*
X116322676Y-92761383D01*
X116475837Y-92355956D01*
X116651183Y-91986399D01*
X116799727Y-91856201D01*
X116968073Y-91903401D01*
G37*
G36*
X119768564Y-74302983D02*
G01*
X120151627Y-74536222D01*
X120613234Y-74993553D01*
X120878023Y-75292261D01*
X121177456Y-75562395D01*
X121446661Y-75655787D01*
X121802176Y-75635345D01*
X122165555Y-75616949D01*
X122999647Y-75811487D01*
X123700998Y-76329314D01*
X123844231Y-76478187D01*
X124093614Y-76645564D01*
X124417909Y-76674480D01*
X124953922Y-76593815D01*
X125509999Y-76528633D01*
X126057403Y-76551299D01*
X126408159Y-76669568D01*
X126484960Y-76869517D01*
X126359003Y-76962808D01*
X125963598Y-77108582D01*
X125404133Y-77248422D01*
X124918171Y-77356938D01*
X124567077Y-77485675D01*
X124419358Y-77660355D01*
X124391892Y-77937570D01*
X124362629Y-78319373D01*
X124235106Y-78868975D01*
X124222613Y-78904699D01*
X124182528Y-79216963D01*
X124333770Y-79518759D01*
X124727014Y-79918181D01*
X124755635Y-79944894D01*
X125171612Y-80426237D01*
X125631494Y-81088430D01*
X126040868Y-81796495D01*
X126239592Y-82210435D01*
X126751629Y-83764365D01*
X126923007Y-85338999D01*
X126756881Y-86893479D01*
X126256405Y-88386949D01*
X125424734Y-89778550D01*
X125398393Y-89813587D01*
X124858150Y-90489264D01*
X124428081Y-90890623D01*
X124035421Y-91047657D01*
X123607405Y-90990363D01*
X123071268Y-90748739D01*
X122796995Y-90598637D01*
X122280311Y-90287455D01*
X121931375Y-90039755D01*
X121776978Y-89926840D01*
X121518246Y-89904898D01*
X121184532Y-90149465D01*
X120579257Y-90624770D01*
X119609261Y-91132645D01*
X118645311Y-91370039D01*
X118225641Y-91375102D01*
X117259786Y-91171458D01*
X116374664Y-90713854D01*
X115693596Y-90057142D01*
X115614851Y-89939087D01*
X115323780Y-89361127D01*
X115056404Y-88652031D01*
X114863260Y-87959461D01*
X114794881Y-87431082D01*
X114688449Y-87307354D01*
X114281157Y-87255553D01*
X114067594Y-87243408D01*
X113489865Y-87148150D01*
X112859675Y-86987994D01*
X111956916Y-86713039D01*
X111868238Y-85800474D01*
X111851239Y-85337393D01*
X111892854Y-84530493D01*
X111999366Y-83749001D01*
X112071232Y-83420996D01*
X112598553Y-81981345D01*
X113415275Y-80681867D01*
X114474366Y-79565166D01*
X115728792Y-78673847D01*
X117131519Y-78050515D01*
X118635512Y-77737775D01*
X118649734Y-77736449D01*
X119239507Y-77666022D01*
X119593785Y-77546360D01*
X119831758Y-77305670D01*
X120072618Y-76872160D01*
X120094918Y-76828149D01*
X120309116Y-76339492D01*
X120344563Y-76015059D01*
X120217224Y-75728606D01*
X119885069Y-75216583D01*
X119594777Y-74733696D01*
X119474674Y-74452640D01*
X119504577Y-74320742D01*
X119664307Y-74285320D01*
X119768564Y-74302983D01*
G37*
G36*
X142078225Y-139235796D02*
G01*
X142168570Y-139417232D01*
X142276938Y-139884589D01*
X142330471Y-140441633D01*
X142318221Y-140942856D01*
X142229238Y-141242752D01*
X142092722Y-141332274D01*
X141885993Y-141203245D01*
X141708095Y-140765973D01*
X141575725Y-140050910D01*
X141561406Y-139612581D01*
X141654624Y-139226472D01*
X141838820Y-139081536D01*
X142078225Y-139235796D01*
G37*
G36*
X140059327Y-139236368D02*
G01*
X140187785Y-139530337D01*
X140239871Y-140009939D01*
X140208646Y-140564496D01*
X140087172Y-141083333D01*
X139950625Y-141372168D01*
X139754476Y-141514681D01*
X139598629Y-141326815D01*
X139518441Y-140824651D01*
X139516020Y-140426028D01*
X139590572Y-139792521D01*
X139748798Y-139355137D01*
X139968692Y-139193583D01*
X140059327Y-139236368D01*
G37*
G36*
X136581943Y-138193101D02*
G01*
X136465913Y-138625110D01*
X136217652Y-139133818D01*
X135878331Y-139613377D01*
X135617221Y-139855051D01*
X135331760Y-139923195D01*
X135171843Y-139678617D01*
X135211620Y-139476246D01*
X135412929Y-139098825D01*
X135716105Y-138666280D01*
X136050168Y-138269383D01*
X136344134Y-137998903D01*
X136527026Y-137945611D01*
X136581943Y-138193101D01*
G37*
G36*
X134245478Y-135329187D02*
G01*
X134244304Y-135482966D01*
X134005588Y-135715689D01*
X133461546Y-136013258D01*
X132882244Y-136273424D01*
X132509609Y-136375566D01*
X132328012Y-136299843D01*
X132276994Y-136048029D01*
X132336788Y-135855491D01*
X132634381Y-135567259D01*
X133084110Y-135330320D01*
X133575911Y-135184866D01*
X133999721Y-135171092D01*
X134245478Y-135329187D01*
G37*
G36*
X143812827Y-138674424D02*
G01*
X144043577Y-138996891D01*
X144280698Y-139464046D01*
X144476662Y-139962980D01*
X144583938Y-140380780D01*
X144555000Y-140604538D01*
X144387594Y-140699822D01*
X144222183Y-140644335D01*
X144026564Y-140366492D01*
X143746054Y-139812774D01*
X143580007Y-139434572D01*
X143431053Y-138913428D01*
X143474698Y-138624453D01*
X143711905Y-138601682D01*
X143812827Y-138674424D01*
G37*
G36*
X135204866Y-136684484D02*
G01*
X135226277Y-136965748D01*
X134991544Y-137364988D01*
X134526674Y-137825948D01*
X134279673Y-138023364D01*
X133844483Y-138302422D01*
X133585289Y-138326429D01*
X133461140Y-138106153D01*
X133496668Y-137989604D01*
X133729481Y-137684571D01*
X134097891Y-137308436D01*
X134509296Y-136946450D01*
X134871095Y-136683866D01*
X135090687Y-136605934D01*
X135204866Y-136684484D01*
G37*
G36*
X138168073Y-138903401D02*
G01*
X138258751Y-138981002D01*
X138333223Y-139281766D01*
X138228063Y-139817558D01*
X138172988Y-139999519D01*
X137995124Y-140480430D01*
X137840069Y-140769227D01*
X137737960Y-140847295D01*
X137408525Y-140875910D01*
X137366073Y-140855997D01*
X137277583Y-140695932D01*
X137327354Y-140354790D01*
X137522676Y-139761383D01*
X137675837Y-139355956D01*
X137851183Y-138986399D01*
X137999727Y-138856201D01*
X138168073Y-138903401D01*
G37*
G36*
X140968564Y-121302983D02*
G01*
X141351627Y-121536222D01*
X141813234Y-121993553D01*
X142078023Y-122292261D01*
X142377456Y-122562395D01*
X142646661Y-122655787D01*
X143002176Y-122635345D01*
X143365555Y-122616949D01*
X144199647Y-122811487D01*
X144900998Y-123329314D01*
X145044231Y-123478187D01*
X145293614Y-123645564D01*
X145617909Y-123674480D01*
X146153922Y-123593815D01*
X146709999Y-123528633D01*
X147257403Y-123551299D01*
X147608159Y-123669568D01*
X147684960Y-123869517D01*
X147559003Y-123962808D01*
X147163598Y-124108582D01*
X146604133Y-124248422D01*
X146118171Y-124356938D01*
X145767077Y-124485675D01*
X145619358Y-124660355D01*
X145591892Y-124937570D01*
X145562629Y-125319373D01*
X145435106Y-125868975D01*
X145422613Y-125904699D01*
X145382528Y-126216963D01*
X145533770Y-126518759D01*
X145927014Y-126918181D01*
X145955635Y-126944894D01*
X146371612Y-127426237D01*
X146831494Y-128088430D01*
X147240868Y-128796495D01*
X147439592Y-129210435D01*
X147951629Y-130764365D01*
X148123007Y-132338999D01*
X147956881Y-133893479D01*
X147456405Y-135386949D01*
X146624734Y-136778550D01*
X146598393Y-136813587D01*
X146058150Y-137489264D01*
X145628081Y-137890623D01*
X145235421Y-138047657D01*
X144807405Y-137990363D01*
X144271268Y-137748739D01*
X143996995Y-137598637D01*
X143480311Y-137287455D01*
X143131375Y-137039755D01*
X142976978Y-136926840D01*
X142718246Y-136904898D01*
X142384532Y-137149465D01*
X141779257Y-137624770D01*
X140809261Y-138132645D01*
X139845311Y-138370039D01*
X139425641Y-138375102D01*
X138459786Y-138171458D01*
X137574664Y-137713854D01*
X136893596Y-137057142D01*
X136814851Y-136939087D01*
X136523780Y-136361127D01*
X136256404Y-135652031D01*
X136063260Y-134959461D01*
X135994881Y-134431082D01*
X135888449Y-134307354D01*
X135481157Y-134255553D01*
X135267594Y-134243408D01*
X134689865Y-134148150D01*
X134059675Y-133987994D01*
X133156916Y-133713039D01*
X133068238Y-132800474D01*
X133051239Y-132337393D01*
X133092854Y-131530493D01*
X133199366Y-130749001D01*
X133271232Y-130420996D01*
X133798553Y-128981345D01*
X134615275Y-127681867D01*
X135674366Y-126565166D01*
X136928792Y-125673847D01*
X138331519Y-125050515D01*
X139835512Y-124737775D01*
X139849734Y-124736449D01*
X140439507Y-124666022D01*
X140793785Y-124546360D01*
X141031758Y-124305670D01*
X141272618Y-123872160D01*
X141294918Y-123828149D01*
X141509116Y-123339492D01*
X141544563Y-123015059D01*
X141417224Y-122728606D01*
X141085069Y-122216583D01*
X140794777Y-121733696D01*
X140674674Y-121452640D01*
X140704577Y-121320742D01*
X140864307Y-121285320D01*
X140968564Y-121302983D01*
G37*
%TO.C,B1*%
G36*
X153809043Y-106824651D02*
G01*
X153955994Y-106964246D01*
X154217672Y-107366354D01*
X154458497Y-107871494D01*
X154618414Y-108346680D01*
X154637368Y-108658924D01*
X154539703Y-108789738D01*
X154301311Y-108739196D01*
X153984586Y-108389139D01*
X153615633Y-107762473D01*
X153452260Y-107355476D01*
X153407799Y-106960770D01*
X153531316Y-106761576D01*
X153809043Y-106824651D01*
G37*
G36*
X151912095Y-107515693D02*
G01*
X152133349Y-107747998D01*
X152346328Y-108180862D01*
X152506656Y-108712655D01*
X152569960Y-109241748D01*
X152540435Y-109559867D01*
X152404858Y-109760872D01*
X152194155Y-109637638D01*
X151947053Y-109193185D01*
X151808441Y-108819429D01*
X151661825Y-108198629D01*
X151660914Y-107733506D01*
X151812293Y-107506487D01*
X151912095Y-107515693D01*
G37*
G36*
X148287605Y-107724678D02*
G01*
X148326328Y-108170318D01*
X148267027Y-108733258D01*
X148112189Y-109299950D01*
X147949483Y-109616354D01*
X147704544Y-109778022D01*
X147470620Y-109602889D01*
X147438784Y-109399118D01*
X147498867Y-108975606D01*
X147635820Y-108465454D01*
X147813989Y-107978237D01*
X147997718Y-107623527D01*
X148151353Y-107510896D01*
X148287605Y-107724678D01*
G37*
G36*
X145112529Y-105832597D02*
G01*
X145164022Y-105977503D01*
X145019298Y-106277837D01*
X144609840Y-106743534D01*
X144154457Y-107186143D01*
X143839229Y-107409574D01*
X143642685Y-107400527D01*
X143508618Y-107181349D01*
X143498954Y-106979971D01*
X143680019Y-106607339D01*
X144021588Y-106230873D01*
X144433982Y-105925985D01*
X144827522Y-105768090D01*
X145112529Y-105832597D01*
G37*
G36*
X155247035Y-105703865D02*
G01*
X155574159Y-105927964D01*
X155956757Y-106285846D01*
X156311548Y-106687667D01*
X156555251Y-107043580D01*
X156604587Y-107263741D01*
X156479866Y-107410535D01*
X156305453Y-107414968D01*
X156026604Y-107220787D01*
X155573628Y-106796402D01*
X155288242Y-106497800D01*
X154970029Y-106059030D01*
X154912207Y-105772555D01*
X155127320Y-105670028D01*
X155247035Y-105703865D01*
G37*
G36*
X146477598Y-106778030D02*
G01*
X146593916Y-107035008D01*
X146509887Y-107490455D01*
X146230710Y-108082610D01*
X146066125Y-108352600D01*
X145752624Y-108763672D01*
X145517272Y-108874881D01*
X145325271Y-108710351D01*
X145318794Y-108588679D01*
X145433240Y-108222415D01*
X145650786Y-107742960D01*
X145913574Y-107262096D01*
X146163744Y-106891605D01*
X146343439Y-106743268D01*
X146477598Y-106778030D01*
G37*
G36*
X150132767Y-107891560D02*
G01*
X150305615Y-108148715D01*
X150390048Y-108688162D01*
X150400529Y-108877986D01*
X150397873Y-109390728D01*
X150350943Y-109715140D01*
X150281693Y-109823423D01*
X149981912Y-109962986D01*
X149935210Y-109958793D01*
X149797311Y-109838647D01*
X149727403Y-109501055D01*
X149707988Y-108876631D01*
X149713248Y-108443270D01*
X149751624Y-108036028D01*
X149846679Y-107862877D01*
X150021016Y-107849653D01*
X150132767Y-107891560D01*
G37*
G36*
X153822073Y-90467456D02*
G01*
X153735620Y-90598201D01*
X153413918Y-90870420D01*
X152936022Y-91193175D01*
X152516481Y-91461355D01*
X152230591Y-91702410D01*
X152151525Y-91917078D01*
X152220529Y-92186969D01*
X152323615Y-92555755D01*
X152391757Y-93115828D01*
X152392236Y-93153670D01*
X152461369Y-93460812D01*
X152706710Y-93692680D01*
X153212849Y-93933516D01*
X153248880Y-93948829D01*
X153804400Y-94258871D01*
X154463031Y-94723840D01*
X155089889Y-95249189D01*
X155418204Y-95570198D01*
X156430837Y-96855288D01*
X157130436Y-98276345D01*
X157505993Y-99793897D01*
X157546496Y-101368472D01*
X157240936Y-102960598D01*
X157228167Y-103002531D01*
X156951600Y-103822234D01*
X156684740Y-104346480D01*
X156369469Y-104628341D01*
X155947670Y-104720893D01*
X155361226Y-104677210D01*
X155052156Y-104629967D01*
X154460201Y-104514268D01*
X154047590Y-104400849D01*
X153863885Y-104347551D01*
X153613252Y-104415424D01*
X153383310Y-104759378D01*
X152977102Y-105413035D01*
X152239307Y-106222040D01*
X151414684Y-106774807D01*
X151022055Y-106923101D01*
X150044797Y-107062080D01*
X149056545Y-106934802D01*
X148191942Y-106550634D01*
X148077569Y-106466631D01*
X147606377Y-106023078D01*
X147112601Y-105448194D01*
X146694232Y-104863450D01*
X146449260Y-104390323D01*
X146306930Y-104310459D01*
X145906483Y-104401084D01*
X145701646Y-104462714D01*
X145126178Y-104570796D01*
X144479217Y-104635836D01*
X143536861Y-104686225D01*
X143141415Y-103859024D01*
X142967058Y-103429684D01*
X142730187Y-102657213D01*
X142562990Y-101886421D01*
X142518338Y-101553618D01*
X142521467Y-100020434D01*
X142844487Y-98519989D01*
X143457773Y-97108403D01*
X144331699Y-95841798D01*
X145436639Y-94776297D01*
X146742967Y-93968021D01*
X146755878Y-93961911D01*
X147285996Y-93694017D01*
X147577981Y-93460401D01*
X147719282Y-93152835D01*
X147797347Y-92663090D01*
X147803250Y-92614106D01*
X147837399Y-92081659D01*
X147759746Y-91764668D01*
X147542114Y-91539042D01*
X147054868Y-91171502D01*
X146616926Y-90817022D01*
X146407939Y-90593994D01*
X146390927Y-90459822D01*
X146528909Y-90371906D01*
X146632920Y-90352846D01*
X147072653Y-90441004D01*
X147662838Y-90712875D01*
X148013823Y-90903006D01*
X148387589Y-91054437D01*
X148672501Y-91050123D01*
X148999584Y-90909320D01*
X149334757Y-90767751D01*
X150185083Y-90665280D01*
X151021245Y-90912002D01*
X151206757Y-91002909D01*
X151498347Y-91074898D01*
X151812974Y-90991154D01*
X152289073Y-90732027D01*
X152789321Y-90480586D01*
X153311464Y-90314662D01*
X153681518Y-90305833D01*
X153822073Y-90467456D01*
G37*
%TD*%
D11*
%TO.C,D1*%
X160000000Y-118500000D03*
%TD*%
D12*
%TO.C,B1*%
X144642685Y-102400527D03*
%TD*%
M02*
