%TF.GenerationSoftware,KiCad,Pcbnew,7.0.11*%
%TF.CreationDate,2025-03-11T10:56:17-07:00*%
%TF.ProjectId,nightLight,6e696768-744c-4696-9768-742e6b696361,rev?*%
%TF.SameCoordinates,Original*%
%TF.FileFunction,Paste,Top*%
%TF.FilePolarity,Positive*%
%FSLAX46Y46*%
G04 Gerber Fmt 4.6, Leading zero omitted, Abs format (unit mm)*
G04 Created by KiCad (PCBNEW 7.0.11) date 2025-03-11 10:56:17*
%MOMM*%
%LPD*%
G01*
G04 APERTURE LIST*
G04 Aperture macros list*
%AMRoundRect*
0 Rectangle with rounded corners*
0 $1 Rounding radius*
0 $2 $3 $4 $5 $6 $7 $8 $9 X,Y pos of 4 corners*
0 Add a 4 corners polygon primitive as box body*
4,1,4,$2,$3,$4,$5,$6,$7,$8,$9,$2,$3,0*
0 Add four circle primitives for the rounded corners*
1,1,$1+$1,$2,$3*
1,1,$1+$1,$4,$5*
1,1,$1+$1,$6,$7*
1,1,$1+$1,$8,$9*
0 Add four rect primitives between the rounded corners*
20,1,$1+$1,$2,$3,$4,$5,0*
20,1,$1+$1,$4,$5,$6,$7,0*
20,1,$1+$1,$6,$7,$8,$9,0*
20,1,$1+$1,$8,$9,$2,$3,0*%
G04 Aperture macros list end*
%ADD10R,1.250000X1.080000*%
%ADD11R,1.000000X0.700000*%
%ADD12RoundRect,0.250000X-0.650000X0.325000X-0.650000X-0.325000X0.650000X-0.325000X0.650000X0.325000X0*%
%ADD13RoundRect,0.250000X0.312500X0.625000X-0.312500X0.625000X-0.312500X-0.625000X0.312500X-0.625000X0*%
%ADD14RoundRect,0.250000X-0.312500X-0.625000X0.312500X-0.625000X0.312500X0.625000X-0.312500X0.625000X0*%
%ADD15RoundRect,0.250000X0.325000X0.650000X-0.325000X0.650000X-0.325000X-0.650000X0.325000X-0.650000X0*%
%ADD16R,2.500000X1.150000*%
%ADD17RoundRect,0.150000X0.825000X0.150000X-0.825000X0.150000X-0.825000X-0.150000X0.825000X-0.150000X0*%
%ADD18RoundRect,0.250000X0.625000X-0.312500X0.625000X0.312500X-0.625000X0.312500X-0.625000X-0.312500X0*%
%ADD19R,1.000000X2.510000*%
%ADD20RoundRect,0.250000X-0.625000X0.312500X-0.625000X-0.312500X0.625000X-0.312500X0.625000X0.312500X0*%
%ADD21R,1.425000X0.450000*%
%ADD22R,1.900000X1.000000*%
%ADD23RoundRect,0.150000X-0.512500X-0.150000X0.512500X-0.150000X0.512500X0.150000X-0.512500X0.150000X0*%
%ADD24R,1.000000X3.150000*%
%ADD25RoundRect,1.250000X-1.250000X-1.250000X1.250000X-1.250000X1.250000X1.250000X-1.250000X1.250000X0*%
%ADD26RoundRect,0.250000X-0.325000X-0.650000X0.325000X-0.650000X0.325000X0.650000X-0.325000X0.650000X0*%
%ADD27RoundRect,0.381000X-0.762000X-0.381000X0.762000X-0.381000X0.762000X0.381000X-0.762000X0.381000X0*%
G04 APERTURE END LIST*
D10*
%TO.C,LED1*%
X160400000Y-137560000D03*
X160400000Y-134440000D03*
%TD*%
D11*
%TO.C,RST*%
X114000000Y-91150000D03*
X120000000Y-91150000D03*
X114000000Y-94850000D03*
X120000000Y-94850000D03*
%TD*%
D12*
%TO.C,C6*%
X139000000Y-105525000D03*
X139000000Y-108475000D03*
%TD*%
D13*
%TO.C,R9*%
X153962500Y-107000000D03*
X151037500Y-107000000D03*
%TD*%
D14*
%TO.C,R2*%
X159137500Y-130800000D03*
X162062500Y-130800000D03*
%TD*%
%TO.C,R4*%
X161537500Y-128000000D03*
X164462500Y-128000000D03*
%TD*%
D15*
%TO.C,C1*%
X168475000Y-94500000D03*
X165525000Y-94500000D03*
%TD*%
D16*
%TO.C,L1*%
X167000000Y-102075000D03*
X167000000Y-103925000D03*
%TD*%
D14*
%TO.C,R1*%
X172537500Y-103000000D03*
X175462500Y-103000000D03*
%TD*%
%TO.C,R10*%
X151037500Y-104000000D03*
X153962500Y-104000000D03*
%TD*%
D13*
%TO.C,R12*%
X143712500Y-95500000D03*
X140787500Y-95500000D03*
%TD*%
D15*
%TO.C,C4*%
X180750000Y-107050000D03*
X177800000Y-107050000D03*
%TD*%
D17*
%TO.C,U2*%
X136475000Y-101810000D03*
X136475000Y-100540000D03*
X136475000Y-99270000D03*
X136475000Y-98000000D03*
X136475000Y-96730000D03*
X136475000Y-95460000D03*
X136475000Y-94190000D03*
X131525000Y-94190000D03*
X131525000Y-95460000D03*
X131525000Y-96730000D03*
X131525000Y-98000000D03*
X131525000Y-99270000D03*
X131525000Y-100540000D03*
X131525000Y-101810000D03*
%TD*%
D18*
%TO.C,R11*%
X114000000Y-100462500D03*
X114000000Y-97537500D03*
%TD*%
D14*
%TO.C,R6*%
X183812500Y-110050000D03*
X186737500Y-110050000D03*
%TD*%
D18*
%TO.C,R5*%
X185775000Y-103012500D03*
X185775000Y-100087500D03*
%TD*%
D19*
%TO.C,J2*%
X132460000Y-133905000D03*
X135000000Y-130595000D03*
X137540000Y-133905000D03*
%TD*%
D20*
%TO.C,R7*%
X156200000Y-94350000D03*
X156200000Y-97312500D03*
%TD*%
D21*
%TO.C,IC1*%
X163212000Y-97975000D03*
X163212000Y-97325000D03*
X163212000Y-96675000D03*
X163212000Y-96025000D03*
X158788000Y-96025000D03*
X158788000Y-96675000D03*
X158788000Y-97325000D03*
X158788000Y-97975000D03*
%TD*%
D22*
%TO.C,J6*%
X123850000Y-88920000D03*
X127150000Y-91460000D03*
X123850000Y-94000000D03*
X127150000Y-96540000D03*
X123850000Y-99080000D03*
%TD*%
D19*
%TO.C,J3*%
X120460000Y-79655000D03*
X123000000Y-76345000D03*
X125540000Y-79655000D03*
%TD*%
D12*
%TO.C,C3*%
X153250000Y-97275000D03*
X153250000Y-100225000D03*
%TD*%
D23*
%TO.C,U1*%
X181000000Y-103050000D03*
X181000000Y-104000000D03*
X181000000Y-104950000D03*
X183275000Y-104950000D03*
X183275000Y-103050000D03*
%TD*%
D24*
%TO.C,SW1*%
X140750000Y-90275000D03*
X140750000Y-85225000D03*
%TD*%
D12*
%TO.C,C5*%
X150250000Y-97275000D03*
X150250000Y-100225000D03*
%TD*%
D25*
%TO.C,BT1*%
X180480000Y-118000000D03*
X119520000Y-118000000D03*
%TD*%
D19*
%TO.C,J5*%
X126460000Y-107905000D03*
X129000000Y-104595000D03*
X131540000Y-107905000D03*
%TD*%
%TO.C,J4*%
X175460000Y-79655000D03*
X178000000Y-76345000D03*
X180540000Y-79655000D03*
%TD*%
D14*
%TO.C,R13*%
X140787500Y-99500000D03*
X143712500Y-99500000D03*
%TD*%
D26*
%TO.C,C2*%
X183800000Y-107050000D03*
X186750000Y-107050000D03*
%TD*%
D27*
%TO.C,J1*%
X148500000Y-131000000D03*
X145500000Y-131000000D03*
X154500000Y-131000000D03*
X151500000Y-131000000D03*
%TD*%
D13*
%TO.C,R3*%
X168442500Y-99000000D03*
X165517500Y-99000000D03*
%TD*%
D12*
%TO.C,C7*%
X136600000Y-105525000D03*
X136600000Y-108475000D03*
%TD*%
D13*
%TO.C,R8*%
X159462500Y-92000000D03*
X156537500Y-92000000D03*
%TD*%
M02*
