%TF.GenerationSoftware,KiCad,Pcbnew,7.0.11*%
%TF.CreationDate,2024-08-27T07:46:35-07:00*%
%TF.ProjectId,nightLight,6e696768-744c-4696-9768-742e6b696361,rev?*%
%TF.SameCoordinates,Original*%
%TF.FileFunction,Legend,Bot*%
%TF.FilePolarity,Positive*%
%FSLAX46Y46*%
G04 Gerber Fmt 4.6, Leading zero omitted, Abs format (unit mm)*
G04 Created by KiCad (PCBNEW 7.0.11) date 2024-08-27 07:46:35*
%MOMM*%
%LPD*%
G01*
G04 APERTURE LIST*
G04 APERTURE END LIST*
%TO.C,REF\u002A\u002A*%
G36*
X178542856Y-127681780D02*
G01*
X178842752Y-127770763D01*
X178932274Y-127907279D01*
X178803245Y-128114008D01*
X178365973Y-128291906D01*
X177650910Y-128424276D01*
X177212581Y-128438595D01*
X176826472Y-128345377D01*
X176681536Y-128161181D01*
X176835796Y-127921776D01*
X177017232Y-127831431D01*
X177484589Y-127723063D01*
X178041633Y-127669530D01*
X178542856Y-127681780D01*
G37*
G36*
X178164496Y-129791355D02*
G01*
X178683333Y-129912829D01*
X178972168Y-130049376D01*
X179114681Y-130245525D01*
X178926815Y-130401372D01*
X178424651Y-130481560D01*
X178026028Y-130483981D01*
X177392521Y-130409429D01*
X176955137Y-130251203D01*
X176793583Y-130031309D01*
X176836368Y-129940674D01*
X177130337Y-129812216D01*
X177609939Y-129760130D01*
X178164496Y-129791355D01*
G37*
G36*
X176225110Y-133534088D02*
G01*
X176733818Y-133782349D01*
X177213377Y-134121670D01*
X177455051Y-134382780D01*
X177523195Y-134668241D01*
X177278617Y-134828158D01*
X177076246Y-134788381D01*
X176698825Y-134587072D01*
X176266280Y-134283896D01*
X175869383Y-133949833D01*
X175598903Y-133655867D01*
X175545611Y-133472975D01*
X175793101Y-133418058D01*
X176225110Y-133534088D01*
G37*
G36*
X173082966Y-135755697D02*
G01*
X173315689Y-135994413D01*
X173613258Y-136538455D01*
X173873424Y-137117757D01*
X173975566Y-137490392D01*
X173899843Y-137671989D01*
X173648029Y-137723007D01*
X173455491Y-137663213D01*
X173167259Y-137365620D01*
X172930320Y-136915891D01*
X172784866Y-136424090D01*
X172771092Y-136000280D01*
X172929187Y-135754523D01*
X173082966Y-135755697D01*
G37*
G36*
X178204538Y-125445001D02*
G01*
X178299822Y-125612407D01*
X178244335Y-125777818D01*
X177966492Y-125973437D01*
X177412774Y-126253947D01*
X177034572Y-126419994D01*
X176513428Y-126568948D01*
X176224453Y-126525303D01*
X176201682Y-126288096D01*
X176274424Y-126187174D01*
X176596891Y-125956424D01*
X177064046Y-125719303D01*
X177562980Y-125523339D01*
X177980780Y-125416063D01*
X178204538Y-125445001D01*
G37*
G36*
X174964988Y-135008457D02*
G01*
X175425948Y-135473327D01*
X175623364Y-135720328D01*
X175902422Y-136155518D01*
X175926429Y-136414712D01*
X175706153Y-136538861D01*
X175589604Y-136503333D01*
X175284571Y-136270520D01*
X174908436Y-135902110D01*
X174546450Y-135490705D01*
X174283866Y-135128906D01*
X174205934Y-134909314D01*
X174284484Y-134795135D01*
X174565748Y-134773724D01*
X174964988Y-135008457D01*
G37*
G36*
X177417558Y-131771938D02*
G01*
X177599519Y-131827013D01*
X178080430Y-132004877D01*
X178369227Y-132159932D01*
X178447295Y-132262041D01*
X178475910Y-132591476D01*
X178455997Y-132633928D01*
X178295932Y-132722418D01*
X177954790Y-132672647D01*
X177361383Y-132477325D01*
X176955956Y-132324164D01*
X176586399Y-132148818D01*
X176456201Y-132000274D01*
X176503401Y-131831928D01*
X176581002Y-131741250D01*
X176881766Y-131666778D01*
X177417558Y-131771938D01*
G37*
G36*
X171493479Y-122043120D02*
G01*
X172982164Y-122541993D01*
X172986949Y-122543596D01*
X174378550Y-123375267D01*
X174413587Y-123401608D01*
X175089264Y-123941851D01*
X175490623Y-124371920D01*
X175647657Y-124764580D01*
X175590363Y-125192596D01*
X175348739Y-125728733D01*
X175198637Y-126003006D01*
X174887455Y-126519690D01*
X174639755Y-126868626D01*
X174526840Y-127023023D01*
X174504898Y-127281755D01*
X174749465Y-127615469D01*
X175224770Y-128220744D01*
X175288559Y-128342575D01*
X175732645Y-129190740D01*
X175970039Y-130154690D01*
X175975102Y-130574360D01*
X175771458Y-131540215D01*
X175313854Y-132425337D01*
X174657142Y-133106405D01*
X174539087Y-133185150D01*
X173961127Y-133476221D01*
X173252031Y-133743597D01*
X172559461Y-133936741D01*
X172031082Y-134005120D01*
X171907354Y-134111552D01*
X171855553Y-134518844D01*
X171843408Y-134732407D01*
X171748150Y-135310136D01*
X171587994Y-135940326D01*
X171313039Y-136843085D01*
X170400474Y-136931763D01*
X169937393Y-136948762D01*
X169130493Y-136907147D01*
X168349001Y-136800635D01*
X168020996Y-136728769D01*
X166581345Y-136201448D01*
X165281867Y-135384726D01*
X164165166Y-134325635D01*
X163273847Y-133071209D01*
X162650515Y-131668482D01*
X162337775Y-130164489D01*
X162336449Y-130150267D01*
X162274578Y-129632140D01*
X163008455Y-129632140D01*
X163013410Y-129793178D01*
X163197185Y-130904571D01*
X163604634Y-132077165D01*
X164180803Y-133179682D01*
X164870739Y-134080845D01*
X165193060Y-134389402D01*
X166298501Y-135183382D01*
X167569854Y-135789024D01*
X168899236Y-136162074D01*
X170178772Y-136258280D01*
X170464979Y-136239165D01*
X170750077Y-136161699D01*
X170917300Y-135957274D01*
X171017038Y-135549478D01*
X171099685Y-134861900D01*
X171139067Y-134264186D01*
X171043668Y-132845062D01*
X170955993Y-132511449D01*
X171873553Y-132511449D01*
X171907678Y-132982478D01*
X172028364Y-133198291D01*
X172181488Y-133242861D01*
X172529573Y-133215079D01*
X172743213Y-132915001D01*
X172818481Y-132519242D01*
X173566785Y-132519242D01*
X173672123Y-132771125D01*
X173957724Y-132714226D01*
X174423846Y-132348578D01*
X174453626Y-132320090D01*
X174856667Y-131822316D01*
X175141972Y-131288820D01*
X175198221Y-131081465D01*
X175246907Y-130548246D01*
X175210732Y-129991179D01*
X175102818Y-129536497D01*
X174936289Y-129310428D01*
X174781929Y-129358185D01*
X174526648Y-129668406D01*
X174243910Y-130188119D01*
X173969465Y-130839889D01*
X173739065Y-131546280D01*
X173588459Y-132229852D01*
X173566785Y-132519242D01*
X172818481Y-132519242D01*
X172859718Y-132302421D01*
X172959089Y-131776574D01*
X173183825Y-131016307D01*
X173476279Y-130260192D01*
X173485462Y-130239529D01*
X173783623Y-129602313D01*
X174060307Y-129066529D01*
X174256703Y-128746260D01*
X174391335Y-128449420D01*
X174233244Y-128119074D01*
X174046042Y-127924149D01*
X173870116Y-127780256D01*
X173761339Y-127826636D01*
X173504677Y-128109637D01*
X173176557Y-128574702D01*
X172829174Y-129140514D01*
X172514723Y-129725757D01*
X172285402Y-130249113D01*
X172212231Y-130465622D01*
X172033661Y-131163167D01*
X171918158Y-131875061D01*
X171873553Y-132511449D01*
X170955993Y-132511449D01*
X170696877Y-131525490D01*
X170119608Y-130400666D01*
X169754712Y-129870665D01*
X168572021Y-129856190D01*
X167462197Y-129749675D01*
X167102735Y-129653230D01*
X170606337Y-129653230D01*
X170668678Y-129912783D01*
X170836853Y-130265722D01*
X171054879Y-130579742D01*
X171157283Y-130679913D01*
X171289836Y-130695210D01*
X171427128Y-130480703D01*
X171621570Y-129981015D01*
X171940278Y-129105372D01*
X171329727Y-129344625D01*
X171241176Y-129379144D01*
X170842689Y-129529527D01*
X170639385Y-129597824D01*
X170606337Y-129653230D01*
X167102735Y-129653230D01*
X166030526Y-129365552D01*
X164692271Y-128744614D01*
X163563696Y-127931539D01*
X163544439Y-127914925D01*
X163315609Y-127878665D01*
X163144501Y-128169630D01*
X163039365Y-128762546D01*
X163008455Y-129632140D01*
X162274578Y-129632140D01*
X162266022Y-129560494D01*
X162146360Y-129206216D01*
X161905670Y-128968243D01*
X161472160Y-128727383D01*
X161428149Y-128705083D01*
X160939492Y-128490885D01*
X160615059Y-128455438D01*
X160328606Y-128582777D01*
X159816583Y-128914932D01*
X159333696Y-129205224D01*
X159052640Y-129325327D01*
X158920742Y-129295424D01*
X158885320Y-129135694D01*
X158902983Y-129031437D01*
X159136222Y-128648374D01*
X159593553Y-128186767D01*
X159892261Y-127921978D01*
X160162395Y-127622545D01*
X160255787Y-127353340D01*
X160235345Y-126997825D01*
X160219193Y-126678781D01*
X160959639Y-126678781D01*
X161094736Y-127295845D01*
X161391102Y-127829432D01*
X161796655Y-128144699D01*
X162249953Y-128309686D01*
X162655054Y-127196679D01*
X163783574Y-127196679D01*
X164365061Y-127691019D01*
X164796025Y-127983871D01*
X165493327Y-128344529D01*
X166291235Y-128674784D01*
X166366702Y-128701843D01*
X167123538Y-128936028D01*
X167842759Y-129102084D01*
X168377936Y-129165574D01*
X169119952Y-129166937D01*
X168636055Y-128717895D01*
X168571945Y-128663078D01*
X168064459Y-128348940D01*
X167336754Y-128008528D01*
X166495970Y-127680836D01*
X165649244Y-127404856D01*
X164903716Y-127219580D01*
X164366526Y-127164003D01*
X163783574Y-127196679D01*
X162655054Y-127196679D01*
X162805583Y-126783105D01*
X162919782Y-126469347D01*
X163619441Y-126469347D01*
X164735761Y-126522226D01*
X166269772Y-126766815D01*
X166759375Y-126957136D01*
X167756815Y-127344866D01*
X169117872Y-128230530D01*
X170071360Y-129000680D01*
X170147613Y-129062270D01*
X171554274Y-128389262D01*
X172000546Y-128164373D01*
X172366457Y-127934456D01*
X172944752Y-127571088D01*
X173635245Y-126924050D01*
X173894596Y-126605549D01*
X174340719Y-126003044D01*
X174672812Y-125488301D01*
X174768796Y-125311152D01*
X174840838Y-125178191D01*
X174917564Y-124889807D01*
X174786420Y-124639765D01*
X174417985Y-124289681D01*
X173815388Y-123830378D01*
X172728027Y-123240229D01*
X171538026Y-122810565D01*
X170394881Y-122604024D01*
X169205409Y-122612280D01*
X167698616Y-122912157D01*
X166334126Y-123532605D01*
X165137570Y-124461010D01*
X164134573Y-125684765D01*
X163619441Y-126469347D01*
X162919782Y-126469347D01*
X163361212Y-125256526D01*
X162815403Y-125168476D01*
X162609425Y-125151771D01*
X161952914Y-125283900D01*
X161380635Y-125639626D01*
X161024932Y-126146647D01*
X160959639Y-126678781D01*
X160219193Y-126678781D01*
X160216949Y-126634446D01*
X160411487Y-125800354D01*
X160929314Y-125099003D01*
X161078187Y-124955770D01*
X161245564Y-124706387D01*
X161274480Y-124382092D01*
X161193815Y-123846079D01*
X161128633Y-123290002D01*
X161151299Y-122742598D01*
X161269568Y-122391842D01*
X161469517Y-122315041D01*
X161562808Y-122440998D01*
X161708582Y-122836403D01*
X161848422Y-123395868D01*
X161956938Y-123881830D01*
X162085675Y-124232924D01*
X162260355Y-124380643D01*
X162537570Y-124408109D01*
X162919373Y-124437372D01*
X163468975Y-124564895D01*
X163504699Y-124577388D01*
X163603769Y-124590106D01*
X163816963Y-124617473D01*
X164118759Y-124466231D01*
X164518181Y-124072987D01*
X164544894Y-124044366D01*
X165026237Y-123628389D01*
X165688430Y-123168507D01*
X166396495Y-122759133D01*
X166810435Y-122560409D01*
X168364365Y-122048372D01*
X169938999Y-121876994D01*
X171493479Y-122043120D01*
G37*
G36*
X181569106Y-79188853D02*
G01*
X181952532Y-79477212D01*
X182351601Y-79869521D01*
X182664397Y-80261355D01*
X182789002Y-80548286D01*
X182741968Y-80704614D01*
X182500666Y-80738655D01*
X182083315Y-80518036D01*
X181522281Y-80055351D01*
X181229559Y-79728776D01*
X181052782Y-79373080D01*
X181100722Y-79143654D01*
X181383273Y-79107937D01*
X181569106Y-79188853D01*
G37*
G36*
X180124439Y-80548720D02*
G01*
X180472622Y-80882636D01*
X180805164Y-81327523D01*
X181045611Y-81803056D01*
X181126670Y-82112089D01*
X181068017Y-82347342D01*
X180827872Y-82303604D01*
X180443661Y-81970469D01*
X180185576Y-81666661D01*
X179835476Y-81133446D01*
X179675538Y-80696685D01*
X179740143Y-80431582D01*
X179837075Y-80406098D01*
X180124439Y-80548720D01*
G37*
G36*
X176502645Y-81842129D02*
G01*
X176691451Y-82247649D01*
X176828263Y-82796922D01*
X176876583Y-83382396D01*
X176831906Y-83735367D01*
X176657032Y-83971059D01*
X176377317Y-83886495D01*
X176277707Y-83705901D01*
X176189317Y-83287381D01*
X176143528Y-82761154D01*
X176144314Y-82242382D01*
X176195645Y-81846225D01*
X176301493Y-81687840D01*
X176502645Y-81842129D01*
G37*
G36*
X172969868Y-81268650D02*
G01*
X172936593Y-81600370D01*
X172711106Y-82178025D01*
X172434567Y-82749691D01*
X172214767Y-83067462D01*
X172026982Y-83126183D01*
X171826037Y-82966076D01*
X171748081Y-82780148D01*
X171790778Y-82368061D01*
X171982989Y-81897475D01*
X172266235Y-81469927D01*
X172582038Y-81186955D01*
X172871920Y-81150094D01*
X172969868Y-81268650D01*
G37*
G36*
X182735254Y-77661622D02*
G01*
X183217181Y-77867064D01*
X183688007Y-78123307D01*
X184038742Y-78374404D01*
X184160402Y-78564414D01*
X184093409Y-78745013D01*
X183931031Y-78808831D01*
X183602585Y-78721732D01*
X183031778Y-78477868D01*
X182661475Y-78294882D01*
X182212385Y-77991408D01*
X182060070Y-77741986D01*
X182227143Y-77572069D01*
X182351212Y-77562920D01*
X182735254Y-77661622D01*
G37*
G36*
X174675217Y-81773327D02*
G01*
X174752028Y-82230046D01*
X174692216Y-82881974D01*
X174629899Y-83191973D01*
X174475899Y-83685478D01*
X174292776Y-83870476D01*
X174056082Y-83781536D01*
X174008381Y-83669417D01*
X173990656Y-83286099D01*
X174031099Y-82761153D01*
X174113574Y-82219410D01*
X174221941Y-81785699D01*
X174340065Y-81584849D01*
X174478022Y-81571629D01*
X174675217Y-81773327D01*
G37*
G36*
X178293607Y-81367864D02*
G01*
X178543984Y-81550393D01*
X178807826Y-82028430D01*
X178882599Y-82203221D01*
X179055471Y-82685949D01*
X179122327Y-83006848D01*
X179094288Y-83132286D01*
X178860320Y-83365963D01*
X178815000Y-83377996D01*
X178644325Y-83312260D01*
X178463170Y-83018937D01*
X178231360Y-82438811D01*
X178088085Y-82029786D01*
X177984861Y-81633978D01*
X178014963Y-81438759D01*
X178174263Y-81366705D01*
X178293607Y-81367864D01*
G37*
G36*
X175801027Y-63732745D02*
G01*
X175764505Y-63885174D01*
X175555308Y-64251005D01*
X175216621Y-64717745D01*
X174914105Y-65113243D01*
X174727902Y-65437541D01*
X174727025Y-65666305D01*
X174884176Y-65896319D01*
X175107177Y-66207607D01*
X175362766Y-66710597D01*
X175376159Y-66745994D01*
X175430097Y-66830060D01*
X175546171Y-67010968D01*
X175856020Y-67144941D01*
X176414006Y-67198143D01*
X176453101Y-67200209D01*
X177081160Y-67301554D01*
X177859099Y-67513217D01*
X178627833Y-67792486D01*
X179046140Y-67981845D01*
X180437230Y-68843094D01*
X181580668Y-69939174D01*
X182452610Y-71236758D01*
X183027359Y-72697826D01*
X183029206Y-72702522D01*
X183286613Y-74303138D01*
X183288956Y-74346910D01*
X183309423Y-75211770D01*
X183237959Y-75795672D01*
X183038104Y-76168363D01*
X182673397Y-76399598D01*
X182107379Y-76559125D01*
X181800791Y-76620439D01*
X181204963Y-76714178D01*
X180778444Y-76748720D01*
X180587589Y-76761467D01*
X180375285Y-76910969D01*
X180276849Y-77312824D01*
X180118703Y-78065992D01*
X180066377Y-78193169D01*
X179702098Y-79078549D01*
X179116263Y-79880018D01*
X178798032Y-80153656D01*
X177927244Y-80618495D01*
X176955059Y-80836895D01*
X176011205Y-80771607D01*
X175874999Y-80731788D01*
X175280519Y-80476141D01*
X174619899Y-80104809D01*
X174177251Y-79801525D01*
X175634885Y-79801525D01*
X175862054Y-79983734D01*
X176441774Y-80105770D01*
X176482740Y-80110271D01*
X177123126Y-80099056D01*
X177715198Y-79974687D01*
X177910198Y-79884491D01*
X178349962Y-79579040D01*
X178753446Y-79193253D01*
X179032388Y-78818322D01*
X179098524Y-78545439D01*
X178962719Y-78457890D01*
X178560985Y-78461740D01*
X177981121Y-78579214D01*
X177305427Y-78787927D01*
X176616201Y-79065490D01*
X175995747Y-79389511D01*
X175760129Y-79558924D01*
X175634885Y-79801525D01*
X174177251Y-79801525D01*
X174026767Y-79698420D01*
X173634750Y-79337611D01*
X173473688Y-79311243D01*
X173128386Y-79533364D01*
X172956981Y-79661335D01*
X172453185Y-79959721D01*
X171867485Y-80242112D01*
X170999194Y-80611767D01*
X170344677Y-79969703D01*
X170033992Y-79625889D01*
X169547206Y-78981018D01*
X169126465Y-78313895D01*
X168970681Y-78016435D01*
X168449241Y-76574643D01*
X168239598Y-75054206D01*
X168282683Y-74346394D01*
X168944977Y-74346394D01*
X169047317Y-75703572D01*
X169400578Y-77066783D01*
X169969316Y-78324942D01*
X170718087Y-79366962D01*
X170916701Y-79573923D01*
X171159301Y-79742527D01*
X171423388Y-79739224D01*
X171799888Y-79553502D01*
X172379728Y-79174847D01*
X172862918Y-78820812D01*
X172866981Y-78816909D01*
X174251070Y-78816909D01*
X174315354Y-78962858D01*
X174560380Y-79211649D01*
X174927578Y-79182420D01*
X175471730Y-78877909D01*
X175938427Y-78616024D01*
X176665282Y-78299491D01*
X177432486Y-78037503D01*
X177454218Y-78031255D01*
X178134008Y-77850066D01*
X178722291Y-77717622D01*
X179093873Y-77662206D01*
X179407805Y-77574534D01*
X179559245Y-77241087D01*
X179588236Y-76972387D01*
X179585381Y-76745127D01*
X179479931Y-76691612D01*
X179098161Y-76676907D01*
X178530989Y-76724490D01*
X177874258Y-76822076D01*
X177223811Y-76957380D01*
X176675492Y-77118117D01*
X176462603Y-77201234D01*
X175813470Y-77512815D01*
X175193884Y-77881930D01*
X174677711Y-78256824D01*
X174338817Y-78585736D01*
X174251070Y-78816909D01*
X172866981Y-78816909D01*
X173888709Y-77835537D01*
X174676646Y-76721675D01*
X174756994Y-76530840D01*
X175620339Y-76530840D01*
X175693824Y-76642215D01*
X175946396Y-76609503D01*
X176454164Y-76437262D01*
X177329807Y-76118554D01*
X176754074Y-75804633D01*
X176670711Y-75758988D01*
X176299369Y-75550393D01*
X176116370Y-75438554D01*
X176052683Y-75448852D01*
X175893926Y-75663445D01*
X175731660Y-76019140D01*
X175631251Y-76388005D01*
X175620339Y-76530840D01*
X174756994Y-76530840D01*
X175167250Y-75556438D01*
X175338704Y-74936234D01*
X174589574Y-74020936D01*
X173957787Y-73102295D01*
X173331782Y-71758661D01*
X172947235Y-70334368D01*
X172878616Y-69406472D01*
X173544009Y-69406472D01*
X173596689Y-69924852D01*
X173768626Y-70690842D01*
X174028522Y-71514359D01*
X174056303Y-71589564D01*
X174363392Y-72319865D01*
X174698491Y-72977559D01*
X174993861Y-73428339D01*
X175469775Y-73997632D01*
X175502718Y-73338307D01*
X175503502Y-73253960D01*
X175417939Y-72663280D01*
X175210950Y-71887012D01*
X174921532Y-71032298D01*
X174588680Y-70206271D01*
X174251393Y-69516071D01*
X173948668Y-69068836D01*
X173548922Y-68643272D01*
X173544009Y-69406472D01*
X172878616Y-69406472D01*
X172844652Y-68947194D01*
X172845001Y-68921763D01*
X172725689Y-68723161D01*
X172392811Y-68779114D01*
X171871030Y-69079694D01*
X171185014Y-69614980D01*
X171064837Y-69722289D01*
X170331589Y-70577459D01*
X169695233Y-71643312D01*
X169221010Y-72793367D01*
X168974162Y-73901145D01*
X168944977Y-74346394D01*
X168282683Y-74346394D01*
X168333108Y-73517993D01*
X168721125Y-72028874D01*
X169395007Y-70649718D01*
X170346107Y-69443397D01*
X170356149Y-69433240D01*
X170762672Y-69000191D01*
X170957147Y-68680799D01*
X170984733Y-68343453D01*
X170890587Y-67856544D01*
X170879381Y-67808495D01*
X170729362Y-67296479D01*
X170676399Y-67217258D01*
X171526355Y-67217258D01*
X171545531Y-67730579D01*
X171710517Y-68183877D01*
X172078289Y-68050019D01*
X174000588Y-68050019D01*
X174677637Y-68939159D01*
X175476315Y-70271499D01*
X175645231Y-70768893D01*
X175989355Y-71782204D01*
X176185767Y-73394128D01*
X176208689Y-74619585D01*
X176210522Y-74717587D01*
X177630261Y-75362551D01*
X178089393Y-75559860D01*
X178500724Y-75692375D01*
X179150801Y-75901807D01*
X180090301Y-76014847D01*
X180500994Y-76008793D01*
X181249302Y-75963260D01*
X181857083Y-75886788D01*
X182054484Y-75846447D01*
X182202647Y-75816169D01*
X182472880Y-75689574D01*
X182580126Y-75428388D01*
X182611480Y-74921121D01*
X182575984Y-74164271D01*
X182329122Y-72951964D01*
X181893346Y-71764187D01*
X181316767Y-70755725D01*
X180545864Y-69849844D01*
X179347597Y-68888330D01*
X177995230Y-68241887D01*
X176514898Y-67922039D01*
X174932734Y-67940313D01*
X174000588Y-68050019D01*
X172078289Y-68050019D01*
X173237098Y-67628247D01*
X174763677Y-67072617D01*
X174480288Y-66597906D01*
X174360685Y-66429380D01*
X173837471Y-66011394D01*
X173197115Y-65801659D01*
X172580072Y-65855082D01*
X172130465Y-66147113D01*
X171744605Y-66647246D01*
X171526355Y-67217258D01*
X170676399Y-67217258D01*
X170547975Y-67025163D01*
X170266299Y-66887579D01*
X169682732Y-66708852D01*
X169149962Y-66525535D01*
X168877298Y-66387435D01*
X168815423Y-66267173D01*
X168915014Y-66137366D01*
X169006234Y-66083882D01*
X169449599Y-66016326D01*
X170097177Y-66069946D01*
X170492024Y-66128567D01*
X170895041Y-66143030D01*
X171161296Y-66041530D01*
X171420496Y-65797350D01*
X171687036Y-65549682D01*
X172451034Y-65162563D01*
X173321153Y-65108421D01*
X173526569Y-65130397D01*
X173825196Y-65098315D01*
X174092206Y-64912012D01*
X174450966Y-64505677D01*
X174835048Y-64098305D01*
X175268952Y-63763804D01*
X175613670Y-63628942D01*
X175801027Y-63732745D01*
G37*
G36*
X142937802Y-63381784D02*
G01*
X143310502Y-63671524D01*
X143782670Y-64224601D01*
X144014235Y-64597046D01*
X144126560Y-64978035D01*
X144039510Y-65195651D01*
X143755049Y-65181761D01*
X143586090Y-65069805D01*
X143258562Y-64719245D01*
X142933679Y-64263599D01*
X142693677Y-63823401D01*
X142620790Y-63519192D01*
X142694256Y-63373406D01*
X142937802Y-63381784D01*
G37*
G36*
X144856933Y-62131087D02*
G01*
X145177460Y-62525879D01*
X145378868Y-62869887D01*
X145631057Y-63455796D01*
X145712722Y-63913695D01*
X145603064Y-64163552D01*
X145503180Y-64171816D01*
X145244948Y-63981461D01*
X144960039Y-63592156D01*
X144709801Y-63096283D01*
X144555583Y-62586221D01*
X144529419Y-62267808D01*
X144628032Y-62046314D01*
X144856933Y-62131087D01*
G37*
G36*
X149514741Y-61345075D02*
G01*
X149581478Y-61540222D01*
X149595850Y-61967733D01*
X149549565Y-62493917D01*
X149458707Y-63004670D01*
X149339364Y-63385896D01*
X149207621Y-63523494D01*
X149036316Y-63336620D01*
X148920797Y-62904474D01*
X148881443Y-62339789D01*
X148935524Y-61754819D01*
X149040815Y-61414968D01*
X149253960Y-61213223D01*
X149514741Y-61345075D01*
G37*
G36*
X153837048Y-63041832D02*
G01*
X153881534Y-63238473D01*
X153767926Y-63636885D01*
X153496919Y-64066945D01*
X153143734Y-64438812D01*
X152783590Y-64662646D01*
X152491712Y-64648610D01*
X152415839Y-64514847D01*
X152506211Y-64193945D01*
X152828581Y-63664221D01*
X153200188Y-63149260D01*
X153471828Y-62874484D01*
X153666957Y-62849264D01*
X153837048Y-63041832D01*
G37*
G36*
X141502390Y-65176719D02*
G01*
X142022177Y-65515998D01*
X142355080Y-65760507D01*
X142744650Y-66137354D01*
X142851339Y-66409436D01*
X142657298Y-66547759D01*
X142533526Y-66535225D01*
X142172457Y-66371335D01*
X141733526Y-66085327D01*
X141314350Y-65751219D01*
X141012546Y-65443032D01*
X140925729Y-65234783D01*
X141023064Y-65068562D01*
X141194058Y-65033909D01*
X141502390Y-65176719D01*
G37*
G36*
X151782485Y-61851518D02*
G01*
X151809992Y-61970216D01*
X151760886Y-62350789D01*
X151629901Y-62860737D01*
X151454607Y-63379928D01*
X151272572Y-63788232D01*
X151121366Y-63965519D01*
X150983209Y-63954582D01*
X150824034Y-63721706D01*
X150827699Y-63258587D01*
X150999808Y-62626950D01*
X151115009Y-62332481D01*
X151352366Y-61873216D01*
X151564831Y-61722828D01*
X151782485Y-61851518D01*
G37*
G36*
X147182459Y-61516925D02*
G01*
X147309927Y-61837248D01*
X147437477Y-62448815D01*
X147507550Y-62876505D01*
X147540473Y-63284224D01*
X147476930Y-63471251D01*
X147307538Y-63514547D01*
X147190207Y-63492682D01*
X146975331Y-63269449D01*
X146798507Y-62752859D01*
X146755222Y-62567739D01*
X146668801Y-62062325D01*
X146658685Y-61734692D01*
X146708079Y-61616029D01*
X146979071Y-61426530D01*
X147025792Y-61422550D01*
X147182459Y-61516925D01*
G37*
G36*
X149334396Y-64476216D02*
G01*
X149461619Y-64539082D01*
X150002674Y-64894075D01*
X150588776Y-65374482D01*
X151102329Y-65877693D01*
X151425737Y-66301093D01*
X151579773Y-66355029D01*
X151958399Y-66196244D01*
X152149423Y-66099980D01*
X152697380Y-65893611D01*
X153323218Y-65717216D01*
X154242507Y-65503954D01*
X154775588Y-66249919D01*
X155021850Y-66642460D01*
X155389260Y-67362063D01*
X155687764Y-68092112D01*
X155789528Y-68412105D01*
X156052681Y-69922540D01*
X155995118Y-71456281D01*
X155636269Y-72952918D01*
X154995563Y-74352036D01*
X154092432Y-75593221D01*
X152946306Y-76616059D01*
X152934652Y-76624318D01*
X152459107Y-76980196D01*
X152212125Y-77260966D01*
X152126379Y-77588396D01*
X152134543Y-78084256D01*
X152137236Y-78133521D01*
X152196064Y-78663809D01*
X152327582Y-78962500D01*
X152581088Y-79146907D01*
X153124754Y-79424253D01*
X153617597Y-79697300D01*
X153862138Y-79880650D01*
X153902190Y-80009829D01*
X153781571Y-80120370D01*
X153682450Y-80157202D01*
X153234089Y-80146742D01*
X152605660Y-79981486D01*
X152226991Y-79855191D01*
X151832608Y-79770965D01*
X151552774Y-79824687D01*
X151255110Y-80020149D01*
X150949612Y-80217769D01*
X150129998Y-80466341D01*
X149263697Y-80368565D01*
X149065217Y-80311253D01*
X148765556Y-80290992D01*
X148470251Y-80428098D01*
X148046382Y-80765962D01*
X147597396Y-81100450D01*
X147111998Y-81354523D01*
X146749099Y-81427477D01*
X146582614Y-81292716D01*
X146645050Y-81148945D01*
X146914594Y-80824999D01*
X147329184Y-80424161D01*
X147695783Y-80087203D01*
X147935470Y-79800166D01*
X147976059Y-79575030D01*
X147861237Y-79321221D01*
X147695678Y-78975939D01*
X147531315Y-78436207D01*
X147524273Y-78399023D01*
X147485752Y-78306867D01*
X147434275Y-78183718D01*
X148184166Y-78183718D01*
X148380818Y-78700428D01*
X148469340Y-78887162D01*
X148912023Y-79389653D01*
X149506230Y-79707398D01*
X150123175Y-79761935D01*
X150616662Y-79552414D01*
X151083507Y-79126884D01*
X151397423Y-78603430D01*
X151467676Y-78094577D01*
X151383910Y-77619517D01*
X149784038Y-77901617D01*
X148184166Y-78183718D01*
X147434275Y-78183718D01*
X147402855Y-78108552D01*
X147120978Y-77922810D01*
X146580708Y-77773523D01*
X146542565Y-77764699D01*
X145941646Y-77555832D01*
X145212280Y-77212297D01*
X144503720Y-76803782D01*
X144124650Y-76544662D01*
X142904248Y-75454937D01*
X141968513Y-74176953D01*
X141335142Y-72747671D01*
X141022836Y-71208995D01*
X141021832Y-71204050D01*
X141042356Y-69843210D01*
X141721999Y-69843210D01*
X141754595Y-71079966D01*
X141977496Y-72325369D01*
X142370198Y-73418633D01*
X142972084Y-74444617D01*
X143985182Y-75599600D01*
X145204750Y-76471059D01*
X146607051Y-77043105D01*
X148168352Y-77299848D01*
X149105386Y-77353675D01*
X148593021Y-76360474D01*
X148037836Y-74909686D01*
X147957857Y-74390517D01*
X147794921Y-73332844D01*
X147835905Y-72564379D01*
X148510653Y-72564379D01*
X148579699Y-73364796D01*
X148716302Y-74256783D01*
X148900659Y-75128059D01*
X149112969Y-75866343D01*
X149333433Y-76359352D01*
X149653208Y-76847865D01*
X149790575Y-76097113D01*
X149828711Y-75577461D01*
X149792399Y-74793250D01*
X149679453Y-73937115D01*
X149665154Y-73858228D01*
X149489546Y-73085697D01*
X149273745Y-72379805D01*
X149061139Y-71884583D01*
X148691312Y-71241297D01*
X148544379Y-71884885D01*
X148528960Y-71967815D01*
X148510653Y-72564379D01*
X147835905Y-72564379D01*
X147881401Y-71711302D01*
X148071625Y-70500482D01*
X148086837Y-70403650D01*
X147993572Y-70339715D01*
X148983378Y-70339715D01*
X149562188Y-71371192D01*
X150024856Y-72385586D01*
X150408031Y-73817511D01*
X150539410Y-75286943D01*
X150399554Y-76670855D01*
X150394794Y-76695839D01*
X150477807Y-76912142D01*
X150815344Y-76914844D01*
X151381393Y-76709436D01*
X152149939Y-76301407D01*
X152286924Y-76216598D01*
X153157531Y-75501747D01*
X153969302Y-74562589D01*
X154636026Y-73512353D01*
X155071488Y-72464270D01*
X155177546Y-72030852D01*
X155312432Y-70676522D01*
X155201257Y-69272678D01*
X154859637Y-67934874D01*
X154303186Y-66778661D01*
X154143528Y-66540356D01*
X153933891Y-66332186D01*
X153673242Y-66289580D01*
X153270212Y-66407102D01*
X152633428Y-66679317D01*
X152096102Y-66944068D01*
X150914804Y-67736248D01*
X149945417Y-68696364D01*
X149259925Y-69758706D01*
X148983378Y-70339715D01*
X147993572Y-70339715D01*
X146800665Y-69521950D01*
X146382770Y-69247911D01*
X146000700Y-69045982D01*
X145591296Y-68829606D01*
X147227832Y-68829606D01*
X147740307Y-69238732D01*
X147814477Y-69298159D01*
X148143956Y-69568068D01*
X148304754Y-69709986D01*
X148369262Y-69710903D01*
X148562871Y-69527139D01*
X148784437Y-69205024D01*
X148947374Y-68859199D01*
X148982922Y-68720429D01*
X148929894Y-68597986D01*
X148675479Y-68586342D01*
X148145515Y-68667793D01*
X147227832Y-68829606D01*
X145591296Y-68829606D01*
X145396866Y-68726847D01*
X144491268Y-68452382D01*
X144085763Y-68387028D01*
X143340917Y-68301927D01*
X142729090Y-68271697D01*
X142527683Y-68277147D01*
X142376513Y-68281237D01*
X142088403Y-68358983D01*
X141937432Y-68597578D01*
X141818468Y-69091694D01*
X141721999Y-69843210D01*
X141042356Y-69843210D01*
X141046280Y-69583052D01*
X141051573Y-69539539D01*
X141181599Y-68684264D01*
X141353370Y-68121643D01*
X141590072Y-67820875D01*
X145115329Y-67820875D01*
X145209884Y-67891889D01*
X145583300Y-67972664D01*
X146150119Y-68024292D01*
X146813819Y-68042228D01*
X147477879Y-68021929D01*
X148045779Y-67958849D01*
X148269867Y-67913962D01*
X148963243Y-67719836D01*
X149637513Y-67463918D01*
X150210944Y-67184353D01*
X150601805Y-66919285D01*
X150728361Y-66706862D01*
X150690397Y-66551967D01*
X150492296Y-66264407D01*
X150125601Y-66229429D01*
X149536838Y-66434823D01*
X149031755Y-66611688D01*
X148260977Y-66797195D01*
X147459935Y-66921979D01*
X147437449Y-66924359D01*
X146736523Y-66984751D01*
X146134179Y-67013029D01*
X145758619Y-67003079D01*
X145434233Y-67034904D01*
X145227190Y-67336988D01*
X145151981Y-67596572D01*
X145115329Y-67820875D01*
X141590072Y-67820875D01*
X141614907Y-67789318D01*
X142014226Y-67624927D01*
X142599346Y-67566111D01*
X142911925Y-67558967D01*
X143514977Y-67570117D01*
X143941015Y-67610163D01*
X144131184Y-67630752D01*
X144366223Y-67520388D01*
X144532945Y-67141730D01*
X144819476Y-66427466D01*
X144893090Y-66311308D01*
X145006436Y-66132456D01*
X145907411Y-66132456D01*
X146025949Y-66242257D01*
X146422248Y-66308226D01*
X147013703Y-66293229D01*
X147715374Y-66205019D01*
X148442327Y-66051357D01*
X149109621Y-65839999D01*
X149371077Y-65714074D01*
X149536546Y-65496908D01*
X149344468Y-65278019D01*
X148794747Y-65057170D01*
X148755185Y-65045623D01*
X148122581Y-64945466D01*
X147517906Y-64965134D01*
X147310207Y-65020097D01*
X146824083Y-65244544D01*
X146359737Y-65554406D01*
X146019928Y-65875203D01*
X145907411Y-66132456D01*
X145006436Y-66132456D01*
X145405580Y-65502635D01*
X146121688Y-64815072D01*
X146482601Y-64600851D01*
X147420879Y-64294285D01*
X148416218Y-64248021D01*
X149334396Y-64476216D01*
G37*
G36*
X126780129Y-114007675D02*
G01*
X127207802Y-114225072D01*
X127668933Y-114542124D01*
X128045018Y-114873688D01*
X128217555Y-115134623D01*
X128198381Y-115296743D01*
X127966657Y-115372169D01*
X127517337Y-115227373D01*
X126884481Y-114869141D01*
X126539497Y-114598358D01*
X126303640Y-114278763D01*
X126311012Y-114044497D01*
X126583068Y-113960258D01*
X126780129Y-114007675D01*
G37*
G36*
X125593548Y-115597747D02*
G01*
X125994425Y-115866129D01*
X126399170Y-116246511D01*
X126718539Y-116673067D01*
X126852029Y-116963329D01*
X126835118Y-117205193D01*
X126591027Y-117203820D01*
X126154804Y-116942464D01*
X125847885Y-116688088D01*
X125410512Y-116223767D01*
X125177161Y-115821414D01*
X125194750Y-115549120D01*
X125285784Y-115507192D01*
X125593548Y-115597747D01*
G37*
G36*
X122251376Y-117500423D02*
G01*
X122507731Y-117866997D01*
X122737845Y-118384168D01*
X122887097Y-118952357D01*
X122904392Y-119307724D01*
X122773102Y-119570202D01*
X122482952Y-119535494D01*
X122353495Y-119374942D01*
X122193773Y-118978128D01*
X122057301Y-118467847D01*
X121967992Y-117956820D01*
X121949751Y-117557768D01*
X122026487Y-117383409D01*
X122251376Y-117500423D01*
G37*
G36*
X118672686Y-117549117D02*
G01*
X118697518Y-117881576D01*
X118575766Y-118489610D01*
X118402697Y-119100612D01*
X118241417Y-119451723D01*
X118066682Y-119542160D01*
X117840987Y-119419380D01*
X117731929Y-119249814D01*
X117702420Y-118836572D01*
X117809994Y-118339759D01*
X118014694Y-117869521D01*
X118276562Y-117536010D01*
X118555639Y-117449371D01*
X118672686Y-117549117D01*
G37*
G36*
X127663360Y-112301146D02*
G01*
X128173640Y-112419782D01*
X128681809Y-112590374D01*
X129070818Y-112776752D01*
X129223625Y-112942749D01*
X129189010Y-113132237D01*
X129040181Y-113223283D01*
X128701600Y-113194542D01*
X128097119Y-113053501D01*
X127700666Y-112937597D01*
X127205701Y-112716718D01*
X127012388Y-112497534D01*
X127147418Y-112301187D01*
X127268012Y-112270633D01*
X127663360Y-112301146D01*
G37*
G36*
X120439763Y-117749996D02*
G01*
X120594715Y-118186439D01*
X120649018Y-118838849D01*
X120641479Y-119154960D01*
X120575515Y-119667709D01*
X120427299Y-119881695D01*
X120178756Y-119835208D01*
X120112311Y-119733076D01*
X120028292Y-119358659D01*
X119976965Y-118834666D01*
X119964114Y-118286831D01*
X119995522Y-117840892D01*
X120076974Y-117622580D01*
X120210540Y-117585606D01*
X120439763Y-117749996D01*
G37*
G36*
X124211042Y-116858645D02*
G01*
X124553887Y-117283604D01*
X124657876Y-117442755D01*
X124911946Y-117888131D01*
X125033510Y-118192545D01*
X125027679Y-118320946D01*
X124837843Y-118591702D01*
X124795301Y-118611421D01*
X124615804Y-118576321D01*
X124386466Y-118318912D01*
X124057440Y-117787852D01*
X123845315Y-117409921D01*
X123674928Y-117038051D01*
X123670673Y-116840570D01*
X123815041Y-116741949D01*
X123932774Y-116722366D01*
X124211042Y-116858645D01*
G37*
G36*
X118415755Y-99787997D02*
G01*
X118406257Y-99944452D01*
X118263764Y-100341051D01*
X118011272Y-100859513D01*
X117782028Y-101301535D01*
X117654968Y-101653239D01*
X117693829Y-101878680D01*
X117888533Y-102077911D01*
X118162201Y-102345746D01*
X118501251Y-102796712D01*
X118520587Y-102829245D01*
X118588304Y-102902668D01*
X118734028Y-103060671D01*
X119062434Y-103138804D01*
X119621181Y-103094305D01*
X119660041Y-103089551D01*
X120296157Y-103080295D01*
X121099033Y-103153654D01*
X121904582Y-103295191D01*
X122349416Y-103409035D01*
X123868927Y-104015640D01*
X125185326Y-104896512D01*
X126269343Y-106022972D01*
X127089073Y-107362039D01*
X127091708Y-107366342D01*
X127623148Y-108897944D01*
X127633056Y-108940643D01*
X127803394Y-109788810D01*
X127834409Y-110376251D01*
X127702307Y-110777985D01*
X127383294Y-111069037D01*
X126853577Y-111324428D01*
X126562293Y-111438050D01*
X125991796Y-111633829D01*
X125577755Y-111741911D01*
X125392012Y-111787606D01*
X125208894Y-111971702D01*
X125181736Y-112384546D01*
X125156778Y-113153733D01*
X125127331Y-113288065D01*
X124922331Y-114223250D01*
X124484570Y-115114272D01*
X124218690Y-115439012D01*
X123441850Y-116048001D01*
X122522359Y-116431901D01*
X121581507Y-116531503D01*
X121440456Y-116515941D01*
X120810615Y-116367409D01*
X120095550Y-116116432D01*
X119440860Y-115819214D01*
X119163265Y-115641506D01*
X121042452Y-115641506D01*
X121297810Y-115781499D01*
X121889913Y-115801014D01*
X121931039Y-115798333D01*
X122559748Y-115676086D01*
X123121230Y-115450794D01*
X123297604Y-115328108D01*
X123677647Y-114950933D01*
X124008010Y-114500942D01*
X124217607Y-114083270D01*
X124235353Y-113803049D01*
X124086409Y-113740412D01*
X123691446Y-113813963D01*
X123140791Y-114030346D01*
X122511605Y-114353221D01*
X121881048Y-114746249D01*
X121326286Y-115173089D01*
X121123666Y-115380842D01*
X121042452Y-115641506D01*
X119163265Y-115641506D01*
X118992145Y-115531960D01*
X118828951Y-115533961D01*
X118527467Y-115812668D01*
X118380888Y-115968459D01*
X117936559Y-116349795D01*
X117408794Y-116729602D01*
X116617884Y-117244418D01*
X115861818Y-116725764D01*
X115496150Y-116441123D01*
X114904778Y-115890579D01*
X114374585Y-115306652D01*
X114169514Y-115040762D01*
X113405632Y-113711421D01*
X112935153Y-112250488D01*
X112790868Y-110987388D01*
X113458329Y-110987388D01*
X113506905Y-111430941D01*
X113843361Y-112749729D01*
X114427975Y-114030887D01*
X115206549Y-115171171D01*
X116124890Y-116067338D01*
X116356424Y-116236666D01*
X116624617Y-116360581D01*
X116884118Y-116311471D01*
X117222648Y-116063192D01*
X117727926Y-115589601D01*
X118142298Y-115157040D01*
X118321232Y-114912146D01*
X119508683Y-114912146D01*
X119597334Y-115044715D01*
X119881840Y-115247177D01*
X120238384Y-115154629D01*
X120721391Y-114760254D01*
X121135522Y-114421306D01*
X121796369Y-113983365D01*
X122506424Y-113592134D01*
X122526740Y-113582207D01*
X123164740Y-113285726D01*
X123721087Y-113053140D01*
X124077400Y-112934041D01*
X124371339Y-112793188D01*
X124462576Y-112438509D01*
X124444467Y-112168857D01*
X124402193Y-111945545D01*
X124289052Y-111911154D01*
X123910529Y-111962966D01*
X123360236Y-112108315D01*
X122730427Y-112318459D01*
X122113357Y-112564656D01*
X121601281Y-112818165D01*
X121406059Y-112936987D01*
X120820894Y-113356556D01*
X120274816Y-113827653D01*
X119831584Y-114286484D01*
X119554954Y-114669248D01*
X119508683Y-114912146D01*
X118321232Y-114912146D01*
X118981413Y-114008606D01*
X119563960Y-112774843D01*
X119676574Y-112280477D01*
X120446121Y-112280477D01*
X120460178Y-112423036D01*
X120551887Y-112519958D01*
X120794941Y-112443885D01*
X121265086Y-112186087D01*
X122072083Y-111720167D01*
X121450585Y-111510991D01*
X121360562Y-111480515D01*
X120958639Y-111339572D01*
X120758999Y-111261210D01*
X120698069Y-111282410D01*
X120578987Y-111521311D01*
X120480952Y-111899779D01*
X120446121Y-112280477D01*
X119676574Y-112280477D01*
X119844770Y-111542116D01*
X119905921Y-110901561D01*
X119009232Y-110130254D01*
X118227524Y-109335277D01*
X117377709Y-108120761D01*
X116751678Y-106784882D01*
X116409774Y-105436596D01*
X116405702Y-105411491D01*
X116253715Y-105236624D01*
X115935610Y-105349530D01*
X115473952Y-105736151D01*
X114891309Y-106382430D01*
X114791592Y-106508977D01*
X114217982Y-107478482D01*
X113776378Y-108638644D01*
X113509064Y-109853576D01*
X113458329Y-110987388D01*
X112790868Y-110987388D01*
X112760481Y-110721376D01*
X112884021Y-109187500D01*
X113308176Y-107712280D01*
X114035352Y-106359128D01*
X114043478Y-106347381D01*
X114368626Y-105850319D01*
X114504685Y-105502009D01*
X114473272Y-105164999D01*
X114415862Y-105014996D01*
X117050569Y-105014996D01*
X117178258Y-105767454D01*
X117320154Y-106268811D01*
X117622492Y-106993308D01*
X118021442Y-107759183D01*
X118061860Y-107828421D01*
X118491098Y-108494302D01*
X118935314Y-109083814D01*
X119304474Y-109476456D01*
X119872014Y-109954459D01*
X119789966Y-109299429D01*
X119776092Y-109216228D01*
X119589258Y-108649379D01*
X119250617Y-107920848D01*
X118817175Y-107129376D01*
X118345942Y-106373698D01*
X117893928Y-105752552D01*
X117518140Y-105364679D01*
X117050569Y-105014996D01*
X114415862Y-105014996D01*
X114296006Y-104701835D01*
X114276626Y-104656462D01*
X114039976Y-104178275D01*
X113832699Y-103961861D01*
X114811104Y-103961861D01*
X114919126Y-104464054D01*
X115160320Y-104881815D01*
X116077426Y-104352324D01*
X117392356Y-104352324D01*
X118213517Y-105110388D01*
X119231419Y-106283798D01*
X119484140Y-106744303D01*
X119998996Y-107682463D01*
X120472331Y-109235792D01*
X120707704Y-110438651D01*
X120726527Y-110534846D01*
X122236693Y-110923477D01*
X122723113Y-111038060D01*
X123151205Y-111097136D01*
X123827774Y-111190501D01*
X124772630Y-111138682D01*
X125176032Y-111061403D01*
X125905066Y-110886620D01*
X126490334Y-110705770D01*
X126677731Y-110631763D01*
X126818384Y-110576216D01*
X127062529Y-110404619D01*
X127122791Y-110128779D01*
X127065583Y-109623774D01*
X126899201Y-108884585D01*
X126445575Y-107733563D01*
X125810164Y-106639503D01*
X125067226Y-105746484D01*
X124150731Y-104988231D01*
X122803703Y-104249402D01*
X121359627Y-103847615D01*
X119846244Y-103789683D01*
X118291290Y-104082420D01*
X117392356Y-104352324D01*
X116077426Y-104352324D01*
X116567225Y-104069539D01*
X117974128Y-103257263D01*
X117612611Y-102838973D01*
X117465561Y-102693776D01*
X116877713Y-102372996D01*
X116210665Y-102277644D01*
X115612274Y-102437403D01*
X115220208Y-102803072D01*
X114927057Y-103362610D01*
X114811104Y-103961861D01*
X113832699Y-103961861D01*
X113814231Y-103942579D01*
X113512944Y-103855997D01*
X112907206Y-103781321D01*
X112350697Y-103693303D01*
X112058195Y-103604649D01*
X111976376Y-103496959D01*
X112051914Y-103351830D01*
X112132461Y-103283318D01*
X112557359Y-103139799D01*
X113204410Y-103080153D01*
X113603438Y-103069319D01*
X114002844Y-103013579D01*
X114247428Y-102867387D01*
X114460289Y-102581907D01*
X114679773Y-102291718D01*
X115364941Y-101777812D01*
X116212439Y-101573399D01*
X116418551Y-101559371D01*
X116707070Y-101475920D01*
X116937673Y-101246082D01*
X117220423Y-100783622D01*
X117527930Y-100315744D01*
X117897157Y-99910978D01*
X118213219Y-99718305D01*
X118415755Y-99787997D01*
G37*
G36*
X187769106Y-106588853D02*
G01*
X188152532Y-106877212D01*
X188551601Y-107269521D01*
X188864397Y-107661355D01*
X188989002Y-107948286D01*
X188941968Y-108104614D01*
X188700666Y-108138655D01*
X188283315Y-107918036D01*
X187722281Y-107455351D01*
X187429559Y-107128776D01*
X187252782Y-106773080D01*
X187300722Y-106543654D01*
X187583273Y-106507937D01*
X187769106Y-106588853D01*
G37*
G36*
X186324439Y-107948720D02*
G01*
X186672622Y-108282636D01*
X187005164Y-108727523D01*
X187245611Y-109203056D01*
X187326670Y-109512089D01*
X187268017Y-109747342D01*
X187027872Y-109703604D01*
X186643661Y-109370469D01*
X186385576Y-109066661D01*
X186035476Y-108533446D01*
X185875538Y-108096685D01*
X185940143Y-107831582D01*
X186037075Y-107806098D01*
X186324439Y-107948720D01*
G37*
G36*
X182702645Y-109242129D02*
G01*
X182891451Y-109647649D01*
X183028263Y-110196922D01*
X183076583Y-110782396D01*
X183031906Y-111135367D01*
X182857032Y-111371059D01*
X182577317Y-111286495D01*
X182477707Y-111105901D01*
X182389317Y-110687381D01*
X182343528Y-110161154D01*
X182344314Y-109642382D01*
X182395645Y-109246225D01*
X182501493Y-109087840D01*
X182702645Y-109242129D01*
G37*
G36*
X179169868Y-108668650D02*
G01*
X179136593Y-109000370D01*
X178911106Y-109578025D01*
X178634567Y-110149691D01*
X178414767Y-110467462D01*
X178226982Y-110526183D01*
X178026037Y-110366076D01*
X177948081Y-110180148D01*
X177990778Y-109768061D01*
X178182989Y-109297475D01*
X178466235Y-108869927D01*
X178782038Y-108586955D01*
X179071920Y-108550094D01*
X179169868Y-108668650D01*
G37*
G36*
X188935254Y-105061622D02*
G01*
X189417181Y-105267064D01*
X189888007Y-105523307D01*
X190238742Y-105774404D01*
X190360402Y-105964414D01*
X190293409Y-106145013D01*
X190131031Y-106208831D01*
X189802585Y-106121732D01*
X189231778Y-105877868D01*
X188861475Y-105694882D01*
X188412385Y-105391408D01*
X188260070Y-105141986D01*
X188427143Y-104972069D01*
X188551212Y-104962920D01*
X188935254Y-105061622D01*
G37*
G36*
X180875217Y-109173327D02*
G01*
X180952028Y-109630046D01*
X180892216Y-110281974D01*
X180829899Y-110591973D01*
X180675899Y-111085478D01*
X180492776Y-111270476D01*
X180256082Y-111181536D01*
X180208381Y-111069417D01*
X180190656Y-110686099D01*
X180231099Y-110161153D01*
X180313574Y-109619410D01*
X180421941Y-109185699D01*
X180540065Y-108984849D01*
X180678022Y-108971629D01*
X180875217Y-109173327D01*
G37*
G36*
X184493607Y-108767864D02*
G01*
X184743984Y-108950393D01*
X185007826Y-109428430D01*
X185082599Y-109603221D01*
X185255471Y-110085949D01*
X185322327Y-110406848D01*
X185294288Y-110532286D01*
X185060320Y-110765963D01*
X185015000Y-110777996D01*
X184844325Y-110712260D01*
X184663170Y-110418937D01*
X184431360Y-109838811D01*
X184288085Y-109429786D01*
X184184861Y-109033978D01*
X184214963Y-108838759D01*
X184374263Y-108766705D01*
X184493607Y-108767864D01*
G37*
G36*
X182001027Y-91132745D02*
G01*
X181964505Y-91285174D01*
X181755308Y-91651005D01*
X181416621Y-92117745D01*
X181114105Y-92513243D01*
X180927902Y-92837541D01*
X180927025Y-93066305D01*
X181084176Y-93296319D01*
X181307177Y-93607607D01*
X181562766Y-94110597D01*
X181576159Y-94145994D01*
X181630097Y-94230060D01*
X181746171Y-94410968D01*
X182056020Y-94544941D01*
X182614006Y-94598143D01*
X182653101Y-94600209D01*
X183281160Y-94701554D01*
X184059099Y-94913217D01*
X184827833Y-95192486D01*
X185246140Y-95381845D01*
X186637230Y-96243094D01*
X187780668Y-97339174D01*
X188652610Y-98636758D01*
X189227359Y-100097826D01*
X189229206Y-100102522D01*
X189486613Y-101703138D01*
X189488956Y-101746910D01*
X189509423Y-102611770D01*
X189437959Y-103195672D01*
X189238104Y-103568363D01*
X188873397Y-103799598D01*
X188307379Y-103959125D01*
X188000791Y-104020439D01*
X187404963Y-104114178D01*
X186978444Y-104148720D01*
X186787589Y-104161467D01*
X186575285Y-104310969D01*
X186476849Y-104712824D01*
X186318703Y-105465992D01*
X186266377Y-105593169D01*
X185902098Y-106478549D01*
X185316263Y-107280018D01*
X184998032Y-107553656D01*
X184127244Y-108018495D01*
X183155059Y-108236895D01*
X182211205Y-108171607D01*
X182074999Y-108131788D01*
X181480519Y-107876141D01*
X180819899Y-107504809D01*
X180377251Y-107201525D01*
X181834885Y-107201525D01*
X182062054Y-107383734D01*
X182641774Y-107505770D01*
X182682740Y-107510271D01*
X183323126Y-107499056D01*
X183915198Y-107374687D01*
X184110198Y-107284491D01*
X184549962Y-106979040D01*
X184953446Y-106593253D01*
X185232388Y-106218322D01*
X185298524Y-105945439D01*
X185162719Y-105857890D01*
X184760985Y-105861740D01*
X184181121Y-105979214D01*
X183505427Y-106187927D01*
X182816201Y-106465490D01*
X182195747Y-106789511D01*
X181960129Y-106958924D01*
X181834885Y-107201525D01*
X180377251Y-107201525D01*
X180226767Y-107098420D01*
X179834750Y-106737611D01*
X179673688Y-106711243D01*
X179328386Y-106933364D01*
X179156981Y-107061335D01*
X178653185Y-107359721D01*
X178067485Y-107642112D01*
X177199194Y-108011767D01*
X176544677Y-107369703D01*
X176233992Y-107025889D01*
X175747206Y-106381018D01*
X175326465Y-105713895D01*
X175170681Y-105416435D01*
X174649241Y-103974643D01*
X174439598Y-102454206D01*
X174482683Y-101746394D01*
X175144977Y-101746394D01*
X175247317Y-103103572D01*
X175600578Y-104466783D01*
X176169316Y-105724942D01*
X176918087Y-106766962D01*
X177116701Y-106973923D01*
X177359301Y-107142527D01*
X177623388Y-107139224D01*
X177999888Y-106953502D01*
X178579728Y-106574847D01*
X179062918Y-106220812D01*
X179066981Y-106216909D01*
X180451070Y-106216909D01*
X180515354Y-106362858D01*
X180760380Y-106611649D01*
X181127578Y-106582420D01*
X181671730Y-106277909D01*
X182138427Y-106016024D01*
X182865282Y-105699491D01*
X183632486Y-105437503D01*
X183654218Y-105431255D01*
X184334008Y-105250066D01*
X184922291Y-105117622D01*
X185293873Y-105062206D01*
X185607805Y-104974534D01*
X185759245Y-104641087D01*
X185788236Y-104372387D01*
X185785381Y-104145127D01*
X185679931Y-104091612D01*
X185298161Y-104076907D01*
X184730989Y-104124490D01*
X184074258Y-104222076D01*
X183423811Y-104357380D01*
X182875492Y-104518117D01*
X182662603Y-104601234D01*
X182013470Y-104912815D01*
X181393884Y-105281930D01*
X180877711Y-105656824D01*
X180538817Y-105985736D01*
X180451070Y-106216909D01*
X179066981Y-106216909D01*
X180088709Y-105235537D01*
X180876646Y-104121675D01*
X180956994Y-103930840D01*
X181820339Y-103930840D01*
X181893824Y-104042215D01*
X182146396Y-104009503D01*
X182654164Y-103837262D01*
X183529807Y-103518554D01*
X182954074Y-103204633D01*
X182870711Y-103158988D01*
X182499369Y-102950393D01*
X182316370Y-102838554D01*
X182252683Y-102848852D01*
X182093926Y-103063445D01*
X181931660Y-103419140D01*
X181831251Y-103788005D01*
X181820339Y-103930840D01*
X180956994Y-103930840D01*
X181367250Y-102956438D01*
X181538704Y-102336234D01*
X180789574Y-101420936D01*
X180157787Y-100502295D01*
X179531782Y-99158661D01*
X179147235Y-97734368D01*
X179078616Y-96806472D01*
X179744009Y-96806472D01*
X179796689Y-97324852D01*
X179968626Y-98090842D01*
X180228522Y-98914359D01*
X180256303Y-98989564D01*
X180563392Y-99719865D01*
X180898491Y-100377559D01*
X181193861Y-100828339D01*
X181669775Y-101397632D01*
X181702718Y-100738307D01*
X181703502Y-100653960D01*
X181617939Y-100063280D01*
X181410950Y-99287012D01*
X181121532Y-98432298D01*
X180788680Y-97606271D01*
X180451393Y-96916071D01*
X180148668Y-96468836D01*
X179748922Y-96043272D01*
X179744009Y-96806472D01*
X179078616Y-96806472D01*
X179044652Y-96347194D01*
X179045001Y-96321763D01*
X178925689Y-96123161D01*
X178592811Y-96179114D01*
X178071030Y-96479694D01*
X177385014Y-97014980D01*
X177264837Y-97122289D01*
X176531589Y-97977459D01*
X175895233Y-99043312D01*
X175421010Y-100193367D01*
X175174162Y-101301145D01*
X175144977Y-101746394D01*
X174482683Y-101746394D01*
X174533108Y-100917993D01*
X174921125Y-99428874D01*
X175595007Y-98049718D01*
X176546107Y-96843397D01*
X176556149Y-96833240D01*
X176962672Y-96400191D01*
X177157147Y-96080799D01*
X177184733Y-95743453D01*
X177090587Y-95256544D01*
X177079381Y-95208495D01*
X176929362Y-94696479D01*
X176876399Y-94617258D01*
X177726355Y-94617258D01*
X177745531Y-95130579D01*
X177910517Y-95583877D01*
X178278289Y-95450019D01*
X180200588Y-95450019D01*
X180877637Y-96339159D01*
X181676315Y-97671499D01*
X181845231Y-98168893D01*
X182189355Y-99182204D01*
X182385767Y-100794128D01*
X182408689Y-102019585D01*
X182410522Y-102117587D01*
X183830261Y-102762551D01*
X184289393Y-102959860D01*
X184700724Y-103092375D01*
X185350801Y-103301807D01*
X186290301Y-103414847D01*
X186700994Y-103408793D01*
X187449302Y-103363260D01*
X188057083Y-103286788D01*
X188254484Y-103246447D01*
X188402647Y-103216169D01*
X188672880Y-103089574D01*
X188780126Y-102828388D01*
X188811480Y-102321121D01*
X188775984Y-101564271D01*
X188529122Y-100351964D01*
X188093346Y-99164187D01*
X187516767Y-98155725D01*
X186745864Y-97249844D01*
X185547597Y-96288330D01*
X184195230Y-95641887D01*
X182714898Y-95322039D01*
X181132734Y-95340313D01*
X180200588Y-95450019D01*
X178278289Y-95450019D01*
X179437098Y-95028247D01*
X180963677Y-94472617D01*
X180680288Y-93997906D01*
X180560685Y-93829380D01*
X180037471Y-93411394D01*
X179397115Y-93201659D01*
X178780072Y-93255082D01*
X178330465Y-93547113D01*
X177944605Y-94047246D01*
X177726355Y-94617258D01*
X176876399Y-94617258D01*
X176747975Y-94425163D01*
X176466299Y-94287579D01*
X175882732Y-94108852D01*
X175349962Y-93925535D01*
X175077298Y-93787435D01*
X175015423Y-93667173D01*
X175115014Y-93537366D01*
X175206234Y-93483882D01*
X175649599Y-93416326D01*
X176297177Y-93469946D01*
X176692024Y-93528567D01*
X177095041Y-93543030D01*
X177361296Y-93441530D01*
X177620496Y-93197350D01*
X177887036Y-92949682D01*
X178651034Y-92562563D01*
X179521153Y-92508421D01*
X179726569Y-92530397D01*
X180025196Y-92498315D01*
X180292206Y-92312012D01*
X180650966Y-91905677D01*
X181035048Y-91498305D01*
X181468952Y-91163804D01*
X181813670Y-91028942D01*
X182001027Y-91132745D01*
G37*
G36*
X120878225Y-92235796D02*
G01*
X120968570Y-92417232D01*
X121076938Y-92884589D01*
X121130471Y-93441633D01*
X121118221Y-93942856D01*
X121029238Y-94242752D01*
X120892722Y-94332274D01*
X120685993Y-94203245D01*
X120508095Y-93765973D01*
X120375725Y-93050910D01*
X120361406Y-92612581D01*
X120454624Y-92226472D01*
X120638820Y-92081536D01*
X120878225Y-92235796D01*
G37*
G36*
X118859327Y-92236368D02*
G01*
X118987785Y-92530337D01*
X119039871Y-93009939D01*
X119008646Y-93564496D01*
X118887172Y-94083333D01*
X118750625Y-94372168D01*
X118554476Y-94514681D01*
X118398629Y-94326815D01*
X118318441Y-93824651D01*
X118316020Y-93426028D01*
X118390572Y-92792521D01*
X118548798Y-92355137D01*
X118768692Y-92193583D01*
X118859327Y-92236368D01*
G37*
G36*
X115381943Y-91193101D02*
G01*
X115265913Y-91625110D01*
X115017652Y-92133818D01*
X114678331Y-92613377D01*
X114417221Y-92855051D01*
X114131760Y-92923195D01*
X113971843Y-92678617D01*
X114011620Y-92476246D01*
X114212929Y-92098825D01*
X114516105Y-91666280D01*
X114850168Y-91269383D01*
X115144134Y-90998903D01*
X115327026Y-90945611D01*
X115381943Y-91193101D01*
G37*
G36*
X113045478Y-88329187D02*
G01*
X113044304Y-88482966D01*
X112805588Y-88715689D01*
X112261546Y-89013258D01*
X111682244Y-89273424D01*
X111309609Y-89375566D01*
X111128012Y-89299843D01*
X111076994Y-89048029D01*
X111136788Y-88855491D01*
X111434381Y-88567259D01*
X111884110Y-88330320D01*
X112375911Y-88184866D01*
X112799721Y-88171092D01*
X113045478Y-88329187D01*
G37*
G36*
X122612827Y-91674424D02*
G01*
X122843577Y-91996891D01*
X123080698Y-92464046D01*
X123276662Y-92962980D01*
X123383938Y-93380780D01*
X123355000Y-93604538D01*
X123187594Y-93699822D01*
X123022183Y-93644335D01*
X122826564Y-93366492D01*
X122546054Y-92812774D01*
X122380007Y-92434572D01*
X122231053Y-91913428D01*
X122274698Y-91624453D01*
X122511905Y-91601682D01*
X122612827Y-91674424D01*
G37*
G36*
X114004866Y-89684484D02*
G01*
X114026277Y-89965748D01*
X113791544Y-90364988D01*
X113326674Y-90825948D01*
X113079673Y-91023364D01*
X112644483Y-91302422D01*
X112385289Y-91326429D01*
X112261140Y-91106153D01*
X112296668Y-90989604D01*
X112529481Y-90684571D01*
X112897891Y-90308436D01*
X113309296Y-89946450D01*
X113671095Y-89683866D01*
X113890687Y-89605934D01*
X114004866Y-89684484D01*
G37*
G36*
X116968073Y-91903401D02*
G01*
X117058751Y-91981002D01*
X117133223Y-92281766D01*
X117028063Y-92817558D01*
X116972988Y-92999519D01*
X116795124Y-93480430D01*
X116640069Y-93769227D01*
X116537960Y-93847295D01*
X116208525Y-93875910D01*
X116166073Y-93855997D01*
X116077583Y-93695932D01*
X116127354Y-93354790D01*
X116322676Y-92761383D01*
X116475837Y-92355956D01*
X116651183Y-91986399D01*
X116799727Y-91856201D01*
X116968073Y-91903401D01*
G37*
G36*
X119768564Y-74302983D02*
G01*
X120151627Y-74536222D01*
X120613234Y-74993553D01*
X120878023Y-75292261D01*
X121177456Y-75562395D01*
X121446661Y-75655787D01*
X121802176Y-75635345D01*
X122165555Y-75616949D01*
X122999647Y-75811487D01*
X123700998Y-76329314D01*
X123844231Y-76478187D01*
X124093614Y-76645564D01*
X124417909Y-76674480D01*
X124953922Y-76593815D01*
X125509999Y-76528633D01*
X126057403Y-76551299D01*
X126408159Y-76669568D01*
X126484960Y-76869517D01*
X126359003Y-76962808D01*
X125963598Y-77108582D01*
X125404133Y-77248422D01*
X124918171Y-77356938D01*
X124567077Y-77485675D01*
X124419358Y-77660355D01*
X124391892Y-77937570D01*
X124362629Y-78319373D01*
X124235106Y-78868975D01*
X124222613Y-78904699D01*
X124209895Y-79003769D01*
X124182528Y-79216963D01*
X124333770Y-79518759D01*
X124727014Y-79918181D01*
X124755635Y-79944894D01*
X125171612Y-80426237D01*
X125631494Y-81088430D01*
X126040868Y-81796495D01*
X126239592Y-82210435D01*
X126751629Y-83764365D01*
X126923007Y-85338999D01*
X126756881Y-86893479D01*
X126258008Y-88382164D01*
X126256405Y-88386949D01*
X125424734Y-89778550D01*
X125398393Y-89813587D01*
X124858150Y-90489264D01*
X124428081Y-90890623D01*
X124035421Y-91047657D01*
X123607405Y-90990363D01*
X123071268Y-90748739D01*
X122796995Y-90598637D01*
X122280311Y-90287455D01*
X121931375Y-90039755D01*
X121776978Y-89926840D01*
X121518246Y-89904898D01*
X121184532Y-90149465D01*
X120579257Y-90624770D01*
X120457426Y-90688559D01*
X119609261Y-91132645D01*
X118645311Y-91370039D01*
X118225641Y-91375102D01*
X117259786Y-91171458D01*
X116374664Y-90713854D01*
X115693596Y-90057142D01*
X115614851Y-89939087D01*
X115323780Y-89361127D01*
X115214806Y-89072123D01*
X116028876Y-89072123D01*
X116085775Y-89357724D01*
X116451423Y-89823846D01*
X116479911Y-89853626D01*
X116977685Y-90256667D01*
X117511181Y-90541972D01*
X117718536Y-90598221D01*
X118251755Y-90646907D01*
X118808822Y-90610732D01*
X119263504Y-90502818D01*
X119489573Y-90336289D01*
X119441816Y-90181929D01*
X119131595Y-89926648D01*
X118611882Y-89643910D01*
X117960112Y-89369465D01*
X117253721Y-89139065D01*
X116570149Y-88988459D01*
X116280759Y-88966785D01*
X116028876Y-89072123D01*
X115214806Y-89072123D01*
X115056404Y-88652031D01*
X114863260Y-87959461D01*
X114814345Y-87581488D01*
X115557140Y-87581488D01*
X115584922Y-87929573D01*
X115885000Y-88143213D01*
X116497580Y-88259718D01*
X117023427Y-88359089D01*
X117783694Y-88583825D01*
X118539809Y-88876279D01*
X118560472Y-88885462D01*
X119197688Y-89183623D01*
X119733472Y-89460307D01*
X120053741Y-89656703D01*
X120350581Y-89791335D01*
X120680927Y-89633244D01*
X120875852Y-89446042D01*
X121019745Y-89270116D01*
X120973365Y-89161339D01*
X120690364Y-88904677D01*
X120225299Y-88576557D01*
X119659487Y-88229174D01*
X119074244Y-87914723D01*
X118550888Y-87685402D01*
X118334379Y-87612231D01*
X117636834Y-87433661D01*
X116924940Y-87318158D01*
X116288552Y-87273553D01*
X115817523Y-87307678D01*
X115601710Y-87428364D01*
X115557140Y-87581488D01*
X114814345Y-87581488D01*
X114794881Y-87431082D01*
X114688449Y-87307354D01*
X114281157Y-87255553D01*
X114067594Y-87243408D01*
X113489865Y-87148150D01*
X112859675Y-86987994D01*
X111956916Y-86713039D01*
X111954661Y-86689836D01*
X118104791Y-86689836D01*
X118319298Y-86827128D01*
X118818986Y-87021570D01*
X119694629Y-87340278D01*
X119455376Y-86729727D01*
X119420857Y-86641176D01*
X119270474Y-86242689D01*
X119202177Y-86039385D01*
X119146771Y-86006337D01*
X118887218Y-86068678D01*
X118534279Y-86236853D01*
X118220259Y-86454879D01*
X118120088Y-86557283D01*
X118104791Y-86689836D01*
X111954661Y-86689836D01*
X111868238Y-85800474D01*
X111860100Y-85578772D01*
X112541721Y-85578772D01*
X112560836Y-85864979D01*
X112638302Y-86150077D01*
X112842727Y-86317300D01*
X113250523Y-86417038D01*
X113938101Y-86499685D01*
X114535815Y-86539067D01*
X115954939Y-86443668D01*
X117274511Y-86096877D01*
X118344767Y-85547613D01*
X119737731Y-85547613D01*
X120410739Y-86954274D01*
X120635628Y-87400546D01*
X120865545Y-87766457D01*
X121228913Y-88344752D01*
X121875951Y-89035245D01*
X122194452Y-89294596D01*
X122796957Y-89740719D01*
X123311700Y-90072812D01*
X123488849Y-90168796D01*
X123621810Y-90240838D01*
X123910194Y-90317564D01*
X124160236Y-90186420D01*
X124510320Y-89817985D01*
X124969623Y-89215388D01*
X125559772Y-88128027D01*
X125989436Y-86938026D01*
X126195977Y-85794881D01*
X126187721Y-84605409D01*
X125887844Y-83098616D01*
X125267396Y-81734126D01*
X124338991Y-80537570D01*
X123115236Y-79534573D01*
X122330654Y-79019441D01*
X122277775Y-80135761D01*
X122033186Y-81669772D01*
X121842865Y-82159375D01*
X121455135Y-83156815D01*
X120569471Y-84517872D01*
X119799321Y-85471360D01*
X119737731Y-85547613D01*
X118344767Y-85547613D01*
X118399335Y-85519608D01*
X118929336Y-85154712D01*
X118937105Y-84519952D01*
X119633064Y-84519952D01*
X120082106Y-84036055D01*
X120136923Y-83971945D01*
X120451061Y-83464459D01*
X120791473Y-82736754D01*
X121119165Y-81895970D01*
X121395145Y-81049244D01*
X121580421Y-80303716D01*
X121635998Y-79766526D01*
X121603322Y-79183574D01*
X121108982Y-79765061D01*
X120816130Y-80196025D01*
X120455472Y-80893327D01*
X120125217Y-81691235D01*
X120098158Y-81766702D01*
X119863973Y-82523538D01*
X119697917Y-83242759D01*
X119634427Y-83777936D01*
X119633064Y-84519952D01*
X118937105Y-84519952D01*
X118943811Y-83972021D01*
X119050326Y-82862197D01*
X119434449Y-81430526D01*
X120055387Y-80092271D01*
X120868462Y-78963696D01*
X120885076Y-78944439D01*
X120921336Y-78715609D01*
X120630371Y-78544501D01*
X120037455Y-78439365D01*
X119167861Y-78408455D01*
X119006823Y-78413410D01*
X117895430Y-78597185D01*
X116722836Y-79004634D01*
X115620319Y-79580803D01*
X114719156Y-80270739D01*
X114410599Y-80593060D01*
X113616619Y-81698501D01*
X113010977Y-82969854D01*
X112637927Y-84299236D01*
X112541721Y-85578772D01*
X111860100Y-85578772D01*
X111851239Y-85337393D01*
X111892854Y-84530493D01*
X111999366Y-83749001D01*
X112071232Y-83420996D01*
X112598553Y-81981345D01*
X113415275Y-80681867D01*
X114474366Y-79565166D01*
X115728792Y-78673847D01*
X117131519Y-78050515D01*
X118635512Y-77737775D01*
X118649734Y-77736449D01*
X119239507Y-77666022D01*
X119287082Y-77649953D01*
X120490315Y-77649953D01*
X122016896Y-78205583D01*
X123543475Y-78761212D01*
X123631525Y-78215403D01*
X123648230Y-78009425D01*
X123516101Y-77352914D01*
X123160375Y-76780635D01*
X122653354Y-76424932D01*
X122121220Y-76359639D01*
X121504156Y-76494736D01*
X120970569Y-76791102D01*
X120655302Y-77196655D01*
X120490315Y-77649953D01*
X119287082Y-77649953D01*
X119593785Y-77546360D01*
X119831758Y-77305670D01*
X120072618Y-76872160D01*
X120094918Y-76828149D01*
X120309116Y-76339492D01*
X120344563Y-76015059D01*
X120217224Y-75728606D01*
X119885069Y-75216583D01*
X119594777Y-74733696D01*
X119474674Y-74452640D01*
X119504577Y-74320742D01*
X119664307Y-74285320D01*
X119768564Y-74302983D01*
G37*
G36*
X142078225Y-139235796D02*
G01*
X142168570Y-139417232D01*
X142276938Y-139884589D01*
X142330471Y-140441633D01*
X142318221Y-140942856D01*
X142229238Y-141242752D01*
X142092722Y-141332274D01*
X141885993Y-141203245D01*
X141708095Y-140765973D01*
X141575725Y-140050910D01*
X141561406Y-139612581D01*
X141654624Y-139226472D01*
X141838820Y-139081536D01*
X142078225Y-139235796D01*
G37*
G36*
X140059327Y-139236368D02*
G01*
X140187785Y-139530337D01*
X140239871Y-140009939D01*
X140208646Y-140564496D01*
X140087172Y-141083333D01*
X139950625Y-141372168D01*
X139754476Y-141514681D01*
X139598629Y-141326815D01*
X139518441Y-140824651D01*
X139516020Y-140426028D01*
X139590572Y-139792521D01*
X139748798Y-139355137D01*
X139968692Y-139193583D01*
X140059327Y-139236368D01*
G37*
G36*
X136581943Y-138193101D02*
G01*
X136465913Y-138625110D01*
X136217652Y-139133818D01*
X135878331Y-139613377D01*
X135617221Y-139855051D01*
X135331760Y-139923195D01*
X135171843Y-139678617D01*
X135211620Y-139476246D01*
X135412929Y-139098825D01*
X135716105Y-138666280D01*
X136050168Y-138269383D01*
X136344134Y-137998903D01*
X136527026Y-137945611D01*
X136581943Y-138193101D01*
G37*
G36*
X134245478Y-135329187D02*
G01*
X134244304Y-135482966D01*
X134005588Y-135715689D01*
X133461546Y-136013258D01*
X132882244Y-136273424D01*
X132509609Y-136375566D01*
X132328012Y-136299843D01*
X132276994Y-136048029D01*
X132336788Y-135855491D01*
X132634381Y-135567259D01*
X133084110Y-135330320D01*
X133575911Y-135184866D01*
X133999721Y-135171092D01*
X134245478Y-135329187D01*
G37*
G36*
X143812827Y-138674424D02*
G01*
X144043577Y-138996891D01*
X144280698Y-139464046D01*
X144476662Y-139962980D01*
X144583938Y-140380780D01*
X144555000Y-140604538D01*
X144387594Y-140699822D01*
X144222183Y-140644335D01*
X144026564Y-140366492D01*
X143746054Y-139812774D01*
X143580007Y-139434572D01*
X143431053Y-138913428D01*
X143474698Y-138624453D01*
X143711905Y-138601682D01*
X143812827Y-138674424D01*
G37*
G36*
X135204866Y-136684484D02*
G01*
X135226277Y-136965748D01*
X134991544Y-137364988D01*
X134526674Y-137825948D01*
X134279673Y-138023364D01*
X133844483Y-138302422D01*
X133585289Y-138326429D01*
X133461140Y-138106153D01*
X133496668Y-137989604D01*
X133729481Y-137684571D01*
X134097891Y-137308436D01*
X134509296Y-136946450D01*
X134871095Y-136683866D01*
X135090687Y-136605934D01*
X135204866Y-136684484D01*
G37*
G36*
X138168073Y-138903401D02*
G01*
X138258751Y-138981002D01*
X138333223Y-139281766D01*
X138228063Y-139817558D01*
X138172988Y-139999519D01*
X137995124Y-140480430D01*
X137840069Y-140769227D01*
X137737960Y-140847295D01*
X137408525Y-140875910D01*
X137366073Y-140855997D01*
X137277583Y-140695932D01*
X137327354Y-140354790D01*
X137522676Y-139761383D01*
X137675837Y-139355956D01*
X137851183Y-138986399D01*
X137999727Y-138856201D01*
X138168073Y-138903401D01*
G37*
G36*
X140968564Y-121302983D02*
G01*
X141351627Y-121536222D01*
X141813234Y-121993553D01*
X142078023Y-122292261D01*
X142377456Y-122562395D01*
X142646661Y-122655787D01*
X143002176Y-122635345D01*
X143365555Y-122616949D01*
X144199647Y-122811487D01*
X144900998Y-123329314D01*
X145044231Y-123478187D01*
X145293614Y-123645564D01*
X145617909Y-123674480D01*
X146153922Y-123593815D01*
X146709999Y-123528633D01*
X147257403Y-123551299D01*
X147608159Y-123669568D01*
X147684960Y-123869517D01*
X147559003Y-123962808D01*
X147163598Y-124108582D01*
X146604133Y-124248422D01*
X146118171Y-124356938D01*
X145767077Y-124485675D01*
X145619358Y-124660355D01*
X145591892Y-124937570D01*
X145562629Y-125319373D01*
X145435106Y-125868975D01*
X145422613Y-125904699D01*
X145409895Y-126003769D01*
X145382528Y-126216963D01*
X145533770Y-126518759D01*
X145927014Y-126918181D01*
X145955635Y-126944894D01*
X146371612Y-127426237D01*
X146831494Y-128088430D01*
X147240868Y-128796495D01*
X147439592Y-129210435D01*
X147951629Y-130764365D01*
X148123007Y-132338999D01*
X147956881Y-133893479D01*
X147458008Y-135382164D01*
X147456405Y-135386949D01*
X146624734Y-136778550D01*
X146598393Y-136813587D01*
X146058150Y-137489264D01*
X145628081Y-137890623D01*
X145235421Y-138047657D01*
X144807405Y-137990363D01*
X144271268Y-137748739D01*
X143996995Y-137598637D01*
X143480311Y-137287455D01*
X143131375Y-137039755D01*
X142976978Y-136926840D01*
X142718246Y-136904898D01*
X142384532Y-137149465D01*
X141779257Y-137624770D01*
X141657426Y-137688559D01*
X140809261Y-138132645D01*
X139845311Y-138370039D01*
X139425641Y-138375102D01*
X138459786Y-138171458D01*
X137574664Y-137713854D01*
X136893596Y-137057142D01*
X136814851Y-136939087D01*
X136523780Y-136361127D01*
X136414806Y-136072123D01*
X137228876Y-136072123D01*
X137285775Y-136357724D01*
X137651423Y-136823846D01*
X137679911Y-136853626D01*
X138177685Y-137256667D01*
X138711181Y-137541972D01*
X138918536Y-137598221D01*
X139451755Y-137646907D01*
X140008822Y-137610732D01*
X140463504Y-137502818D01*
X140689573Y-137336289D01*
X140641816Y-137181929D01*
X140331595Y-136926648D01*
X139811882Y-136643910D01*
X139160112Y-136369465D01*
X138453721Y-136139065D01*
X137770149Y-135988459D01*
X137480759Y-135966785D01*
X137228876Y-136072123D01*
X136414806Y-136072123D01*
X136256404Y-135652031D01*
X136063260Y-134959461D01*
X136014345Y-134581488D01*
X136757140Y-134581488D01*
X136784922Y-134929573D01*
X137085000Y-135143213D01*
X137697580Y-135259718D01*
X138223427Y-135359089D01*
X138983694Y-135583825D01*
X139739809Y-135876279D01*
X139760472Y-135885462D01*
X140397688Y-136183623D01*
X140933472Y-136460307D01*
X141253741Y-136656703D01*
X141550581Y-136791335D01*
X141880927Y-136633244D01*
X142075852Y-136446042D01*
X142219745Y-136270116D01*
X142173365Y-136161339D01*
X141890364Y-135904677D01*
X141425299Y-135576557D01*
X140859487Y-135229174D01*
X140274244Y-134914723D01*
X139750888Y-134685402D01*
X139534379Y-134612231D01*
X138836834Y-134433661D01*
X138124940Y-134318158D01*
X137488552Y-134273553D01*
X137017523Y-134307678D01*
X136801710Y-134428364D01*
X136757140Y-134581488D01*
X136014345Y-134581488D01*
X135994881Y-134431082D01*
X135888449Y-134307354D01*
X135481157Y-134255553D01*
X135267594Y-134243408D01*
X134689865Y-134148150D01*
X134059675Y-133987994D01*
X133156916Y-133713039D01*
X133154661Y-133689836D01*
X139304791Y-133689836D01*
X139519298Y-133827128D01*
X140018986Y-134021570D01*
X140894629Y-134340278D01*
X140655376Y-133729727D01*
X140620857Y-133641176D01*
X140470474Y-133242689D01*
X140402177Y-133039385D01*
X140346771Y-133006337D01*
X140087218Y-133068678D01*
X139734279Y-133236853D01*
X139420259Y-133454879D01*
X139320088Y-133557283D01*
X139304791Y-133689836D01*
X133154661Y-133689836D01*
X133068238Y-132800474D01*
X133060100Y-132578772D01*
X133741721Y-132578772D01*
X133760836Y-132864979D01*
X133838302Y-133150077D01*
X134042727Y-133317300D01*
X134450523Y-133417038D01*
X135138101Y-133499685D01*
X135735815Y-133539067D01*
X137154939Y-133443668D01*
X138474511Y-133096877D01*
X139544767Y-132547613D01*
X140937731Y-132547613D01*
X141610739Y-133954274D01*
X141835628Y-134400546D01*
X142065545Y-134766457D01*
X142428913Y-135344752D01*
X143075951Y-136035245D01*
X143394452Y-136294596D01*
X143996957Y-136740719D01*
X144511700Y-137072812D01*
X144688849Y-137168796D01*
X144821810Y-137240838D01*
X145110194Y-137317564D01*
X145360236Y-137186420D01*
X145710320Y-136817985D01*
X146169623Y-136215388D01*
X146759772Y-135128027D01*
X147189436Y-133938026D01*
X147395977Y-132794881D01*
X147387721Y-131605409D01*
X147087844Y-130098616D01*
X146467396Y-128734126D01*
X145538991Y-127537570D01*
X144315236Y-126534573D01*
X143530654Y-126019441D01*
X143477775Y-127135761D01*
X143233186Y-128669772D01*
X143042865Y-129159375D01*
X142655135Y-130156815D01*
X141769471Y-131517872D01*
X140999321Y-132471360D01*
X140937731Y-132547613D01*
X139544767Y-132547613D01*
X139599335Y-132519608D01*
X140129336Y-132154712D01*
X140137105Y-131519952D01*
X140833064Y-131519952D01*
X141282106Y-131036055D01*
X141336923Y-130971945D01*
X141651061Y-130464459D01*
X141991473Y-129736754D01*
X142319165Y-128895970D01*
X142595145Y-128049244D01*
X142780421Y-127303716D01*
X142835998Y-126766526D01*
X142803322Y-126183574D01*
X142308982Y-126765061D01*
X142016130Y-127196025D01*
X141655472Y-127893327D01*
X141325217Y-128691235D01*
X141298158Y-128766702D01*
X141063973Y-129523538D01*
X140897917Y-130242759D01*
X140834427Y-130777936D01*
X140833064Y-131519952D01*
X140137105Y-131519952D01*
X140143811Y-130972021D01*
X140250326Y-129862197D01*
X140634449Y-128430526D01*
X141255387Y-127092271D01*
X142068462Y-125963696D01*
X142085076Y-125944439D01*
X142121336Y-125715609D01*
X141830371Y-125544501D01*
X141237455Y-125439365D01*
X140367861Y-125408455D01*
X140206823Y-125413410D01*
X139095430Y-125597185D01*
X137922836Y-126004634D01*
X136820319Y-126580803D01*
X135919156Y-127270739D01*
X135610599Y-127593060D01*
X134816619Y-128698501D01*
X134210977Y-129969854D01*
X133837927Y-131299236D01*
X133741721Y-132578772D01*
X133060100Y-132578772D01*
X133051239Y-132337393D01*
X133092854Y-131530493D01*
X133199366Y-130749001D01*
X133271232Y-130420996D01*
X133798553Y-128981345D01*
X134615275Y-127681867D01*
X135674366Y-126565166D01*
X136928792Y-125673847D01*
X138331519Y-125050515D01*
X139835512Y-124737775D01*
X139849734Y-124736449D01*
X140439507Y-124666022D01*
X140487082Y-124649953D01*
X141690315Y-124649953D01*
X143216896Y-125205583D01*
X144743475Y-125761212D01*
X144831525Y-125215403D01*
X144848230Y-125009425D01*
X144716101Y-124352914D01*
X144360375Y-123780635D01*
X143853354Y-123424932D01*
X143321220Y-123359639D01*
X142704156Y-123494736D01*
X142170569Y-123791102D01*
X141855302Y-124196655D01*
X141690315Y-124649953D01*
X140487082Y-124649953D01*
X140793785Y-124546360D01*
X141031758Y-124305670D01*
X141272618Y-123872160D01*
X141294918Y-123828149D01*
X141509116Y-123339492D01*
X141544563Y-123015059D01*
X141417224Y-122728606D01*
X141085069Y-122216583D01*
X140794777Y-121733696D01*
X140674674Y-121452640D01*
X140704577Y-121320742D01*
X140864307Y-121285320D01*
X140968564Y-121302983D01*
G37*
%TO.C,B1*%
G36*
X153809043Y-106824651D02*
G01*
X153955994Y-106964246D01*
X154217672Y-107366354D01*
X154458497Y-107871494D01*
X154618414Y-108346680D01*
X154637368Y-108658924D01*
X154539703Y-108789738D01*
X154301311Y-108739196D01*
X153984586Y-108389139D01*
X153615633Y-107762473D01*
X153452260Y-107355476D01*
X153407799Y-106960770D01*
X153531316Y-106761576D01*
X153809043Y-106824651D01*
G37*
G36*
X151912095Y-107515693D02*
G01*
X152133349Y-107747998D01*
X152346328Y-108180862D01*
X152506656Y-108712655D01*
X152569960Y-109241748D01*
X152540435Y-109559867D01*
X152404858Y-109760872D01*
X152194155Y-109637638D01*
X151947053Y-109193185D01*
X151808441Y-108819429D01*
X151661825Y-108198629D01*
X151660914Y-107733506D01*
X151812293Y-107506487D01*
X151912095Y-107515693D01*
G37*
G36*
X148287605Y-107724678D02*
G01*
X148326328Y-108170318D01*
X148267027Y-108733258D01*
X148112189Y-109299950D01*
X147949483Y-109616354D01*
X147704544Y-109778022D01*
X147470620Y-109602889D01*
X147438784Y-109399118D01*
X147498867Y-108975606D01*
X147635820Y-108465454D01*
X147813989Y-107978237D01*
X147997718Y-107623527D01*
X148151353Y-107510896D01*
X148287605Y-107724678D01*
G37*
G36*
X145112529Y-105832597D02*
G01*
X145164022Y-105977503D01*
X145019298Y-106277837D01*
X144609840Y-106743534D01*
X144154457Y-107186143D01*
X143839229Y-107409574D01*
X143642685Y-107400527D01*
X143508618Y-107181349D01*
X143498954Y-106979971D01*
X143680019Y-106607339D01*
X144021588Y-106230873D01*
X144433982Y-105925985D01*
X144827522Y-105768090D01*
X145112529Y-105832597D01*
G37*
G36*
X155247035Y-105703865D02*
G01*
X155574159Y-105927964D01*
X155956757Y-106285846D01*
X156311548Y-106687667D01*
X156555251Y-107043580D01*
X156604587Y-107263741D01*
X156479866Y-107410535D01*
X156305453Y-107414968D01*
X156026604Y-107220787D01*
X155573628Y-106796402D01*
X155288242Y-106497800D01*
X154970029Y-106059030D01*
X154912207Y-105772555D01*
X155127320Y-105670028D01*
X155247035Y-105703865D01*
G37*
G36*
X146477598Y-106778030D02*
G01*
X146593916Y-107035008D01*
X146509887Y-107490455D01*
X146230710Y-108082610D01*
X146066125Y-108352600D01*
X145752624Y-108763672D01*
X145517272Y-108874881D01*
X145325271Y-108710351D01*
X145318794Y-108588679D01*
X145433240Y-108222415D01*
X145650786Y-107742960D01*
X145913574Y-107262096D01*
X146163744Y-106891605D01*
X146343439Y-106743268D01*
X146477598Y-106778030D01*
G37*
G36*
X150132767Y-107891560D02*
G01*
X150305615Y-108148715D01*
X150390048Y-108688162D01*
X150400529Y-108877986D01*
X150397873Y-109390728D01*
X150350943Y-109715140D01*
X150281693Y-109823423D01*
X149981912Y-109962986D01*
X149935210Y-109958793D01*
X149797311Y-109838647D01*
X149727403Y-109501055D01*
X149707988Y-108876631D01*
X149713248Y-108443270D01*
X149751624Y-108036028D01*
X149846679Y-107862877D01*
X150021016Y-107849653D01*
X150132767Y-107891560D01*
G37*
G36*
X152461369Y-93460812D02*
G01*
X152706710Y-93692680D01*
X153212849Y-93933516D01*
X153248880Y-93948829D01*
X153804400Y-94258871D01*
X154463031Y-94723840D01*
X155089889Y-95249189D01*
X155418204Y-95570198D01*
X156430837Y-96855288D01*
X157130436Y-98276345D01*
X157505993Y-99793897D01*
X157546366Y-101363428D01*
X157546496Y-101368472D01*
X157240936Y-102960598D01*
X157228167Y-103002531D01*
X156951600Y-103822234D01*
X156684740Y-104346480D01*
X156369469Y-104628341D01*
X155947670Y-104720893D01*
X155361226Y-104677210D01*
X155052156Y-104629967D01*
X154460201Y-104514268D01*
X154047590Y-104400849D01*
X153863885Y-104347551D01*
X153613252Y-104415424D01*
X153383310Y-104759378D01*
X152977102Y-105413035D01*
X152884435Y-105514646D01*
X152239307Y-106222040D01*
X151414684Y-106774807D01*
X151022055Y-106923101D01*
X150044797Y-107062080D01*
X149056545Y-106934802D01*
X148191942Y-106550634D01*
X148077569Y-106466631D01*
X147606377Y-106023078D01*
X147165984Y-105510346D01*
X148170105Y-105510346D01*
X148321255Y-105759263D01*
X148824274Y-106072215D01*
X148861230Y-106090456D01*
X149466832Y-106298942D01*
X150065735Y-106384574D01*
X150279823Y-106366512D01*
X150797537Y-106229890D01*
X151308635Y-106005368D01*
X151698988Y-105748452D01*
X151854467Y-105514646D01*
X151756796Y-105385929D01*
X151377973Y-105252145D01*
X150792900Y-105164210D01*
X150086571Y-105129235D01*
X149343979Y-105154329D01*
X148650121Y-105246602D01*
X148370770Y-105325212D01*
X148170105Y-105510346D01*
X147165984Y-105510346D01*
X147112601Y-105448194D01*
X146694232Y-104863450D01*
X146449260Y-104390323D01*
X146306930Y-104310459D01*
X145906483Y-104401084D01*
X145701646Y-104462714D01*
X145126178Y-104570796D01*
X144479217Y-104635836D01*
X143536861Y-104686225D01*
X143262263Y-104111817D01*
X147206502Y-104111817D01*
X147216992Y-104270951D01*
X147362150Y-104588542D01*
X147717200Y-104686665D01*
X148332684Y-104586629D01*
X148860806Y-104500157D01*
X149652087Y-104451313D01*
X150462628Y-104467524D01*
X150485186Y-104469085D01*
X151185950Y-104531325D01*
X151784054Y-104608073D01*
X152152180Y-104683087D01*
X152477165Y-104708074D01*
X152733518Y-104446532D01*
X152852661Y-104203952D01*
X152927706Y-103989421D01*
X152846919Y-103903067D01*
X152493202Y-103758676D01*
X151943960Y-103609405D01*
X151293458Y-103476491D01*
X150635961Y-103381169D01*
X150065735Y-103344676D01*
X149837257Y-103349968D01*
X149120705Y-103420742D01*
X148412239Y-103555686D01*
X147798974Y-103731429D01*
X147368023Y-103924597D01*
X147206502Y-104111817D01*
X143262263Y-104111817D01*
X143141415Y-103859024D01*
X142967058Y-103429684D01*
X142730187Y-102657213D01*
X142562990Y-101886421D01*
X142518338Y-101553618D01*
X142519859Y-100808271D01*
X143247109Y-100808271D01*
X143351232Y-102185073D01*
X143698455Y-103420347D01*
X143814306Y-103682756D01*
X143984610Y-103924166D01*
X144233900Y-104011386D01*
X144651215Y-103965635D01*
X145325594Y-103808132D01*
X145900731Y-103640709D01*
X147201643Y-103065694D01*
X148116068Y-102431933D01*
X149275076Y-102431933D01*
X149306037Y-102561724D01*
X149554565Y-102617370D01*
X150090621Y-102629183D01*
X151022461Y-102629183D01*
X150588816Y-102137282D01*
X150526092Y-102065878D01*
X150248488Y-101742856D01*
X150114776Y-101575172D01*
X150051408Y-101563067D01*
X149828830Y-101710420D01*
X149554695Y-101989166D01*
X149334182Y-102301444D01*
X149275076Y-102431933D01*
X148116068Y-102431933D01*
X148323025Y-102288497D01*
X149182577Y-101361329D01*
X149489791Y-100929887D01*
X150449836Y-100929887D01*
X151563363Y-102021534D01*
X151927323Y-102363976D01*
X152268524Y-102629183D01*
X152807767Y-103048324D01*
X153651946Y-103475875D01*
X154039942Y-103610651D01*
X154758695Y-103823801D01*
X155355977Y-103959814D01*
X155555271Y-103989421D01*
X155704854Y-104011643D01*
X156002088Y-103985108D01*
X156192197Y-103776354D01*
X156395156Y-103310403D01*
X156620659Y-102587056D01*
X156803318Y-101363428D01*
X156800066Y-100098239D01*
X156603173Y-98953393D01*
X156188591Y-97838479D01*
X155391445Y-96525120D01*
X154341732Y-95455125D01*
X153060070Y-94648263D01*
X151567072Y-94124303D01*
X150653620Y-93908580D01*
X150985734Y-94975663D01*
X151280558Y-96500817D01*
X151269169Y-97025987D01*
X151245967Y-98095885D01*
X150879223Y-99677775D01*
X150481632Y-100837168D01*
X150449836Y-100929887D01*
X149489791Y-100929887D01*
X149555813Y-100837168D01*
X149164911Y-99720852D01*
X148885420Y-98641528D01*
X148757478Y-97173549D01*
X149494995Y-97173549D01*
X149495379Y-97253720D01*
X149534170Y-98045009D01*
X149624116Y-98777650D01*
X149747497Y-99302267D01*
X150000000Y-100000000D01*
X150256459Y-99391704D01*
X150286044Y-99312712D01*
X150407666Y-98728390D01*
X150478659Y-97928143D01*
X150499024Y-97025987D01*
X150468763Y-96135934D01*
X150387880Y-95371999D01*
X150256375Y-94848197D01*
X150026288Y-94311577D01*
X149760641Y-95027070D01*
X149632848Y-95532205D01*
X149532432Y-96310807D01*
X149494995Y-97173549D01*
X148757478Y-97173549D01*
X148756717Y-97164819D01*
X148882498Y-95694898D01*
X149260543Y-94356296D01*
X149269569Y-94332518D01*
X149225378Y-94105086D01*
X148893438Y-94043813D01*
X148300320Y-94147807D01*
X147472597Y-94416180D01*
X147322966Y-94475914D01*
X146341453Y-95028725D01*
X145378931Y-95812653D01*
X144539965Y-96731158D01*
X143929121Y-97687701D01*
X143749412Y-98096117D01*
X143381398Y-99406449D01*
X143247109Y-100808271D01*
X142519859Y-100808271D01*
X142521467Y-100020434D01*
X142844487Y-98519989D01*
X143457773Y-97108403D01*
X144331699Y-95841798D01*
X145436639Y-94776297D01*
X146742967Y-93968021D01*
X146755878Y-93961911D01*
X147285996Y-93694017D01*
X147577981Y-93460401D01*
X147674131Y-93251115D01*
X148455875Y-93251115D01*
X150080428Y-93251115D01*
X151704980Y-93251115D01*
X151601042Y-92708107D01*
X151546291Y-92508838D01*
X151197590Y-91937110D01*
X150667586Y-91521009D01*
X150069484Y-91360169D01*
X149547111Y-91480814D01*
X149013466Y-91818813D01*
X148613422Y-92279803D01*
X148455875Y-92768726D01*
X148455875Y-93251115D01*
X147674131Y-93251115D01*
X147719282Y-93152835D01*
X147797347Y-92663090D01*
X147803250Y-92614106D01*
X147837399Y-92081659D01*
X147759746Y-91764668D01*
X147542114Y-91539042D01*
X147054868Y-91171502D01*
X146616926Y-90817022D01*
X146407939Y-90593994D01*
X146390927Y-90459822D01*
X146528909Y-90371906D01*
X146632920Y-90352846D01*
X147072653Y-90441004D01*
X147662838Y-90712875D01*
X148013823Y-90903006D01*
X148387589Y-91054437D01*
X148672501Y-91050123D01*
X148999584Y-90909320D01*
X149334757Y-90767751D01*
X150185083Y-90665280D01*
X151021245Y-90912002D01*
X151206757Y-91002909D01*
X151498347Y-91074898D01*
X151812974Y-90991154D01*
X152289073Y-90732027D01*
X152789321Y-90480586D01*
X153311464Y-90314662D01*
X153681518Y-90305833D01*
X153822073Y-90467456D01*
X153735620Y-90598201D01*
X153413918Y-90870420D01*
X152936022Y-91193175D01*
X152516481Y-91461355D01*
X152230591Y-91702410D01*
X152151525Y-91917078D01*
X152220529Y-92186969D01*
X152323615Y-92555755D01*
X152391757Y-93115828D01*
X152392236Y-93153670D01*
X152414169Y-93251115D01*
X152461369Y-93460812D01*
G37*
%TD*%
M02*
