%TF.GenerationSoftware,KiCad,Pcbnew,7.0.11*%
%TF.CreationDate,2025-03-11T10:56:17-07:00*%
%TF.ProjectId,nightLight,6e696768-744c-4696-9768-742e6b696361,rev?*%
%TF.SameCoordinates,Original*%
%TF.FileFunction,Copper,L1,Top*%
%TF.FilePolarity,Positive*%
%FSLAX46Y46*%
G04 Gerber Fmt 4.6, Leading zero omitted, Abs format (unit mm)*
G04 Created by KiCad (PCBNEW 7.0.11) date 2025-03-11 10:56:17*
%MOMM*%
%LPD*%
G01*
G04 APERTURE LIST*
G04 Aperture macros list*
%AMRoundRect*
0 Rectangle with rounded corners*
0 $1 Rounding radius*
0 $2 $3 $4 $5 $6 $7 $8 $9 X,Y pos of 4 corners*
0 Add a 4 corners polygon primitive as box body*
4,1,4,$2,$3,$4,$5,$6,$7,$8,$9,$2,$3,0*
0 Add four circle primitives for the rounded corners*
1,1,$1+$1,$2,$3*
1,1,$1+$1,$4,$5*
1,1,$1+$1,$6,$7*
1,1,$1+$1,$8,$9*
0 Add four rect primitives between the rounded corners*
20,1,$1+$1,$2,$3,$4,$5,0*
20,1,$1+$1,$4,$5,$6,$7,0*
20,1,$1+$1,$6,$7,$8,$9,0*
20,1,$1+$1,$8,$9,$2,$3,0*%
G04 Aperture macros list end*
%TA.AperFunction,SMDPad,CuDef*%
%ADD10R,1.250000X1.080000*%
%TD*%
%TA.AperFunction,SMDPad,CuDef*%
%ADD11R,1.000000X0.700000*%
%TD*%
%TA.AperFunction,SMDPad,CuDef*%
%ADD12RoundRect,0.250000X-0.650000X0.325000X-0.650000X-0.325000X0.650000X-0.325000X0.650000X0.325000X0*%
%TD*%
%TA.AperFunction,SMDPad,CuDef*%
%ADD13RoundRect,0.250000X0.312500X0.625000X-0.312500X0.625000X-0.312500X-0.625000X0.312500X-0.625000X0*%
%TD*%
%TA.AperFunction,SMDPad,CuDef*%
%ADD14RoundRect,0.250000X-0.312500X-0.625000X0.312500X-0.625000X0.312500X0.625000X-0.312500X0.625000X0*%
%TD*%
%TA.AperFunction,SMDPad,CuDef*%
%ADD15RoundRect,0.250000X0.325000X0.650000X-0.325000X0.650000X-0.325000X-0.650000X0.325000X-0.650000X0*%
%TD*%
%TA.AperFunction,SMDPad,CuDef*%
%ADD16R,2.500000X1.150000*%
%TD*%
%TA.AperFunction,SMDPad,CuDef*%
%ADD17RoundRect,0.150000X0.825000X0.150000X-0.825000X0.150000X-0.825000X-0.150000X0.825000X-0.150000X0*%
%TD*%
%TA.AperFunction,SMDPad,CuDef*%
%ADD18RoundRect,0.250000X0.625000X-0.312500X0.625000X0.312500X-0.625000X0.312500X-0.625000X-0.312500X0*%
%TD*%
%TA.AperFunction,SMDPad,CuDef*%
%ADD19R,1.000000X2.510000*%
%TD*%
%TA.AperFunction,SMDPad,CuDef*%
%ADD20RoundRect,0.250000X-0.625000X0.312500X-0.625000X-0.312500X0.625000X-0.312500X0.625000X0.312500X0*%
%TD*%
%TA.AperFunction,SMDPad,CuDef*%
%ADD21R,1.425000X0.450000*%
%TD*%
%TA.AperFunction,SMDPad,CuDef*%
%ADD22R,1.900000X1.000000*%
%TD*%
%TA.AperFunction,SMDPad,CuDef*%
%ADD23RoundRect,0.150000X-0.512500X-0.150000X0.512500X-0.150000X0.512500X0.150000X-0.512500X0.150000X0*%
%TD*%
%TA.AperFunction,SMDPad,CuDef*%
%ADD24R,1.000000X3.150000*%
%TD*%
%TA.AperFunction,SMDPad,CuDef*%
%ADD25RoundRect,1.250000X-1.250000X-1.250000X1.250000X-1.250000X1.250000X1.250000X-1.250000X1.250000X0*%
%TD*%
%TA.AperFunction,SMDPad,CuDef*%
%ADD26RoundRect,0.250000X-0.325000X-0.650000X0.325000X-0.650000X0.325000X0.650000X-0.325000X0.650000X0*%
%TD*%
%TA.AperFunction,SMDPad,CuDef*%
%ADD27RoundRect,0.381000X-0.762000X-0.381000X0.762000X-0.381000X0.762000X0.381000X-0.762000X0.381000X0*%
%TD*%
%TA.AperFunction,ComponentPad*%
%ADD28C,1.000000*%
%TD*%
%TA.AperFunction,Conductor*%
%ADD29C,0.500000*%
%TD*%
%TA.AperFunction,Conductor*%
%ADD30C,0.300000*%
%TD*%
G04 APERTURE END LIST*
D10*
%TO.P,LED1,1,K*%
%TO.N,Net-(LED1-K)*%
X160400000Y-137560000D03*
%TO.P,LED1,2,A*%
%TO.N,Net-(LED1-A)*%
X160400000Y-134440000D03*
%TD*%
D11*
%TO.P,RST,1*%
%TO.N,GND*%
X114000000Y-91150000D03*
%TO.P,RST,2*%
X120000000Y-91150000D03*
%TO.P,RST,3*%
%TO.N,RST_SW*%
X114000000Y-94850000D03*
%TO.P,RST,4*%
X120000000Y-94850000D03*
%TD*%
D12*
%TO.P,C6,1*%
%TO.N,+5V*%
X139000000Y-105525000D03*
%TO.P,C6,2*%
%TO.N,GND*%
X139000000Y-108475000D03*
%TD*%
D13*
%TO.P,R9,1*%
%TO.N,vBATT*%
X153962500Y-107000000D03*
%TO.P,R9,2*%
%TO.N,Batt_M*%
X151037500Y-107000000D03*
%TD*%
D14*
%TO.P,R2,1*%
%TO.N,Net-(J1-CC2)*%
X159137500Y-130800000D03*
%TO.P,R2,2*%
%TO.N,GND*%
X162062500Y-130800000D03*
%TD*%
%TO.P,R4,1*%
%TO.N,Net-(J1-CC1)*%
X161537500Y-128000000D03*
%TO.P,R4,2*%
%TO.N,GND*%
X164462500Y-128000000D03*
%TD*%
D15*
%TO.P,C1,1*%
%TO.N,vBATT*%
X168475000Y-94500000D03*
%TO.P,C1,2*%
%TO.N,GND*%
X165525000Y-94500000D03*
%TD*%
D16*
%TO.P,L1,1,1*%
%TO.N,vBATT*%
X167000000Y-102075000D03*
%TO.P,L1,2,2*%
%TO.N,Net-(IC1-LX)*%
X167000000Y-103925000D03*
%TD*%
D14*
%TO.P,R1,1*%
%TO.N,vBATT*%
X172537500Y-103000000D03*
%TO.P,R1,2*%
%TO.N,VBATT*%
X175462500Y-103000000D03*
%TD*%
%TO.P,R10,1*%
%TO.N,Batt_M*%
X151037500Y-104000000D03*
%TO.P,R10,2*%
%TO.N,GND*%
X153962500Y-104000000D03*
%TD*%
D13*
%TO.P,R12,1*%
%TO.N,+5V*%
X143712500Y-95500000D03*
%TO.P,R12,2*%
%TO.N,Tilt_SW*%
X140787500Y-95500000D03*
%TD*%
D15*
%TO.P,C4,1*%
%TO.N,VBATT*%
X180750000Y-107050000D03*
%TO.P,C4,2*%
%TO.N,GND*%
X177800000Y-107050000D03*
%TD*%
D17*
%TO.P,U2,1,VCC*%
%TO.N,+5V*%
X136475000Y-101810000D03*
%TO.P,U2,2,PA4*%
%TO.N,Batt_M*%
X136475000Y-100540000D03*
%TO.P,U2,3,PA5*%
%TO.N,Send*%
X136475000Y-99270000D03*
%TO.P,U2,4,PA6*%
%TO.N,Return*%
X136475000Y-98000000D03*
%TO.P,U2,5,PA7*%
%TO.N,Tilt_SW*%
X136475000Y-96730000D03*
%TO.P,U2,6,PB3*%
%TO.N,RX*%
X136475000Y-95460000D03*
%TO.P,U2,7,PB2*%
%TO.N,TX*%
X136475000Y-94190000D03*
%TO.P,U2,8,PB1*%
%TO.N,LED_DATA*%
X131525000Y-94190000D03*
%TO.P,U2,9,PB0*%
%TO.N,RST_SW*%
X131525000Y-95460000D03*
%TO.P,U2,10,~{RESET}/PA0*%
%TO.N,UPDI*%
X131525000Y-96730000D03*
%TO.P,U2,11,PA1*%
%TO.N,PA_1*%
X131525000Y-98000000D03*
%TO.P,U2,12,PA2*%
%TO.N,PA_2*%
X131525000Y-99270000D03*
%TO.P,U2,13,PA3*%
%TO.N,PA_3*%
X131525000Y-100540000D03*
%TO.P,U2,14,GND*%
%TO.N,GND*%
X131525000Y-101810000D03*
%TD*%
D18*
%TO.P,R11,1*%
%TO.N,+5V*%
X114000000Y-100462500D03*
%TO.P,R11,2*%
%TO.N,RST_SW*%
X114000000Y-97537500D03*
%TD*%
D14*
%TO.P,R6,1*%
%TO.N,Net-(U1-V_{DD})*%
X183812500Y-110050000D03*
%TO.P,R6,2*%
%TO.N,Net-(LED1-A)*%
X186737500Y-110050000D03*
%TD*%
D18*
%TO.P,R5,1*%
%TO.N,Net-(U1-PROG)*%
X185775000Y-103012500D03*
%TO.P,R5,2*%
%TO.N,GND*%
X185775000Y-100087500D03*
%TD*%
D19*
%TO.P,J2,1,Pin_1*%
%TO.N,+5V*%
X132460000Y-133905000D03*
%TO.P,J2,2,Pin_2*%
%TO.N,LED_DATA*%
X135000000Y-130595000D03*
%TO.P,J2,3,Pin_3*%
%TO.N,GND*%
X137540000Y-133905000D03*
%TD*%
D20*
%TO.P,R7,1*%
%TO.N,Net-(IC1-FB)*%
X156200000Y-94350000D03*
%TO.P,R7,2*%
%TO.N,+5V*%
X156200000Y-97312500D03*
%TD*%
D21*
%TO.P,IC1,1,LX*%
%TO.N,Net-(IC1-LX)*%
X163212000Y-97975000D03*
%TO.P,IC1,2,EN*%
%TO.N,Net-(IC1-EN)*%
X163212000Y-97325000D03*
%TO.P,IC1,3,VIN*%
%TO.N,vBATT*%
X163212000Y-96675000D03*
%TO.P,IC1,4,AGND*%
%TO.N,GND*%
X163212000Y-96025000D03*
%TO.P,IC1,5,FB*%
%TO.N,Net-(IC1-FB)*%
X158788000Y-96025000D03*
%TO.P,IC1,6,RSET*%
%TO.N,unconnected-(IC1-RSET-Pad6)*%
X158788000Y-96675000D03*
%TO.P,IC1,7,OUT*%
%TO.N,+5V*%
X158788000Y-97325000D03*
%TO.P,IC1,8,PGND*%
%TO.N,GND*%
X158788000Y-97975000D03*
%TD*%
D22*
%TO.P,J6,1,Pin_1*%
%TO.N,GND*%
X123850000Y-88920000D03*
%TO.P,J6,2,Pin_2*%
%TO.N,TX*%
X127150000Y-91460000D03*
%TO.P,J6,3,Pin_3*%
%TO.N,RX*%
X123850000Y-94000000D03*
%TO.P,J6,4,Pin_4*%
%TO.N,UPDI*%
X127150000Y-96540000D03*
%TO.P,J6,5,Pin_5*%
%TO.N,+5V*%
X123850000Y-99080000D03*
%TD*%
D19*
%TO.P,J3,1,Pin_1*%
%TO.N,+5V*%
X120460000Y-79655000D03*
%TO.P,J3,2,Pin_2*%
%TO.N,Net-(J3-Pin_2)*%
X123000000Y-76345000D03*
%TO.P,J3,3,Pin_3*%
%TO.N,GND*%
X125540000Y-79655000D03*
%TD*%
D12*
%TO.P,C3,1*%
%TO.N,+5V*%
X153250000Y-97275000D03*
%TO.P,C3,2*%
%TO.N,GND*%
X153250000Y-100225000D03*
%TD*%
D23*
%TO.P,U1,1,STAT*%
%TO.N,Net-(LED1-K)*%
X181000000Y-103050000D03*
%TO.P,U1,2,V_{SS}*%
%TO.N,GND*%
X181000000Y-104000000D03*
%TO.P,U1,3,V_{BAT}*%
%TO.N,VBATT*%
X181000000Y-104950000D03*
%TO.P,U1,4,V_{DD}*%
%TO.N,Net-(U1-V_{DD})*%
X183275000Y-104950000D03*
%TO.P,U1,5,PROG*%
%TO.N,Net-(U1-PROG)*%
X183275000Y-103050000D03*
%TD*%
D24*
%TO.P,SW1,1,1*%
%TO.N,Tilt_SW*%
X140750000Y-90275000D03*
%TO.P,SW1,2,2*%
%TO.N,GND*%
X140750000Y-85225000D03*
%TD*%
D12*
%TO.P,C5,1*%
%TO.N,+5V*%
X150250000Y-97275000D03*
%TO.P,C5,2*%
%TO.N,GND*%
X150250000Y-100225000D03*
%TD*%
D25*
%TO.P,BT1,1,+*%
%TO.N,VBATT*%
X180480000Y-118000000D03*
%TO.P,BT1,2,-*%
%TO.N,GND*%
X119520000Y-118000000D03*
%TD*%
D19*
%TO.P,J5,1,Pin_1*%
%TO.N,PA_1*%
X126460000Y-107905000D03*
%TO.P,J5,2,Pin_2*%
%TO.N,PA_2*%
X129000000Y-104595000D03*
%TO.P,J5,3,Pin_3*%
%TO.N,PA_3*%
X131540000Y-107905000D03*
%TD*%
%TO.P,J4,1,Pin_1*%
%TO.N,+5V*%
X175460000Y-79655000D03*
%TO.P,J4,2,Pin_2*%
%TO.N,Net-(J3-Pin_2)*%
X178000000Y-76345000D03*
%TO.P,J4,3,Pin_3*%
%TO.N,GND*%
X180540000Y-79655000D03*
%TD*%
D14*
%TO.P,R13,1*%
%TO.N,Send*%
X140787500Y-99500000D03*
%TO.P,R13,2*%
%TO.N,Return*%
X143712500Y-99500000D03*
%TD*%
D26*
%TO.P,C2,1*%
%TO.N,Net-(U1-V_{DD})*%
X183800000Y-107050000D03*
%TO.P,C2,2*%
%TO.N,GND*%
X186750000Y-107050000D03*
%TD*%
D27*
%TO.P,J1,A5,CC1*%
%TO.N,Net-(J1-CC1)*%
X148500000Y-131000000D03*
%TO.P,J1,A9,VBUS*%
%TO.N,Net-(U1-V_{DD})*%
X145500000Y-131000000D03*
%TO.P,J1,A12,GND*%
%TO.N,GND*%
X154500000Y-131000000D03*
%TO.P,J1,B5,CC2*%
%TO.N,Net-(J1-CC2)*%
X151500000Y-131000000D03*
%TD*%
D13*
%TO.P,R3,1*%
%TO.N,vBATT*%
X168442500Y-99000000D03*
%TO.P,R3,2*%
%TO.N,Net-(IC1-EN)*%
X165517500Y-99000000D03*
%TD*%
D12*
%TO.P,C7,1*%
%TO.N,+5V*%
X136600000Y-105525000D03*
%TO.P,C7,2*%
%TO.N,GND*%
X136600000Y-108475000D03*
%TD*%
D13*
%TO.P,R8,1*%
%TO.N,GND*%
X159462500Y-92000000D03*
%TO.P,R8,2*%
%TO.N,Net-(IC1-FB)*%
X156537500Y-92000000D03*
%TD*%
D28*
%TO.P,B1,1*%
%TO.N,Return*%
X143920000Y-102670000D03*
%TD*%
D29*
%TO.N,Net-(J1-CC1)*%
X161537500Y-128000000D02*
X160637500Y-127100000D01*
X160637500Y-127100000D02*
X152400000Y-127100000D01*
D30*
%TO.N,RST_SW*%
X120000000Y-94850000D02*
X114000000Y-94850000D01*
D29*
%TO.N,Net-(J1-CC2)*%
X151500000Y-131000000D02*
X153700000Y-128800000D01*
X159137500Y-130137500D02*
X159137500Y-130800000D01*
X153700000Y-128800000D02*
X157800000Y-128800000D01*
X157800000Y-128800000D02*
X159137500Y-130137500D01*
D30*
%TO.N,vBATT*%
X162000000Y-106200000D02*
X161200000Y-107000000D01*
X162000000Y-96874500D02*
X162000000Y-106200000D01*
X161200000Y-107000000D02*
X153962500Y-107000000D01*
%TO.N,Batt_M*%
X151037500Y-104000000D02*
X151037500Y-107000000D01*
X136475000Y-100540000D02*
X135500001Y-100540000D01*
X135500001Y-100540000D02*
X135000000Y-101040001D01*
X135000000Y-101040001D02*
X135000000Y-106400000D01*
X135600000Y-107000000D02*
X151037500Y-107000000D01*
X135000000Y-106400000D02*
X135600000Y-107000000D01*
D29*
%TO.N,+5V*%
X139000000Y-105725000D02*
X139125000Y-105600000D01*
X144900000Y-105600000D02*
X147750000Y-102750000D01*
X139125000Y-105600000D02*
X144900000Y-105600000D01*
X147750000Y-102750000D02*
X147750000Y-97275000D01*
D30*
%TO.N,vBATT*%
X163212000Y-96675000D02*
X162199500Y-96675000D01*
X162199500Y-96675000D02*
X162000000Y-96874500D01*
%TO.N,Return*%
X143920000Y-102670000D02*
X143920000Y-99542500D01*
X143920000Y-99542500D02*
X143962500Y-99500000D01*
X142212500Y-98000000D02*
X143712500Y-99500000D01*
X136475000Y-98000000D02*
X142212500Y-98000000D01*
D29*
%TO.N,VBATT*%
X177412500Y-104950000D02*
X181000000Y-104950000D01*
X175462500Y-103000000D02*
X177412500Y-104950000D01*
%TO.N,+5V*%
X114000000Y-100462500D02*
X122467500Y-100462500D01*
X116900000Y-82500000D02*
X111000000Y-88400000D01*
X131500000Y-82500000D02*
X116900000Y-82500000D01*
X128710000Y-133905000D02*
X114000000Y-119195000D01*
X132460000Y-133905000D02*
X128710000Y-133905000D01*
X150250000Y-79655000D02*
X134345000Y-79655000D01*
X150250000Y-79655000D02*
X175460000Y-79655000D01*
X147750000Y-97275000D02*
X150250000Y-97275000D01*
X143712500Y-95500000D02*
X145487500Y-97275000D01*
X134345000Y-79655000D02*
X131500000Y-82500000D01*
X111000000Y-88400000D02*
X111000000Y-99800000D01*
X111000000Y-99800000D02*
X111662500Y-100462500D01*
X111662500Y-100462500D02*
X114000000Y-100462500D01*
X150250000Y-97275000D02*
X150250000Y-79655000D01*
X145487500Y-97275000D02*
X147750000Y-97275000D01*
X114000000Y-119195000D02*
X114000000Y-100462500D01*
X122467500Y-100462500D02*
X123850000Y-99080000D01*
%TO.N,Net-(IC1-LX)*%
X165900000Y-103700000D02*
X163212000Y-101012000D01*
X163212000Y-101012000D02*
X163212000Y-98000000D01*
X167000000Y-103925000D02*
X167000000Y-103700000D01*
X167000000Y-103700000D02*
X165900000Y-103700000D01*
%TO.N,Net-(IC1-FB)*%
X156200000Y-92337500D02*
X156537500Y-92000000D01*
X156200000Y-94350000D02*
X156200000Y-92337500D01*
X157138000Y-94350000D02*
X158788000Y-96000000D01*
X156200000Y-94350000D02*
X157138000Y-94350000D01*
%TO.N,Net-(U1-V_{DD})*%
X183812500Y-120687500D02*
X183812500Y-110300000D01*
X145500000Y-131000000D02*
X153500000Y-123000000D01*
X181500000Y-123000000D02*
X183812500Y-120687500D01*
X153500000Y-123000000D02*
X181500000Y-123000000D01*
D30*
%TO.N,LED_DATA*%
X135000000Y-127045000D02*
X135000000Y-130595000D01*
X132499999Y-94190000D02*
X134000000Y-95690001D01*
X134000000Y-95690001D02*
X134000000Y-126045000D01*
X131525000Y-94190000D02*
X132499999Y-94190000D01*
X134000000Y-126045000D02*
X135000000Y-127045000D01*
%TO.N,Net-(LED1-K)*%
X182450000Y-101600000D02*
X181000000Y-103050000D01*
X168850000Y-133250000D02*
X173600000Y-133250000D01*
X160250000Y-137560000D02*
X164540000Y-137560000D01*
X185500000Y-121350000D02*
X185500000Y-116200000D01*
X189050000Y-101600000D02*
X182450000Y-101600000D01*
X164540000Y-137560000D02*
X168850000Y-133250000D01*
X185500000Y-116200000D02*
X189050000Y-112650000D01*
X173600000Y-133250000D02*
X185500000Y-121350000D01*
X189050000Y-112650000D02*
X189050000Y-101600000D01*
%TO.N,PA_1*%
X127750000Y-98000000D02*
X127400000Y-98350000D01*
X127400000Y-106965000D02*
X126460000Y-107905000D01*
X131525000Y-98000000D02*
X127750000Y-98000000D01*
X127400000Y-98350000D02*
X127400000Y-106965000D01*
%TO.N,PA_2*%
X129000000Y-99750000D02*
X129000000Y-104595000D01*
X129480000Y-99270000D02*
X129000000Y-99750000D01*
X131525000Y-99270000D02*
X129480000Y-99270000D01*
%TO.N,PA_3*%
X133000000Y-101040001D02*
X133000000Y-106445000D01*
X132499999Y-100540000D02*
X133000000Y-101040001D01*
X131525000Y-100540000D02*
X132499999Y-100540000D01*
X133000000Y-106445000D02*
X131540000Y-107905000D01*
%TO.N,TX*%
X127150000Y-91460000D02*
X133745000Y-91460000D01*
X133745000Y-91460000D02*
X136475000Y-94190000D01*
%TO.N,RX*%
X125100000Y-92750000D02*
X132790001Y-92750000D01*
X132790001Y-92750000D02*
X135500001Y-95460000D01*
X123850000Y-94000000D02*
X125100000Y-92750000D01*
X135500001Y-95460000D02*
X136475000Y-95460000D01*
%TO.N,UPDI*%
X131525000Y-96730000D02*
X127340000Y-96730000D01*
X127340000Y-96730000D02*
X127150000Y-96540000D01*
%TO.N,Send*%
X136475000Y-99270000D02*
X140557500Y-99270000D01*
X140557500Y-99270000D02*
X140787500Y-99500000D01*
D29*
%TO.N,Net-(J1-CC1)*%
X148500000Y-131000000D02*
X152400000Y-127100000D01*
D30*
%TO.N,Net-(LED1-A)*%
X184850000Y-120900000D02*
X184850000Y-114700000D01*
X186737500Y-112812500D02*
X186737500Y-110050000D01*
X173800000Y-131950000D02*
X184850000Y-120900000D01*
X168250000Y-131950000D02*
X173800000Y-131950000D01*
X184850000Y-114700000D02*
X186737500Y-112812500D01*
X160250000Y-134440000D02*
X165760000Y-134440000D01*
X165760000Y-134440000D02*
X168250000Y-131950000D01*
%TO.N,Tilt_SW*%
X140787500Y-95500000D02*
X140787500Y-90312500D01*
X136475000Y-96730000D02*
X139557500Y-96730000D01*
X140787500Y-90312500D02*
X140750000Y-90275000D01*
X139557500Y-96730000D02*
X140787500Y-95500000D01*
%TO.N,RST_SW*%
X120610000Y-95460000D02*
X120000000Y-94850000D01*
X114000000Y-94850000D02*
X114000000Y-97537500D01*
X131525000Y-95460000D02*
X120610000Y-95460000D01*
%TO.N,Net-(J3-Pin_2)*%
X178000000Y-76345000D02*
X123000000Y-76345000D01*
D29*
%TO.N,Net-(U1-PROG)*%
X183312500Y-103012500D02*
X183275000Y-103050000D01*
X185775000Y-103012500D02*
X183312500Y-103012500D01*
%TO.N,vBATT*%
X172537500Y-103000000D02*
X172537500Y-97737500D01*
X171450000Y-96650000D02*
X165350000Y-96650000D01*
X172537500Y-97737500D02*
X171450000Y-96650000D01*
%TD*%
%TA.AperFunction,Conductor*%
%TO.N,+5V*%
G36*
X156795554Y-96799927D02*
G01*
X156804360Y-96800872D01*
X157896914Y-97019382D01*
X157928044Y-97040206D01*
X157930947Y-97044550D01*
X157930950Y-97044554D01*
X157957404Y-97062230D01*
X157997269Y-97088867D01*
X158055752Y-97100500D01*
X158055755Y-97100500D01*
X158251000Y-97100500D01*
X158285648Y-97114852D01*
X158300000Y-97149500D01*
X158300000Y-97459830D01*
X158285648Y-97494478D01*
X158260610Y-97507878D01*
X156804760Y-97799048D01*
X156795150Y-97800000D01*
X150700000Y-97800000D01*
X150700000Y-96700000D01*
X156795554Y-96799927D01*
G37*
%TD.AperFunction*%
%TD*%
%TA.AperFunction,Conductor*%
%TO.N,vBATT*%
G36*
X165643039Y-96419685D02*
G01*
X165688794Y-96472489D01*
X165700000Y-96524000D01*
X165700000Y-96776000D01*
X165680315Y-96843039D01*
X165627511Y-96888794D01*
X165576000Y-96900000D01*
X165162278Y-96900000D01*
X165137960Y-96897592D01*
X164900002Y-96850000D01*
X164899995Y-96850000D01*
X163327645Y-96896245D01*
X163260056Y-96878540D01*
X163212769Y-96827104D01*
X163200000Y-96772299D01*
X163200000Y-96620406D01*
X163219685Y-96553367D01*
X163272489Y-96507612D01*
X163320354Y-96496460D01*
X164900000Y-96450000D01*
X165137960Y-96402408D01*
X165162278Y-96400000D01*
X165576000Y-96400000D01*
X165643039Y-96419685D01*
G37*
%TD.AperFunction*%
%TD*%
%TA.AperFunction,Conductor*%
%TO.N,Net-(U1-V_{DD})*%
G36*
X183821333Y-104969685D02*
G01*
X183867088Y-105022489D01*
X183874248Y-105042583D01*
X184395954Y-107034551D01*
X184400000Y-107065968D01*
X184400000Y-110126000D01*
X184380315Y-110193039D01*
X184327511Y-110238794D01*
X184276000Y-110250000D01*
X183374000Y-110250000D01*
X183306961Y-110230315D01*
X183261206Y-110177511D01*
X183250000Y-110126000D01*
X183250000Y-106900000D01*
X182654404Y-105113212D01*
X182651879Y-105043388D01*
X182687504Y-104983283D01*
X182749969Y-104951980D01*
X182772041Y-104950000D01*
X183754294Y-104950000D01*
X183821333Y-104969685D01*
G37*
%TD.AperFunction*%
%TD*%
%TA.AperFunction,Conductor*%
%TO.N,+5V*%
G36*
X137410609Y-101818907D02*
G01*
X137429724Y-101837155D01*
X139778306Y-104772882D01*
X139799893Y-104830133D01*
X139800000Y-104834727D01*
X139800000Y-105901000D01*
X139781093Y-105959191D01*
X139731593Y-105995155D01*
X139701000Y-106000000D01*
X135899000Y-106000000D01*
X135840809Y-105981093D01*
X135804845Y-105931593D01*
X135800000Y-105901000D01*
X135800000Y-101899000D01*
X135818907Y-101840809D01*
X135868407Y-101804845D01*
X135899000Y-101800000D01*
X137352418Y-101800000D01*
X137410609Y-101818907D01*
G37*
%TD.AperFunction*%
%TD*%
%TA.AperFunction,Conductor*%
%TO.N,VBATT*%
G36*
X181606578Y-104919685D02*
G01*
X181652333Y-104972489D01*
X181662715Y-105009726D01*
X182984145Y-116413182D01*
X182972308Y-116482042D01*
X182925122Y-116533571D01*
X182862274Y-116551449D01*
X178403836Y-116598380D01*
X178336593Y-116579402D01*
X178290285Y-116527083D01*
X178279614Y-116458033D01*
X178281085Y-116449356D01*
X180200000Y-107150000D01*
X180342283Y-105015751D01*
X180366383Y-104950170D01*
X180422114Y-104908029D01*
X180466008Y-104900000D01*
X181539539Y-104900000D01*
X181606578Y-104919685D01*
G37*
%TD.AperFunction*%
%TD*%
%TA.AperFunction,Conductor*%
%TO.N,vBATT*%
G36*
X168984547Y-95214352D02*
G01*
X168998899Y-95249000D01*
X168998887Y-95250089D01*
X168900156Y-99692952D01*
X168897861Y-99706720D01*
X168210864Y-101865857D01*
X168186683Y-101894523D01*
X168164171Y-101900000D01*
X165849000Y-101900000D01*
X165814352Y-101885648D01*
X165800000Y-101851000D01*
X165800000Y-101523220D01*
X165814352Y-101488572D01*
X165817965Y-101485300D01*
X168000000Y-99700000D01*
X168000000Y-95249000D01*
X168014352Y-95214352D01*
X168049000Y-95200000D01*
X168949899Y-95200000D01*
X168984547Y-95214352D01*
G37*
%TD.AperFunction*%
%TD*%
%TA.AperFunction,Conductor*%
%TO.N,+5V*%
G36*
X120823464Y-80818907D02*
G01*
X120827118Y-80821694D01*
X122579618Y-82223694D01*
X122613246Y-82274810D01*
X122610406Y-82335929D01*
X122572184Y-82383707D01*
X122517773Y-82400000D01*
X118282227Y-82400000D01*
X118224036Y-82381093D01*
X118188072Y-82331593D01*
X118188072Y-82270407D01*
X118220382Y-82223694D01*
X119972882Y-80821694D01*
X120030133Y-80800107D01*
X120034727Y-80800000D01*
X120765273Y-80800000D01*
X120823464Y-80818907D01*
G37*
%TD.AperFunction*%
%TD*%
%TA.AperFunction,Conductor*%
%TO.N,GND*%
G36*
X151291893Y-58020397D02*
G01*
X151294867Y-58020488D01*
X152584015Y-58080089D01*
X152586992Y-58080272D01*
X153873730Y-58179546D01*
X153876752Y-58179827D01*
X155067179Y-58308655D01*
X155159713Y-58318669D01*
X155162738Y-58319043D01*
X156440911Y-58497340D01*
X156443846Y-58497795D01*
X157715904Y-58715367D01*
X157718836Y-58715914D01*
X158983656Y-58972569D01*
X158986548Y-58973203D01*
X160242781Y-59268667D01*
X160245672Y-59269394D01*
X161492250Y-59603413D01*
X161495180Y-59604247D01*
X162730855Y-59976488D01*
X162733644Y-59977375D01*
X163957313Y-60387508D01*
X163960115Y-60388495D01*
X165170582Y-60836120D01*
X165173372Y-60837201D01*
X166369403Y-61321858D01*
X166372174Y-61323030D01*
X167252287Y-61711638D01*
X167552747Y-61844304D01*
X167555511Y-61845576D01*
X168719417Y-62402932D01*
X168722118Y-62404277D01*
X169868376Y-62997246D01*
X169870970Y-62998639D01*
X170693158Y-63456595D01*
X170998437Y-63626635D01*
X171001077Y-63628160D01*
X171562294Y-63963806D01*
X172108582Y-64290524D01*
X172111144Y-64292110D01*
X173197787Y-64988306D01*
X173200276Y-64989954D01*
X174103127Y-65608422D01*
X174264971Y-65719288D01*
X174267459Y-65721050D01*
X175309115Y-66482770D01*
X175311548Y-66484607D01*
X176329319Y-67278095D01*
X176331625Y-67279951D01*
X177324516Y-68104437D01*
X177326762Y-68106362D01*
X177719540Y-68453503D01*
X178293723Y-68960972D01*
X178295977Y-68963026D01*
X179236157Y-69847004D01*
X179238346Y-69849126D01*
X180150873Y-70761653D01*
X180152995Y-70763842D01*
X181036973Y-71704022D01*
X181039016Y-71706264D01*
X181893632Y-72673231D01*
X181895566Y-72675488D01*
X182720042Y-73668366D01*
X182721910Y-73670688D01*
X183151826Y-74222121D01*
X183515392Y-74688451D01*
X183517229Y-74690884D01*
X184278949Y-75732540D01*
X184280711Y-75735028D01*
X184489852Y-76040336D01*
X184506169Y-76082196D01*
X184514833Y-76142457D01*
X184574622Y-76273374D01*
X184668871Y-76382143D01*
X184750510Y-76434609D01*
X184778661Y-76461944D01*
X185010017Y-76799683D01*
X185011701Y-76802224D01*
X185707880Y-77888840D01*
X185709485Y-77891433D01*
X186371839Y-78998922D01*
X186373364Y-79001562D01*
X186625928Y-79455000D01*
X186848727Y-79855001D01*
X187001335Y-80128983D01*
X187002765Y-80131647D01*
X187325633Y-80755776D01*
X187595715Y-81277867D01*
X187597074Y-81280597D01*
X188154420Y-82444482D01*
X188155695Y-82447252D01*
X188676961Y-83627807D01*
X188678149Y-83630615D01*
X189162787Y-84826600D01*
X189163889Y-84829443D01*
X189611491Y-86039848D01*
X189612504Y-86042724D01*
X189889736Y-86869872D01*
X190022605Y-87266297D01*
X190023529Y-87269202D01*
X190395751Y-88504816D01*
X190396586Y-88507749D01*
X190730597Y-89754295D01*
X190731340Y-89757252D01*
X191026786Y-91013408D01*
X191027439Y-91016386D01*
X191284078Y-92281130D01*
X191284638Y-92284128D01*
X191502197Y-93556114D01*
X191502665Y-93559127D01*
X191680956Y-94837261D01*
X191681330Y-94840286D01*
X191820171Y-96123239D01*
X191820453Y-96126276D01*
X191919725Y-97412975D01*
X191919912Y-97416018D01*
X191979509Y-98705096D01*
X191979603Y-98708143D01*
X191999476Y-99998475D01*
X191999476Y-100001525D01*
X191979603Y-101291856D01*
X191979509Y-101294903D01*
X191919912Y-102583981D01*
X191919725Y-102587024D01*
X191820453Y-103873723D01*
X191820171Y-103876760D01*
X191681330Y-105159713D01*
X191680956Y-105162738D01*
X191502665Y-106440872D01*
X191502197Y-106443885D01*
X191284638Y-107715871D01*
X191284078Y-107718869D01*
X191027439Y-108983613D01*
X191026786Y-108986591D01*
X190731340Y-110242747D01*
X190730597Y-110245704D01*
X190396586Y-111492250D01*
X190395751Y-111495183D01*
X190023529Y-112730797D01*
X190022605Y-112733702D01*
X189612504Y-113957275D01*
X189611491Y-113960151D01*
X189163889Y-115170556D01*
X189162787Y-115173399D01*
X188678149Y-116369384D01*
X188676961Y-116372192D01*
X188155695Y-117552747D01*
X188154420Y-117555517D01*
X187597074Y-118719402D01*
X187595715Y-118722132D01*
X187002777Y-119868330D01*
X187001335Y-119871016D01*
X186373364Y-120998437D01*
X186371839Y-121001077D01*
X186134987Y-121397106D01*
X186088893Y-121437342D01*
X186027951Y-121442800D01*
X185975440Y-121411395D01*
X185951418Y-121355123D01*
X185951092Y-121342598D01*
X185952724Y-121298990D01*
X185952722Y-121298985D01*
X185951893Y-121291615D01*
X185952331Y-121291565D01*
X185950500Y-121277655D01*
X185950500Y-116427610D01*
X185969407Y-116369419D01*
X185979490Y-116357612D01*
X189346743Y-112990358D01*
X189355003Y-112982978D01*
X189383970Y-112959879D01*
X189416457Y-112912227D01*
X189418559Y-112909266D01*
X189452793Y-112862882D01*
X189452795Y-112862876D01*
X189456263Y-112856316D01*
X189456655Y-112856523D01*
X189457651Y-112854550D01*
X189457252Y-112854358D01*
X189460472Y-112847672D01*
X189477477Y-112792538D01*
X189478595Y-112789138D01*
X189497646Y-112734699D01*
X189497646Y-112734694D01*
X189499026Y-112727407D01*
X189499460Y-112727489D01*
X189499832Y-112725303D01*
X189499394Y-112725237D01*
X189500500Y-112717900D01*
X189500500Y-112660283D01*
X189500569Y-112656582D01*
X189501717Y-112625897D01*
X189502724Y-112598990D01*
X189502722Y-112598982D01*
X189501893Y-112591618D01*
X189502331Y-112591568D01*
X189500500Y-112577657D01*
X189500500Y-101661916D01*
X189502982Y-101639885D01*
X189504315Y-101634046D01*
X189500777Y-101586835D01*
X189500500Y-101579436D01*
X189500500Y-101566240D01*
X189498531Y-101553181D01*
X189497702Y-101545818D01*
X189494166Y-101498626D01*
X189494166Y-101498622D01*
X189491976Y-101493043D01*
X189486239Y-101471629D01*
X189485348Y-101465713D01*
X189464802Y-101423050D01*
X189461853Y-101416290D01*
X189444552Y-101372206D01*
X189440814Y-101367519D01*
X189429023Y-101348753D01*
X189426425Y-101343358D01*
X189426423Y-101343356D01*
X189394228Y-101308658D01*
X189389398Y-101303046D01*
X189359879Y-101266030D01*
X189359876Y-101266027D01*
X189354928Y-101262653D01*
X189338136Y-101248203D01*
X189334058Y-101243809D01*
X189334057Y-101243808D01*
X189334055Y-101243806D01*
X189313670Y-101232036D01*
X189293058Y-101220136D01*
X189286790Y-101216198D01*
X189247673Y-101189528D01*
X189247672Y-101189527D01*
X189247671Y-101189527D01*
X189241943Y-101187760D01*
X189221632Y-101178898D01*
X189216448Y-101175905D01*
X189216439Y-101175902D01*
X189170286Y-101165367D01*
X189163138Y-101163452D01*
X189117907Y-101149500D01*
X189117902Y-101149500D01*
X189111916Y-101149500D01*
X189089887Y-101147018D01*
X189084044Y-101145684D01*
X189036836Y-101149223D01*
X189029437Y-101149500D01*
X182480864Y-101149500D01*
X182469781Y-101148878D01*
X182432966Y-101144730D01*
X182432965Y-101144730D01*
X182376304Y-101155449D01*
X182372691Y-101156063D01*
X182315714Y-101164651D01*
X182308632Y-101166836D01*
X182308503Y-101166418D01*
X182306386Y-101167114D01*
X182306531Y-101167526D01*
X182299530Y-101169975D01*
X182299529Y-101169976D01*
X182299527Y-101169976D01*
X182299524Y-101169978D01*
X182248551Y-101196917D01*
X182245249Y-101198584D01*
X182193362Y-101223572D01*
X182187233Y-101227751D01*
X182186987Y-101227391D01*
X182185172Y-101228679D01*
X182185430Y-101229029D01*
X182179463Y-101233433D01*
X182138732Y-101274163D01*
X182136069Y-101276729D01*
X182093802Y-101315947D01*
X182089181Y-101321743D01*
X182088837Y-101321469D01*
X182080295Y-101332600D01*
X180992393Y-102420504D01*
X180937876Y-102448281D01*
X180922389Y-102449500D01*
X180433225Y-102449500D01*
X180402805Y-102452353D01*
X180402796Y-102452355D01*
X180274616Y-102497207D01*
X180165355Y-102577845D01*
X180165345Y-102577855D01*
X180084707Y-102687116D01*
X180039855Y-102815296D01*
X180039853Y-102815305D01*
X180037000Y-102845725D01*
X180037000Y-103254274D01*
X180039853Y-103284694D01*
X180039855Y-103284703D01*
X180084707Y-103412883D01*
X180124376Y-103466633D01*
X180143718Y-103524681D01*
X180125246Y-103583011D01*
X180124376Y-103584209D01*
X180085155Y-103637350D01*
X180040350Y-103765398D01*
X180037500Y-103795788D01*
X180037500Y-103799999D01*
X180037501Y-103800000D01*
X181962498Y-103800000D01*
X181962499Y-103799999D01*
X181962499Y-103795796D01*
X181959649Y-103765399D01*
X181959649Y-103765397D01*
X181914845Y-103637352D01*
X181875623Y-103584210D01*
X181856281Y-103526162D01*
X181874752Y-103467832D01*
X181875568Y-103466707D01*
X181915293Y-103412882D01*
X181960146Y-103284699D01*
X181962999Y-103254273D01*
X181963000Y-103254273D01*
X181963000Y-102845727D01*
X181962999Y-102845725D01*
X181960146Y-102815301D01*
X181957791Y-102808570D01*
X181956419Y-102747400D01*
X181981230Y-102705872D01*
X182607607Y-102079496D01*
X182662124Y-102051719D01*
X182677611Y-102050500D01*
X184801032Y-102050500D01*
X184859223Y-102069407D01*
X184895187Y-102118907D01*
X184895187Y-102180093D01*
X184860852Y-102228382D01*
X184779390Y-102290158D01*
X184757078Y-102307078D01*
X184757075Y-102307081D01*
X184711277Y-102367475D01*
X184671065Y-102420504D01*
X184669309Y-102422819D01*
X184619082Y-102457762D01*
X184590425Y-102462000D01*
X183916587Y-102462000D01*
X183883892Y-102456445D01*
X183872198Y-102452353D01*
X183841774Y-102449500D01*
X183841766Y-102449500D01*
X182708234Y-102449500D01*
X182708225Y-102449500D01*
X182677805Y-102452353D01*
X182677796Y-102452355D01*
X182549616Y-102497207D01*
X182440355Y-102577845D01*
X182440345Y-102577855D01*
X182359707Y-102687116D01*
X182314855Y-102815296D01*
X182314853Y-102815305D01*
X182312000Y-102845725D01*
X182312000Y-103254274D01*
X182314853Y-103284694D01*
X182314855Y-103284703D01*
X182359707Y-103412883D01*
X182440345Y-103522144D01*
X182440347Y-103522146D01*
X182440350Y-103522150D01*
X182440353Y-103522152D01*
X182440355Y-103522154D01*
X182549616Y-103602792D01*
X182549617Y-103602792D01*
X182549618Y-103602793D01*
X182677801Y-103647646D01*
X182708225Y-103650499D01*
X182708227Y-103650500D01*
X182708234Y-103650500D01*
X183841773Y-103650500D01*
X183841773Y-103650499D01*
X183872199Y-103647646D01*
X184000382Y-103602793D01*
X184009377Y-103596154D01*
X184028089Y-103582345D01*
X184086137Y-103563003D01*
X184086877Y-103563000D01*
X184590425Y-103563000D01*
X184648616Y-103581907D01*
X184669307Y-103602179D01*
X184757078Y-103717922D01*
X184877658Y-103809361D01*
X184877659Y-103809361D01*
X184877660Y-103809362D01*
X184948047Y-103837119D01*
X185018436Y-103864877D01*
X185106898Y-103875500D01*
X185106900Y-103875500D01*
X186443100Y-103875500D01*
X186443102Y-103875500D01*
X186531564Y-103864877D01*
X186672342Y-103809361D01*
X186792922Y-103717922D01*
X186884361Y-103597342D01*
X186939877Y-103456564D01*
X186950500Y-103368102D01*
X186950500Y-102656898D01*
X186939877Y-102568436D01*
X186909237Y-102490738D01*
X186884362Y-102427660D01*
X186884361Y-102427659D01*
X186884361Y-102427658D01*
X186792922Y-102307078D01*
X186689147Y-102228382D01*
X186654206Y-102178157D01*
X186655460Y-102116984D01*
X186692431Y-102068232D01*
X186748968Y-102050500D01*
X188500500Y-102050500D01*
X188558691Y-102069407D01*
X188594655Y-102118907D01*
X188599500Y-102149500D01*
X188599500Y-112422389D01*
X188580593Y-112480580D01*
X188570504Y-112492393D01*
X185469504Y-115593393D01*
X185414987Y-115621170D01*
X185354555Y-115611599D01*
X185311290Y-115568334D01*
X185300500Y-115523389D01*
X185300500Y-114927610D01*
X185319407Y-114869419D01*
X185329490Y-114857612D01*
X187034243Y-113152858D01*
X187042503Y-113145478D01*
X187071470Y-113122379D01*
X187103957Y-113074727D01*
X187106059Y-113071766D01*
X187140293Y-113025382D01*
X187140295Y-113025376D01*
X187143763Y-113018816D01*
X187144155Y-113019023D01*
X187145151Y-113017050D01*
X187144752Y-113016858D01*
X187147972Y-113010172D01*
X187164977Y-112955038D01*
X187166095Y-112951638D01*
X187185146Y-112897199D01*
X187185146Y-112897194D01*
X187186526Y-112889907D01*
X187186960Y-112889989D01*
X187187332Y-112887803D01*
X187186894Y-112887737D01*
X187188000Y-112880400D01*
X187188000Y-112822783D01*
X187188069Y-112819082D01*
X187188810Y-112799266D01*
X187190224Y-112761490D01*
X187190222Y-112761482D01*
X187189393Y-112754118D01*
X187189831Y-112754068D01*
X187188000Y-112740157D01*
X187188000Y-111279717D01*
X187206907Y-111221526D01*
X187250680Y-111187620D01*
X187322342Y-111159361D01*
X187442922Y-111067922D01*
X187534361Y-110947342D01*
X187589877Y-110806564D01*
X187600500Y-110718102D01*
X187600500Y-109381898D01*
X187589877Y-109293436D01*
X187562119Y-109223047D01*
X187534362Y-109152660D01*
X187534361Y-109152659D01*
X187534361Y-109152658D01*
X187442922Y-109032078D01*
X187322342Y-108940639D01*
X187322341Y-108940638D01*
X187322339Y-108940637D01*
X187181565Y-108885123D01*
X187093106Y-108874500D01*
X187093102Y-108874500D01*
X186381898Y-108874500D01*
X186381893Y-108874500D01*
X186293434Y-108885123D01*
X186152660Y-108940637D01*
X186152656Y-108940640D01*
X186032081Y-109032075D01*
X186032075Y-109032081D01*
X185940640Y-109152656D01*
X185940637Y-109152660D01*
X185885123Y-109293434D01*
X185874500Y-109381893D01*
X185874500Y-110718106D01*
X185885123Y-110806565D01*
X185940637Y-110947339D01*
X185940638Y-110947341D01*
X185940639Y-110947342D01*
X186032078Y-111067922D01*
X186152658Y-111159361D01*
X186224319Y-111187620D01*
X186271516Y-111226556D01*
X186287000Y-111279717D01*
X186287000Y-112584888D01*
X186268093Y-112643079D01*
X186258004Y-112654892D01*
X184553265Y-114359630D01*
X184544989Y-114367026D01*
X184523728Y-114383982D01*
X184466444Y-114405482D01*
X184407463Y-114389206D01*
X184369314Y-114341371D01*
X184363000Y-114306582D01*
X184363000Y-111234575D01*
X184381907Y-111176384D01*
X184402179Y-111155692D01*
X184517922Y-111067922D01*
X184609361Y-110947342D01*
X184664877Y-110806564D01*
X184675500Y-110718102D01*
X184675500Y-110651343D01*
X184694407Y-110593152D01*
X184709672Y-110576521D01*
X184711347Y-110575070D01*
X184805567Y-110466336D01*
X184865338Y-110335459D01*
X184885023Y-110268420D01*
X184885024Y-110268416D01*
X184892774Y-110214510D01*
X184905500Y-110126005D01*
X184905500Y-107743064D01*
X185875000Y-107743064D01*
X185885613Y-107831443D01*
X185941080Y-107972095D01*
X186032435Y-108092564D01*
X186152904Y-108183919D01*
X186293556Y-108239386D01*
X186381935Y-108249999D01*
X186381942Y-108250000D01*
X186549999Y-108250000D01*
X186550000Y-108249999D01*
X186950000Y-108249999D01*
X186950001Y-108250000D01*
X187118058Y-108250000D01*
X187118064Y-108249999D01*
X187206443Y-108239386D01*
X187347095Y-108183919D01*
X187467564Y-108092564D01*
X187558919Y-107972095D01*
X187614386Y-107831443D01*
X187624999Y-107743064D01*
X187625000Y-107743058D01*
X187625000Y-107250001D01*
X187624999Y-107250000D01*
X186950001Y-107250000D01*
X186950000Y-107250001D01*
X186950000Y-108249999D01*
X186550000Y-108249999D01*
X186550000Y-107250001D01*
X186549999Y-107250000D01*
X185875001Y-107250000D01*
X185875000Y-107250001D01*
X185875000Y-107743064D01*
X184905500Y-107743064D01*
X184905500Y-107065969D01*
X184905499Y-107065948D01*
X184901360Y-107001405D01*
X184901359Y-107001393D01*
X184897316Y-106969997D01*
X184897315Y-106969992D01*
X184897314Y-106969984D01*
X184884961Y-106906478D01*
X184870169Y-106849999D01*
X185875000Y-106849999D01*
X185875001Y-106850000D01*
X186549999Y-106850000D01*
X186550000Y-106849999D01*
X186950000Y-106849999D01*
X186950001Y-106850000D01*
X187624999Y-106850000D01*
X187625000Y-106849999D01*
X187625000Y-106356941D01*
X187624999Y-106356935D01*
X187614386Y-106268556D01*
X187558919Y-106127904D01*
X187467564Y-106007435D01*
X187347095Y-105916080D01*
X187206443Y-105860613D01*
X187118064Y-105850000D01*
X186950001Y-105850000D01*
X186950000Y-105850001D01*
X186950000Y-106849999D01*
X186550000Y-106849999D01*
X186550000Y-105850001D01*
X186549999Y-105850000D01*
X186381935Y-105850000D01*
X186293556Y-105860613D01*
X186152904Y-105916080D01*
X186032435Y-106007435D01*
X185941080Y-106127904D01*
X185885613Y-106268556D01*
X185875000Y-106356935D01*
X185875000Y-106849999D01*
X184870169Y-106849999D01*
X184363255Y-104914510D01*
X184350422Y-104872910D01*
X184343262Y-104852816D01*
X184333039Y-104827613D01*
X184326910Y-104812502D01*
X184326909Y-104812501D01*
X184326907Y-104812496D01*
X184249119Y-104691457D01*
X184224065Y-104662543D01*
X184205442Y-104630413D01*
X184190293Y-104587118D01*
X184159109Y-104544865D01*
X184109654Y-104477855D01*
X184109652Y-104477853D01*
X184109650Y-104477850D01*
X184109646Y-104477847D01*
X184109644Y-104477845D01*
X184000383Y-104397207D01*
X183872203Y-104352355D01*
X183872194Y-104352353D01*
X183841774Y-104349500D01*
X183841766Y-104349500D01*
X182708234Y-104349500D01*
X182708225Y-104349500D01*
X182677805Y-104352353D01*
X182677796Y-104352355D01*
X182549616Y-104397207D01*
X182440355Y-104477845D01*
X182440346Y-104477854D01*
X182359707Y-104587117D01*
X182356240Y-104593677D01*
X182355079Y-104593063D01*
X182345639Y-104610038D01*
X182252644Y-104725546D01*
X182251863Y-104726672D01*
X182251541Y-104726916D01*
X182250433Y-104728293D01*
X182250091Y-104728018D01*
X182203151Y-104763695D01*
X182141979Y-104765016D01*
X182091715Y-104730129D01*
X182087249Y-104723747D01*
X182066494Y-104691452D01*
X182034364Y-104641457D01*
X181988609Y-104588653D01*
X181911064Y-104521459D01*
X181879470Y-104469063D01*
X181884706Y-104408102D01*
X181896243Y-104387851D01*
X181914844Y-104362647D01*
X181959649Y-104234601D01*
X181962499Y-104204211D01*
X181962500Y-104204210D01*
X181962500Y-104200001D01*
X181962499Y-104200000D01*
X180037502Y-104200000D01*
X180037501Y-104200001D01*
X180037501Y-104204203D01*
X180040350Y-104234600D01*
X180040350Y-104234601D01*
X180051968Y-104267803D01*
X180053340Y-104328973D01*
X180018496Y-104379267D01*
X179960744Y-104399475D01*
X179958523Y-104399500D01*
X177681532Y-104399500D01*
X177623341Y-104380593D01*
X177611528Y-104370504D01*
X176354496Y-103113471D01*
X176326719Y-103058954D01*
X176325500Y-103043467D01*
X176325500Y-102331899D01*
X176325499Y-102331893D01*
X176324806Y-102326122D01*
X176314877Y-102243436D01*
X176265769Y-102118907D01*
X176259362Y-102102660D01*
X176259361Y-102102659D01*
X176259361Y-102102658D01*
X176167922Y-101982078D01*
X176047342Y-101890639D01*
X176047341Y-101890638D01*
X176047339Y-101890637D01*
X175906565Y-101835123D01*
X175818106Y-101824500D01*
X175818102Y-101824500D01*
X175106898Y-101824500D01*
X175106893Y-101824500D01*
X175018434Y-101835123D01*
X174877660Y-101890637D01*
X174877656Y-101890640D01*
X174757081Y-101982075D01*
X174757075Y-101982081D01*
X174665640Y-102102656D01*
X174665637Y-102102660D01*
X174610123Y-102243434D01*
X174599500Y-102331893D01*
X174599500Y-103668106D01*
X174610123Y-103756565D01*
X174665637Y-103897339D01*
X174665638Y-103897341D01*
X174665639Y-103897342D01*
X174757078Y-104017922D01*
X174877658Y-104109361D01*
X174877659Y-104109361D01*
X174877660Y-104109362D01*
X174948047Y-104137119D01*
X175018436Y-104164877D01*
X175106898Y-104175500D01*
X175106900Y-104175500D01*
X175818467Y-104175500D01*
X175876658Y-104194407D01*
X175888471Y-104204496D01*
X177015389Y-105331413D01*
X177017737Y-105333843D01*
X177061820Y-105381044D01*
X177098016Y-105403054D01*
X177106393Y-105408756D01*
X177140150Y-105434356D01*
X177140155Y-105434358D01*
X177140158Y-105434361D01*
X177156801Y-105440924D01*
X177158842Y-105441729D01*
X177173959Y-105449238D01*
X177186767Y-105457026D01*
X177191118Y-105459672D01*
X177231914Y-105471102D01*
X177241519Y-105474332D01*
X177280935Y-105489876D01*
X177300918Y-105491929D01*
X177317489Y-105495079D01*
X177336835Y-105500500D01*
X177379207Y-105500500D01*
X177389330Y-105501019D01*
X177392039Y-105501297D01*
X177431471Y-105505351D01*
X177449530Y-105502237D01*
X177451262Y-105501939D01*
X177468081Y-105500500D01*
X179697525Y-105500500D01*
X179755716Y-105519407D01*
X179791680Y-105568907D01*
X179796306Y-105606085D01*
X179698376Y-107075015D01*
X179696552Y-107088437D01*
X177853872Y-116018346D01*
X177841644Y-116049544D01*
X177838358Y-116054980D01*
X177838354Y-116054988D01*
X177744891Y-116287215D01*
X177689885Y-116531443D01*
X177679500Y-116678551D01*
X177679500Y-119321448D01*
X177689885Y-119468556D01*
X177744891Y-119712784D01*
X177838357Y-119945018D01*
X177967686Y-120158953D01*
X177967866Y-120159250D01*
X178130064Y-120349936D01*
X178320750Y-120512134D01*
X178320755Y-120512137D01*
X178534981Y-120641642D01*
X178534983Y-120641642D01*
X178534985Y-120641644D01*
X178601784Y-120668528D01*
X178767215Y-120735108D01*
X178767217Y-120735108D01*
X178767221Y-120735110D01*
X179011442Y-120790114D01*
X179060479Y-120793576D01*
X179158552Y-120800500D01*
X179158554Y-120800500D01*
X181801448Y-120800500D01*
X181875002Y-120795307D01*
X181948558Y-120790114D01*
X182192779Y-120735110D01*
X182425015Y-120641644D01*
X182639250Y-120512134D01*
X182829936Y-120349936D01*
X182992134Y-120159250D01*
X183078278Y-120016751D01*
X183124562Y-119976733D01*
X183185529Y-119971564D01*
X183237890Y-120003218D01*
X183261646Y-120059603D01*
X183262000Y-120067967D01*
X183262000Y-120418467D01*
X183243093Y-120476658D01*
X183233004Y-120488471D01*
X181300971Y-122420504D01*
X181246454Y-122448281D01*
X181230967Y-122449500D01*
X153511079Y-122449500D01*
X153507700Y-122449442D01*
X153443175Y-122447238D01*
X153443174Y-122447238D01*
X153443173Y-122447238D01*
X153443166Y-122447239D01*
X153402020Y-122457266D01*
X153392063Y-122459159D01*
X153350080Y-122464929D01*
X153331657Y-122472932D01*
X153315659Y-122478312D01*
X153296149Y-122483066D01*
X153296147Y-122483067D01*
X153259221Y-122503829D01*
X153250148Y-122508335D01*
X153211279Y-122525220D01*
X153195697Y-122537897D01*
X153181744Y-122547393D01*
X153164242Y-122557233D01*
X153134278Y-122587197D01*
X153126755Y-122593985D01*
X153093893Y-122620721D01*
X153093887Y-122620727D01*
X153082308Y-122637130D01*
X153071435Y-122650039D01*
X145812971Y-129908504D01*
X145758454Y-129936281D01*
X145742967Y-129937500D01*
X144682916Y-129937500D01*
X144614254Y-129943739D01*
X144614248Y-129943741D01*
X144456256Y-129992973D01*
X144456248Y-129992976D01*
X144314620Y-130078594D01*
X144197594Y-130195620D01*
X144111976Y-130337248D01*
X144111973Y-130337256D01*
X144062741Y-130495248D01*
X144062739Y-130495254D01*
X144056500Y-130563916D01*
X144056500Y-131436083D01*
X144062739Y-131504745D01*
X144062741Y-131504751D01*
X144111973Y-131662743D01*
X144111976Y-131662751D01*
X144132888Y-131697343D01*
X144197595Y-131804381D01*
X144314619Y-131921405D01*
X144456250Y-132007024D01*
X144614254Y-132056260D01*
X144682922Y-132062500D01*
X144682928Y-132062500D01*
X146317072Y-132062500D01*
X146317078Y-132062500D01*
X146385746Y-132056260D01*
X146543750Y-132007024D01*
X146685381Y-131921405D01*
X146802405Y-131804381D01*
X146888024Y-131662750D01*
X146888090Y-131662539D01*
X146905483Y-131606723D01*
X146940846Y-131556792D01*
X146998804Y-131537183D01*
X147057219Y-131555386D01*
X147093778Y-131604448D01*
X147094517Y-131606723D01*
X147111973Y-131662744D01*
X147111976Y-131662751D01*
X147132888Y-131697343D01*
X147197595Y-131804381D01*
X147314619Y-131921405D01*
X147456250Y-132007024D01*
X147614254Y-132056260D01*
X147682922Y-132062500D01*
X147682928Y-132062500D01*
X149317072Y-132062500D01*
X149317078Y-132062500D01*
X149385746Y-132056260D01*
X149543750Y-132007024D01*
X149685381Y-131921405D01*
X149802405Y-131804381D01*
X149888024Y-131662750D01*
X149888090Y-131662539D01*
X149905483Y-131606723D01*
X149940846Y-131556792D01*
X149998804Y-131537183D01*
X150057219Y-131555386D01*
X150093778Y-131604448D01*
X150094517Y-131606723D01*
X150111973Y-131662744D01*
X150111976Y-131662751D01*
X150132888Y-131697343D01*
X150197595Y-131804381D01*
X150314619Y-131921405D01*
X150456250Y-132007024D01*
X150614254Y-132056260D01*
X150682922Y-132062500D01*
X150682928Y-132062500D01*
X152317072Y-132062500D01*
X152317078Y-132062500D01*
X152322591Y-132061999D01*
X153720844Y-132061999D01*
X155279155Y-132061999D01*
X154499999Y-131282843D01*
X153720844Y-132061999D01*
X152322591Y-132061999D01*
X152385746Y-132056260D01*
X152543750Y-132007024D01*
X152685381Y-131921405D01*
X152802405Y-131804381D01*
X152888024Y-131662750D01*
X152905744Y-131605882D01*
X152941106Y-131555954D01*
X152999064Y-131536344D01*
X153057479Y-131554547D01*
X153094039Y-131603608D01*
X153094778Y-131605883D01*
X153112433Y-131662539D01*
X153112435Y-131662544D01*
X153197990Y-131804068D01*
X153305539Y-131911617D01*
X154217157Y-131000000D01*
X154782844Y-131000000D01*
X155694461Y-131911617D01*
X155802009Y-131804068D01*
X155887564Y-131662544D01*
X155887567Y-131662537D01*
X155936763Y-131504660D01*
X155936765Y-131504654D01*
X155942999Y-131436048D01*
X155942999Y-130563965D01*
X155942998Y-130563949D01*
X155936765Y-130495346D01*
X155936763Y-130495340D01*
X155887567Y-130337461D01*
X155887564Y-130337455D01*
X155802009Y-130195931D01*
X155694461Y-130088383D01*
X154782844Y-131000000D01*
X154217157Y-131000000D01*
X154500000Y-130717157D01*
X155279156Y-129938000D01*
X153682965Y-129938000D01*
X153682949Y-129938001D01*
X153614346Y-129944234D01*
X153614345Y-129944235D01*
X153590989Y-129951513D01*
X153529808Y-129950773D01*
X153480746Y-129914213D01*
X153462544Y-129855798D01*
X153482154Y-129797840D01*
X153491534Y-129786991D01*
X153899030Y-129379496D01*
X153953546Y-129351719D01*
X153969033Y-129350500D01*
X157530967Y-129350500D01*
X157589158Y-129369407D01*
X157600971Y-129379496D01*
X158248928Y-130027453D01*
X158276705Y-130081970D01*
X158277218Y-130109260D01*
X158274500Y-130131890D01*
X158274500Y-131468106D01*
X158285123Y-131556565D01*
X158340637Y-131697339D01*
X158340638Y-131697341D01*
X158340639Y-131697342D01*
X158432078Y-131817922D01*
X158552658Y-131909361D01*
X158552659Y-131909361D01*
X158552660Y-131909362D01*
X158583199Y-131921405D01*
X158693436Y-131964877D01*
X158781898Y-131975500D01*
X158781900Y-131975500D01*
X159493100Y-131975500D01*
X159493102Y-131975500D01*
X159581564Y-131964877D01*
X159722342Y-131909361D01*
X159842922Y-131817922D01*
X159934361Y-131697342D01*
X159989877Y-131556564D01*
X160000500Y-131468102D01*
X160000500Y-131468064D01*
X161200000Y-131468064D01*
X161210613Y-131556443D01*
X161266080Y-131697095D01*
X161357435Y-131817564D01*
X161477904Y-131908919D01*
X161618556Y-131964386D01*
X161706935Y-131974999D01*
X161706942Y-131975000D01*
X161862499Y-131975000D01*
X161862500Y-131974999D01*
X162262500Y-131974999D01*
X162262501Y-131975000D01*
X162418058Y-131975000D01*
X162418064Y-131974999D01*
X162506443Y-131964386D01*
X162647095Y-131908919D01*
X162767564Y-131817564D01*
X162858919Y-131697095D01*
X162914386Y-131556443D01*
X162924999Y-131468064D01*
X162925000Y-131468058D01*
X162925000Y-131000001D01*
X162924999Y-131000000D01*
X162262501Y-131000000D01*
X162262500Y-131000001D01*
X162262500Y-131974999D01*
X161862500Y-131974999D01*
X161862500Y-131000001D01*
X161862499Y-131000000D01*
X161200001Y-131000000D01*
X161200000Y-131000001D01*
X161200000Y-131468064D01*
X160000500Y-131468064D01*
X160000500Y-130599999D01*
X161200000Y-130599999D01*
X161200001Y-130600000D01*
X161862499Y-130600000D01*
X161862500Y-130599999D01*
X162262500Y-130599999D01*
X162262501Y-130600000D01*
X162924999Y-130600000D01*
X162925000Y-130599999D01*
X162925000Y-130131941D01*
X162924999Y-130131935D01*
X162914386Y-130043556D01*
X162858919Y-129902904D01*
X162767564Y-129782435D01*
X162647095Y-129691080D01*
X162506443Y-129635613D01*
X162418064Y-129625000D01*
X162262501Y-129625000D01*
X162262500Y-129625001D01*
X162262500Y-130599999D01*
X161862500Y-130599999D01*
X161862500Y-129625001D01*
X161862499Y-129625000D01*
X161706935Y-129625000D01*
X161618556Y-129635613D01*
X161477904Y-129691080D01*
X161357435Y-129782435D01*
X161266080Y-129902904D01*
X161210613Y-130043556D01*
X161200000Y-130131935D01*
X161200000Y-130599999D01*
X160000500Y-130599999D01*
X160000500Y-130131898D01*
X159989877Y-130043436D01*
X159938617Y-129913450D01*
X159934362Y-129902660D01*
X159934361Y-129902659D01*
X159934361Y-129902658D01*
X159842922Y-129782078D01*
X159722342Y-129690639D01*
X159722341Y-129690638D01*
X159722339Y-129690637D01*
X159581565Y-129635123D01*
X159493106Y-129624500D01*
X159493102Y-129624500D01*
X159444033Y-129624500D01*
X159385842Y-129605593D01*
X159374029Y-129595504D01*
X158197095Y-128418570D01*
X158194746Y-128416139D01*
X158150679Y-128368955D01*
X158131403Y-128357233D01*
X158114481Y-128346942D01*
X158106105Y-128341242D01*
X158072345Y-128315641D01*
X158072340Y-128315638D01*
X158053654Y-128308269D01*
X158038543Y-128300763D01*
X158021382Y-128290328D01*
X158021379Y-128290327D01*
X158021380Y-128290327D01*
X157995465Y-128283066D01*
X157980578Y-128278894D01*
X157970979Y-128275666D01*
X157931567Y-128260124D01*
X157919674Y-128258901D01*
X157911576Y-128258068D01*
X157895000Y-128254917D01*
X157875667Y-128249500D01*
X157875665Y-128249500D01*
X157833299Y-128249500D01*
X157823176Y-128248981D01*
X157781028Y-128244648D01*
X157781026Y-128244648D01*
X157781025Y-128244648D01*
X157761239Y-128248060D01*
X157744417Y-128249500D01*
X153711079Y-128249500D01*
X153707700Y-128249442D01*
X153643175Y-128247238D01*
X153643174Y-128247238D01*
X153643173Y-128247238D01*
X153643166Y-128247239D01*
X153602020Y-128257266D01*
X153592063Y-128259159D01*
X153550080Y-128264929D01*
X153531657Y-128272932D01*
X153515659Y-128278312D01*
X153496149Y-128283066D01*
X153496144Y-128283068D01*
X153459218Y-128303830D01*
X153450146Y-128308336D01*
X153411279Y-128325220D01*
X153395698Y-128337895D01*
X153381752Y-128347387D01*
X153364241Y-128357233D01*
X153334276Y-128387197D01*
X153326755Y-128393983D01*
X153293893Y-128420719D01*
X153293891Y-128420721D01*
X153282310Y-128437127D01*
X153271437Y-128450036D01*
X151812971Y-129908504D01*
X151758454Y-129936281D01*
X151742967Y-129937500D01*
X150682916Y-129937500D01*
X150614254Y-129943739D01*
X150614247Y-129943741D01*
X150591747Y-129950752D01*
X150530566Y-129950011D01*
X150481505Y-129913450D01*
X150463304Y-129855035D01*
X150482915Y-129797077D01*
X150492285Y-129786238D01*
X152599029Y-127679496D01*
X152653546Y-127651719D01*
X152669033Y-127650500D01*
X160368468Y-127650500D01*
X160426659Y-127669407D01*
X160438471Y-127679496D01*
X160645503Y-127886527D01*
X160673281Y-127941044D01*
X160674500Y-127956531D01*
X160674500Y-128668106D01*
X160685123Y-128756565D01*
X160740637Y-128897339D01*
X160740638Y-128897341D01*
X160740639Y-128897342D01*
X160832078Y-129017922D01*
X160952658Y-129109361D01*
X160952659Y-129109361D01*
X160952660Y-129109362D01*
X161023047Y-129137119D01*
X161093436Y-129164877D01*
X161181898Y-129175500D01*
X161181900Y-129175500D01*
X161893100Y-129175500D01*
X161893102Y-129175500D01*
X161981564Y-129164877D01*
X162122342Y-129109361D01*
X162242922Y-129017922D01*
X162334361Y-128897342D01*
X162389877Y-128756564D01*
X162400500Y-128668102D01*
X162400500Y-128668064D01*
X163600000Y-128668064D01*
X163610613Y-128756443D01*
X163666080Y-128897095D01*
X163757435Y-129017564D01*
X163877904Y-129108919D01*
X164018556Y-129164386D01*
X164106935Y-129174999D01*
X164106942Y-129175000D01*
X164262499Y-129175000D01*
X164262500Y-129174999D01*
X164662500Y-129174999D01*
X164662501Y-129175000D01*
X164818058Y-129175000D01*
X164818064Y-129174999D01*
X164906443Y-129164386D01*
X165047095Y-129108919D01*
X165167564Y-129017564D01*
X165258919Y-128897095D01*
X165314386Y-128756443D01*
X165324999Y-128668064D01*
X165325000Y-128668058D01*
X165325000Y-128200001D01*
X165324999Y-128200000D01*
X164662501Y-128200000D01*
X164662500Y-128200001D01*
X164662500Y-129174999D01*
X164262500Y-129174999D01*
X164262500Y-128200001D01*
X164262499Y-128200000D01*
X163600001Y-128200000D01*
X163600000Y-128200001D01*
X163600000Y-128668064D01*
X162400500Y-128668064D01*
X162400500Y-127799999D01*
X163600000Y-127799999D01*
X163600001Y-127800000D01*
X164262499Y-127800000D01*
X164262500Y-127799999D01*
X164662500Y-127799999D01*
X164662501Y-127800000D01*
X165324999Y-127800000D01*
X165325000Y-127799999D01*
X165325000Y-127331941D01*
X165324999Y-127331935D01*
X165314386Y-127243556D01*
X165258919Y-127102904D01*
X165167564Y-126982435D01*
X165047095Y-126891080D01*
X164906443Y-126835613D01*
X164818064Y-126825000D01*
X164662501Y-126825000D01*
X164662500Y-126825001D01*
X164662500Y-127799999D01*
X164262500Y-127799999D01*
X164262500Y-126825001D01*
X164262499Y-126825000D01*
X164106935Y-126825000D01*
X164018556Y-126835613D01*
X163877904Y-126891080D01*
X163757435Y-126982435D01*
X163666080Y-127102904D01*
X163610613Y-127243556D01*
X163600000Y-127331935D01*
X163600000Y-127799999D01*
X162400500Y-127799999D01*
X162400500Y-127331898D01*
X162389877Y-127243436D01*
X162334361Y-127102658D01*
X162242922Y-126982078D01*
X162122342Y-126890639D01*
X162122341Y-126890638D01*
X162122339Y-126890637D01*
X161981565Y-126835123D01*
X161893106Y-126824500D01*
X161893102Y-126824500D01*
X161181898Y-126824500D01*
X161181533Y-126824500D01*
X161123342Y-126805593D01*
X161111529Y-126795504D01*
X161034596Y-126718571D01*
X161032247Y-126716140D01*
X160988179Y-126668955D01*
X160968903Y-126657233D01*
X160951981Y-126646942D01*
X160943605Y-126641242D01*
X160909845Y-126615641D01*
X160909840Y-126615638D01*
X160891154Y-126608269D01*
X160876043Y-126600763D01*
X160858882Y-126590328D01*
X160858879Y-126590327D01*
X160858880Y-126590327D01*
X160832965Y-126583066D01*
X160818078Y-126578894D01*
X160808479Y-126575666D01*
X160769067Y-126560124D01*
X160757174Y-126558901D01*
X160749076Y-126558068D01*
X160732500Y-126554917D01*
X160713167Y-126549500D01*
X160713165Y-126549500D01*
X160670799Y-126549500D01*
X160660676Y-126548981D01*
X160618528Y-126544648D01*
X160618526Y-126544648D01*
X160618525Y-126544648D01*
X160598739Y-126548060D01*
X160581917Y-126549500D01*
X152411079Y-126549500D01*
X152407700Y-126549442D01*
X152343175Y-126547238D01*
X152343174Y-126547238D01*
X152343173Y-126547238D01*
X152343166Y-126547239D01*
X152302020Y-126557266D01*
X152292063Y-126559159D01*
X152250080Y-126564929D01*
X152231657Y-126572932D01*
X152215659Y-126578312D01*
X152196149Y-126583066D01*
X152196144Y-126583068D01*
X152159218Y-126603830D01*
X152150146Y-126608336D01*
X152111279Y-126625220D01*
X152095698Y-126637895D01*
X152081752Y-126647387D01*
X152064241Y-126657233D01*
X152034276Y-126687197D01*
X152026755Y-126693983D01*
X151993893Y-126720719D01*
X151993891Y-126720721D01*
X151982310Y-126737127D01*
X151971437Y-126750036D01*
X148812971Y-129908504D01*
X148758454Y-129936281D01*
X148742967Y-129937500D01*
X147682916Y-129937500D01*
X147614254Y-129943739D01*
X147614247Y-129943741D01*
X147591747Y-129950752D01*
X147530566Y-129950011D01*
X147481505Y-129913450D01*
X147463304Y-129855035D01*
X147482915Y-129797077D01*
X147492286Y-129786237D01*
X153699028Y-123579496D01*
X153753545Y-123551719D01*
X153769032Y-123550500D01*
X181323388Y-123550500D01*
X181381579Y-123569407D01*
X181417543Y-123618907D01*
X181417543Y-123680093D01*
X181393392Y-123719504D01*
X173642393Y-131470504D01*
X173587876Y-131498281D01*
X173572389Y-131499500D01*
X168280864Y-131499500D01*
X168269781Y-131498878D01*
X168232966Y-131494730D01*
X168232965Y-131494730D01*
X168176304Y-131505449D01*
X168172691Y-131506063D01*
X168115714Y-131514651D01*
X168108632Y-131516836D01*
X168108503Y-131516418D01*
X168106386Y-131517114D01*
X168106531Y-131517526D01*
X168099530Y-131519975D01*
X168099529Y-131519976D01*
X168099527Y-131519976D01*
X168099524Y-131519978D01*
X168048551Y-131546917D01*
X168045249Y-131548584D01*
X167993362Y-131573572D01*
X167987233Y-131577751D01*
X167986987Y-131577391D01*
X167985172Y-131578679D01*
X167985430Y-131579029D01*
X167979463Y-131583433D01*
X167938732Y-131624163D01*
X167936069Y-131626729D01*
X167893802Y-131665947D01*
X167889181Y-131671743D01*
X167888837Y-131671469D01*
X167880295Y-131682600D01*
X165602393Y-133960504D01*
X165547876Y-133988281D01*
X165532389Y-133989500D01*
X161424499Y-133989500D01*
X161366308Y-133970593D01*
X161330344Y-133921093D01*
X161325499Y-133890500D01*
X161325499Y-133855139D01*
X161325499Y-133855136D01*
X161322585Y-133830009D01*
X161277206Y-133727235D01*
X161197765Y-133647794D01*
X161094991Y-133602415D01*
X161094990Y-133602414D01*
X161094988Y-133602414D01*
X161069868Y-133599500D01*
X159730139Y-133599500D01*
X159730136Y-133599501D01*
X159705009Y-133602414D01*
X159602235Y-133647794D01*
X159522794Y-133727235D01*
X159477414Y-133830011D01*
X159474500Y-133855130D01*
X159474500Y-135024860D01*
X159474501Y-135024863D01*
X159477414Y-135049990D01*
X159502756Y-135107385D01*
X159522794Y-135152765D01*
X159602235Y-135232206D01*
X159705009Y-135277585D01*
X159730135Y-135280500D01*
X161069864Y-135280499D01*
X161094991Y-135277585D01*
X161197765Y-135232206D01*
X161277206Y-135152765D01*
X161322585Y-135049991D01*
X161325500Y-135024865D01*
X161325500Y-134989500D01*
X161344407Y-134931309D01*
X161393907Y-134895345D01*
X161424500Y-134890500D01*
X165729136Y-134890500D01*
X165740219Y-134891122D01*
X165742595Y-134891389D01*
X165777035Y-134895270D01*
X165833684Y-134884550D01*
X165837267Y-134883941D01*
X165894287Y-134875348D01*
X165894296Y-134875343D01*
X165901381Y-134873159D01*
X165901512Y-134873584D01*
X165903613Y-134872892D01*
X165903467Y-134872473D01*
X165910463Y-134870024D01*
X165910472Y-134870023D01*
X165961444Y-134843082D01*
X165964740Y-134841419D01*
X165974677Y-134836633D01*
X166016642Y-134816425D01*
X166016646Y-134816421D01*
X166022778Y-134812242D01*
X166023028Y-134812609D01*
X166024832Y-134811329D01*
X166024568Y-134810971D01*
X166030525Y-134806572D01*
X166030538Y-134806566D01*
X166071316Y-134765786D01*
X166073927Y-134763271D01*
X166116194Y-134724055D01*
X166116197Y-134724048D01*
X166120820Y-134718253D01*
X166121166Y-134718529D01*
X166129703Y-134707399D01*
X168407607Y-132429496D01*
X168462124Y-132401719D01*
X168477611Y-132400500D01*
X173573389Y-132400500D01*
X173631580Y-132419407D01*
X173667544Y-132468907D01*
X173667544Y-132530093D01*
X173643393Y-132569503D01*
X173442394Y-132770503D01*
X173387877Y-132798281D01*
X173372390Y-132799500D01*
X168880864Y-132799500D01*
X168869781Y-132798878D01*
X168832966Y-132794730D01*
X168832965Y-132794730D01*
X168814197Y-132798281D01*
X168776337Y-132805444D01*
X168772690Y-132806063D01*
X168715713Y-132814651D01*
X168708628Y-132816837D01*
X168708498Y-132816418D01*
X168706381Y-132817115D01*
X168706526Y-132817529D01*
X168699529Y-132819976D01*
X168699528Y-132819977D01*
X168699526Y-132819977D01*
X168699523Y-132819979D01*
X168648583Y-132846902D01*
X168645279Y-132848570D01*
X168593360Y-132873573D01*
X168587229Y-132877754D01*
X168586982Y-132877392D01*
X168585169Y-132878678D01*
X168585430Y-132879031D01*
X168579458Y-132883438D01*
X168538732Y-132924163D01*
X168536069Y-132926729D01*
X168493802Y-132965947D01*
X168489181Y-132971743D01*
X168488837Y-132971469D01*
X168480295Y-132982600D01*
X164382393Y-137080504D01*
X164327876Y-137108281D01*
X164312389Y-137109500D01*
X161424499Y-137109500D01*
X161366308Y-137090593D01*
X161330344Y-137041093D01*
X161325499Y-137010500D01*
X161325499Y-136975139D01*
X161325499Y-136975136D01*
X161322585Y-136950009D01*
X161277206Y-136847235D01*
X161197765Y-136767794D01*
X161094991Y-136722415D01*
X161094990Y-136722414D01*
X161094988Y-136722414D01*
X161069868Y-136719500D01*
X159730139Y-136719500D01*
X159730136Y-136719501D01*
X159705009Y-136722414D01*
X159602235Y-136767794D01*
X159522794Y-136847235D01*
X159477414Y-136950011D01*
X159474500Y-136975130D01*
X159474500Y-138144860D01*
X159474501Y-138144863D01*
X159477414Y-138169990D01*
X159490444Y-138199500D01*
X159522794Y-138272765D01*
X159602235Y-138352206D01*
X159705009Y-138397585D01*
X159730135Y-138400500D01*
X161069864Y-138400499D01*
X161094991Y-138397585D01*
X161197765Y-138352206D01*
X161277206Y-138272765D01*
X161322585Y-138169991D01*
X161325500Y-138144865D01*
X161325500Y-138109500D01*
X161344407Y-138051309D01*
X161393907Y-138015345D01*
X161424500Y-138010500D01*
X164509136Y-138010500D01*
X164520219Y-138011122D01*
X164522595Y-138011389D01*
X164557035Y-138015270D01*
X164613684Y-138004550D01*
X164617267Y-138003941D01*
X164674287Y-137995348D01*
X164674296Y-137995343D01*
X164681381Y-137993159D01*
X164681512Y-137993584D01*
X164683613Y-137992892D01*
X164683467Y-137992473D01*
X164690463Y-137990024D01*
X164690472Y-137990023D01*
X164741444Y-137963082D01*
X164744740Y-137961419D01*
X164754677Y-137956633D01*
X164796642Y-137936425D01*
X164796646Y-137936421D01*
X164802778Y-137932242D01*
X164803028Y-137932609D01*
X164804832Y-137931329D01*
X164804568Y-137930971D01*
X164810525Y-137926572D01*
X164810538Y-137926566D01*
X164851317Y-137885785D01*
X164853928Y-137883270D01*
X164896194Y-137844055D01*
X164896196Y-137844051D01*
X164900823Y-137838251D01*
X164901168Y-137838526D01*
X164909704Y-137827398D01*
X169007608Y-133729496D01*
X169062125Y-133701719D01*
X169077612Y-133700500D01*
X173569136Y-133700500D01*
X173580219Y-133701122D01*
X173582595Y-133701389D01*
X173617035Y-133705270D01*
X173673684Y-133694550D01*
X173677267Y-133693941D01*
X173734287Y-133685348D01*
X173734296Y-133685343D01*
X173741381Y-133683159D01*
X173741512Y-133683584D01*
X173743613Y-133682892D01*
X173743467Y-133682473D01*
X173750463Y-133680024D01*
X173750472Y-133680023D01*
X173801444Y-133653082D01*
X173804740Y-133651419D01*
X173814677Y-133646633D01*
X173856642Y-133626425D01*
X173856646Y-133626421D01*
X173862778Y-133622242D01*
X173863028Y-133622609D01*
X173864832Y-133621329D01*
X173864568Y-133620971D01*
X173870525Y-133616572D01*
X173870538Y-133616566D01*
X173911317Y-133575785D01*
X173913928Y-133573270D01*
X173956194Y-133534055D01*
X173956196Y-133534051D01*
X173960823Y-133528251D01*
X173961168Y-133528526D01*
X173969704Y-133517398D01*
X185636601Y-121850501D01*
X185691116Y-121822726D01*
X185751548Y-121832297D01*
X185794813Y-121875562D01*
X185804384Y-121935994D01*
X185791567Y-121971321D01*
X185709485Y-122108566D01*
X185707880Y-122111159D01*
X185011711Y-123197760D01*
X185010027Y-123200302D01*
X184280711Y-124264971D01*
X184278949Y-124267459D01*
X183517229Y-125309115D01*
X183515392Y-125311548D01*
X182721932Y-126329284D01*
X182720020Y-126331660D01*
X181895591Y-127324482D01*
X181893607Y-127326797D01*
X181039027Y-128293723D01*
X181036973Y-128295977D01*
X180152995Y-129236157D01*
X180150873Y-129238346D01*
X179238346Y-130150873D01*
X179236157Y-130152995D01*
X178295977Y-131036973D01*
X178293723Y-131039027D01*
X177326797Y-131893607D01*
X177324482Y-131895591D01*
X176331660Y-132720020D01*
X176329284Y-132721932D01*
X175311548Y-133515392D01*
X175309115Y-133517229D01*
X174267459Y-134278949D01*
X174264971Y-134280711D01*
X173200302Y-135010027D01*
X173197760Y-135011711D01*
X172111159Y-135707880D01*
X172108566Y-135709485D01*
X171001077Y-136371839D01*
X170998437Y-136373364D01*
X169871016Y-137001335D01*
X169868330Y-137002777D01*
X168722132Y-137595715D01*
X168719402Y-137597074D01*
X167555517Y-138154420D01*
X167552747Y-138155695D01*
X166372192Y-138676961D01*
X166369384Y-138678149D01*
X165173399Y-139162787D01*
X165170556Y-139163889D01*
X163960151Y-139611491D01*
X163957275Y-139612504D01*
X162733702Y-140022605D01*
X162730797Y-140023529D01*
X161495183Y-140395751D01*
X161492250Y-140396586D01*
X160245704Y-140730597D01*
X160242747Y-140731340D01*
X158986591Y-141026786D01*
X158983613Y-141027439D01*
X157718869Y-141284078D01*
X157715871Y-141284638D01*
X156443885Y-141502197D01*
X156440872Y-141502665D01*
X155162738Y-141680956D01*
X155159713Y-141681330D01*
X153876760Y-141820171D01*
X153873723Y-141820453D01*
X152587024Y-141919725D01*
X152583981Y-141919912D01*
X151294903Y-141979509D01*
X151291856Y-141979603D01*
X150001525Y-141999476D01*
X149998475Y-141999476D01*
X148708143Y-141979603D01*
X148705096Y-141979509D01*
X147416018Y-141919912D01*
X147412975Y-141919725D01*
X146126276Y-141820453D01*
X146123239Y-141820171D01*
X144840286Y-141681330D01*
X144837261Y-141680956D01*
X143559127Y-141502665D01*
X143556114Y-141502197D01*
X142284128Y-141284638D01*
X142281130Y-141284078D01*
X141016386Y-141027439D01*
X141013408Y-141026786D01*
X139757252Y-140731340D01*
X139754295Y-140730597D01*
X138507749Y-140396586D01*
X138504816Y-140395751D01*
X137634266Y-140133502D01*
X137269185Y-140023523D01*
X137266315Y-140022610D01*
X136042724Y-139612504D01*
X136039848Y-139611491D01*
X134829443Y-139163889D01*
X134826600Y-139162787D01*
X133630615Y-138678149D01*
X133627807Y-138676961D01*
X132447252Y-138155695D01*
X132444482Y-138154420D01*
X131719652Y-137807323D01*
X142499500Y-137807323D01*
X142530045Y-138019764D01*
X142530045Y-138019766D01*
X142590514Y-138225705D01*
X142590515Y-138225708D01*
X142590516Y-138225710D01*
X142679679Y-138420950D01*
X142679680Y-138420951D01*
X142679684Y-138420959D01*
X142795713Y-138601505D01*
X142795722Y-138601517D01*
X142936267Y-138763714D01*
X142936276Y-138763724D01*
X142936283Y-138763730D01*
X142936285Y-138763732D01*
X143098482Y-138904277D01*
X143098494Y-138904286D01*
X143279040Y-139020315D01*
X143279042Y-139020316D01*
X143279050Y-139020321D01*
X143474290Y-139109484D01*
X143680231Y-139169954D01*
X143759900Y-139181408D01*
X143892677Y-139200500D01*
X143892682Y-139200500D01*
X156107323Y-139200500D01*
X156213543Y-139185227D01*
X156319769Y-139169954D01*
X156525710Y-139109484D01*
X156720950Y-139020321D01*
X156901513Y-138904281D01*
X157063724Y-138763724D01*
X157204281Y-138601513D01*
X157320321Y-138420950D01*
X157409484Y-138225710D01*
X157469954Y-138019769D01*
X157489214Y-137885813D01*
X157500500Y-137807323D01*
X157500500Y-133892676D01*
X157473515Y-133704999D01*
X157469954Y-133680231D01*
X157409484Y-133474290D01*
X157320321Y-133279050D01*
X157320315Y-133279040D01*
X157204286Y-133098494D01*
X157204277Y-133098482D01*
X157063732Y-132936285D01*
X157063730Y-132936283D01*
X157063724Y-132936276D01*
X157063714Y-132936267D01*
X156901517Y-132795722D01*
X156901505Y-132795713D01*
X156720959Y-132679684D01*
X156720953Y-132679681D01*
X156720950Y-132679679D01*
X156525710Y-132590516D01*
X156525708Y-132590515D01*
X156525705Y-132590514D01*
X156370643Y-132544984D01*
X156319769Y-132530046D01*
X156319767Y-132530045D01*
X156319765Y-132530045D01*
X156107323Y-132499500D01*
X156107318Y-132499500D01*
X156035799Y-132499500D01*
X144065892Y-132499500D01*
X144000000Y-132499500D01*
X143892682Y-132499500D01*
X143892677Y-132499500D01*
X143680235Y-132530045D01*
X143680233Y-132530045D01*
X143474294Y-132590514D01*
X143279048Y-132679680D01*
X143279040Y-132679684D01*
X143098494Y-132795713D01*
X143098482Y-132795722D01*
X142936285Y-132936267D01*
X142936267Y-132936285D01*
X142795722Y-133098482D01*
X142795713Y-133098494D01*
X142679684Y-133279040D01*
X142679680Y-133279048D01*
X142590514Y-133474294D01*
X142530045Y-133680233D01*
X142530045Y-133680235D01*
X142499500Y-133892676D01*
X142499500Y-137807323D01*
X131719652Y-137807323D01*
X131280597Y-137597074D01*
X131277867Y-137595715D01*
X130887778Y-137393918D01*
X130131647Y-137002765D01*
X130129006Y-137001347D01*
X129622995Y-136719501D01*
X129001562Y-136373364D01*
X128998922Y-136371839D01*
X127891433Y-135709485D01*
X127888840Y-135707880D01*
X127502722Y-135460500D01*
X126802228Y-135011703D01*
X126799697Y-135010027D01*
X126769731Y-134989500D01*
X125997271Y-134460352D01*
X125735028Y-134280711D01*
X125732540Y-134278949D01*
X124690884Y-133517229D01*
X124688451Y-133515392D01*
X124222121Y-133151826D01*
X123670688Y-132721910D01*
X123668366Y-132720042D01*
X122675488Y-131895566D01*
X122673231Y-131893632D01*
X121706264Y-131039016D01*
X121704022Y-131036973D01*
X121664699Y-131000001D01*
X120763842Y-130152995D01*
X120761653Y-130150873D01*
X119849126Y-129238346D01*
X119847004Y-129236157D01*
X119707510Y-129087794D01*
X118963012Y-128295962D01*
X118960972Y-128293723D01*
X118106362Y-127326762D01*
X118104437Y-127324516D01*
X117279951Y-126331625D01*
X117278095Y-126329319D01*
X116484607Y-125311548D01*
X116482770Y-125309115D01*
X115721050Y-124267459D01*
X115719288Y-124264971D01*
X115318637Y-123680093D01*
X114989954Y-123200276D01*
X114988306Y-123197787D01*
X114292110Y-122111144D01*
X114290514Y-122108566D01*
X113992776Y-121610734D01*
X113806331Y-121298988D01*
X113628160Y-121001077D01*
X113626635Y-120998437D01*
X113355767Y-120512137D01*
X112998639Y-119870970D01*
X112997246Y-119868376D01*
X112404277Y-118722118D01*
X112402925Y-118719402D01*
X111967863Y-117810879D01*
X111845576Y-117555511D01*
X111844304Y-117552747D01*
X111393354Y-116531442D01*
X111323030Y-116372174D01*
X111321850Y-116369384D01*
X110837201Y-115173372D01*
X110836110Y-115170556D01*
X110720383Y-114857606D01*
X110388495Y-113960115D01*
X110387508Y-113957313D01*
X109977375Y-112733644D01*
X109976488Y-112730855D01*
X109604247Y-111495180D01*
X109603413Y-111492250D01*
X109526691Y-111205918D01*
X109269394Y-110245672D01*
X109268667Y-110242781D01*
X108973203Y-108986548D01*
X108972569Y-108983656D01*
X108715914Y-107718836D01*
X108715367Y-107715904D01*
X108497795Y-106443846D01*
X108497340Y-106440911D01*
X108319043Y-105162738D01*
X108318669Y-105159713D01*
X108299958Y-104986819D01*
X108179827Y-103876752D01*
X108179546Y-103873723D01*
X108178864Y-103864877D01*
X108080272Y-102586992D01*
X108080089Y-102584015D01*
X108020488Y-101294867D01*
X108020397Y-101291893D01*
X108000523Y-100001493D01*
X108000523Y-99998475D01*
X108000741Y-99984345D01*
X108020397Y-98708104D01*
X108020488Y-98705134D01*
X108080089Y-97415980D01*
X108080271Y-97413011D01*
X108179547Y-96126263D01*
X108179828Y-96123239D01*
X108181248Y-96110124D01*
X108318669Y-94840279D01*
X108319043Y-94837261D01*
X108319934Y-94830871D01*
X108497341Y-93559079D01*
X108497794Y-93556163D01*
X108715369Y-92284083D01*
X108715912Y-92281174D01*
X108972572Y-91016330D01*
X108973200Y-91013465D01*
X109268671Y-89757202D01*
X109269390Y-89754342D01*
X109603418Y-88507729D01*
X109604248Y-88504816D01*
X109630108Y-88418973D01*
X110444648Y-88418973D01*
X110448060Y-88438759D01*
X110449500Y-88455582D01*
X110449500Y-99788920D01*
X110449442Y-99792299D01*
X110447238Y-99856823D01*
X110447238Y-99856828D01*
X110457266Y-99897977D01*
X110459159Y-99907935D01*
X110464930Y-99949921D01*
X110464930Y-99949922D01*
X110472931Y-99968341D01*
X110478313Y-99984345D01*
X110483065Y-100003846D01*
X110483068Y-100003854D01*
X110503833Y-100040785D01*
X110508341Y-100049862D01*
X110525220Y-100088721D01*
X110537891Y-100104295D01*
X110547390Y-100118252D01*
X110557234Y-100135759D01*
X110574707Y-100153232D01*
X110587199Y-100165724D01*
X110593990Y-100173250D01*
X110620658Y-100206030D01*
X110620722Y-100206108D01*
X110637124Y-100217686D01*
X110650036Y-100228561D01*
X111265389Y-100843913D01*
X111267737Y-100846343D01*
X111311821Y-100893545D01*
X111348021Y-100915559D01*
X111356394Y-100921257D01*
X111390157Y-100946861D01*
X111390159Y-100946862D01*
X111390161Y-100946863D01*
X111408843Y-100954230D01*
X111423960Y-100961738D01*
X111428537Y-100964521D01*
X111441120Y-100972173D01*
X111467033Y-100979433D01*
X111481911Y-100983601D01*
X111491507Y-100986828D01*
X111530935Y-101002376D01*
X111550918Y-101004429D01*
X111567489Y-101007579D01*
X111586835Y-101013000D01*
X111629207Y-101013000D01*
X111639330Y-101013519D01*
X111642039Y-101013797D01*
X111681471Y-101017851D01*
X111699530Y-101014737D01*
X111701262Y-101014439D01*
X111718081Y-101013000D01*
X112815425Y-101013000D01*
X112873616Y-101031907D01*
X112894307Y-101052179D01*
X112982078Y-101167922D01*
X113102658Y-101259361D01*
X113102659Y-101259361D01*
X113102660Y-101259362D01*
X113119569Y-101266030D01*
X113243436Y-101314877D01*
X113331898Y-101325500D01*
X113350500Y-101325500D01*
X113408691Y-101344407D01*
X113444655Y-101393907D01*
X113449500Y-101424500D01*
X113449500Y-119183920D01*
X113449442Y-119187299D01*
X113447238Y-119251823D01*
X113447238Y-119251828D01*
X113457266Y-119292977D01*
X113459159Y-119302935D01*
X113464930Y-119344921D01*
X113464930Y-119344922D01*
X113472931Y-119363341D01*
X113478313Y-119379345D01*
X113483065Y-119398846D01*
X113483068Y-119398854D01*
X113503833Y-119435785D01*
X113508341Y-119444862D01*
X113525220Y-119483721D01*
X113537891Y-119499295D01*
X113547390Y-119513252D01*
X113557234Y-119530759D01*
X113587199Y-119560724D01*
X113593990Y-119568250D01*
X113620722Y-119601108D01*
X113637124Y-119612686D01*
X113650036Y-119623561D01*
X128312903Y-134286428D01*
X128315251Y-134288858D01*
X128359320Y-134336044D01*
X128359322Y-134336045D01*
X128359323Y-134336046D01*
X128395519Y-134358058D01*
X128403900Y-134363761D01*
X128437658Y-134389361D01*
X128456346Y-134396730D01*
X128471454Y-134404234D01*
X128488618Y-134414672D01*
X128529422Y-134426104D01*
X128539024Y-134429334D01*
X128578432Y-134444875D01*
X128578433Y-134444875D01*
X128578436Y-134444876D01*
X128598415Y-134446929D01*
X128614992Y-134450080D01*
X128634335Y-134455500D01*
X128676701Y-134455500D01*
X128686823Y-134456018D01*
X128728972Y-134460352D01*
X128748761Y-134456939D01*
X128765583Y-134455500D01*
X131560501Y-134455500D01*
X131618692Y-134474407D01*
X131654656Y-134523907D01*
X131659501Y-134554500D01*
X131659501Y-135204863D01*
X131662414Y-135229990D01*
X131683430Y-135277585D01*
X131707794Y-135332765D01*
X131787235Y-135412206D01*
X131890009Y-135457585D01*
X131915135Y-135460500D01*
X133004864Y-135460499D01*
X133029991Y-135457585D01*
X133132765Y-135412206D01*
X133212206Y-135332765D01*
X133257585Y-135229991D01*
X133260500Y-135204865D01*
X133260500Y-135204791D01*
X136740001Y-135204791D01*
X136742909Y-135229874D01*
X136788213Y-135332477D01*
X136867522Y-135411786D01*
X136970127Y-135457090D01*
X136995203Y-135459999D01*
X137339998Y-135459999D01*
X137340000Y-135459998D01*
X137740000Y-135459998D01*
X137740001Y-135459999D01*
X138084790Y-135459999D01*
X138084791Y-135459998D01*
X138109874Y-135457090D01*
X138212477Y-135411786D01*
X138291786Y-135332477D01*
X138337090Y-135229872D01*
X138339999Y-135204797D01*
X138340000Y-135204795D01*
X138340000Y-134105001D01*
X138339999Y-134105000D01*
X137740001Y-134105000D01*
X137740000Y-134105001D01*
X137740000Y-135459998D01*
X137340000Y-135459998D01*
X137340000Y-134105001D01*
X137339999Y-134105000D01*
X136740002Y-134105000D01*
X136740001Y-134105001D01*
X136740001Y-135204791D01*
X133260500Y-135204791D01*
X133260499Y-133704999D01*
X136740000Y-133704999D01*
X136740001Y-133705000D01*
X137339999Y-133705000D01*
X137340000Y-133704999D01*
X137740000Y-133704999D01*
X137740001Y-133705000D01*
X138339998Y-133705000D01*
X138339999Y-133704999D01*
X138339999Y-132605210D01*
X138339998Y-132605208D01*
X138337090Y-132580125D01*
X138291786Y-132477522D01*
X138212477Y-132398213D01*
X138109872Y-132352909D01*
X138084797Y-132350000D01*
X137740001Y-132350000D01*
X137740000Y-132350001D01*
X137740000Y-133704999D01*
X137340000Y-133704999D01*
X137340000Y-132350001D01*
X137339999Y-132350000D01*
X136995210Y-132350000D01*
X136995207Y-132350001D01*
X136970125Y-132352909D01*
X136867522Y-132398213D01*
X136788213Y-132477522D01*
X136742909Y-132580127D01*
X136740000Y-132605202D01*
X136740000Y-133704999D01*
X133260499Y-133704999D01*
X133260499Y-132605136D01*
X133257585Y-132580009D01*
X133212206Y-132477235D01*
X133132765Y-132397794D01*
X133029991Y-132352415D01*
X133029990Y-132352414D01*
X133029988Y-132352414D01*
X133004868Y-132349500D01*
X131915139Y-132349500D01*
X131915136Y-132349501D01*
X131890009Y-132352414D01*
X131787235Y-132397794D01*
X131707794Y-132477235D01*
X131662414Y-132580011D01*
X131659500Y-132605130D01*
X131659500Y-133255500D01*
X131640593Y-133313691D01*
X131591093Y-133349655D01*
X131560500Y-133354500D01*
X128979033Y-133354500D01*
X128920842Y-133335593D01*
X128909029Y-133325504D01*
X116063110Y-120479585D01*
X117323256Y-120479585D01*
X117361048Y-120511730D01*
X117575205Y-120641193D01*
X117807370Y-120734631D01*
X118051514Y-120789617D01*
X118198570Y-120799999D01*
X120841427Y-120799999D01*
X120988486Y-120789617D01*
X121232629Y-120734631D01*
X121464794Y-120641193D01*
X121678952Y-120511729D01*
X121678964Y-120511721D01*
X121716742Y-120479586D01*
X121716742Y-120479585D01*
X119519999Y-118282842D01*
X117323256Y-120479585D01*
X116063110Y-120479585D01*
X114904952Y-119321427D01*
X116720000Y-119321427D01*
X116730382Y-119468486D01*
X116785368Y-119712629D01*
X116878806Y-119944794D01*
X117008270Y-120158953D01*
X117008272Y-120158956D01*
X117040413Y-120196742D01*
X119237156Y-117999999D01*
X119802842Y-117999999D01*
X121999585Y-120196742D01*
X121999586Y-120196742D01*
X122031721Y-120158964D01*
X122031729Y-120158952D01*
X122161193Y-119944794D01*
X122254631Y-119712629D01*
X122309617Y-119468485D01*
X122319999Y-119321429D01*
X122319999Y-116678572D01*
X122309617Y-116531513D01*
X122254631Y-116287370D01*
X122161193Y-116055205D01*
X122031730Y-115841048D01*
X121999585Y-115803256D01*
X119802842Y-117999999D01*
X119237156Y-117999999D01*
X117040413Y-115803256D01*
X117008271Y-115841044D01*
X117008269Y-115841047D01*
X116878806Y-116055205D01*
X116785368Y-116287370D01*
X116730382Y-116531514D01*
X116720000Y-116678570D01*
X116720000Y-119321427D01*
X114904952Y-119321427D01*
X114579496Y-118995971D01*
X114551719Y-118941454D01*
X114550500Y-118925967D01*
X114550500Y-115520413D01*
X117323256Y-115520413D01*
X119519999Y-117717156D01*
X121716742Y-115520413D01*
X121716743Y-115520413D01*
X121678956Y-115488272D01*
X121678953Y-115488270D01*
X121464794Y-115358806D01*
X121232629Y-115265368D01*
X120988485Y-115210382D01*
X120841429Y-115200000D01*
X118198572Y-115200000D01*
X118051513Y-115210382D01*
X117807370Y-115265368D01*
X117575205Y-115358806D01*
X117361047Y-115488269D01*
X117361044Y-115488271D01*
X117323256Y-115520413D01*
X114550500Y-115520413D01*
X114550500Y-101424500D01*
X114569407Y-101366309D01*
X114618907Y-101330345D01*
X114649500Y-101325500D01*
X114668100Y-101325500D01*
X114668102Y-101325500D01*
X114756564Y-101314877D01*
X114897342Y-101259361D01*
X115017922Y-101167922D01*
X115105691Y-101052180D01*
X115155918Y-101017238D01*
X115184575Y-101013000D01*
X122456421Y-101013000D01*
X122459800Y-101013058D01*
X122462138Y-101013137D01*
X122524326Y-101015262D01*
X122565499Y-101005227D01*
X122575439Y-101003339D01*
X122617420Y-100997570D01*
X122635839Y-100989568D01*
X122651837Y-100984187D01*
X122671352Y-100979433D01*
X122708288Y-100958664D01*
X122717342Y-100954166D01*
X122756220Y-100937280D01*
X122771798Y-100924605D01*
X122785757Y-100915106D01*
X122803255Y-100905268D01*
X122803254Y-100905268D01*
X122803259Y-100905266D01*
X122833236Y-100875287D01*
X122840732Y-100868523D01*
X122873608Y-100841778D01*
X122885187Y-100825372D01*
X122896057Y-100812466D01*
X123799028Y-99909494D01*
X123853545Y-99881718D01*
X123869032Y-99880499D01*
X124844861Y-99880499D01*
X124844864Y-99880499D01*
X124869991Y-99877585D01*
X124972765Y-99832206D01*
X125052206Y-99752765D01*
X125097585Y-99649991D01*
X125100500Y-99624865D01*
X125100499Y-98535136D01*
X125097585Y-98510009D01*
X125052206Y-98407235D01*
X124972765Y-98327794D01*
X124869991Y-98282415D01*
X124869990Y-98282414D01*
X124869988Y-98282414D01*
X124844868Y-98279500D01*
X122855139Y-98279500D01*
X122855136Y-98279501D01*
X122830009Y-98282414D01*
X122727235Y-98327794D01*
X122647794Y-98407235D01*
X122602414Y-98510011D01*
X122599500Y-98535130D01*
X122599500Y-99510967D01*
X122580593Y-99569158D01*
X122570504Y-99580970D01*
X122268472Y-99883003D01*
X122213955Y-99910781D01*
X122198468Y-99912000D01*
X115184575Y-99912000D01*
X115126384Y-99893093D01*
X115105691Y-99872819D01*
X115103932Y-99870500D01*
X115017922Y-99757078D01*
X114897342Y-99665639D01*
X114897341Y-99665638D01*
X114897339Y-99665637D01*
X114756565Y-99610123D01*
X114668106Y-99599500D01*
X114668102Y-99599500D01*
X113331898Y-99599500D01*
X113331893Y-99599500D01*
X113243434Y-99610123D01*
X113102660Y-99665637D01*
X113102656Y-99665640D01*
X112982081Y-99757075D01*
X112982075Y-99757081D01*
X112943133Y-99808434D01*
X112896068Y-99870500D01*
X112894309Y-99872819D01*
X112844082Y-99907762D01*
X112815425Y-99912000D01*
X111931531Y-99912000D01*
X111873340Y-99893093D01*
X111861527Y-99883003D01*
X111579496Y-99600971D01*
X111551719Y-99546455D01*
X111550500Y-99530968D01*
X111550500Y-91544791D01*
X113200001Y-91544791D01*
X113202909Y-91569874D01*
X113248213Y-91672477D01*
X113327522Y-91751786D01*
X113430127Y-91797090D01*
X113455203Y-91799999D01*
X113799998Y-91799999D01*
X113800000Y-91799998D01*
X114200000Y-91799998D01*
X114200001Y-91799999D01*
X114544790Y-91799999D01*
X114544791Y-91799998D01*
X114569874Y-91797090D01*
X114672477Y-91751786D01*
X114751786Y-91672477D01*
X114797090Y-91569872D01*
X114799999Y-91544797D01*
X114800000Y-91544795D01*
X114800000Y-91544791D01*
X119200001Y-91544791D01*
X119202909Y-91569874D01*
X119248213Y-91672477D01*
X119327522Y-91751786D01*
X119430127Y-91797090D01*
X119455203Y-91799999D01*
X119799998Y-91799999D01*
X119800000Y-91799998D01*
X120200000Y-91799998D01*
X120200001Y-91799999D01*
X120544790Y-91799999D01*
X120544791Y-91799998D01*
X120569874Y-91797090D01*
X120672477Y-91751786D01*
X120751786Y-91672477D01*
X120797090Y-91569872D01*
X120799999Y-91544797D01*
X120800000Y-91544795D01*
X120800000Y-91350001D01*
X120799999Y-91350000D01*
X120200001Y-91350000D01*
X120200000Y-91350001D01*
X120200000Y-91799998D01*
X119800000Y-91799998D01*
X119800000Y-91350001D01*
X119799999Y-91350000D01*
X119200002Y-91350000D01*
X119200001Y-91350001D01*
X119200001Y-91544791D01*
X114800000Y-91544791D01*
X114800000Y-91350001D01*
X114799999Y-91350000D01*
X114200001Y-91350000D01*
X114200000Y-91350001D01*
X114200000Y-91799998D01*
X113800000Y-91799998D01*
X113800000Y-91350001D01*
X113799999Y-91350000D01*
X113200002Y-91350000D01*
X113200001Y-91350001D01*
X113200001Y-91544791D01*
X111550500Y-91544791D01*
X111550500Y-90949999D01*
X113200000Y-90949999D01*
X113200001Y-90950000D01*
X113799999Y-90950000D01*
X113800000Y-90949999D01*
X114200000Y-90949999D01*
X114200001Y-90950000D01*
X114799998Y-90950000D01*
X114799999Y-90949999D01*
X119200000Y-90949999D01*
X119200001Y-90950000D01*
X119799999Y-90950000D01*
X119800000Y-90949999D01*
X120200000Y-90949999D01*
X120200001Y-90950000D01*
X120799998Y-90950000D01*
X120799999Y-90949999D01*
X120799999Y-90755210D01*
X120799998Y-90755208D01*
X120797090Y-90730125D01*
X120751786Y-90627522D01*
X120672477Y-90548213D01*
X120569872Y-90502909D01*
X120544797Y-90500000D01*
X120200001Y-90500000D01*
X120200000Y-90500001D01*
X120200000Y-90949999D01*
X119800000Y-90949999D01*
X119800000Y-90500001D01*
X119799999Y-90500000D01*
X119455210Y-90500000D01*
X119455207Y-90500001D01*
X119430125Y-90502909D01*
X119327522Y-90548213D01*
X119248213Y-90627522D01*
X119202909Y-90730127D01*
X119200000Y-90755202D01*
X119200000Y-90949999D01*
X114799999Y-90949999D01*
X114799999Y-90755210D01*
X114799998Y-90755208D01*
X114797090Y-90730125D01*
X114751786Y-90627522D01*
X114672477Y-90548213D01*
X114569872Y-90502909D01*
X114544797Y-90500000D01*
X114200001Y-90500000D01*
X114200000Y-90500001D01*
X114200000Y-90949999D01*
X113800000Y-90949999D01*
X113800000Y-90500001D01*
X113799999Y-90500000D01*
X113455210Y-90500000D01*
X113455207Y-90500001D01*
X113430125Y-90502909D01*
X113327522Y-90548213D01*
X113248213Y-90627522D01*
X113202909Y-90730127D01*
X113200000Y-90755202D01*
X113200000Y-90949999D01*
X111550500Y-90949999D01*
X111550500Y-89464791D01*
X122600001Y-89464791D01*
X122602909Y-89489874D01*
X122648213Y-89592477D01*
X122727522Y-89671786D01*
X122830127Y-89717090D01*
X122855203Y-89719999D01*
X123649998Y-89719999D01*
X123650000Y-89719998D01*
X124050000Y-89719998D01*
X124050001Y-89719999D01*
X124844790Y-89719999D01*
X124844791Y-89719998D01*
X124869874Y-89717090D01*
X124972477Y-89671786D01*
X125051786Y-89592477D01*
X125097090Y-89489872D01*
X125099999Y-89464797D01*
X125100000Y-89464795D01*
X125100000Y-89120001D01*
X125099999Y-89120000D01*
X124050001Y-89120000D01*
X124050000Y-89120001D01*
X124050000Y-89719998D01*
X123650000Y-89719998D01*
X123650000Y-89120001D01*
X123649999Y-89120000D01*
X122600002Y-89120000D01*
X122600001Y-89120001D01*
X122600001Y-89464791D01*
X111550500Y-89464791D01*
X111550500Y-88719999D01*
X122600000Y-88719999D01*
X122600001Y-88720000D01*
X123649999Y-88720000D01*
X123650000Y-88719999D01*
X124050000Y-88719999D01*
X124050001Y-88720000D01*
X125099998Y-88720000D01*
X125099999Y-88719999D01*
X125099999Y-88375210D01*
X125099998Y-88375208D01*
X125097090Y-88350125D01*
X125051786Y-88247522D01*
X124972477Y-88168213D01*
X124869872Y-88122909D01*
X124844797Y-88120000D01*
X124050001Y-88120000D01*
X124050000Y-88120001D01*
X124050000Y-88719999D01*
X123650000Y-88719999D01*
X123650000Y-88120001D01*
X123649999Y-88120000D01*
X122855210Y-88120000D01*
X122855207Y-88120001D01*
X122830125Y-88122909D01*
X122727522Y-88168213D01*
X122648213Y-88247522D01*
X122602909Y-88350127D01*
X122600000Y-88375202D01*
X122600000Y-88719999D01*
X111550500Y-88719999D01*
X111550500Y-88669032D01*
X111569407Y-88610841D01*
X111579496Y-88599028D01*
X113333733Y-86844791D01*
X139950001Y-86844791D01*
X139952909Y-86869874D01*
X139998213Y-86972477D01*
X140077522Y-87051786D01*
X140180127Y-87097090D01*
X140205203Y-87099999D01*
X140549998Y-87099999D01*
X140550000Y-87099998D01*
X140950000Y-87099998D01*
X140950001Y-87099999D01*
X141294790Y-87099999D01*
X141294791Y-87099998D01*
X141319874Y-87097090D01*
X141422477Y-87051786D01*
X141501786Y-86972477D01*
X141547090Y-86869872D01*
X141549999Y-86844797D01*
X141550000Y-86844795D01*
X141550000Y-85425001D01*
X141549999Y-85425000D01*
X140950001Y-85425000D01*
X140950000Y-85425001D01*
X140950000Y-87099998D01*
X140550000Y-87099998D01*
X140550000Y-85425001D01*
X140549999Y-85425000D01*
X139950002Y-85425000D01*
X139950001Y-85425001D01*
X139950001Y-86844791D01*
X113333733Y-86844791D01*
X115153525Y-85024999D01*
X139950000Y-85024999D01*
X139950001Y-85025000D01*
X140549999Y-85025000D01*
X140550000Y-85024999D01*
X140950000Y-85024999D01*
X140950001Y-85025000D01*
X141549998Y-85025000D01*
X141549999Y-85024999D01*
X141549999Y-83605210D01*
X141549998Y-83605208D01*
X141547090Y-83580125D01*
X141501786Y-83477522D01*
X141422477Y-83398213D01*
X141319872Y-83352909D01*
X141294797Y-83350000D01*
X140950001Y-83350000D01*
X140950000Y-83350001D01*
X140950000Y-85024999D01*
X140550000Y-85024999D01*
X140550000Y-83350001D01*
X140549999Y-83350000D01*
X140205210Y-83350000D01*
X140205207Y-83350001D01*
X140180125Y-83352909D01*
X140077522Y-83398213D01*
X139998213Y-83477522D01*
X139952909Y-83580127D01*
X139950000Y-83605202D01*
X139950000Y-85024999D01*
X115153525Y-85024999D01*
X117099028Y-83079496D01*
X117153545Y-83051719D01*
X117169032Y-83050500D01*
X131488921Y-83050500D01*
X131492300Y-83050558D01*
X131494638Y-83050637D01*
X131556826Y-83052762D01*
X131597999Y-83042727D01*
X131607939Y-83040839D01*
X131649920Y-83035070D01*
X131668339Y-83027068D01*
X131684337Y-83021687D01*
X131703852Y-83016933D01*
X131740788Y-82996164D01*
X131749842Y-82991666D01*
X131788720Y-82974780D01*
X131804298Y-82962105D01*
X131818257Y-82952606D01*
X131835755Y-82942768D01*
X131835754Y-82942768D01*
X131835759Y-82942766D01*
X131865736Y-82912787D01*
X131873232Y-82906023D01*
X131906108Y-82879278D01*
X131917687Y-82862872D01*
X131928557Y-82849966D01*
X134544029Y-80234496D01*
X134598546Y-80206719D01*
X134614033Y-80205500D01*
X148383709Y-80205500D01*
X148441900Y-80224407D01*
X148449478Y-80230503D01*
X149627762Y-81277867D01*
X149666272Y-81312098D01*
X149697203Y-81364890D01*
X149699500Y-81386092D01*
X149699500Y-94772680D01*
X149680593Y-94830871D01*
X149652970Y-94856632D01*
X146688459Y-96709452D01*
X146635989Y-96724500D01*
X145756532Y-96724500D01*
X145698341Y-96705593D01*
X145686528Y-96695504D01*
X144604496Y-95613471D01*
X144576719Y-95558954D01*
X144575500Y-95543467D01*
X144575500Y-94831899D01*
X144575499Y-94831893D01*
X144564877Y-94743436D01*
X144509361Y-94602658D01*
X144417922Y-94482078D01*
X144297342Y-94390639D01*
X144297341Y-94390638D01*
X144297339Y-94390637D01*
X144156565Y-94335123D01*
X144068106Y-94324500D01*
X144068102Y-94324500D01*
X143356898Y-94324500D01*
X143356893Y-94324500D01*
X143268434Y-94335123D01*
X143127660Y-94390637D01*
X143127656Y-94390640D01*
X143007081Y-94482075D01*
X143007075Y-94482081D01*
X142915640Y-94602656D01*
X142915637Y-94602660D01*
X142860123Y-94743434D01*
X142849500Y-94831893D01*
X142849500Y-96168106D01*
X142860123Y-96256565D01*
X142915637Y-96397339D01*
X142915638Y-96397341D01*
X142915639Y-96397342D01*
X143007078Y-96517922D01*
X143127658Y-96609361D01*
X143127659Y-96609361D01*
X143127660Y-96609362D01*
X143156865Y-96620879D01*
X143268436Y-96664877D01*
X143356898Y-96675500D01*
X143356900Y-96675500D01*
X144068467Y-96675500D01*
X144126658Y-96694407D01*
X144138471Y-96704496D01*
X145090389Y-97656413D01*
X145092737Y-97658843D01*
X145136820Y-97706044D01*
X145173016Y-97728054D01*
X145181393Y-97733756D01*
X145215150Y-97759356D01*
X145215154Y-97759358D01*
X145215158Y-97759361D01*
X145233846Y-97766730D01*
X145248954Y-97774234D01*
X145266118Y-97784672D01*
X145306922Y-97796104D01*
X145316524Y-97799334D01*
X145355932Y-97814875D01*
X145355933Y-97814875D01*
X145355936Y-97814876D01*
X145375915Y-97816929D01*
X145392492Y-97820080D01*
X145411835Y-97825500D01*
X145454201Y-97825500D01*
X145464323Y-97826018D01*
X145506472Y-97830352D01*
X145526261Y-97826939D01*
X145543083Y-97825500D01*
X146552451Y-97825500D01*
X146610642Y-97844407D01*
X146622448Y-97854490D01*
X147170505Y-98402547D01*
X147198281Y-98457062D01*
X147199500Y-98472549D01*
X147199500Y-102480967D01*
X147180593Y-102539158D01*
X147170504Y-102550971D01*
X144700971Y-105020504D01*
X144646454Y-105048281D01*
X144630967Y-105049500D01*
X140249789Y-105049500D01*
X140191598Y-105030593D01*
X140157692Y-104986819D01*
X140134362Y-104927659D01*
X140125616Y-104916126D01*
X140105521Y-104858335D01*
X140105500Y-104856307D01*
X140105500Y-104834696D01*
X140105417Y-104827633D01*
X140105310Y-104823026D01*
X140105310Y-104823019D01*
X140094039Y-104765016D01*
X140085750Y-104722357D01*
X140085749Y-104722354D01*
X140085748Y-104722353D01*
X140085748Y-104722349D01*
X140064161Y-104665098D01*
X140016861Y-104582038D01*
X140016861Y-104582037D01*
X137772194Y-101776204D01*
X137750607Y-101718953D01*
X137750500Y-101714359D01*
X137750500Y-101605727D01*
X137750499Y-101605725D01*
X137747646Y-101575301D01*
X137702793Y-101447118D01*
X137693535Y-101434574D01*
X137622154Y-101337855D01*
X137622152Y-101337853D01*
X137622150Y-101337850D01*
X137622146Y-101337847D01*
X137622144Y-101337845D01*
X137509425Y-101254655D01*
X137473832Y-101204888D01*
X137474290Y-101143704D01*
X137509425Y-101095345D01*
X137595831Y-101031574D01*
X137622150Y-101012150D01*
X137702793Y-100902882D01*
X137747646Y-100774699D01*
X137750499Y-100744273D01*
X137750500Y-100744273D01*
X137750500Y-100335727D01*
X137750499Y-100335725D01*
X137747646Y-100305305D01*
X137747646Y-100305301D01*
X137702793Y-100177118D01*
X137701598Y-100175499D01*
X137622154Y-100067855D01*
X137622152Y-100067853D01*
X137622150Y-100067850D01*
X137622146Y-100067847D01*
X137622144Y-100067845D01*
X137509425Y-99984655D01*
X137473832Y-99934888D01*
X137474290Y-99873704D01*
X137509425Y-99825344D01*
X137517344Y-99819500D01*
X137601927Y-99757075D01*
X137625275Y-99739844D01*
X137683323Y-99720503D01*
X137684063Y-99720500D01*
X139825500Y-99720500D01*
X139883691Y-99739407D01*
X139919655Y-99788907D01*
X139924500Y-99819500D01*
X139924500Y-100168106D01*
X139935123Y-100256565D01*
X139990637Y-100397339D01*
X139990638Y-100397341D01*
X139990639Y-100397342D01*
X140082078Y-100517922D01*
X140202658Y-100609361D01*
X140202659Y-100609361D01*
X140202660Y-100609362D01*
X140273047Y-100637119D01*
X140343436Y-100664877D01*
X140431898Y-100675500D01*
X140431900Y-100675500D01*
X141143100Y-100675500D01*
X141143102Y-100675500D01*
X141231564Y-100664877D01*
X141372342Y-100609361D01*
X141492922Y-100517922D01*
X141584361Y-100397342D01*
X141639877Y-100256564D01*
X141650500Y-100168102D01*
X141650500Y-98831898D01*
X141639877Y-98743436D01*
X141584361Y-98602658D01*
X141584356Y-98602651D01*
X141581752Y-98598019D01*
X141569715Y-98538029D01*
X141595237Y-98482421D01*
X141648571Y-98452435D01*
X141668048Y-98450500D01*
X141984888Y-98450500D01*
X142043079Y-98469407D01*
X142054892Y-98479496D01*
X142820504Y-99245108D01*
X142848281Y-99299625D01*
X142849500Y-99315112D01*
X142849500Y-100168106D01*
X142860123Y-100256565D01*
X142915637Y-100397339D01*
X142915638Y-100397341D01*
X142915639Y-100397342D01*
X143007078Y-100517922D01*
X143127658Y-100609361D01*
X143127659Y-100609361D01*
X143127660Y-100609362D01*
X143198047Y-100637119D01*
X143268436Y-100664877D01*
X143356898Y-100675500D01*
X143370500Y-100675500D01*
X143428691Y-100694407D01*
X143464655Y-100743907D01*
X143469500Y-100774500D01*
X143469500Y-101952944D01*
X143450593Y-102011135D01*
X143423177Y-102036766D01*
X143417740Y-102040182D01*
X143290181Y-102167741D01*
X143194211Y-102320476D01*
X143194211Y-102320477D01*
X143134633Y-102490738D01*
X143134632Y-102490742D01*
X143114435Y-102670000D01*
X143134632Y-102849257D01*
X143134633Y-102849261D01*
X143194211Y-103019522D01*
X143194211Y-103019523D01*
X143246450Y-103102660D01*
X143290184Y-103172262D01*
X143417738Y-103299816D01*
X143417740Y-103299817D01*
X143417741Y-103299818D01*
X143526420Y-103368106D01*
X143570478Y-103395789D01*
X143619324Y-103412881D01*
X143740738Y-103455366D01*
X143740742Y-103455367D01*
X143740745Y-103455368D01*
X143920000Y-103475565D01*
X144099255Y-103455368D01*
X144269522Y-103395789D01*
X144422262Y-103299816D01*
X144549816Y-103172262D01*
X144645789Y-103019522D01*
X144705368Y-102849255D01*
X144725565Y-102670000D01*
X144705368Y-102490745D01*
X144691934Y-102452354D01*
X144649785Y-102331899D01*
X144645789Y-102320478D01*
X144634160Y-102301971D01*
X144549818Y-102167741D01*
X144549817Y-102167740D01*
X144549816Y-102167738D01*
X144422262Y-102040184D01*
X144422259Y-102040182D01*
X144416823Y-102036766D01*
X144377614Y-101989795D01*
X144370500Y-101952944D01*
X144370500Y-100603055D01*
X144389407Y-100544864D01*
X144409682Y-100524171D01*
X144417915Y-100517927D01*
X144417922Y-100517922D01*
X144509361Y-100397342D01*
X144564877Y-100256564D01*
X144575500Y-100168102D01*
X144575500Y-98831898D01*
X144564877Y-98743436D01*
X144534457Y-98666296D01*
X144509362Y-98602660D01*
X144509361Y-98602659D01*
X144509361Y-98602658D01*
X144417922Y-98482078D01*
X144297342Y-98390639D01*
X144297341Y-98390638D01*
X144297339Y-98390637D01*
X144156565Y-98335123D01*
X144068106Y-98324500D01*
X144068102Y-98324500D01*
X143356898Y-98324500D01*
X143356893Y-98324500D01*
X143286987Y-98332895D01*
X143268436Y-98335123D01*
X143268435Y-98335123D01*
X143268429Y-98335124D01*
X143262276Y-98336679D01*
X143261952Y-98335398D01*
X143207733Y-98338733D01*
X143162485Y-98312882D01*
X142552866Y-97703263D01*
X142545478Y-97694995D01*
X142522379Y-97666030D01*
X142479973Y-97637118D01*
X142474758Y-97633562D01*
X142471741Y-97631421D01*
X142425381Y-97597206D01*
X142418822Y-97593740D01*
X142419026Y-97593352D01*
X142417044Y-97592352D01*
X142416855Y-97592746D01*
X142410170Y-97589526D01*
X142355096Y-97572538D01*
X142351582Y-97571382D01*
X142297202Y-97552355D01*
X142297201Y-97552354D01*
X142297199Y-97552354D01*
X142297196Y-97552353D01*
X142289914Y-97550976D01*
X142289995Y-97550544D01*
X142287802Y-97550171D01*
X142287737Y-97550605D01*
X142280403Y-97549500D01*
X142280402Y-97549500D01*
X142222784Y-97549500D01*
X142219083Y-97549431D01*
X142183698Y-97548107D01*
X142161490Y-97547276D01*
X142161489Y-97547276D01*
X142154115Y-97548107D01*
X142154065Y-97547668D01*
X142140156Y-97549500D01*
X137684063Y-97549500D01*
X137625872Y-97530593D01*
X137625275Y-97530156D01*
X137515013Y-97448780D01*
X137512882Y-97447207D01*
X137512881Y-97447206D01*
X137509425Y-97444656D01*
X137473832Y-97394888D01*
X137474290Y-97333705D01*
X137509425Y-97285344D01*
X137625275Y-97199844D01*
X137683323Y-97180503D01*
X137684063Y-97180500D01*
X139526636Y-97180500D01*
X139537719Y-97181122D01*
X139540095Y-97181389D01*
X139574535Y-97185270D01*
X139631184Y-97174550D01*
X139634767Y-97173941D01*
X139691787Y-97165348D01*
X139691796Y-97165343D01*
X139698881Y-97163159D01*
X139699012Y-97163584D01*
X139701113Y-97162892D01*
X139700967Y-97162473D01*
X139707963Y-97160024D01*
X139707972Y-97160023D01*
X139758944Y-97133082D01*
X139762240Y-97131419D01*
X139772177Y-97126633D01*
X139814142Y-97106425D01*
X139814146Y-97106421D01*
X139820278Y-97102242D01*
X139820528Y-97102609D01*
X139822332Y-97101329D01*
X139822068Y-97100971D01*
X139828025Y-97096572D01*
X139828038Y-97096566D01*
X139868816Y-97055786D01*
X139871427Y-97053271D01*
X139913694Y-97014055D01*
X139913697Y-97014048D01*
X139918320Y-97008253D01*
X139918666Y-97008529D01*
X139927203Y-96997399D01*
X140237487Y-96687115D01*
X140292002Y-96659340D01*
X140337039Y-96664281D01*
X140337282Y-96663322D01*
X140343430Y-96664876D01*
X140343434Y-96664876D01*
X140343436Y-96664877D01*
X140431898Y-96675500D01*
X140431900Y-96675500D01*
X141143100Y-96675500D01*
X141143102Y-96675500D01*
X141231564Y-96664877D01*
X141372342Y-96609361D01*
X141492922Y-96517922D01*
X141584361Y-96397342D01*
X141639877Y-96256564D01*
X141650500Y-96168102D01*
X141650500Y-94831898D01*
X141639877Y-94743436D01*
X141584361Y-94602658D01*
X141492922Y-94482078D01*
X141372342Y-94390639D01*
X141372341Y-94390638D01*
X141372339Y-94390637D01*
X141300681Y-94362379D01*
X141253484Y-94323442D01*
X141238000Y-94270282D01*
X141238000Y-92245276D01*
X141256907Y-92187085D01*
X141306407Y-92151121D01*
X141312852Y-92149715D01*
X141312805Y-92149540D01*
X141319987Y-92147585D01*
X141319991Y-92147585D01*
X141422765Y-92102206D01*
X141502206Y-92022765D01*
X141547585Y-91919991D01*
X141550500Y-91894865D01*
X141550499Y-88655136D01*
X141547585Y-88630009D01*
X141502206Y-88527235D01*
X141422765Y-88447794D01*
X141319991Y-88402415D01*
X141319990Y-88402414D01*
X141319988Y-88402414D01*
X141294868Y-88399500D01*
X140205139Y-88399500D01*
X140205136Y-88399501D01*
X140180009Y-88402414D01*
X140077235Y-88447794D01*
X139997794Y-88527235D01*
X139952414Y-88630011D01*
X139949500Y-88655130D01*
X139949500Y-91894860D01*
X139949501Y-91894863D01*
X139952414Y-91919990D01*
X139977756Y-91977385D01*
X139997794Y-92022765D01*
X140077235Y-92102206D01*
X140180009Y-92147585D01*
X140205135Y-92150500D01*
X140237999Y-92150499D01*
X140296188Y-92169405D01*
X140332154Y-92218904D01*
X140337000Y-92249499D01*
X140337000Y-94270282D01*
X140318093Y-94328473D01*
X140274319Y-94362379D01*
X140202660Y-94390637D01*
X140202656Y-94390640D01*
X140082081Y-94482075D01*
X140082075Y-94482081D01*
X139990640Y-94602656D01*
X139990637Y-94602660D01*
X139935123Y-94743434D01*
X139924500Y-94831893D01*
X139924500Y-95684889D01*
X139905593Y-95743080D01*
X139895504Y-95754893D01*
X139399893Y-96250504D01*
X139345376Y-96278281D01*
X139329889Y-96279500D01*
X137684063Y-96279500D01*
X137625872Y-96260593D01*
X137625275Y-96260155D01*
X137509425Y-96174654D01*
X137473832Y-96124887D01*
X137474290Y-96063703D01*
X137509425Y-96015343D01*
X137512878Y-96012794D01*
X137512882Y-96012793D01*
X137622150Y-95932150D01*
X137702793Y-95822882D01*
X137747646Y-95694699D01*
X137750499Y-95664273D01*
X137750500Y-95664273D01*
X137750500Y-95255727D01*
X137750499Y-95255725D01*
X137747646Y-95225301D01*
X137702793Y-95097118D01*
X137672020Y-95055422D01*
X137622154Y-94987855D01*
X137622152Y-94987853D01*
X137622150Y-94987850D01*
X137622146Y-94987847D01*
X137622144Y-94987845D01*
X137509425Y-94904655D01*
X137473832Y-94854888D01*
X137474290Y-94793704D01*
X137509425Y-94745345D01*
X137607768Y-94672764D01*
X137622150Y-94662150D01*
X137702793Y-94552882D01*
X137747646Y-94424699D01*
X137750499Y-94394273D01*
X137750500Y-94394273D01*
X137750500Y-93985727D01*
X137750499Y-93985725D01*
X137747646Y-93955305D01*
X137747646Y-93955301D01*
X137702793Y-93827118D01*
X137698589Y-93821422D01*
X137622154Y-93717855D01*
X137622152Y-93717853D01*
X137622150Y-93717850D01*
X137622146Y-93717847D01*
X137622144Y-93717845D01*
X137512883Y-93637207D01*
X137384703Y-93592355D01*
X137384694Y-93592353D01*
X137354274Y-93589500D01*
X137354266Y-93589500D01*
X136552612Y-93589500D01*
X136494421Y-93570593D01*
X136482608Y-93560504D01*
X134085366Y-91163263D01*
X134077978Y-91154995D01*
X134054879Y-91126030D01*
X134007258Y-91093562D01*
X134004241Y-91091421D01*
X133957881Y-91057206D01*
X133951322Y-91053740D01*
X133951526Y-91053352D01*
X133949544Y-91052352D01*
X133949355Y-91052746D01*
X133942670Y-91049526D01*
X133887596Y-91032538D01*
X133884082Y-91031382D01*
X133829702Y-91012355D01*
X133829701Y-91012354D01*
X133829699Y-91012354D01*
X133829696Y-91012353D01*
X133822414Y-91010976D01*
X133822495Y-91010544D01*
X133820302Y-91010171D01*
X133820237Y-91010605D01*
X133812903Y-91009500D01*
X133812902Y-91009500D01*
X133755284Y-91009500D01*
X133751583Y-91009431D01*
X133716198Y-91008107D01*
X133693990Y-91007276D01*
X133693989Y-91007276D01*
X133686615Y-91008107D01*
X133686565Y-91007668D01*
X133672656Y-91009500D01*
X128499396Y-91009500D01*
X128441205Y-90990593D01*
X128405241Y-90941093D01*
X128400891Y-90917967D01*
X128400828Y-90917975D01*
X128400723Y-90917074D01*
X128400561Y-90916210D01*
X128400499Y-90915138D01*
X128397585Y-90890009D01*
X128396546Y-90887656D01*
X128352206Y-90787235D01*
X128272765Y-90707794D01*
X128169991Y-90662415D01*
X128169990Y-90662414D01*
X128169988Y-90662414D01*
X128144868Y-90659500D01*
X126155139Y-90659500D01*
X126155136Y-90659501D01*
X126130009Y-90662414D01*
X126027235Y-90707794D01*
X125947794Y-90787235D01*
X125902414Y-90890011D01*
X125899500Y-90915130D01*
X125899500Y-92004860D01*
X125899501Y-92004863D01*
X125902414Y-92029990D01*
X125925104Y-92081378D01*
X125947794Y-92132765D01*
X125947795Y-92132766D01*
X125952979Y-92140334D01*
X125951169Y-92141573D01*
X125973303Y-92185013D01*
X125963732Y-92245445D01*
X125920467Y-92288710D01*
X125875522Y-92299500D01*
X125130864Y-92299500D01*
X125119781Y-92298878D01*
X125082966Y-92294730D01*
X125082965Y-92294730D01*
X125061042Y-92298878D01*
X125026337Y-92305444D01*
X125022690Y-92306063D01*
X124965713Y-92314651D01*
X124958628Y-92316837D01*
X124958498Y-92316416D01*
X124956389Y-92317110D01*
X124956534Y-92317525D01*
X124949530Y-92319976D01*
X124898562Y-92346912D01*
X124895262Y-92348578D01*
X124843356Y-92373575D01*
X124837229Y-92377753D01*
X124836984Y-92377393D01*
X124835168Y-92378681D01*
X124835427Y-92379032D01*
X124829458Y-92383437D01*
X124788720Y-92424175D01*
X124786056Y-92426742D01*
X124743802Y-92465948D01*
X124739179Y-92471746D01*
X124738835Y-92471472D01*
X124730297Y-92482597D01*
X124042391Y-93170504D01*
X123987874Y-93198281D01*
X123972387Y-93199500D01*
X122855139Y-93199500D01*
X122855136Y-93199501D01*
X122830009Y-93202414D01*
X122727235Y-93247794D01*
X122647794Y-93327235D01*
X122602414Y-93430011D01*
X122599500Y-93455130D01*
X122599500Y-94544860D01*
X122599501Y-94544863D01*
X122602414Y-94569990D01*
X122623886Y-94618618D01*
X122647794Y-94672765D01*
X122727235Y-94752206D01*
X122830009Y-94797585D01*
X122855135Y-94800500D01*
X124844864Y-94800499D01*
X124869991Y-94797585D01*
X124972765Y-94752206D01*
X125052206Y-94672765D01*
X125097585Y-94569991D01*
X125100500Y-94544865D01*
X125100499Y-93455136D01*
X125098892Y-93441279D01*
X125110970Y-93381299D01*
X125127230Y-93359872D01*
X125187102Y-93300001D01*
X125257607Y-93229496D01*
X125312123Y-93201719D01*
X125327610Y-93200500D01*
X132562389Y-93200500D01*
X132620580Y-93219407D01*
X132632393Y-93229496D01*
X135159630Y-95756732D01*
X135167026Y-95765009D01*
X135190122Y-95793970D01*
X135237785Y-95826466D01*
X135240736Y-95828560D01*
X135252151Y-95836985D01*
X135273010Y-95857844D01*
X135327850Y-95932150D01*
X135327853Y-95932152D01*
X135327855Y-95932154D01*
X135440574Y-96015345D01*
X135476167Y-96065113D01*
X135475709Y-96126296D01*
X135440574Y-96174655D01*
X135327855Y-96257845D01*
X135327845Y-96257855D01*
X135247207Y-96367116D01*
X135202355Y-96495296D01*
X135202353Y-96495305D01*
X135199500Y-96525725D01*
X135199500Y-96934274D01*
X135202353Y-96964694D01*
X135202355Y-96964703D01*
X135247207Y-97092883D01*
X135327845Y-97202144D01*
X135327847Y-97202146D01*
X135327850Y-97202150D01*
X135327853Y-97202152D01*
X135327855Y-97202154D01*
X135440574Y-97285345D01*
X135476167Y-97335113D01*
X135475709Y-97396296D01*
X135440574Y-97444655D01*
X135327855Y-97527845D01*
X135327845Y-97527855D01*
X135247207Y-97637116D01*
X135202355Y-97765296D01*
X135202353Y-97765305D01*
X135199500Y-97795725D01*
X135199500Y-98204274D01*
X135202353Y-98234694D01*
X135202355Y-98234703D01*
X135247207Y-98362883D01*
X135327845Y-98472144D01*
X135327847Y-98472146D01*
X135327850Y-98472150D01*
X135327853Y-98472152D01*
X135327855Y-98472154D01*
X135440574Y-98555345D01*
X135476167Y-98605113D01*
X135475709Y-98666296D01*
X135440574Y-98714655D01*
X135327855Y-98797845D01*
X135327845Y-98797855D01*
X135247207Y-98907116D01*
X135202355Y-99035296D01*
X135202353Y-99035305D01*
X135199500Y-99065725D01*
X135199500Y-99474274D01*
X135202353Y-99504694D01*
X135202355Y-99504703D01*
X135247207Y-99632883D01*
X135327845Y-99742144D01*
X135327847Y-99742146D01*
X135327850Y-99742150D01*
X135327853Y-99742152D01*
X135327855Y-99742154D01*
X135440574Y-99825345D01*
X135476167Y-99875113D01*
X135475709Y-99936296D01*
X135440574Y-99984655D01*
X135327855Y-100067845D01*
X135327849Y-100067851D01*
X135279413Y-100133479D01*
X135248998Y-100158683D01*
X135249486Y-100159399D01*
X135243363Y-100163572D01*
X135243359Y-100163575D01*
X135243355Y-100163578D01*
X135237229Y-100167755D01*
X135236982Y-100167393D01*
X135235170Y-100168678D01*
X135235431Y-100169031D01*
X135229459Y-100173438D01*
X135188733Y-100214163D01*
X135186070Y-100216729D01*
X135143803Y-100255947D01*
X135139182Y-100261743D01*
X135138838Y-100261469D01*
X135130296Y-100272600D01*
X134703265Y-100699631D01*
X134694988Y-100707027D01*
X134666030Y-100730120D01*
X134666029Y-100730121D01*
X134633556Y-100777749D01*
X134631423Y-100780756D01*
X134629163Y-100783819D01*
X134579399Y-100819418D01*
X134518216Y-100818968D01*
X134468982Y-100782641D01*
X134450500Y-100725041D01*
X134450500Y-95720863D01*
X134451122Y-95709780D01*
X134452224Y-95699999D01*
X134455270Y-95672966D01*
X134444547Y-95616296D01*
X134443943Y-95612742D01*
X134435348Y-95555714D01*
X134435347Y-95555711D01*
X134433162Y-95548627D01*
X134433583Y-95548496D01*
X134432889Y-95546387D01*
X134432474Y-95546533D01*
X134430023Y-95539528D01*
X134403093Y-95488575D01*
X134401424Y-95485270D01*
X134385501Y-95452206D01*
X134376425Y-95433359D01*
X134376421Y-95433354D01*
X134372246Y-95427230D01*
X134372610Y-95426981D01*
X134371324Y-95425170D01*
X134370970Y-95425432D01*
X134366567Y-95419467D01*
X134366566Y-95419464D01*
X134366563Y-95419461D01*
X134325811Y-95378708D01*
X134323242Y-95376041D01*
X134284056Y-95333807D01*
X134278258Y-95329184D01*
X134278532Y-95328840D01*
X134267397Y-95320295D01*
X132840365Y-93893263D01*
X132832977Y-93884995D01*
X132809878Y-93856030D01*
X132767472Y-93827118D01*
X132762257Y-93823562D01*
X132759241Y-93821422D01*
X132747856Y-93813020D01*
X132726987Y-93792151D01*
X132672154Y-93717855D01*
X132672152Y-93717853D01*
X132672150Y-93717850D01*
X132672146Y-93717847D01*
X132672144Y-93717845D01*
X132562883Y-93637207D01*
X132434703Y-93592355D01*
X132434694Y-93592353D01*
X132404274Y-93589500D01*
X132404266Y-93589500D01*
X130645734Y-93589500D01*
X130645725Y-93589500D01*
X130615305Y-93592353D01*
X130615296Y-93592355D01*
X130487116Y-93637207D01*
X130377855Y-93717845D01*
X130377845Y-93717855D01*
X130297207Y-93827116D01*
X130252355Y-93955296D01*
X130252353Y-93955305D01*
X130249500Y-93985725D01*
X130249500Y-94394274D01*
X130252353Y-94424694D01*
X130252355Y-94424703D01*
X130297207Y-94552883D01*
X130377845Y-94662144D01*
X130377847Y-94662146D01*
X130377850Y-94662150D01*
X130377853Y-94662152D01*
X130377854Y-94662153D01*
X130490574Y-94745344D01*
X130526167Y-94795111D01*
X130525709Y-94856295D01*
X130490574Y-94904654D01*
X130374725Y-94990155D01*
X130316678Y-95009497D01*
X130315937Y-95009500D01*
X120899500Y-95009500D01*
X120841309Y-94990593D01*
X120805345Y-94941093D01*
X120800500Y-94910500D01*
X120800499Y-94455139D01*
X120800499Y-94455136D01*
X120797585Y-94430009D01*
X120752206Y-94327235D01*
X120672765Y-94247794D01*
X120569991Y-94202415D01*
X120569990Y-94202414D01*
X120569988Y-94202414D01*
X120544868Y-94199500D01*
X119455139Y-94199500D01*
X119455136Y-94199501D01*
X119430009Y-94202414D01*
X119327235Y-94247794D01*
X119247793Y-94327236D01*
X119247247Y-94328473D01*
X119243191Y-94337661D01*
X119241943Y-94340487D01*
X119201143Y-94386083D01*
X119151378Y-94399500D01*
X114848622Y-94399500D01*
X114790431Y-94380593D01*
X114758057Y-94340487D01*
X114752206Y-94327235D01*
X114672765Y-94247794D01*
X114569991Y-94202415D01*
X114569990Y-94202414D01*
X114569988Y-94202414D01*
X114544868Y-94199500D01*
X113455139Y-94199500D01*
X113455136Y-94199501D01*
X113430009Y-94202414D01*
X113327235Y-94247794D01*
X113247794Y-94327235D01*
X113202414Y-94430011D01*
X113199500Y-94455130D01*
X113199500Y-95244860D01*
X113199501Y-95244863D01*
X113202414Y-95269990D01*
X113215886Y-95300500D01*
X113247794Y-95372765D01*
X113327235Y-95452206D01*
X113430009Y-95497585D01*
X113455135Y-95500500D01*
X113455152Y-95500499D01*
X113456204Y-95500561D01*
X113456435Y-95500651D01*
X113457977Y-95500830D01*
X113457930Y-95501234D01*
X113513209Y-95522790D01*
X113546261Y-95574280D01*
X113549500Y-95599397D01*
X113549500Y-96575500D01*
X113530593Y-96633691D01*
X113481093Y-96669655D01*
X113450500Y-96674500D01*
X113331893Y-96674500D01*
X113243434Y-96685123D01*
X113102660Y-96740637D01*
X113102656Y-96740640D01*
X112982081Y-96832075D01*
X112982075Y-96832081D01*
X112890640Y-96952656D01*
X112890637Y-96952660D01*
X112835123Y-97093434D01*
X112824500Y-97181893D01*
X112824500Y-97893106D01*
X112835123Y-97981565D01*
X112890637Y-98122339D01*
X112890638Y-98122341D01*
X112890639Y-98122342D01*
X112982078Y-98242922D01*
X113102658Y-98334361D01*
X113102659Y-98334361D01*
X113102660Y-98334362D01*
X113130359Y-98345285D01*
X113243436Y-98389877D01*
X113331898Y-98400500D01*
X113331900Y-98400500D01*
X114668100Y-98400500D01*
X114668102Y-98400500D01*
X114756564Y-98389877D01*
X114897342Y-98334361D01*
X115017922Y-98242922D01*
X115109361Y-98122342D01*
X115164877Y-97981564D01*
X115175500Y-97893102D01*
X115175500Y-97181898D01*
X115164877Y-97093436D01*
X115114111Y-96964703D01*
X115109362Y-96952660D01*
X115109361Y-96952659D01*
X115109361Y-96952658D01*
X115017922Y-96832078D01*
X114897342Y-96740639D01*
X114897341Y-96740638D01*
X114897339Y-96740637D01*
X114756565Y-96685123D01*
X114668106Y-96674500D01*
X114668102Y-96674500D01*
X114549500Y-96674500D01*
X114491309Y-96655593D01*
X114455345Y-96606093D01*
X114450500Y-96575500D01*
X114450500Y-95599396D01*
X114469407Y-95541205D01*
X114518907Y-95505241D01*
X114542032Y-95500891D01*
X114542025Y-95500828D01*
X114542925Y-95500723D01*
X114543790Y-95500561D01*
X114544861Y-95500499D01*
X114544864Y-95500499D01*
X114569991Y-95497585D01*
X114672765Y-95452206D01*
X114752206Y-95372765D01*
X114758057Y-95359512D01*
X114798857Y-95313917D01*
X114848622Y-95300500D01*
X119151378Y-95300500D01*
X119209569Y-95319407D01*
X119241942Y-95359512D01*
X119247794Y-95372765D01*
X119327235Y-95452206D01*
X119430009Y-95497585D01*
X119455135Y-95500500D01*
X119972388Y-95500499D01*
X120030579Y-95519406D01*
X120042392Y-95529495D01*
X120269629Y-95756732D01*
X120277025Y-95765009D01*
X120300121Y-95793970D01*
X120333844Y-95816962D01*
X120347745Y-95826440D01*
X120350757Y-95828577D01*
X120397118Y-95862793D01*
X120397121Y-95862794D01*
X120403677Y-95866259D01*
X120403469Y-95866651D01*
X120405450Y-95867651D01*
X120405643Y-95867253D01*
X120412327Y-95870472D01*
X120467434Y-95887470D01*
X120470875Y-95888601D01*
X120525300Y-95907646D01*
X120525301Y-95907646D01*
X120532593Y-95909026D01*
X120532510Y-95909460D01*
X120534697Y-95909831D01*
X120534763Y-95909394D01*
X120542096Y-95910499D01*
X120542098Y-95910500D01*
X120599715Y-95910500D01*
X120603416Y-95910569D01*
X120605580Y-95910649D01*
X120661010Y-95912724D01*
X120661016Y-95912722D01*
X120668385Y-95911893D01*
X120668434Y-95912331D01*
X120682344Y-95910500D01*
X125800500Y-95910500D01*
X125858691Y-95929407D01*
X125894655Y-95978907D01*
X125899500Y-96009500D01*
X125899500Y-97084860D01*
X125899501Y-97084863D01*
X125902414Y-97109990D01*
X125911876Y-97131419D01*
X125947794Y-97212765D01*
X126027235Y-97292206D01*
X126130009Y-97337585D01*
X126155135Y-97340500D01*
X128144864Y-97340499D01*
X128169991Y-97337585D01*
X128272765Y-97292206D01*
X128325427Y-97239544D01*
X128355476Y-97209496D01*
X128409993Y-97181719D01*
X128425479Y-97180500D01*
X130315937Y-97180500D01*
X130374128Y-97199407D01*
X130374725Y-97199845D01*
X130490574Y-97285345D01*
X130526167Y-97335112D01*
X130525709Y-97396296D01*
X130490574Y-97444655D01*
X130374725Y-97530155D01*
X130316677Y-97549497D01*
X130315937Y-97549500D01*
X127780864Y-97549500D01*
X127769781Y-97548878D01*
X127732966Y-97544730D01*
X127732965Y-97544730D01*
X127676304Y-97555449D01*
X127672691Y-97556063D01*
X127615714Y-97564651D01*
X127608632Y-97566836D01*
X127608503Y-97566418D01*
X127606386Y-97567114D01*
X127606531Y-97567526D01*
X127599530Y-97569975D01*
X127599529Y-97569976D01*
X127599527Y-97569976D01*
X127599524Y-97569978D01*
X127548551Y-97596917D01*
X127545249Y-97598584D01*
X127493362Y-97623572D01*
X127487233Y-97627751D01*
X127486987Y-97627391D01*
X127485172Y-97628679D01*
X127485430Y-97629029D01*
X127479463Y-97633433D01*
X127438732Y-97674163D01*
X127436069Y-97676729D01*
X127393802Y-97715947D01*
X127389181Y-97721743D01*
X127388837Y-97721469D01*
X127380295Y-97732600D01*
X127103265Y-98009630D01*
X127094988Y-98017026D01*
X127066030Y-98040119D01*
X127066029Y-98040120D01*
X127033556Y-98087748D01*
X127031416Y-98090764D01*
X126997207Y-98137116D01*
X126993742Y-98143674D01*
X126993353Y-98143468D01*
X126992350Y-98145455D01*
X126992746Y-98145646D01*
X126989526Y-98152332D01*
X126972536Y-98207410D01*
X126971380Y-98210923D01*
X126952355Y-98265295D01*
X126950976Y-98272587D01*
X126950544Y-98272505D01*
X126950171Y-98274700D01*
X126950605Y-98274766D01*
X126949500Y-98282099D01*
X126949500Y-98339715D01*
X126949431Y-98343416D01*
X126947276Y-98401010D01*
X126948107Y-98408385D01*
X126947668Y-98408434D01*
X126949500Y-98422344D01*
X126949500Y-106250500D01*
X126930593Y-106308691D01*
X126881093Y-106344655D01*
X126850500Y-106349500D01*
X125915139Y-106349500D01*
X125915136Y-106349501D01*
X125890009Y-106352414D01*
X125787235Y-106397794D01*
X125707794Y-106477235D01*
X125662414Y-106580011D01*
X125659500Y-106605130D01*
X125659500Y-109204860D01*
X125659501Y-109204863D01*
X125662414Y-109229990D01*
X125686226Y-109283919D01*
X125707794Y-109332765D01*
X125787235Y-109412206D01*
X125890009Y-109457585D01*
X125915135Y-109460500D01*
X127004864Y-109460499D01*
X127029991Y-109457585D01*
X127132765Y-109412206D01*
X127212206Y-109332765D01*
X127257585Y-109229991D01*
X127260500Y-109204865D01*
X127260499Y-107782609D01*
X127279406Y-107724419D01*
X127289489Y-107712613D01*
X127696738Y-107305363D01*
X127704998Y-107297982D01*
X127733970Y-107274879D01*
X127766457Y-107227227D01*
X127768559Y-107224266D01*
X127802793Y-107177882D01*
X127802795Y-107177876D01*
X127806263Y-107171316D01*
X127806655Y-107171523D01*
X127807651Y-107169550D01*
X127807252Y-107169358D01*
X127810472Y-107162672D01*
X127827477Y-107107538D01*
X127828595Y-107104138D01*
X127847646Y-107049699D01*
X127847646Y-107049696D01*
X127847647Y-107049694D01*
X127849026Y-107042407D01*
X127849460Y-107042489D01*
X127849831Y-107040307D01*
X127849394Y-107040242D01*
X127850500Y-107032904D01*
X127850500Y-106975300D01*
X127850569Y-106971598D01*
X127850749Y-106966790D01*
X127852725Y-106913990D01*
X127852723Y-106913984D01*
X127851894Y-106906616D01*
X127852331Y-106906566D01*
X127850500Y-106892652D01*
X127850500Y-98577611D01*
X127869407Y-98519420D01*
X127879496Y-98507607D01*
X127907607Y-98479496D01*
X127962124Y-98451719D01*
X127977611Y-98450500D01*
X130315937Y-98450500D01*
X130374128Y-98469407D01*
X130374725Y-98469845D01*
X130490574Y-98555345D01*
X130526167Y-98605112D01*
X130525709Y-98666296D01*
X130490574Y-98714655D01*
X130374725Y-98800155D01*
X130316677Y-98819497D01*
X130315937Y-98819500D01*
X129510864Y-98819500D01*
X129499781Y-98818878D01*
X129462966Y-98814730D01*
X129462965Y-98814730D01*
X129406304Y-98825449D01*
X129402691Y-98826063D01*
X129345714Y-98834651D01*
X129338632Y-98836836D01*
X129338503Y-98836418D01*
X129336386Y-98837114D01*
X129336531Y-98837526D01*
X129329530Y-98839975D01*
X129329529Y-98839976D01*
X129329527Y-98839976D01*
X129329524Y-98839978D01*
X129278551Y-98866917D01*
X129275249Y-98868584D01*
X129223362Y-98893572D01*
X129217233Y-98897751D01*
X129216987Y-98897391D01*
X129215172Y-98898679D01*
X129215430Y-98899029D01*
X129209463Y-98903433D01*
X129168732Y-98944163D01*
X129166069Y-98946729D01*
X129123802Y-98985947D01*
X129119181Y-98991743D01*
X129118837Y-98991469D01*
X129110295Y-99002600D01*
X128703265Y-99409630D01*
X128694988Y-99417026D01*
X128666030Y-99440119D01*
X128666029Y-99440120D01*
X128633556Y-99487748D01*
X128631416Y-99490764D01*
X128597207Y-99537116D01*
X128593742Y-99543674D01*
X128593353Y-99543468D01*
X128592350Y-99545455D01*
X128592746Y-99545646D01*
X128589526Y-99552332D01*
X128572536Y-99607410D01*
X128571380Y-99610923D01*
X128552355Y-99665295D01*
X128550976Y-99672587D01*
X128550544Y-99672505D01*
X128550171Y-99674700D01*
X128550605Y-99674766D01*
X128549500Y-99682099D01*
X128549500Y-99739715D01*
X128549431Y-99743416D01*
X128547276Y-99801010D01*
X128548107Y-99808385D01*
X128547668Y-99808434D01*
X128549500Y-99822344D01*
X128549500Y-102940603D01*
X128530593Y-102998794D01*
X128481093Y-103034758D01*
X128457966Y-103039110D01*
X128457974Y-103039172D01*
X128457108Y-103039272D01*
X128456234Y-103039437D01*
X128455143Y-103039500D01*
X128430009Y-103042414D01*
X128327235Y-103087794D01*
X128247794Y-103167235D01*
X128202414Y-103270011D01*
X128199500Y-103295130D01*
X128199500Y-105894860D01*
X128199501Y-105894863D01*
X128202414Y-105919990D01*
X128218292Y-105955950D01*
X128247794Y-106022765D01*
X128327235Y-106102206D01*
X128430009Y-106147585D01*
X128455135Y-106150500D01*
X129544864Y-106150499D01*
X129569991Y-106147585D01*
X129672765Y-106102206D01*
X129752206Y-106022765D01*
X129797585Y-105919991D01*
X129800500Y-105894865D01*
X129800499Y-103295136D01*
X129797585Y-103270009D01*
X129752206Y-103167235D01*
X129672765Y-103087794D01*
X129569991Y-103042415D01*
X129569990Y-103042414D01*
X129569988Y-103042414D01*
X129544860Y-103039499D01*
X129543772Y-103039436D01*
X129543541Y-103039346D01*
X129542024Y-103039170D01*
X129542070Y-103038771D01*
X129486773Y-103017194D01*
X129453733Y-102965696D01*
X129450500Y-102940602D01*
X129450500Y-102014203D01*
X130250001Y-102014203D01*
X130252850Y-102044600D01*
X130252850Y-102044602D01*
X130297654Y-102172647D01*
X130378207Y-102281790D01*
X130378209Y-102281792D01*
X130487352Y-102362345D01*
X130615398Y-102407149D01*
X130645789Y-102409999D01*
X131324998Y-102409999D01*
X131325000Y-102409998D01*
X131325000Y-102010001D01*
X131324999Y-102010000D01*
X130250002Y-102010000D01*
X130250001Y-102010001D01*
X130250001Y-102014203D01*
X129450500Y-102014203D01*
X129450500Y-99977611D01*
X129469407Y-99919420D01*
X129479496Y-99907607D01*
X129637607Y-99749496D01*
X129692124Y-99721719D01*
X129707611Y-99720500D01*
X130315937Y-99720500D01*
X130374128Y-99739407D01*
X130374725Y-99739845D01*
X130490574Y-99825345D01*
X130526167Y-99875112D01*
X130525709Y-99936296D01*
X130490574Y-99984655D01*
X130377855Y-100067845D01*
X130377845Y-100067855D01*
X130297207Y-100177116D01*
X130252355Y-100305296D01*
X130252353Y-100305305D01*
X130249500Y-100335725D01*
X130249500Y-100744274D01*
X130252353Y-100774694D01*
X130252355Y-100774703D01*
X130297207Y-100902883D01*
X130377845Y-101012144D01*
X130377847Y-101012146D01*
X130377850Y-101012150D01*
X130377853Y-101012152D01*
X130377855Y-101012154D01*
X130490995Y-101095655D01*
X130526588Y-101145422D01*
X130526130Y-101206606D01*
X130490996Y-101254964D01*
X130378213Y-101338203D01*
X130378207Y-101338209D01*
X130297654Y-101447352D01*
X130252850Y-101575398D01*
X130250000Y-101605788D01*
X130250000Y-101609999D01*
X130250001Y-101610000D01*
X131626000Y-101610000D01*
X131684191Y-101628907D01*
X131720155Y-101678407D01*
X131725000Y-101709000D01*
X131725000Y-102409998D01*
X131725001Y-102409999D01*
X132404203Y-102409999D01*
X132440605Y-102406587D01*
X132440873Y-102409454D01*
X132490165Y-102414304D01*
X132535906Y-102454942D01*
X132549500Y-102505011D01*
X132549500Y-106217389D01*
X132530593Y-106275580D01*
X132520503Y-106287393D01*
X132381436Y-106426459D01*
X132326920Y-106454236D01*
X132266488Y-106444664D01*
X132241432Y-106426461D01*
X132212765Y-106397794D01*
X132109991Y-106352415D01*
X132109990Y-106352414D01*
X132109988Y-106352414D01*
X132084868Y-106349500D01*
X130995139Y-106349500D01*
X130995136Y-106349501D01*
X130970009Y-106352414D01*
X130867235Y-106397794D01*
X130787794Y-106477235D01*
X130742414Y-106580011D01*
X130739500Y-106605130D01*
X130739500Y-109204860D01*
X130739501Y-109204863D01*
X130742414Y-109229990D01*
X130766226Y-109283919D01*
X130787794Y-109332765D01*
X130867235Y-109412206D01*
X130970009Y-109457585D01*
X130995135Y-109460500D01*
X132084864Y-109460499D01*
X132109991Y-109457585D01*
X132212765Y-109412206D01*
X132292206Y-109332765D01*
X132337585Y-109229991D01*
X132340500Y-109204865D01*
X132340499Y-107782610D01*
X132359406Y-107724420D01*
X132369489Y-107712613D01*
X133296743Y-106785358D01*
X133305003Y-106777978D01*
X133333970Y-106754879D01*
X133366457Y-106707227D01*
X133368566Y-106704255D01*
X133370848Y-106701163D01*
X133420615Y-106665574D01*
X133481799Y-106666034D01*
X133531027Y-106702368D01*
X133549500Y-106759956D01*
X133549500Y-126014136D01*
X133548878Y-126025219D01*
X133544730Y-126062033D01*
X133544730Y-126062038D01*
X133555444Y-126118664D01*
X133556064Y-126122312D01*
X133564652Y-126179287D01*
X133566840Y-126186381D01*
X133566417Y-126186511D01*
X133567109Y-126188613D01*
X133567526Y-126188468D01*
X133569975Y-126195468D01*
X133596906Y-126246424D01*
X133598574Y-126249728D01*
X133623574Y-126301641D01*
X133627753Y-126307770D01*
X133627389Y-126308017D01*
X133628677Y-126309831D01*
X133629030Y-126309571D01*
X133633434Y-126315538D01*
X133674199Y-126356304D01*
X133676768Y-126358971D01*
X133715944Y-126401194D01*
X133721743Y-126405818D01*
X133721467Y-126406163D01*
X133732600Y-126414704D01*
X134520504Y-127202607D01*
X134548281Y-127257124D01*
X134549500Y-127272611D01*
X134549500Y-128940603D01*
X134530593Y-128998794D01*
X134481093Y-129034758D01*
X134457966Y-129039110D01*
X134457974Y-129039172D01*
X134457108Y-129039272D01*
X134456234Y-129039437D01*
X134455143Y-129039500D01*
X134430009Y-129042414D01*
X134327235Y-129087794D01*
X134247794Y-129167235D01*
X134202414Y-129270011D01*
X134199500Y-129295130D01*
X134199500Y-131894860D01*
X134199501Y-131894863D01*
X134202414Y-131919990D01*
X134222234Y-131964877D01*
X134247794Y-132022765D01*
X134327235Y-132102206D01*
X134430009Y-132147585D01*
X134455135Y-132150500D01*
X135544864Y-132150499D01*
X135569991Y-132147585D01*
X135672765Y-132102206D01*
X135752206Y-132022765D01*
X135797585Y-131919991D01*
X135800500Y-131894865D01*
X135800499Y-129295136D01*
X135797585Y-129270009D01*
X135752206Y-129167235D01*
X135672765Y-129087794D01*
X135569991Y-129042415D01*
X135569990Y-129042414D01*
X135569988Y-129042414D01*
X135544860Y-129039499D01*
X135543772Y-129039436D01*
X135543541Y-129039346D01*
X135542024Y-129039170D01*
X135542070Y-129038771D01*
X135486773Y-129017194D01*
X135453733Y-128965696D01*
X135450500Y-128940602D01*
X135450500Y-127075862D01*
X135451122Y-127064779D01*
X135455270Y-127027965D01*
X135444547Y-126971295D01*
X135443943Y-126967741D01*
X135435348Y-126910713D01*
X135435347Y-126910710D01*
X135433162Y-126903626D01*
X135433583Y-126903495D01*
X135432889Y-126901386D01*
X135432474Y-126901532D01*
X135430023Y-126894527D01*
X135403093Y-126843574D01*
X135401424Y-126840269D01*
X135393830Y-126824500D01*
X135376425Y-126788358D01*
X135376421Y-126788353D01*
X135372246Y-126782229D01*
X135372610Y-126781980D01*
X135371324Y-126780169D01*
X135370970Y-126780431D01*
X135366567Y-126774466D01*
X135366566Y-126774463D01*
X135366563Y-126774460D01*
X135325811Y-126733707D01*
X135323242Y-126731040D01*
X135284056Y-126688806D01*
X135278258Y-126684183D01*
X135278532Y-126683839D01*
X135267397Y-126675294D01*
X134479496Y-125887393D01*
X134451719Y-125832876D01*
X134450500Y-125817389D01*
X134450500Y-108843064D01*
X135400000Y-108843064D01*
X135410613Y-108931443D01*
X135466080Y-109072095D01*
X135557435Y-109192564D01*
X135677904Y-109283919D01*
X135818556Y-109339386D01*
X135906935Y-109349999D01*
X135906942Y-109350000D01*
X136399999Y-109350000D01*
X136400000Y-109349999D01*
X136800000Y-109349999D01*
X136800001Y-109350000D01*
X137293058Y-109350000D01*
X137293064Y-109349999D01*
X137381443Y-109339386D01*
X137522095Y-109283919D01*
X137642564Y-109192564D01*
X137642567Y-109192561D01*
X137721116Y-109088980D01*
X137771343Y-109054037D01*
X137832515Y-109055291D01*
X137878884Y-109088980D01*
X137957432Y-109192561D01*
X137957435Y-109192564D01*
X138077904Y-109283919D01*
X138218556Y-109339386D01*
X138306935Y-109349999D01*
X138306942Y-109350000D01*
X138799999Y-109350000D01*
X138800000Y-109349999D01*
X139200000Y-109349999D01*
X139200001Y-109350000D01*
X139693058Y-109350000D01*
X139693064Y-109349999D01*
X139781443Y-109339386D01*
X139922095Y-109283919D01*
X140042564Y-109192564D01*
X140133919Y-109072095D01*
X140189386Y-108931443D01*
X140199999Y-108843064D01*
X140200000Y-108843058D01*
X140200000Y-108675001D01*
X140199999Y-108675000D01*
X139200001Y-108675000D01*
X139200000Y-108675001D01*
X139200000Y-109349999D01*
X138800000Y-109349999D01*
X138800000Y-108675001D01*
X138799999Y-108675000D01*
X136800001Y-108675000D01*
X136800000Y-108675001D01*
X136800000Y-109349999D01*
X136400000Y-109349999D01*
X136400000Y-108675001D01*
X136399999Y-108675000D01*
X135400001Y-108675000D01*
X135400000Y-108675001D01*
X135400000Y-108843064D01*
X134450500Y-108843064D01*
X134450500Y-106723528D01*
X134469407Y-106665337D01*
X134518907Y-106629373D01*
X134580093Y-106629373D01*
X134629155Y-106664739D01*
X134633432Y-106670534D01*
X134633434Y-106670538D01*
X134633437Y-106670541D01*
X134674199Y-106711304D01*
X134676768Y-106713971D01*
X134715944Y-106756194D01*
X134721743Y-106760818D01*
X134721467Y-106761163D01*
X134732600Y-106769704D01*
X135259629Y-107296732D01*
X135267025Y-107305009D01*
X135272244Y-107311553D01*
X135290121Y-107333970D01*
X135323844Y-107356962D01*
X135337745Y-107366440D01*
X135340757Y-107368577D01*
X135387118Y-107402793D01*
X135387121Y-107402794D01*
X135393677Y-107406259D01*
X135393469Y-107406651D01*
X135395450Y-107407651D01*
X135395643Y-107407253D01*
X135402327Y-107410472D01*
X135457407Y-107427461D01*
X135460909Y-107428613D01*
X135505485Y-107444211D01*
X135515301Y-107447646D01*
X135522593Y-107449026D01*
X135522510Y-107449460D01*
X135524693Y-107449830D01*
X135524759Y-107449394D01*
X135532098Y-107450500D01*
X135589716Y-107450500D01*
X135593417Y-107450569D01*
X135595519Y-107450647D01*
X135651010Y-107452724D01*
X135651016Y-107452722D01*
X135658385Y-107451893D01*
X135658434Y-107452331D01*
X135672344Y-107450500D01*
X135703668Y-107450500D01*
X135761859Y-107469407D01*
X135797823Y-107518907D01*
X135797823Y-107580093D01*
X135761859Y-107629593D01*
X135739987Y-107641598D01*
X135677904Y-107666080D01*
X135557435Y-107757435D01*
X135466080Y-107877904D01*
X135410613Y-108018556D01*
X135400000Y-108106935D01*
X135400000Y-108274999D01*
X135400001Y-108275000D01*
X140199999Y-108275000D01*
X140200000Y-108274999D01*
X140200000Y-108106941D01*
X140199999Y-108106935D01*
X140189386Y-108018556D01*
X140133919Y-107877904D01*
X140042564Y-107757435D01*
X139922095Y-107666080D01*
X139860013Y-107641598D01*
X139812816Y-107602661D01*
X139797519Y-107543419D01*
X139819965Y-107486499D01*
X139871581Y-107453644D01*
X139896332Y-107450500D01*
X150075500Y-107450500D01*
X150133691Y-107469407D01*
X150169655Y-107518907D01*
X150174500Y-107549500D01*
X150174500Y-107668106D01*
X150185123Y-107756565D01*
X150240637Y-107897339D01*
X150240638Y-107897341D01*
X150240639Y-107897342D01*
X150332078Y-108017922D01*
X150452658Y-108109361D01*
X150452659Y-108109361D01*
X150452660Y-108109362D01*
X150523047Y-108137119D01*
X150593436Y-108164877D01*
X150681898Y-108175500D01*
X150681900Y-108175500D01*
X151393100Y-108175500D01*
X151393102Y-108175500D01*
X151481564Y-108164877D01*
X151622342Y-108109361D01*
X151742922Y-108017922D01*
X151834361Y-107897342D01*
X151889877Y-107756564D01*
X151900500Y-107668106D01*
X153099500Y-107668106D01*
X153110123Y-107756565D01*
X153165637Y-107897339D01*
X153165638Y-107897341D01*
X153165639Y-107897342D01*
X153257078Y-108017922D01*
X153377658Y-108109361D01*
X153377659Y-108109361D01*
X153377660Y-108109362D01*
X153448047Y-108137119D01*
X153518436Y-108164877D01*
X153606898Y-108175500D01*
X153606900Y-108175500D01*
X154318100Y-108175500D01*
X154318102Y-108175500D01*
X154406564Y-108164877D01*
X154547342Y-108109361D01*
X154667922Y-108017922D01*
X154759361Y-107897342D01*
X154814877Y-107756564D01*
X154816498Y-107743064D01*
X176925000Y-107743064D01*
X176935613Y-107831443D01*
X176991080Y-107972095D01*
X177082435Y-108092564D01*
X177202904Y-108183919D01*
X177343556Y-108239386D01*
X177431935Y-108249999D01*
X177431942Y-108250000D01*
X177599999Y-108250000D01*
X177600000Y-108249999D01*
X178000000Y-108249999D01*
X178000001Y-108250000D01*
X178168058Y-108250000D01*
X178168064Y-108249999D01*
X178256443Y-108239386D01*
X178397095Y-108183919D01*
X178517564Y-108092564D01*
X178608919Y-107972095D01*
X178664386Y-107831443D01*
X178674999Y-107743064D01*
X178675000Y-107743058D01*
X178675000Y-107250001D01*
X178674999Y-107250000D01*
X178000001Y-107250000D01*
X178000000Y-107250001D01*
X178000000Y-108249999D01*
X177600000Y-108249999D01*
X177600000Y-107250001D01*
X177599999Y-107250000D01*
X176925001Y-107250000D01*
X176925000Y-107250001D01*
X176925000Y-107743064D01*
X154816498Y-107743064D01*
X154825500Y-107668102D01*
X154825500Y-107549500D01*
X154844407Y-107491309D01*
X154893907Y-107455345D01*
X154924500Y-107450500D01*
X161169136Y-107450500D01*
X161180219Y-107451122D01*
X161182595Y-107451389D01*
X161217035Y-107455270D01*
X161273684Y-107444550D01*
X161277267Y-107443941D01*
X161334287Y-107435348D01*
X161334296Y-107435343D01*
X161341381Y-107433159D01*
X161341512Y-107433584D01*
X161343613Y-107432892D01*
X161343467Y-107432473D01*
X161350463Y-107430024D01*
X161350472Y-107430023D01*
X161401444Y-107403082D01*
X161404740Y-107401419D01*
X161414677Y-107396633D01*
X161456642Y-107376425D01*
X161456646Y-107376421D01*
X161462778Y-107372242D01*
X161463028Y-107372609D01*
X161464832Y-107371329D01*
X161464568Y-107370971D01*
X161470525Y-107366572D01*
X161470538Y-107366566D01*
X161511316Y-107325786D01*
X161513927Y-107323271D01*
X161556194Y-107284055D01*
X161556197Y-107284048D01*
X161560820Y-107278253D01*
X161561166Y-107278529D01*
X161569703Y-107267399D01*
X161987102Y-106849999D01*
X176925000Y-106849999D01*
X176925001Y-106850000D01*
X177599999Y-106850000D01*
X177600000Y-106849999D01*
X178000000Y-106849999D01*
X178000001Y-106850000D01*
X178674999Y-106850000D01*
X178675000Y-106849999D01*
X178675000Y-106356941D01*
X178674999Y-106356935D01*
X178664386Y-106268556D01*
X178608919Y-106127904D01*
X178517564Y-106007435D01*
X178397095Y-105916080D01*
X178256443Y-105860613D01*
X178168064Y-105850000D01*
X178000001Y-105850000D01*
X178000000Y-105850001D01*
X178000000Y-106849999D01*
X177600000Y-106849999D01*
X177600000Y-105850001D01*
X177599999Y-105850000D01*
X177431935Y-105850000D01*
X177343556Y-105860613D01*
X177202904Y-105916080D01*
X177082435Y-106007435D01*
X176991080Y-106127904D01*
X176935613Y-106268556D01*
X176925000Y-106356935D01*
X176925000Y-106849999D01*
X161987102Y-106849999D01*
X162296743Y-106540358D01*
X162305003Y-106532978D01*
X162333970Y-106509879D01*
X162366457Y-106462227D01*
X162368559Y-106459266D01*
X162402793Y-106412882D01*
X162402795Y-106412876D01*
X162406263Y-106406316D01*
X162406655Y-106406523D01*
X162407651Y-106404550D01*
X162407252Y-106404358D01*
X162410472Y-106397672D01*
X162411608Y-106393990D01*
X162427477Y-106342538D01*
X162428595Y-106339138D01*
X162447646Y-106284699D01*
X162447646Y-106284696D01*
X162447647Y-106284694D01*
X162449026Y-106277407D01*
X162449460Y-106277489D01*
X162449831Y-106275307D01*
X162449394Y-106275242D01*
X162450500Y-106267904D01*
X162450500Y-106210300D01*
X162450569Y-106206598D01*
X162451202Y-106189680D01*
X162452725Y-106148990D01*
X162452723Y-106148984D01*
X162451894Y-106141616D01*
X162452331Y-106141566D01*
X162450500Y-106127652D01*
X162450500Y-98599499D01*
X162469407Y-98541308D01*
X162518907Y-98505344D01*
X162549496Y-98500499D01*
X162562501Y-98500499D01*
X162620691Y-98519406D01*
X162656655Y-98568906D01*
X162661500Y-98599499D01*
X162661500Y-101000920D01*
X162661442Y-101004299D01*
X162659238Y-101068823D01*
X162659238Y-101068828D01*
X162669266Y-101109977D01*
X162671159Y-101119935D01*
X162676930Y-101161921D01*
X162676930Y-101161922D01*
X162684931Y-101180341D01*
X162690313Y-101196345D01*
X162695065Y-101215846D01*
X162695068Y-101215854D01*
X162715833Y-101252785D01*
X162720340Y-101261860D01*
X162722150Y-101266027D01*
X162737220Y-101300721D01*
X162749891Y-101316295D01*
X162759390Y-101330252D01*
X162769234Y-101347759D01*
X162787784Y-101366309D01*
X162799199Y-101377724D01*
X162805990Y-101385250D01*
X162831231Y-101416276D01*
X162832722Y-101418108D01*
X162849124Y-101429686D01*
X162862036Y-101440561D01*
X164152503Y-102731028D01*
X165420504Y-103999028D01*
X165448281Y-104053545D01*
X165449500Y-104069032D01*
X165449500Y-104544860D01*
X165449501Y-104544863D01*
X165452414Y-104569990D01*
X165459977Y-104587118D01*
X165497794Y-104672765D01*
X165577235Y-104752206D01*
X165680009Y-104797585D01*
X165705135Y-104800500D01*
X168294864Y-104800499D01*
X168319991Y-104797585D01*
X168422765Y-104752206D01*
X168502206Y-104672765D01*
X168547585Y-104569991D01*
X168550500Y-104544865D01*
X168550499Y-103305136D01*
X168547585Y-103280009D01*
X168502206Y-103177235D01*
X168422765Y-103097794D01*
X168406391Y-103090564D01*
X168360796Y-103049765D01*
X168347890Y-102989956D01*
X168372603Y-102933984D01*
X168406390Y-102909435D01*
X168422765Y-102902206D01*
X168502206Y-102822765D01*
X168547585Y-102719991D01*
X168550500Y-102694865D01*
X168550499Y-101821376D01*
X168555159Y-101791360D01*
X168559981Y-101776204D01*
X169100860Y-100076296D01*
X169135380Y-100027432D01*
X169147922Y-100017922D01*
X169239361Y-99897342D01*
X169294877Y-99756564D01*
X169305500Y-99668102D01*
X169305500Y-98331898D01*
X169294877Y-98243436D01*
X169248301Y-98125331D01*
X169241423Y-98086813D01*
X169241914Y-98064752D01*
X169255602Y-97448786D01*
X169258969Y-97297300D01*
X169279165Y-97239544D01*
X169329452Y-97204689D01*
X169357945Y-97200500D01*
X171180967Y-97200500D01*
X171239158Y-97219407D01*
X171250971Y-97229496D01*
X171958004Y-97936528D01*
X171985781Y-97991045D01*
X171987000Y-98006532D01*
X171987000Y-101815424D01*
X171968093Y-101873615D01*
X171947820Y-101894307D01*
X171832082Y-101982074D01*
X171832075Y-101982081D01*
X171740640Y-102102656D01*
X171740637Y-102102660D01*
X171685123Y-102243434D01*
X171674500Y-102331893D01*
X171674500Y-103668106D01*
X171685123Y-103756565D01*
X171740637Y-103897339D01*
X171740638Y-103897341D01*
X171740639Y-103897342D01*
X171832078Y-104017922D01*
X171952658Y-104109361D01*
X171952659Y-104109361D01*
X171952660Y-104109362D01*
X172023047Y-104137119D01*
X172093436Y-104164877D01*
X172181898Y-104175500D01*
X172181900Y-104175500D01*
X172893100Y-104175500D01*
X172893102Y-104175500D01*
X172981564Y-104164877D01*
X173122342Y-104109361D01*
X173242922Y-104017922D01*
X173334361Y-103897342D01*
X173389877Y-103756564D01*
X173400500Y-103668102D01*
X173400500Y-102331898D01*
X173389877Y-102243436D01*
X173340769Y-102118907D01*
X173334362Y-102102660D01*
X173334361Y-102102659D01*
X173334361Y-102102658D01*
X173242922Y-101982078D01*
X173242917Y-101982074D01*
X173127180Y-101894307D01*
X173092238Y-101844081D01*
X173088000Y-101815424D01*
X173088000Y-100443064D01*
X184600000Y-100443064D01*
X184610613Y-100531443D01*
X184666080Y-100672095D01*
X184757435Y-100792564D01*
X184877904Y-100883919D01*
X185018556Y-100939386D01*
X185106935Y-100949999D01*
X185106942Y-100950000D01*
X185574999Y-100950000D01*
X185575000Y-100949999D01*
X185975000Y-100949999D01*
X185975001Y-100950000D01*
X186443058Y-100950000D01*
X186443064Y-100949999D01*
X186531443Y-100939386D01*
X186672095Y-100883919D01*
X186792564Y-100792564D01*
X186883919Y-100672095D01*
X186939386Y-100531443D01*
X186949999Y-100443064D01*
X186950000Y-100443058D01*
X186950000Y-100287501D01*
X186949999Y-100287500D01*
X185975001Y-100287500D01*
X185975000Y-100287501D01*
X185975000Y-100949999D01*
X185575000Y-100949999D01*
X185575000Y-100287501D01*
X185574999Y-100287500D01*
X184600001Y-100287500D01*
X184600000Y-100287501D01*
X184600000Y-100443064D01*
X173088000Y-100443064D01*
X173088000Y-99887499D01*
X184600000Y-99887499D01*
X184600001Y-99887500D01*
X185574999Y-99887500D01*
X185575000Y-99887499D01*
X185975000Y-99887499D01*
X185975001Y-99887500D01*
X186949999Y-99887500D01*
X186950000Y-99887499D01*
X186950000Y-99731941D01*
X186949999Y-99731935D01*
X186939386Y-99643556D01*
X186883919Y-99502904D01*
X186792564Y-99382435D01*
X186672095Y-99291080D01*
X186531443Y-99235613D01*
X186443064Y-99225000D01*
X185975001Y-99225000D01*
X185975000Y-99225001D01*
X185975000Y-99887499D01*
X185575000Y-99887499D01*
X185575000Y-99225001D01*
X185574999Y-99225000D01*
X185106935Y-99225000D01*
X185018556Y-99235613D01*
X184877904Y-99291080D01*
X184757435Y-99382435D01*
X184666080Y-99502904D01*
X184610613Y-99643556D01*
X184600000Y-99731935D01*
X184600000Y-99887499D01*
X173088000Y-99887499D01*
X173088000Y-97748578D01*
X173088058Y-97745199D01*
X173088859Y-97721743D01*
X173090262Y-97680674D01*
X173080229Y-97639507D01*
X173078338Y-97629553D01*
X173078319Y-97629418D01*
X173072570Y-97587580D01*
X173064566Y-97569154D01*
X173059187Y-97553160D01*
X173054433Y-97533648D01*
X173033665Y-97496712D01*
X173029161Y-97487643D01*
X173012283Y-97448786D01*
X173012281Y-97448783D01*
X173012280Y-97448780D01*
X172999608Y-97433205D01*
X172990106Y-97419244D01*
X172980266Y-97401743D01*
X172980265Y-97401741D01*
X172950304Y-97371780D01*
X172943514Y-97364255D01*
X172936167Y-97355225D01*
X172916778Y-97331392D01*
X172916776Y-97331391D01*
X172916775Y-97331389D01*
X172900369Y-97319808D01*
X172887457Y-97308933D01*
X172368325Y-96789801D01*
X171847096Y-96268571D01*
X171844747Y-96266140D01*
X171800679Y-96218955D01*
X171774407Y-96202979D01*
X171764481Y-96196942D01*
X171756105Y-96191242D01*
X171722345Y-96165641D01*
X171722340Y-96165638D01*
X171703654Y-96158269D01*
X171688543Y-96150763D01*
X171671382Y-96140328D01*
X171671379Y-96140327D01*
X171671380Y-96140327D01*
X171649382Y-96134163D01*
X171630578Y-96128894D01*
X171620979Y-96125666D01*
X171581567Y-96110124D01*
X171569674Y-96108901D01*
X171561576Y-96108068D01*
X171545000Y-96104917D01*
X171525667Y-96099500D01*
X171525665Y-96099500D01*
X171483299Y-96099500D01*
X171473176Y-96098981D01*
X171431028Y-96094648D01*
X171431026Y-96094648D01*
X171431025Y-96094648D01*
X171411239Y-96098060D01*
X171394417Y-96099500D01*
X169386812Y-96099500D01*
X169328621Y-96080593D01*
X169292657Y-96031093D01*
X169287836Y-95998301D01*
X169295586Y-95649504D01*
X169301213Y-95396280D01*
X169308092Y-95362161D01*
X169309137Y-95359513D01*
X169339877Y-95281564D01*
X169350500Y-95193102D01*
X169350500Y-93806898D01*
X169339877Y-93718436D01*
X169290157Y-93592355D01*
X169284362Y-93577660D01*
X169284361Y-93577659D01*
X169284361Y-93577658D01*
X169192922Y-93457078D01*
X169072342Y-93365639D01*
X169072341Y-93365638D01*
X169072339Y-93365637D01*
X168931565Y-93310123D01*
X168843106Y-93299500D01*
X168843102Y-93299500D01*
X168106898Y-93299500D01*
X168106893Y-93299500D01*
X168018434Y-93310123D01*
X167877660Y-93365637D01*
X167877656Y-93365640D01*
X167757081Y-93457075D01*
X167757075Y-93457081D01*
X167665640Y-93577656D01*
X167665637Y-93577660D01*
X167610123Y-93718434D01*
X167599500Y-93806893D01*
X167599500Y-95193106D01*
X167610123Y-95281566D01*
X167665637Y-95422340D01*
X167665638Y-95422341D01*
X167674382Y-95433871D01*
X167694479Y-95491662D01*
X167694500Y-95493692D01*
X167694500Y-96000500D01*
X167675593Y-96058691D01*
X167626093Y-96094655D01*
X167595500Y-96099500D01*
X165617853Y-96099500D01*
X165603764Y-96098492D01*
X165595301Y-96097275D01*
X165576000Y-96094500D01*
X165162278Y-96094500D01*
X165162263Y-96094500D01*
X165132181Y-96095986D01*
X165132150Y-96095988D01*
X165107866Y-96098393D01*
X165107859Y-96098394D01*
X165078060Y-96102838D01*
X164873480Y-96143754D01*
X164856975Y-96145633D01*
X164056352Y-96169180D01*
X164013455Y-96160788D01*
X164000715Y-96155163D01*
X163994492Y-96152415D01*
X163994488Y-96152414D01*
X163969368Y-96149500D01*
X162454639Y-96149500D01*
X162454636Y-96149501D01*
X162429509Y-96152414D01*
X162326733Y-96197795D01*
X162319166Y-96202979D01*
X162317921Y-96201161D01*
X162274509Y-96223281D01*
X162259022Y-96224500D01*
X162230364Y-96224500D01*
X162219281Y-96223878D01*
X162182466Y-96219730D01*
X162182465Y-96219730D01*
X162125804Y-96230449D01*
X162122191Y-96231063D01*
X162065214Y-96239651D01*
X162058132Y-96241836D01*
X162058003Y-96241418D01*
X162055886Y-96242114D01*
X162056031Y-96242526D01*
X162049030Y-96244975D01*
X162049029Y-96244976D01*
X162049027Y-96244976D01*
X162049024Y-96244978D01*
X161998051Y-96271917D01*
X161994749Y-96273584D01*
X161942862Y-96298572D01*
X161936733Y-96302751D01*
X161936487Y-96302391D01*
X161934672Y-96303679D01*
X161934930Y-96304029D01*
X161928963Y-96308433D01*
X161888232Y-96349163D01*
X161885569Y-96351729D01*
X161843302Y-96390947D01*
X161838681Y-96396743D01*
X161838337Y-96396469D01*
X161829795Y-96407600D01*
X161703265Y-96534130D01*
X161694988Y-96541526D01*
X161666030Y-96564619D01*
X161666029Y-96564620D01*
X161633556Y-96612248D01*
X161631416Y-96615264D01*
X161597207Y-96661616D01*
X161593742Y-96668174D01*
X161593353Y-96667968D01*
X161592350Y-96669955D01*
X161592746Y-96670146D01*
X161589526Y-96676832D01*
X161572536Y-96731910D01*
X161571380Y-96735423D01*
X161552355Y-96789795D01*
X161550976Y-96797087D01*
X161550544Y-96797005D01*
X161550171Y-96799200D01*
X161550605Y-96799266D01*
X161549500Y-96806599D01*
X161549500Y-96864215D01*
X161549431Y-96867916D01*
X161547276Y-96925510D01*
X161548107Y-96932885D01*
X161547668Y-96932934D01*
X161549500Y-96946844D01*
X161549500Y-105972388D01*
X161530593Y-106030579D01*
X161520504Y-106042391D01*
X161042393Y-106520503D01*
X160987876Y-106548281D01*
X160972389Y-106549500D01*
X154924500Y-106549500D01*
X154866309Y-106530593D01*
X154830345Y-106481093D01*
X154825500Y-106450500D01*
X154825500Y-106331899D01*
X154825499Y-106331893D01*
X154814877Y-106243436D01*
X154774724Y-106141616D01*
X154759362Y-106102660D01*
X154759361Y-106102659D01*
X154759361Y-106102658D01*
X154667922Y-105982078D01*
X154547342Y-105890639D01*
X154547341Y-105890638D01*
X154547339Y-105890637D01*
X154406565Y-105835123D01*
X154318106Y-105824500D01*
X154318102Y-105824500D01*
X153606898Y-105824500D01*
X153606893Y-105824500D01*
X153518434Y-105835123D01*
X153377660Y-105890637D01*
X153377656Y-105890640D01*
X153257081Y-105982075D01*
X153257075Y-105982081D01*
X153165640Y-106102656D01*
X153165637Y-106102660D01*
X153110123Y-106243434D01*
X153099500Y-106331893D01*
X153099500Y-107668106D01*
X151900500Y-107668106D01*
X151900500Y-107668102D01*
X151900500Y-106331898D01*
X151889877Y-106243436D01*
X151849724Y-106141616D01*
X151834362Y-106102660D01*
X151834361Y-106102659D01*
X151834361Y-106102658D01*
X151742922Y-105982078D01*
X151622342Y-105890639D01*
X151622341Y-105890638D01*
X151622339Y-105890637D01*
X151550681Y-105862379D01*
X151503484Y-105823442D01*
X151488000Y-105770282D01*
X151488000Y-105229717D01*
X151506907Y-105171526D01*
X151550680Y-105137620D01*
X151622342Y-105109361D01*
X151742922Y-105017922D01*
X151834361Y-104897342D01*
X151889877Y-104756564D01*
X151900500Y-104668102D01*
X151900500Y-104668064D01*
X153100000Y-104668064D01*
X153110613Y-104756443D01*
X153166080Y-104897095D01*
X153257435Y-105017564D01*
X153377904Y-105108919D01*
X153518556Y-105164386D01*
X153606935Y-105174999D01*
X153606942Y-105175000D01*
X153762499Y-105175000D01*
X153762500Y-105174999D01*
X154162500Y-105174999D01*
X154162501Y-105175000D01*
X154318058Y-105175000D01*
X154318064Y-105174999D01*
X154406443Y-105164386D01*
X154547095Y-105108919D01*
X154667564Y-105017564D01*
X154758919Y-104897095D01*
X154814386Y-104756443D01*
X154824999Y-104668064D01*
X154825000Y-104668058D01*
X154825000Y-104200001D01*
X154824999Y-104200000D01*
X154162501Y-104200000D01*
X154162500Y-104200001D01*
X154162500Y-105174999D01*
X153762500Y-105174999D01*
X153762500Y-104200001D01*
X153762499Y-104200000D01*
X153100001Y-104200000D01*
X153100000Y-104200001D01*
X153100000Y-104668064D01*
X151900500Y-104668064D01*
X151900500Y-103799999D01*
X153100000Y-103799999D01*
X153100001Y-103800000D01*
X153762499Y-103800000D01*
X153762500Y-103799999D01*
X154162500Y-103799999D01*
X154162501Y-103800000D01*
X154824999Y-103800000D01*
X154825000Y-103799999D01*
X154825000Y-103331941D01*
X154824999Y-103331935D01*
X154814386Y-103243556D01*
X154758919Y-103102904D01*
X154667564Y-102982435D01*
X154547095Y-102891080D01*
X154406443Y-102835613D01*
X154318064Y-102825000D01*
X154162501Y-102825000D01*
X154162500Y-102825001D01*
X154162500Y-103799999D01*
X153762500Y-103799999D01*
X153762500Y-102825001D01*
X153762499Y-102825000D01*
X153606935Y-102825000D01*
X153518556Y-102835613D01*
X153377904Y-102891080D01*
X153257435Y-102982435D01*
X153166080Y-103102904D01*
X153110613Y-103243556D01*
X153100000Y-103331935D01*
X153100000Y-103799999D01*
X151900500Y-103799999D01*
X151900500Y-103331898D01*
X151889877Y-103243436D01*
X151834361Y-103102658D01*
X151742922Y-102982078D01*
X151622342Y-102890639D01*
X151622341Y-102890638D01*
X151622339Y-102890637D01*
X151481565Y-102835123D01*
X151393106Y-102824500D01*
X151393102Y-102824500D01*
X150681898Y-102824500D01*
X150681893Y-102824500D01*
X150593434Y-102835123D01*
X150452660Y-102890637D01*
X150452656Y-102890640D01*
X150332081Y-102982075D01*
X150332075Y-102982081D01*
X150240640Y-103102656D01*
X150240637Y-103102660D01*
X150185123Y-103243434D01*
X150174500Y-103331893D01*
X150174500Y-104668106D01*
X150185123Y-104756565D01*
X150240637Y-104897339D01*
X150240638Y-104897341D01*
X150240639Y-104897342D01*
X150332078Y-105017922D01*
X150452658Y-105109361D01*
X150524319Y-105137620D01*
X150571516Y-105176556D01*
X150587000Y-105229717D01*
X150587000Y-105770282D01*
X150568093Y-105828473D01*
X150524319Y-105862379D01*
X150452660Y-105890637D01*
X150452656Y-105890640D01*
X150332081Y-105982075D01*
X150332075Y-105982081D01*
X150240640Y-106102656D01*
X150240637Y-106102660D01*
X150185123Y-106243434D01*
X150174500Y-106331893D01*
X150174500Y-106450500D01*
X150155593Y-106508691D01*
X150106093Y-106544655D01*
X150075500Y-106549500D01*
X139897695Y-106549500D01*
X139839504Y-106530593D01*
X139803540Y-106481093D01*
X139803540Y-106419907D01*
X139839504Y-106370407D01*
X139861369Y-106358405D01*
X139922342Y-106334361D01*
X140042922Y-106242922D01*
X140083297Y-106189678D01*
X140133523Y-106154738D01*
X140162180Y-106150500D01*
X144888921Y-106150500D01*
X144892300Y-106150558D01*
X144894638Y-106150637D01*
X144956826Y-106152762D01*
X144997999Y-106142727D01*
X145007939Y-106140839D01*
X145049920Y-106135070D01*
X145068339Y-106127068D01*
X145084337Y-106121687D01*
X145103852Y-106116933D01*
X145140788Y-106096164D01*
X145149842Y-106091666D01*
X145188720Y-106074780D01*
X145204298Y-106062105D01*
X145218257Y-106052606D01*
X145235755Y-106042768D01*
X145235754Y-106042768D01*
X145235759Y-106042766D01*
X145265736Y-106012787D01*
X145273232Y-106006023D01*
X145306108Y-105979278D01*
X145317687Y-105962872D01*
X145328557Y-105949966D01*
X148131470Y-103147053D01*
X148133812Y-103144790D01*
X148181044Y-103100680D01*
X148203057Y-103064478D01*
X148208754Y-103056108D01*
X148234361Y-103022342D01*
X148241731Y-103003651D01*
X148249236Y-102988541D01*
X148259672Y-102971382D01*
X148271104Y-102930576D01*
X148274330Y-102920983D01*
X148289876Y-102881564D01*
X148291929Y-102861585D01*
X148295082Y-102845004D01*
X148300499Y-102825668D01*
X148300500Y-102825667D01*
X148300500Y-102783299D01*
X148301019Y-102773175D01*
X148303416Y-102749857D01*
X148305352Y-102731028D01*
X148301939Y-102711231D01*
X148300500Y-102694412D01*
X148300500Y-100593064D01*
X149050000Y-100593064D01*
X149060613Y-100681443D01*
X149116080Y-100822095D01*
X149207435Y-100942564D01*
X149327904Y-101033919D01*
X149468556Y-101089386D01*
X149556935Y-101099999D01*
X149556942Y-101100000D01*
X150049999Y-101100000D01*
X150050000Y-101099999D01*
X150450000Y-101099999D01*
X150450001Y-101100000D01*
X150943058Y-101100000D01*
X150943064Y-101099999D01*
X151031443Y-101089386D01*
X151172095Y-101033919D01*
X151292564Y-100942564D01*
X151383919Y-100822095D01*
X151439386Y-100681443D01*
X151449999Y-100593064D01*
X152050000Y-100593064D01*
X152060613Y-100681443D01*
X152116080Y-100822095D01*
X152207435Y-100942564D01*
X152327904Y-101033919D01*
X152468556Y-101089386D01*
X152556935Y-101099999D01*
X152556942Y-101100000D01*
X153049999Y-101100000D01*
X153050000Y-101099999D01*
X153450000Y-101099999D01*
X153450001Y-101100000D01*
X153943058Y-101100000D01*
X153943064Y-101099999D01*
X154031443Y-101089386D01*
X154172095Y-101033919D01*
X154292564Y-100942564D01*
X154383919Y-100822095D01*
X154439386Y-100681443D01*
X154449999Y-100593064D01*
X154450000Y-100593058D01*
X154450000Y-100425001D01*
X154449999Y-100425000D01*
X153450001Y-100425000D01*
X153450000Y-100425001D01*
X153450000Y-101099999D01*
X153050000Y-101099999D01*
X153050000Y-100425001D01*
X153049999Y-100425000D01*
X152050001Y-100425000D01*
X152050000Y-100425001D01*
X152050000Y-100593064D01*
X151449999Y-100593064D01*
X151450000Y-100593058D01*
X151450000Y-100425001D01*
X151449999Y-100425000D01*
X150450001Y-100425000D01*
X150450000Y-100425001D01*
X150450000Y-101099999D01*
X150050000Y-101099999D01*
X150050000Y-100425001D01*
X150049999Y-100425000D01*
X149050001Y-100425000D01*
X149050000Y-100425001D01*
X149050000Y-100593064D01*
X148300500Y-100593064D01*
X148300500Y-100024999D01*
X149050000Y-100024999D01*
X149050001Y-100025000D01*
X150049999Y-100025000D01*
X150050000Y-100024999D01*
X150450000Y-100024999D01*
X150450001Y-100025000D01*
X151449999Y-100025000D01*
X151450000Y-100024999D01*
X152050000Y-100024999D01*
X152050001Y-100025000D01*
X153049999Y-100025000D01*
X153050000Y-100024999D01*
X153450000Y-100024999D01*
X153450001Y-100025000D01*
X154449999Y-100025000D01*
X154450000Y-100024999D01*
X154450000Y-99856941D01*
X154449999Y-99856935D01*
X154439386Y-99768556D01*
X154383919Y-99627904D01*
X154292564Y-99507435D01*
X154172095Y-99416080D01*
X154031443Y-99360613D01*
X153943064Y-99350000D01*
X153450001Y-99350000D01*
X153450000Y-99350001D01*
X153450000Y-100024999D01*
X153050000Y-100024999D01*
X153050000Y-99350001D01*
X153049999Y-99350000D01*
X152556935Y-99350000D01*
X152468556Y-99360613D01*
X152327904Y-99416080D01*
X152207435Y-99507435D01*
X152116080Y-99627904D01*
X152060613Y-99768556D01*
X152050000Y-99856935D01*
X152050000Y-100024999D01*
X151450000Y-100024999D01*
X151450000Y-99856941D01*
X151449999Y-99856935D01*
X151439386Y-99768556D01*
X151383919Y-99627904D01*
X151292564Y-99507435D01*
X151172095Y-99416080D01*
X151031443Y-99360613D01*
X150943064Y-99350000D01*
X150450001Y-99350000D01*
X150450000Y-99350001D01*
X150450000Y-100024999D01*
X150050000Y-100024999D01*
X150050000Y-99350001D01*
X150049999Y-99350000D01*
X149556935Y-99350000D01*
X149468556Y-99360613D01*
X149327904Y-99416080D01*
X149207435Y-99507435D01*
X149116080Y-99627904D01*
X149060613Y-99768556D01*
X149050000Y-99856935D01*
X149050000Y-100024999D01*
X148300500Y-100024999D01*
X148300500Y-98804500D01*
X148319407Y-98746309D01*
X148368907Y-98710345D01*
X148399500Y-98705500D01*
X151100993Y-98705500D01*
X151101000Y-98705500D01*
X151148786Y-98701739D01*
X151179379Y-98696894D01*
X151179384Y-98696893D01*
X151179385Y-98696893D01*
X151191116Y-98694418D01*
X151209754Y-98690487D01*
X151311162Y-98642309D01*
X151360662Y-98606345D01*
X151417919Y-98552177D01*
X151446354Y-98499998D01*
X151471639Y-98453598D01*
X151471640Y-98453596D01*
X151472018Y-98452435D01*
X151481795Y-98422344D01*
X151490548Y-98395404D01*
X151505500Y-98301003D01*
X151505500Y-98244791D01*
X157775501Y-98244791D01*
X157778409Y-98269874D01*
X157823713Y-98372477D01*
X157903022Y-98451786D01*
X158005627Y-98497090D01*
X158030703Y-98499999D01*
X158587998Y-98499999D01*
X158588000Y-98499998D01*
X158988000Y-98499998D01*
X158988001Y-98499999D01*
X159545290Y-98499999D01*
X159545291Y-98499998D01*
X159570374Y-98497090D01*
X159672977Y-98451786D01*
X159752286Y-98372477D01*
X159797590Y-98269872D01*
X159800499Y-98244797D01*
X159800500Y-98244795D01*
X159800500Y-98175001D01*
X159800499Y-98175000D01*
X158988001Y-98175000D01*
X158988000Y-98175001D01*
X158988000Y-98499998D01*
X158588000Y-98499998D01*
X158588000Y-98175001D01*
X158587999Y-98175000D01*
X157775502Y-98175000D01*
X157775501Y-98175001D01*
X157775501Y-98244791D01*
X151505500Y-98244791D01*
X151505500Y-98204500D01*
X151524407Y-98146309D01*
X151573907Y-98110345D01*
X151604500Y-98105500D01*
X152362446Y-98105500D01*
X152398764Y-98112402D01*
X152468436Y-98139877D01*
X152556898Y-98150500D01*
X152556900Y-98150500D01*
X153943100Y-98150500D01*
X153943102Y-98150500D01*
X154031564Y-98139877D01*
X154101236Y-98112402D01*
X154137554Y-98105500D01*
X155274052Y-98105500D01*
X155310371Y-98112403D01*
X155411624Y-98152332D01*
X155443436Y-98164877D01*
X155531898Y-98175500D01*
X155531900Y-98175500D01*
X156868100Y-98175500D01*
X156868102Y-98175500D01*
X156956564Y-98164877D01*
X157097342Y-98109361D01*
X157181824Y-98045294D01*
X157222222Y-98027104D01*
X158095633Y-97852422D01*
X158115048Y-97850499D01*
X159545361Y-97850499D01*
X159545364Y-97850499D01*
X159570491Y-97847585D01*
X159673265Y-97802206D01*
X159673269Y-97802201D01*
X159680834Y-97797021D01*
X159681954Y-97798656D01*
X159725991Y-97776219D01*
X159741478Y-97775000D01*
X159800498Y-97775000D01*
X159800499Y-97774999D01*
X159800499Y-97705210D01*
X159800498Y-97705208D01*
X159797589Y-97680122D01*
X159796728Y-97676955D01*
X159796728Y-97624977D01*
X159798082Y-97619997D01*
X159798085Y-97619991D01*
X159801000Y-97594865D01*
X159800999Y-97055136D01*
X159798085Y-97030009D01*
X159796992Y-97025992D01*
X159796991Y-96974010D01*
X159798081Y-96969999D01*
X159798085Y-96969991D01*
X159801000Y-96944865D01*
X159800999Y-96405136D01*
X159798085Y-96380009D01*
X159796992Y-96375992D01*
X159796991Y-96324010D01*
X159798081Y-96319999D01*
X159798085Y-96319991D01*
X159801000Y-96294865D01*
X159800999Y-95824999D01*
X162199500Y-95824999D01*
X162199501Y-95825000D01*
X163011999Y-95825000D01*
X163012000Y-95824999D01*
X163412000Y-95824999D01*
X163412001Y-95825000D01*
X164224498Y-95825000D01*
X164224499Y-95824999D01*
X164224499Y-95755210D01*
X164224498Y-95755208D01*
X164221590Y-95730125D01*
X164176286Y-95627522D01*
X164096977Y-95548213D01*
X163994372Y-95502909D01*
X163969297Y-95500000D01*
X163412001Y-95500000D01*
X163412000Y-95500001D01*
X163412000Y-95824999D01*
X163012000Y-95824999D01*
X163012000Y-95500001D01*
X163011999Y-95500000D01*
X162454710Y-95500000D01*
X162454707Y-95500001D01*
X162429625Y-95502909D01*
X162327022Y-95548213D01*
X162247713Y-95627522D01*
X162202409Y-95730127D01*
X162199500Y-95755202D01*
X162199500Y-95824999D01*
X159800999Y-95824999D01*
X159800999Y-95755136D01*
X159798085Y-95730009D01*
X159752706Y-95627235D01*
X159673265Y-95547794D01*
X159570491Y-95502415D01*
X159570490Y-95502414D01*
X159570488Y-95502414D01*
X159545369Y-95499500D01*
X159545365Y-95499500D01*
X159107032Y-95499500D01*
X159048841Y-95480593D01*
X159037028Y-95470504D01*
X158759588Y-95193064D01*
X164650000Y-95193064D01*
X164660613Y-95281443D01*
X164716080Y-95422095D01*
X164807435Y-95542564D01*
X164927904Y-95633919D01*
X165068556Y-95689386D01*
X165156935Y-95699999D01*
X165156942Y-95700000D01*
X165324999Y-95700000D01*
X165325000Y-95699999D01*
X165725000Y-95699999D01*
X165725001Y-95700000D01*
X165893058Y-95700000D01*
X165893064Y-95699999D01*
X165981443Y-95689386D01*
X166122095Y-95633919D01*
X166242564Y-95542564D01*
X166333919Y-95422095D01*
X166389386Y-95281443D01*
X166399999Y-95193064D01*
X166400000Y-95193058D01*
X166400000Y-94700001D01*
X166399999Y-94700000D01*
X165725001Y-94700000D01*
X165725000Y-94700001D01*
X165725000Y-95699999D01*
X165325000Y-95699999D01*
X165325000Y-94700001D01*
X165324999Y-94700000D01*
X164650001Y-94700000D01*
X164650000Y-94700001D01*
X164650000Y-95193064D01*
X158759588Y-95193064D01*
X157866524Y-94299999D01*
X164650000Y-94299999D01*
X164650001Y-94300000D01*
X165324999Y-94300000D01*
X165325000Y-94299999D01*
X165725000Y-94299999D01*
X165725001Y-94300000D01*
X166399999Y-94300000D01*
X166400000Y-94299999D01*
X166400000Y-93806941D01*
X166399999Y-93806935D01*
X166389386Y-93718556D01*
X166333919Y-93577904D01*
X166242564Y-93457435D01*
X166122095Y-93366080D01*
X165981443Y-93310613D01*
X165893064Y-93300000D01*
X165725001Y-93300000D01*
X165725000Y-93300001D01*
X165725000Y-94299999D01*
X165325000Y-94299999D01*
X165325000Y-93300001D01*
X165324999Y-93300000D01*
X165156935Y-93300000D01*
X165068556Y-93310613D01*
X164927904Y-93366080D01*
X164807435Y-93457435D01*
X164716080Y-93577904D01*
X164660613Y-93718556D01*
X164650000Y-93806935D01*
X164650000Y-94299999D01*
X157866524Y-94299999D01*
X157535096Y-93968571D01*
X157532747Y-93966140D01*
X157488679Y-93918955D01*
X157467270Y-93905936D01*
X157452481Y-93896942D01*
X157444105Y-93891242D01*
X157410345Y-93865641D01*
X157410340Y-93865638D01*
X157391654Y-93858269D01*
X157376543Y-93850763D01*
X157361023Y-93841326D01*
X157321127Y-93794940D01*
X157320395Y-93793139D01*
X157309361Y-93765158D01*
X157274021Y-93718556D01*
X157217924Y-93644581D01*
X157217922Y-93644578D01*
X157097342Y-93553139D01*
X157097341Y-93553138D01*
X157097339Y-93553137D01*
X156956565Y-93497623D01*
X156868106Y-93487000D01*
X156868102Y-93487000D01*
X156849500Y-93487000D01*
X156791309Y-93468093D01*
X156755345Y-93418593D01*
X156750500Y-93388000D01*
X156750500Y-93274500D01*
X156769407Y-93216309D01*
X156818907Y-93180345D01*
X156849500Y-93175500D01*
X156893100Y-93175500D01*
X156893102Y-93175500D01*
X156981564Y-93164877D01*
X157122342Y-93109361D01*
X157242922Y-93017922D01*
X157334361Y-92897342D01*
X157389877Y-92756564D01*
X157400500Y-92668102D01*
X157400500Y-92668064D01*
X158600000Y-92668064D01*
X158610613Y-92756443D01*
X158666080Y-92897095D01*
X158757435Y-93017564D01*
X158877904Y-93108919D01*
X159018556Y-93164386D01*
X159106935Y-93174999D01*
X159106942Y-93175000D01*
X159262499Y-93175000D01*
X159262500Y-93174999D01*
X159662500Y-93174999D01*
X159662501Y-93175000D01*
X159818058Y-93175000D01*
X159818064Y-93174999D01*
X159906443Y-93164386D01*
X160047095Y-93108919D01*
X160167564Y-93017564D01*
X160258919Y-92897095D01*
X160314386Y-92756443D01*
X160324999Y-92668064D01*
X160325000Y-92668058D01*
X160325000Y-92200001D01*
X160324999Y-92200000D01*
X159662501Y-92200000D01*
X159662500Y-92200001D01*
X159662500Y-93174999D01*
X159262500Y-93174999D01*
X159262500Y-92200001D01*
X159262499Y-92200000D01*
X158600001Y-92200000D01*
X158600000Y-92200001D01*
X158600000Y-92668064D01*
X157400500Y-92668064D01*
X157400500Y-91799999D01*
X158600000Y-91799999D01*
X158600001Y-91800000D01*
X159262499Y-91800000D01*
X159262500Y-91799999D01*
X159662500Y-91799999D01*
X159662501Y-91800000D01*
X160324999Y-91800000D01*
X160325000Y-91799999D01*
X160325000Y-91331941D01*
X160324999Y-91331935D01*
X160314386Y-91243556D01*
X160258919Y-91102904D01*
X160167564Y-90982435D01*
X160047095Y-90891080D01*
X159906443Y-90835613D01*
X159818064Y-90825000D01*
X159662501Y-90825000D01*
X159662500Y-90825001D01*
X159662500Y-91799999D01*
X159262500Y-91799999D01*
X159262500Y-90825001D01*
X159262499Y-90825000D01*
X159106935Y-90825000D01*
X159018556Y-90835613D01*
X158877904Y-90891080D01*
X158757435Y-90982435D01*
X158666080Y-91102904D01*
X158610613Y-91243556D01*
X158600000Y-91331935D01*
X158600000Y-91799999D01*
X157400500Y-91799999D01*
X157400500Y-91331898D01*
X157389877Y-91243436D01*
X157334361Y-91102658D01*
X157242922Y-90982078D01*
X157122342Y-90890639D01*
X157122341Y-90890638D01*
X157122339Y-90890637D01*
X156981565Y-90835123D01*
X156893106Y-90824500D01*
X156893102Y-90824500D01*
X156181898Y-90824500D01*
X156181893Y-90824500D01*
X156093434Y-90835123D01*
X155952660Y-90890637D01*
X155952656Y-90890640D01*
X155832081Y-90982075D01*
X155832075Y-90982081D01*
X155740640Y-91102656D01*
X155740637Y-91102660D01*
X155685123Y-91243434D01*
X155674500Y-91331893D01*
X155674500Y-92150664D01*
X155667598Y-92186981D01*
X155660123Y-92205935D01*
X155660123Y-92205936D01*
X155658068Y-92225917D01*
X155654919Y-92242490D01*
X155649500Y-92261834D01*
X155649500Y-92304200D01*
X155648981Y-92314323D01*
X155648652Y-92317525D01*
X155645601Y-92347207D01*
X155644648Y-92356473D01*
X155648060Y-92376259D01*
X155649500Y-92393082D01*
X155649500Y-93388000D01*
X155630593Y-93446191D01*
X155581093Y-93482155D01*
X155550500Y-93487000D01*
X155531893Y-93487000D01*
X155443434Y-93497623D01*
X155302660Y-93553137D01*
X155302656Y-93553140D01*
X155182081Y-93644575D01*
X155182075Y-93644581D01*
X155090640Y-93765156D01*
X155090637Y-93765160D01*
X155035123Y-93905934D01*
X155024500Y-93994393D01*
X155024500Y-94705606D01*
X155035123Y-94794065D01*
X155090637Y-94934839D01*
X155090638Y-94934841D01*
X155090639Y-94934842D01*
X155182078Y-95055422D01*
X155302658Y-95146861D01*
X155302659Y-95146861D01*
X155302660Y-95146862D01*
X155320756Y-95153998D01*
X155443436Y-95202377D01*
X155531898Y-95213000D01*
X155531900Y-95213000D01*
X156868100Y-95213000D01*
X156868102Y-95213000D01*
X156956564Y-95202377D01*
X157079244Y-95153997D01*
X157140313Y-95150239D01*
X157185566Y-95176091D01*
X157746004Y-95736528D01*
X157773781Y-95791045D01*
X157775000Y-95806532D01*
X157775000Y-96294860D01*
X157775001Y-96294863D01*
X157777915Y-96319994D01*
X157779009Y-96324015D01*
X157779010Y-96375979D01*
X157777915Y-96380003D01*
X157775000Y-96405130D01*
X157775000Y-96562688D01*
X157756093Y-96620879D01*
X157706593Y-96656843D01*
X157656585Y-96659766D01*
X157177447Y-96563939D01*
X157137043Y-96545745D01*
X157100355Y-96517924D01*
X157097342Y-96515639D01*
X157097341Y-96515638D01*
X157097339Y-96515637D01*
X156956565Y-96460123D01*
X156868106Y-96449500D01*
X156868102Y-96449500D01*
X155531898Y-96449500D01*
X155531893Y-96449500D01*
X155443435Y-96460123D01*
X155443430Y-96460124D01*
X155432264Y-96464527D01*
X155394330Y-96471414D01*
X154152595Y-96451058D01*
X154117900Y-96444169D01*
X154031564Y-96410123D01*
X153943106Y-96399500D01*
X153943102Y-96399500D01*
X152556898Y-96399500D01*
X152556893Y-96399500D01*
X152468434Y-96410123D01*
X152468429Y-96410124D01*
X152454271Y-96415707D01*
X152416336Y-96422594D01*
X151602877Y-96409259D01*
X151545004Y-96389400D01*
X151509857Y-96339317D01*
X151505500Y-96310272D01*
X151505500Y-95649504D01*
X151504333Y-95633919D01*
X151502093Y-95604000D01*
X151497701Y-95574840D01*
X151492093Y-95546673D01*
X151445460Y-95444545D01*
X151410252Y-95394505D01*
X151343700Y-95325900D01*
X150840100Y-94948200D01*
X150804892Y-94898160D01*
X150800500Y-94869000D01*
X150800500Y-81318412D01*
X150819407Y-81260221D01*
X150837655Y-81241106D01*
X151164195Y-80979874D01*
X152105045Y-80227193D01*
X152162296Y-80205607D01*
X152166890Y-80205500D01*
X174560501Y-80205500D01*
X174618692Y-80224407D01*
X174654656Y-80273907D01*
X174659501Y-80304500D01*
X174659501Y-80954863D01*
X174662414Y-80979990D01*
X174672868Y-81003666D01*
X174707794Y-81082765D01*
X174787235Y-81162206D01*
X174890009Y-81207585D01*
X174915135Y-81210500D01*
X176004864Y-81210499D01*
X176029991Y-81207585D01*
X176132765Y-81162206D01*
X176212206Y-81082765D01*
X176257585Y-80979991D01*
X176260500Y-80954865D01*
X176260500Y-80954791D01*
X179740001Y-80954791D01*
X179742909Y-80979874D01*
X179788213Y-81082477D01*
X179867522Y-81161786D01*
X179970127Y-81207090D01*
X179995203Y-81209999D01*
X180339998Y-81209999D01*
X180340000Y-81209998D01*
X180740000Y-81209998D01*
X180740001Y-81209999D01*
X181084790Y-81209999D01*
X181084791Y-81209998D01*
X181109874Y-81207090D01*
X181212477Y-81161786D01*
X181291786Y-81082477D01*
X181337090Y-80979872D01*
X181339999Y-80954797D01*
X181340000Y-80954795D01*
X181340000Y-79855001D01*
X181339999Y-79855000D01*
X180740001Y-79855000D01*
X180740000Y-79855001D01*
X180740000Y-81209998D01*
X180340000Y-81209998D01*
X180340000Y-79855001D01*
X180339999Y-79855000D01*
X179740002Y-79855000D01*
X179740001Y-79855001D01*
X179740001Y-80954791D01*
X176260500Y-80954791D01*
X176260499Y-79454999D01*
X179740000Y-79454999D01*
X179740001Y-79455000D01*
X180339999Y-79455000D01*
X180340000Y-79454999D01*
X180740000Y-79454999D01*
X180740001Y-79455000D01*
X181339998Y-79455000D01*
X181339999Y-79454999D01*
X181339999Y-78355210D01*
X181339998Y-78355208D01*
X181337090Y-78330125D01*
X181291786Y-78227522D01*
X181212477Y-78148213D01*
X181109872Y-78102909D01*
X181084797Y-78100000D01*
X180740001Y-78100000D01*
X180740000Y-78100001D01*
X180740000Y-79454999D01*
X180340000Y-79454999D01*
X180340000Y-78100001D01*
X180339999Y-78100000D01*
X179995210Y-78100000D01*
X179995207Y-78100001D01*
X179970125Y-78102909D01*
X179867522Y-78148213D01*
X179788213Y-78227522D01*
X179742909Y-78330127D01*
X179740000Y-78355202D01*
X179740000Y-79454999D01*
X176260499Y-79454999D01*
X176260499Y-78355136D01*
X176257585Y-78330009D01*
X176212206Y-78227235D01*
X176132765Y-78147794D01*
X176029991Y-78102415D01*
X176029990Y-78102414D01*
X176029988Y-78102414D01*
X176004868Y-78099500D01*
X174915139Y-78099500D01*
X174915136Y-78099501D01*
X174890009Y-78102414D01*
X174787235Y-78147794D01*
X174707794Y-78227235D01*
X174662414Y-78330011D01*
X174659500Y-78355130D01*
X174659500Y-79005500D01*
X174640593Y-79063691D01*
X174591093Y-79099655D01*
X174560500Y-79104500D01*
X150272197Y-79104500D01*
X150265441Y-79104269D01*
X150258586Y-79103800D01*
X150212079Y-79100619D01*
X150212078Y-79100619D01*
X150203369Y-79102429D01*
X150183226Y-79104500D01*
X134356109Y-79104500D01*
X134352730Y-79104442D01*
X134288175Y-79102237D01*
X134288174Y-79102237D01*
X134288173Y-79102237D01*
X134288166Y-79102238D01*
X134247011Y-79112267D01*
X134237054Y-79114160D01*
X134195078Y-79119930D01*
X134176656Y-79127931D01*
X134160664Y-79133309D01*
X134141151Y-79138065D01*
X134141145Y-79138067D01*
X134104206Y-79158836D01*
X134095132Y-79163343D01*
X134056277Y-79180220D01*
X134056276Y-79180221D01*
X134040697Y-79192895D01*
X134026751Y-79202387D01*
X134009242Y-79212233D01*
X134009241Y-79212234D01*
X133979276Y-79242197D01*
X133971755Y-79248983D01*
X133938893Y-79275719D01*
X133938891Y-79275721D01*
X133927310Y-79292127D01*
X133916437Y-79305036D01*
X131300971Y-81920504D01*
X131246454Y-81948281D01*
X131230967Y-81949500D01*
X122760640Y-81949500D01*
X122702449Y-81930593D01*
X122698795Y-81927806D01*
X121482528Y-80954791D01*
X124740001Y-80954791D01*
X124742909Y-80979874D01*
X124788213Y-81082477D01*
X124867522Y-81161786D01*
X124970127Y-81207090D01*
X124995203Y-81209999D01*
X125339998Y-81209999D01*
X125340000Y-81209998D01*
X125740000Y-81209998D01*
X125740001Y-81209999D01*
X126084790Y-81209999D01*
X126084791Y-81209998D01*
X126109874Y-81207090D01*
X126212477Y-81161786D01*
X126291786Y-81082477D01*
X126337090Y-80979872D01*
X126339999Y-80954797D01*
X126340000Y-80954795D01*
X126340000Y-79855001D01*
X126339999Y-79855000D01*
X125740001Y-79855000D01*
X125740000Y-79855001D01*
X125740000Y-81209998D01*
X125340000Y-81209998D01*
X125340000Y-79855001D01*
X125339999Y-79855000D01*
X124740002Y-79855000D01*
X124740001Y-79855001D01*
X124740001Y-80954791D01*
X121482528Y-80954791D01*
X121297654Y-80806892D01*
X121264026Y-80755776D01*
X121260499Y-80729586D01*
X121260499Y-79454999D01*
X124740000Y-79454999D01*
X124740001Y-79455000D01*
X125339999Y-79455000D01*
X125340000Y-79454999D01*
X125740000Y-79454999D01*
X125740001Y-79455000D01*
X126339998Y-79455000D01*
X126339999Y-79454999D01*
X126339999Y-78355210D01*
X126339998Y-78355208D01*
X126337090Y-78330125D01*
X126291786Y-78227522D01*
X126212477Y-78148213D01*
X126109872Y-78102909D01*
X126084797Y-78100000D01*
X125740001Y-78100000D01*
X125740000Y-78100001D01*
X125740000Y-79454999D01*
X125340000Y-79454999D01*
X125340000Y-78100001D01*
X125339999Y-78100000D01*
X124995210Y-78100000D01*
X124995207Y-78100001D01*
X124970125Y-78102909D01*
X124867522Y-78148213D01*
X124788213Y-78227522D01*
X124742909Y-78330127D01*
X124740000Y-78355202D01*
X124740000Y-79454999D01*
X121260499Y-79454999D01*
X121260499Y-78355139D01*
X121260499Y-78355136D01*
X121257585Y-78330009D01*
X121212206Y-78227235D01*
X121132765Y-78147794D01*
X121029991Y-78102415D01*
X121029990Y-78102414D01*
X121029988Y-78102414D01*
X121004868Y-78099500D01*
X119915139Y-78099500D01*
X119915136Y-78099501D01*
X119890009Y-78102414D01*
X119787235Y-78147794D01*
X119707794Y-78227235D01*
X119662414Y-78330011D01*
X119659500Y-78355130D01*
X119659500Y-80633586D01*
X119640593Y-80691777D01*
X119622345Y-80710892D01*
X118101204Y-81927806D01*
X118043953Y-81949393D01*
X118039359Y-81949500D01*
X116911079Y-81949500D01*
X116907700Y-81949442D01*
X116843175Y-81947238D01*
X116843174Y-81947238D01*
X116843173Y-81947238D01*
X116843166Y-81947239D01*
X116802020Y-81957266D01*
X116792063Y-81959159D01*
X116750080Y-81964929D01*
X116731657Y-81972932D01*
X116715659Y-81978312D01*
X116696149Y-81983066D01*
X116696144Y-81983068D01*
X116659218Y-82003830D01*
X116650146Y-82008336D01*
X116611279Y-82025220D01*
X116595698Y-82037895D01*
X116581752Y-82047387D01*
X116564241Y-82057233D01*
X116534276Y-82087197D01*
X116526755Y-82093983D01*
X116493893Y-82120719D01*
X116493891Y-82120721D01*
X116482310Y-82137127D01*
X116471437Y-82150036D01*
X110618569Y-88002904D01*
X110616140Y-88005251D01*
X110568957Y-88049319D01*
X110568955Y-88049321D01*
X110546941Y-88085519D01*
X110541242Y-88093893D01*
X110515638Y-88127658D01*
X110515638Y-88127659D01*
X110508269Y-88146343D01*
X110500765Y-88161452D01*
X110490327Y-88178618D01*
X110478894Y-88219420D01*
X110475665Y-88229024D01*
X110460123Y-88268437D01*
X110460122Y-88268441D01*
X110458068Y-88288417D01*
X110454919Y-88304990D01*
X110449500Y-88324334D01*
X110449500Y-88366700D01*
X110448981Y-88376823D01*
X110444648Y-88418973D01*
X109630108Y-88418973D01*
X109976494Y-87269126D01*
X109977369Y-87266373D01*
X110387515Y-86042665D01*
X110388487Y-86039904D01*
X110836128Y-84829395D01*
X110837192Y-84826649D01*
X111321867Y-83630572D01*
X111323020Y-83627848D01*
X111844317Y-82447222D01*
X111845564Y-82444513D01*
X112402945Y-81280556D01*
X112404264Y-81277907D01*
X112997261Y-80131596D01*
X112998624Y-80129055D01*
X113626641Y-79001551D01*
X113628160Y-78998922D01*
X114290542Y-77891387D01*
X114292091Y-77888883D01*
X114448433Y-77644860D01*
X122199500Y-77644860D01*
X122199501Y-77644863D01*
X122202414Y-77669990D01*
X122227756Y-77727385D01*
X122247794Y-77772765D01*
X122327235Y-77852206D01*
X122430009Y-77897585D01*
X122455135Y-77900500D01*
X123544864Y-77900499D01*
X123569991Y-77897585D01*
X123672765Y-77852206D01*
X123752206Y-77772765D01*
X123797585Y-77669991D01*
X123800500Y-77644865D01*
X123800500Y-76894500D01*
X123819407Y-76836309D01*
X123868907Y-76800345D01*
X123899500Y-76795500D01*
X177100501Y-76795500D01*
X177158692Y-76814407D01*
X177194656Y-76863907D01*
X177199501Y-76894500D01*
X177199501Y-77644863D01*
X177202414Y-77669990D01*
X177227756Y-77727385D01*
X177247794Y-77772765D01*
X177327235Y-77852206D01*
X177430009Y-77897585D01*
X177455135Y-77900500D01*
X178544864Y-77900499D01*
X178569991Y-77897585D01*
X178672765Y-77852206D01*
X178752206Y-77772765D01*
X178797585Y-77669991D01*
X178800500Y-77644865D01*
X178800499Y-75045136D01*
X178797585Y-75020009D01*
X178752206Y-74917235D01*
X178672765Y-74837794D01*
X178569991Y-74792415D01*
X178569990Y-74792414D01*
X178569988Y-74792414D01*
X178544868Y-74789500D01*
X177455139Y-74789500D01*
X177455136Y-74789501D01*
X177430009Y-74792414D01*
X177327235Y-74837794D01*
X177247794Y-74917235D01*
X177202414Y-75020011D01*
X177199500Y-75045130D01*
X177199500Y-75795500D01*
X177180593Y-75853691D01*
X177131093Y-75889655D01*
X177100500Y-75894500D01*
X123899499Y-75894500D01*
X123841308Y-75875593D01*
X123805344Y-75826093D01*
X123800499Y-75795500D01*
X123800499Y-75045139D01*
X123800499Y-75045136D01*
X123797585Y-75020009D01*
X123752206Y-74917235D01*
X123672765Y-74837794D01*
X123569991Y-74792415D01*
X123569990Y-74792414D01*
X123569988Y-74792414D01*
X123544868Y-74789500D01*
X122455139Y-74789500D01*
X122455136Y-74789501D01*
X122430009Y-74792414D01*
X122327235Y-74837794D01*
X122247794Y-74917235D01*
X122202414Y-75020011D01*
X122199500Y-75045130D01*
X122199500Y-77644860D01*
X114448433Y-77644860D01*
X114988325Y-76802182D01*
X114989934Y-76799753D01*
X115719305Y-75735002D01*
X115721031Y-75732566D01*
X116482783Y-74690865D01*
X116484607Y-74688451D01*
X117278120Y-73670648D01*
X117279925Y-73668405D01*
X118104464Y-72675451D01*
X118106334Y-72673269D01*
X118961015Y-71706228D01*
X118962983Y-71704069D01*
X119847035Y-70763809D01*
X119849094Y-70761685D01*
X120761685Y-69849094D01*
X120763809Y-69847035D01*
X121704069Y-68962983D01*
X121706228Y-68961015D01*
X122673269Y-68106334D01*
X122675451Y-68104464D01*
X123668405Y-67279925D01*
X123670648Y-67278120D01*
X124688468Y-66484593D01*
X124690865Y-66482783D01*
X125732566Y-65721031D01*
X125735002Y-65719305D01*
X126799753Y-64989934D01*
X126802182Y-64988325D01*
X127888883Y-64292091D01*
X127891387Y-64290542D01*
X128998933Y-63628153D01*
X129001562Y-63626635D01*
X130129055Y-62998624D01*
X130131596Y-62997261D01*
X131277907Y-62404264D01*
X131280556Y-62402945D01*
X132444513Y-61845564D01*
X132447222Y-61844317D01*
X133627848Y-61323020D01*
X133630572Y-61321867D01*
X134826649Y-60837192D01*
X134829395Y-60836128D01*
X136039904Y-60388487D01*
X136042665Y-60387515D01*
X137266373Y-59977369D01*
X137269126Y-59976494D01*
X138504836Y-59604242D01*
X138507729Y-59603418D01*
X139754342Y-59269390D01*
X139757202Y-59268671D01*
X141013465Y-58973200D01*
X141016330Y-58972572D01*
X142281174Y-58715912D01*
X142284083Y-58715369D01*
X143556163Y-58497794D01*
X143559079Y-58497341D01*
X144837268Y-58319042D01*
X144840279Y-58318669D01*
X146123253Y-58179826D01*
X146126263Y-58179547D01*
X147413011Y-58080271D01*
X147415980Y-58080089D01*
X148705134Y-58020488D01*
X148708104Y-58020397D01*
X149998507Y-58000523D01*
X150001493Y-58000523D01*
X151291893Y-58020397D01*
G37*
%TD.AperFunction*%
%TD*%
%TA.AperFunction,Conductor*%
%TO.N,+5V*%
G36*
X150425191Y-95018907D02*
G01*
X150426400Y-95019800D01*
X151160400Y-95570300D01*
X151195608Y-95620340D01*
X151200000Y-95649500D01*
X151200000Y-96708195D01*
X151200000Y-97800000D01*
X151200000Y-97800001D01*
X151200000Y-98301000D01*
X151181093Y-98359191D01*
X151131593Y-98395155D01*
X151101000Y-98400000D01*
X147641008Y-98400000D01*
X147582817Y-98381093D01*
X147571004Y-98371004D01*
X146828996Y-97628996D01*
X146801219Y-97574479D01*
X146800000Y-97558992D01*
X146800000Y-97054870D01*
X146818907Y-96996679D01*
X146846527Y-96970920D01*
X149975923Y-95015047D01*
X150028393Y-95000000D01*
X150367000Y-95000000D01*
X150425191Y-95018907D01*
G37*
%TD.AperFunction*%
%TD*%
%TA.AperFunction,Conductor*%
%TO.N,Net-(IC1-EN)*%
G36*
X163912518Y-97107569D02*
G01*
X165899614Y-98309069D01*
X165921837Y-98339278D01*
X165916191Y-98376354D01*
X165885982Y-98398577D01*
X165874260Y-98400000D01*
X165015596Y-98400000D01*
X164987273Y-98390985D01*
X164145677Y-97794854D01*
X164125699Y-97763116D01*
X164125000Y-97754869D01*
X164125000Y-97730255D01*
X164125000Y-97730252D01*
X164113367Y-97671769D01*
X164086801Y-97632012D01*
X164069052Y-97605447D01*
X164029295Y-97578882D01*
X164002731Y-97561133D01*
X163944248Y-97549500D01*
X163944245Y-97549500D01*
X163849000Y-97549500D01*
X163814352Y-97535148D01*
X163800000Y-97500500D01*
X163800000Y-97149500D01*
X163814352Y-97114852D01*
X163849000Y-97100500D01*
X163887164Y-97100500D01*
X163912518Y-97107569D01*
G37*
%TD.AperFunction*%
%TD*%
%TA.AperFunction,Conductor*%
%TO.N,+5V*%
G36*
X152175964Y-79618907D02*
G01*
X152211928Y-79668407D01*
X152211928Y-79729593D01*
X152179618Y-79776306D01*
X150427118Y-81178306D01*
X150369867Y-81199893D01*
X150365273Y-81200000D01*
X150037640Y-81200000D01*
X149979449Y-81181093D01*
X149971868Y-81174994D01*
X148394618Y-79772994D01*
X148363687Y-79720202D01*
X148369693Y-79659312D01*
X148410343Y-79613582D01*
X148460390Y-79600000D01*
X152117773Y-79600000D01*
X152175964Y-79618907D01*
G37*
%TD.AperFunction*%
%TD*%
M02*
