%TF.GenerationSoftware,KiCad,Pcbnew,7.0.11*%
%TF.CreationDate,2025-03-11T10:56:17-07:00*%
%TF.ProjectId,nightLight,6e696768-744c-4696-9768-742e6b696361,rev?*%
%TF.SameCoordinates,Original*%
%TF.FileFunction,Soldermask,Bot*%
%TF.FilePolarity,Negative*%
%FSLAX46Y46*%
G04 Gerber Fmt 4.6, Leading zero omitted, Abs format (unit mm)*
G04 Created by KiCad (PCBNEW 7.0.11) date 2025-03-11 10:56:17*
%MOMM*%
%LPD*%
G01*
G04 APERTURE LIST*
%ADD10C,0.200000*%
%ADD11C,2.400000*%
%ADD12C,1.000000*%
G04 APERTURE END LIST*
D10*
X162236997Y-99800000D02*
G75*
G03*
X136736997Y-99800000I-12750000J0D01*
G01*
X136736997Y-99800000D02*
G75*
G03*
X162236997Y-99800000I12750000J0D01*
G01*
X162826007Y-99200000D02*
G75*
G03*
X138199999Y-99200000I-12313004J0D01*
G01*
X138199999Y-99200000D02*
G75*
G03*
X162826007Y-99200000I12313004J0D01*
G01*
X163800000Y-99400000D02*
G75*
G03*
X137800000Y-99400000I-13000000J0D01*
G01*
X137800000Y-99400000D02*
G75*
G03*
X163800000Y-99400000I13000000J0D01*
G01*
X163200000Y-98800000D02*
G75*
G03*
X136800000Y-98800000I-13200000J0D01*
G01*
X136800000Y-98800000D02*
G75*
G03*
X163200000Y-98800000I13200000J0D01*
G01*
%TO.C,REF\u002A\u002A*%
G36*
X122334698Y-113416616D02*
G01*
X122863340Y-113840690D01*
X123198405Y-114582636D01*
X123170961Y-115308167D01*
X123031191Y-115810255D01*
X122769230Y-116143986D01*
X122348704Y-116432358D01*
X122049192Y-116531128D01*
X121803312Y-116579356D01*
X121439839Y-116606558D01*
X120902881Y-116567559D01*
X120383160Y-116336780D01*
X121198551Y-114804481D01*
X122120513Y-113327597D01*
X122334698Y-113416616D01*
G37*
G36*
X113350872Y-109328058D02*
G01*
X113595630Y-109993127D01*
X113648789Y-110341053D01*
X113620796Y-110469537D01*
X113403572Y-110505781D01*
X113065069Y-110575316D01*
X112932130Y-110612024D01*
X112487354Y-110692717D01*
X112253160Y-110730709D01*
X112143527Y-110748242D01*
X112329867Y-110405492D01*
X112633527Y-109899537D01*
X112701207Y-109742313D01*
X113000061Y-109304683D01*
X113078168Y-109209396D01*
X113217091Y-109208775D01*
X113350872Y-109328058D01*
G37*
G36*
X115642691Y-111267632D02*
G01*
X116351926Y-111442262D01*
X117014529Y-111699648D01*
X117861571Y-112144300D01*
X118698445Y-112679502D01*
X119411483Y-113208582D01*
X119882995Y-113701830D01*
X120350173Y-114273916D01*
X119536734Y-114132019D01*
X119427364Y-114115534D01*
X118833572Y-113924825D01*
X118068363Y-113578445D01*
X117236370Y-113134983D01*
X116442224Y-112653023D01*
X115790561Y-112191151D01*
X115386014Y-111807954D01*
X115178483Y-111447629D01*
X115021796Y-111162935D01*
X115642691Y-111267632D01*
G37*
G36*
X111032164Y-106560653D02*
G01*
X111087054Y-106778108D01*
X111013297Y-107185858D01*
X110668062Y-107963824D01*
X110467220Y-108371691D01*
X110103560Y-108981569D01*
X109699278Y-109521806D01*
X109337737Y-109928734D01*
X109078683Y-109988236D01*
X109006944Y-109931618D01*
X108886544Y-109642629D01*
X108892776Y-109091879D01*
X108939389Y-108713176D01*
X109140819Y-107972164D01*
X109529442Y-107407527D01*
X110145228Y-106856870D01*
X110260850Y-106796608D01*
X110776931Y-106525927D01*
X111032164Y-106560653D01*
G37*
G36*
X112600526Y-106327055D02*
G01*
X112888614Y-106474754D01*
X112977048Y-106909570D01*
X112879701Y-107497326D01*
X112594373Y-108371693D01*
X112509067Y-108596586D01*
X112033620Y-109576204D01*
X111374908Y-110483868D01*
X111263420Y-110615952D01*
X110672537Y-111247848D01*
X110031714Y-111746011D01*
X109886451Y-111777614D01*
X109551631Y-111421266D01*
X109510855Y-111168165D01*
X109454611Y-110985582D01*
X109731674Y-110568168D01*
X109799509Y-110492292D01*
X110232580Y-109916491D01*
X110720424Y-109156176D01*
X111192419Y-108333247D01*
X111577939Y-107569606D01*
X111806362Y-106987152D01*
X111903629Y-106693468D01*
X112166573Y-106408326D01*
X112397797Y-106301400D01*
X112600526Y-106327055D01*
G37*
G36*
X115952126Y-103581506D02*
G01*
X116452999Y-103720239D01*
X117770002Y-104309173D01*
X119010494Y-105168191D01*
X120061462Y-106224601D01*
X120063684Y-106227339D01*
X120836405Y-107418016D01*
X121333642Y-108801481D01*
X121611109Y-110209910D01*
X121679957Y-111775639D01*
X121365338Y-113138709D01*
X121189359Y-113280403D01*
X121004879Y-113571833D01*
X120871978Y-113676471D01*
X120683704Y-113568041D01*
X120062071Y-112921028D01*
X119034378Y-112067400D01*
X117812725Y-111332853D01*
X116523084Y-110782627D01*
X115263854Y-110563679D01*
X114535315Y-110385544D01*
X114091696Y-109445590D01*
X113796400Y-108427552D01*
X113662774Y-107116592D01*
X113739569Y-105728913D01*
X113750036Y-105656729D01*
X113976149Y-104782388D01*
X114254554Y-104044027D01*
X114713629Y-103332020D01*
X115952126Y-103581506D01*
G37*
G36*
X114964240Y-112187390D02*
G01*
X115831005Y-112993917D01*
X117330923Y-114043409D01*
X119081669Y-114657374D01*
X119570472Y-114794892D01*
X120042912Y-114935144D01*
X120261534Y-115010256D01*
X120360602Y-114995851D01*
X120236687Y-115182238D01*
X119972261Y-115512308D01*
X119535963Y-115936294D01*
X118994432Y-116389387D01*
X118403763Y-116845197D01*
X117604392Y-117356657D01*
X116357571Y-117869305D01*
X115017928Y-118071518D01*
X113889600Y-118081343D01*
X112443272Y-117808655D01*
X110994888Y-117235259D01*
X109711012Y-116414311D01*
X108682706Y-115392828D01*
X108630151Y-115325474D01*
X108373774Y-114924811D01*
X108211810Y-114598177D01*
X108478256Y-114118507D01*
X109133074Y-113430214D01*
X110005763Y-112673491D01*
X111049276Y-112012587D01*
X112155777Y-111514939D01*
X113217423Y-111247984D01*
X114012373Y-111111306D01*
X114964240Y-112187390D01*
G37*
G36*
X178393674Y-122553252D02*
G01*
X178931822Y-123040637D01*
X179226601Y-123470443D01*
X179313868Y-123885635D01*
X179264465Y-124393138D01*
X179147605Y-124686067D01*
X179026501Y-124905421D01*
X178813703Y-125201343D01*
X178438678Y-125587610D01*
X177927821Y-125837397D01*
X177278135Y-124227828D01*
X176739402Y-122572241D01*
X176945271Y-122465386D01*
X177609934Y-122333013D01*
X178393674Y-122553252D01*
G37*
G36*
X168705361Y-126959325D02*
G01*
X169006057Y-127142245D01*
X169086489Y-127246277D01*
X168974624Y-127435977D01*
X168810305Y-127739982D01*
X168752974Y-127865414D01*
X168528892Y-128258001D01*
X168407458Y-128461825D01*
X168350419Y-128557078D01*
X168207634Y-128194018D01*
X168015239Y-127636180D01*
X167938302Y-127483272D01*
X167795157Y-126973033D01*
X167772370Y-126851951D01*
X167861192Y-126745130D01*
X168038561Y-126719322D01*
X168705361Y-126959325D01*
G37*
G36*
X176326371Y-124536682D02*
G01*
X175694804Y-125068603D01*
X175611874Y-125141789D01*
X175084100Y-125474075D01*
X174326892Y-125837610D01*
X173452384Y-126189902D01*
X172572715Y-126488455D01*
X171800019Y-126690773D01*
X171246436Y-126754359D01*
X170837012Y-126681725D01*
X170518207Y-126618756D01*
X170997514Y-126210421D01*
X171587175Y-125779365D01*
X172210258Y-125437227D01*
X173095349Y-125074172D01*
X174043270Y-124777110D01*
X174906900Y-124570977D01*
X175587832Y-124526832D01*
X176326371Y-124536682D01*
G37*
G36*
X164630032Y-126814431D02*
G01*
X164894977Y-127133029D01*
X165269020Y-127897561D01*
X165452366Y-128313587D01*
X165685803Y-128984188D01*
X165839781Y-129641144D01*
X165919112Y-130179669D01*
X165798177Y-130416362D01*
X165708692Y-130434924D01*
X165409922Y-130341398D01*
X164992028Y-129982609D01*
X164731888Y-129703475D01*
X164293716Y-129072858D01*
X164110981Y-128412214D01*
X164084973Y-127586539D01*
X164113129Y-127459231D01*
X164237507Y-126889900D01*
X164428169Y-126716702D01*
X164630032Y-126814431D01*
G37*
G36*
X165945602Y-125451114D02*
G01*
X166333276Y-125903488D01*
X166819674Y-126684094D01*
X166937119Y-126894001D01*
X167381938Y-127887901D01*
X167653838Y-128975939D01*
X167683357Y-129146245D01*
X167787605Y-130005063D01*
X167757307Y-130816175D01*
X167688142Y-130947766D01*
X167199947Y-130975198D01*
X166979849Y-130843744D01*
X166803830Y-130769466D01*
X166662165Y-130288916D01*
X166647643Y-130188179D01*
X166484927Y-129486310D01*
X166216072Y-128623878D01*
X165889064Y-127733341D01*
X165551889Y-126947156D01*
X165252531Y-126397780D01*
X165090078Y-126134493D01*
X165040664Y-125749780D01*
X165107382Y-125503922D01*
X165257346Y-125365112D01*
X165555670Y-125239363D01*
X165945602Y-125451114D01*
G37*
G36*
X169978185Y-119583906D02*
G01*
X171386992Y-119757320D01*
X172766405Y-120265688D01*
X174023677Y-120958457D01*
X175267350Y-121912147D01*
X176109289Y-123029324D01*
X176104715Y-123255211D01*
X176209382Y-123583858D01*
X176204112Y-123752926D01*
X176000030Y-123827455D01*
X175104811Y-123887762D01*
X173790306Y-124126319D01*
X172442347Y-124590001D01*
X171191884Y-125224246D01*
X170214742Y-126048134D01*
X169609988Y-126491724D01*
X168604788Y-126227366D01*
X167635113Y-125799194D01*
X166544966Y-125058888D01*
X165531306Y-124108077D01*
X165482738Y-124053660D01*
X164958296Y-123318432D01*
X164571634Y-122630552D01*
X164321292Y-121821210D01*
X165308501Y-121032833D01*
X165736731Y-120738318D01*
X167034434Y-120107995D01*
X168489853Y-119709888D01*
X169974659Y-119583848D01*
X169978185Y-119583906D01*
G37*
G36*
X176949240Y-125207476D02*
G01*
X177032118Y-125622203D01*
X177076463Y-126228960D01*
X177075463Y-126935038D01*
X177044959Y-127680507D01*
X176922935Y-128621621D01*
X176514205Y-129906265D01*
X175808003Y-131062471D01*
X175090254Y-131933135D01*
X173951681Y-132865807D01*
X172581431Y-133606761D01*
X171127288Y-134062572D01*
X169683805Y-134193703D01*
X169598427Y-134190668D01*
X169126705Y-134129523D01*
X168772381Y-134043639D01*
X168576200Y-133531204D01*
X168469847Y-132587157D01*
X168451117Y-131432227D01*
X168615592Y-130208028D01*
X168945617Y-129040518D01*
X169423530Y-128055654D01*
X169829813Y-127358833D01*
X171265990Y-127321353D01*
X172440971Y-127175799D01*
X174209057Y-126701395D01*
X175804740Y-125754895D01*
X176224280Y-125468845D01*
X176635399Y-125197087D01*
X176833465Y-125077894D01*
X176886110Y-124992744D01*
X176949240Y-125207476D01*
G37*
G36*
X151094239Y-62769245D02*
G01*
X151539578Y-63342674D01*
X151755244Y-63817138D01*
X151769088Y-64241177D01*
X151632309Y-64732391D01*
X151466357Y-65000576D01*
X151309003Y-65195569D01*
X151048051Y-65450043D01*
X150611650Y-65765319D01*
X150065178Y-65922602D01*
X149704861Y-64224669D01*
X149461802Y-62500685D01*
X149683098Y-62431201D01*
X150360651Y-62416257D01*
X151094239Y-62769245D01*
G37*
G36*
X140173013Y-65073876D02*
G01*
X140788007Y-65426022D01*
X141052372Y-65658378D01*
X141113516Y-65774796D01*
X140970410Y-65942190D01*
X140755797Y-66213043D01*
X140677556Y-66326613D01*
X140388706Y-66674324D01*
X140233724Y-66853966D01*
X140161011Y-66937867D01*
X140083440Y-66555528D01*
X139990835Y-65972755D01*
X139941619Y-65808811D01*
X139889251Y-65281467D01*
X139887836Y-65158267D01*
X139993858Y-65068493D01*
X140173013Y-65073876D01*
G37*
G36*
X147988316Y-64225612D02*
G01*
X148713925Y-64363559D01*
X147999585Y-64777728D01*
X147905206Y-64835402D01*
X147327750Y-65070993D01*
X146518918Y-65297517D01*
X145596521Y-65492600D01*
X144678373Y-65633864D01*
X143882284Y-65698931D01*
X143326069Y-65665423D01*
X142935479Y-65522796D01*
X142632452Y-65405424D01*
X143175383Y-65086523D01*
X143830938Y-64764410D01*
X144503966Y-64535667D01*
X145438655Y-64331822D01*
X146423759Y-64203878D01*
X147310064Y-64150845D01*
X147988316Y-64225612D01*
G37*
G36*
X136799752Y-64575656D02*
G01*
X137005348Y-64935420D01*
X137240949Y-65753290D01*
X137349267Y-66194833D01*
X137462710Y-66895783D01*
X137500269Y-67569496D01*
X137484881Y-68113614D01*
X137324681Y-68325712D01*
X137233332Y-68328453D01*
X136955342Y-68184467D01*
X136606101Y-67758562D01*
X136398383Y-67438496D01*
X136076374Y-66741371D01*
X136011135Y-66059033D01*
X136128899Y-65241385D01*
X136178734Y-65120901D01*
X136400085Y-64581817D01*
X136617926Y-64444358D01*
X136799752Y-64575656D01*
G37*
G36*
X138332074Y-63461497D02*
G01*
X138635304Y-63974317D01*
X138978762Y-64827526D01*
X139057972Y-65054638D01*
X139323445Y-66110681D01*
X139402278Y-67229404D01*
X139401775Y-67402249D01*
X139355307Y-68266122D01*
X139184621Y-69059650D01*
X139093657Y-69177232D01*
X138608114Y-69119472D01*
X138414188Y-68951796D01*
X138253740Y-68848081D01*
X138197675Y-68350232D01*
X138200866Y-68248504D01*
X138162500Y-67529042D01*
X138047490Y-66633027D01*
X137880090Y-65699234D01*
X137684557Y-64866443D01*
X137485145Y-64273430D01*
X137370879Y-63985934D01*
X137389020Y-63598485D01*
X137497418Y-63367947D01*
X137669208Y-63257288D01*
X137984835Y-63185252D01*
X138332074Y-63461497D01*
G37*
G36*
X143318760Y-58383007D02*
G01*
X143322222Y-58383676D01*
X144679513Y-58799092D01*
X145949693Y-59539269D01*
X147067566Y-60439836D01*
X148126738Y-61595000D01*
X148761890Y-62841405D01*
X148718161Y-63063066D01*
X148764169Y-63404895D01*
X148729621Y-63570480D01*
X148515697Y-63608438D01*
X147623607Y-63512376D01*
X146287647Y-63519047D01*
X144879649Y-63741615D01*
X143538048Y-64149083D01*
X142432684Y-64790776D01*
X141760089Y-65122612D01*
X140816065Y-64687719D01*
X139935473Y-64097669D01*
X138990441Y-63179308D01*
X138157287Y-62066922D01*
X138118906Y-62004898D01*
X137730103Y-61189771D01*
X137468764Y-60445198D01*
X137362767Y-59604681D01*
X138471877Y-58999708D01*
X138944744Y-58784029D01*
X140332186Y-58388625D01*
X141834624Y-58249298D01*
X143318760Y-58383007D01*
G37*
G36*
X149210848Y-65132322D02*
G01*
X149220451Y-65555140D01*
X149158760Y-66160379D01*
X149035166Y-66855557D01*
X148875676Y-67584403D01*
X148592083Y-68490030D01*
X147966486Y-69684183D01*
X147070240Y-70700193D01*
X146212207Y-71432994D01*
X144928974Y-72153785D01*
X143450875Y-72645541D01*
X141939674Y-72841918D01*
X140495350Y-72720399D01*
X140411796Y-72702584D01*
X139957858Y-72560455D01*
X139623831Y-72414347D01*
X139519614Y-71875631D01*
X139578808Y-70927458D01*
X139760914Y-69786822D01*
X140135471Y-68609782D01*
X140663218Y-67517317D01*
X141304890Y-66630404D01*
X141826003Y-66014719D01*
X143246869Y-66227199D01*
X144429275Y-66287889D01*
X146252879Y-66127717D01*
X147988677Y-65472684D01*
X148451516Y-65263832D01*
X148903579Y-65067593D01*
X149119334Y-64984605D01*
X149185966Y-64909890D01*
X149210848Y-65132322D01*
G37*
G36*
X124062371Y-82719751D02*
G01*
X124679603Y-83250578D01*
X124961353Y-83919730D01*
X125046870Y-84433846D01*
X124950493Y-84847019D01*
X124691239Y-85286094D01*
X124461531Y-85502190D01*
X124259070Y-85649812D01*
X123941148Y-85828076D01*
X123438016Y-86019660D01*
X122869458Y-86030147D01*
X122960876Y-84296812D01*
X123172298Y-82568663D01*
X123404038Y-82558823D01*
X124062371Y-82719751D01*
G37*
G36*
X113534027Y-82650060D02*
G01*
X114036923Y-83149378D01*
X114232141Y-83442240D01*
X114261071Y-83570517D01*
X114079516Y-83695167D01*
X113802115Y-83901245D01*
X113697145Y-83990696D01*
X113328144Y-84251799D01*
X113131948Y-84385207D01*
X113039997Y-84447430D01*
X113064025Y-84058042D01*
X113125409Y-83471159D01*
X113120302Y-83300063D01*
X113206205Y-82777134D01*
X113236725Y-82657766D01*
X113362369Y-82598491D01*
X113534027Y-82650060D01*
G37*
G36*
X118812304Y-83296139D02*
G01*
X119796955Y-83427518D01*
X120666786Y-83605684D01*
X121302576Y-83853449D01*
X121967757Y-84174497D01*
X121170563Y-84389669D01*
X121064473Y-84420950D01*
X120445718Y-84499056D01*
X119605817Y-84508521D01*
X118664359Y-84458223D01*
X117740934Y-84357040D01*
X116955131Y-84213846D01*
X116426541Y-84037521D01*
X116086174Y-83798662D01*
X115823851Y-83606860D01*
X116430820Y-83439347D01*
X117147407Y-83297879D01*
X117856705Y-83251122D01*
X118812304Y-83296139D01*
G37*
G36*
X110404655Y-81295752D02*
G01*
X110510132Y-81696469D01*
X110526025Y-82547449D01*
X110516373Y-83001981D01*
X110444530Y-83708408D01*
X110306440Y-84368886D01*
X110150748Y-84890481D01*
X109941112Y-85053889D01*
X109852166Y-85032894D01*
X109620915Y-84821865D01*
X109393806Y-84320082D01*
X109276005Y-83957161D01*
X109145397Y-83200448D01*
X109258983Y-82524474D01*
X109584358Y-81765167D01*
X109663678Y-81661687D01*
X110017012Y-81198261D01*
X110263007Y-81121867D01*
X110404655Y-81295752D01*
G37*
G36*
X111909221Y-80259447D02*
G01*
X112173130Y-80616150D01*
X112333300Y-81189979D01*
X112444228Y-82103009D01*
X112461958Y-82342883D01*
X112445062Y-83431651D01*
X112231662Y-84532658D01*
X112186441Y-84699484D01*
X111917969Y-85521894D01*
X111547719Y-86244207D01*
X111429422Y-86334239D01*
X110975373Y-86152779D01*
X110831452Y-85940625D01*
X110703315Y-85798917D01*
X110778013Y-85303521D01*
X110807425Y-85206085D01*
X110956577Y-84501208D01*
X111077391Y-83605957D01*
X111157378Y-82660657D01*
X111184050Y-81805635D01*
X111144916Y-81181217D01*
X111108953Y-80873942D01*
X111226755Y-80504391D01*
X111391127Y-80309763D01*
X111585704Y-80247337D01*
X111909221Y-80259447D01*
G37*
G36*
X116905351Y-76488080D02*
G01*
X118304309Y-77001355D01*
X118307480Y-77002898D01*
X119511005Y-77755451D01*
X120546332Y-78799155D01*
X121393030Y-79958362D01*
X122117134Y-81348298D01*
X122408051Y-82716623D01*
X122308441Y-82919413D01*
X122264410Y-83261503D01*
X122188182Y-83412504D01*
X121971723Y-83393801D01*
X121134894Y-83070122D01*
X119842729Y-82730794D01*
X118425102Y-82581361D01*
X117023755Y-82627713D01*
X115789973Y-82961451D01*
X115054410Y-83107900D01*
X114255112Y-82443495D01*
X113557241Y-81645636D01*
X112882100Y-80513975D01*
X112365241Y-79223857D01*
X112344222Y-79154012D01*
X112179637Y-78266030D01*
X112119913Y-77479189D01*
X112235069Y-76639878D01*
X113462966Y-76342578D01*
X113975542Y-76256635D01*
X115418046Y-76233800D01*
X116905351Y-76488080D01*
G37*
G36*
X116204641Y-84559656D02*
G01*
X117331050Y-84924307D01*
X119133972Y-85241577D01*
X120980159Y-85058121D01*
X121481282Y-84976177D01*
X121968732Y-84903627D01*
X122198614Y-84879308D01*
X122282313Y-84824385D01*
X122248778Y-85045678D01*
X122148620Y-85456574D01*
X121932384Y-86025223D01*
X121633076Y-86664726D01*
X121290381Y-87327458D01*
X120782058Y-88128827D01*
X119868708Y-89120373D01*
X118740039Y-89869798D01*
X117721579Y-90355554D01*
X116295517Y-90719660D01*
X114740507Y-90812100D01*
X113229973Y-90610657D01*
X111866314Y-90119460D01*
X111790218Y-90080628D01*
X111388534Y-89825853D01*
X111103703Y-89598271D01*
X111142468Y-89050938D01*
X111445050Y-88150394D01*
X111916169Y-87095757D01*
X112582603Y-86055766D01*
X113375119Y-85137116D01*
X114224477Y-84446502D01*
X114887184Y-83986669D01*
X116204641Y-84559656D01*
G37*
G36*
X172993138Y-62935535D02*
G01*
X173286067Y-63052395D01*
X173505421Y-63173499D01*
X173801343Y-63386297D01*
X174187610Y-63761322D01*
X174437397Y-64272179D01*
X172827828Y-64921865D01*
X171172241Y-65460598D01*
X171065386Y-65254729D01*
X170933013Y-64590066D01*
X171153252Y-63806326D01*
X171640637Y-63268178D01*
X172070443Y-62973399D01*
X172485635Y-62886132D01*
X172993138Y-62935535D01*
G37*
G36*
X176035977Y-73225376D02*
G01*
X176339982Y-73389695D01*
X176465414Y-73447026D01*
X176858001Y-73671108D01*
X177061825Y-73792542D01*
X177157078Y-73849581D01*
X176794018Y-73992366D01*
X176236180Y-74184761D01*
X176083272Y-74261698D01*
X175573033Y-74404843D01*
X175451951Y-74427630D01*
X175345130Y-74338808D01*
X175319322Y-74161439D01*
X175559325Y-73494639D01*
X175742245Y-73193943D01*
X175846277Y-73113511D01*
X176035977Y-73225376D01*
G37*
G36*
X173668603Y-66505196D02*
G01*
X173741789Y-66588126D01*
X174074075Y-67115900D01*
X174437610Y-67873108D01*
X174789902Y-68747616D01*
X175088455Y-69627285D01*
X175290773Y-70399981D01*
X175354359Y-70953564D01*
X175281725Y-71362988D01*
X175218756Y-71681793D01*
X174810421Y-71202486D01*
X174379365Y-70612825D01*
X174037227Y-69989742D01*
X173674172Y-69104651D01*
X173377110Y-68156730D01*
X173170977Y-67293100D01*
X173126832Y-66612168D01*
X173136682Y-65873629D01*
X173668603Y-66505196D01*
G37*
G36*
X179016362Y-76401823D02*
G01*
X179034924Y-76491308D01*
X178941398Y-76790078D01*
X178582609Y-77207972D01*
X178303475Y-77468112D01*
X177672858Y-77906284D01*
X177012214Y-78089019D01*
X176186539Y-78115027D01*
X176059231Y-78086871D01*
X175489900Y-77962493D01*
X175316702Y-77771831D01*
X175414431Y-77569968D01*
X175733029Y-77305023D01*
X176497561Y-76930980D01*
X176913587Y-76747634D01*
X177584188Y-76514197D01*
X178241144Y-76360219D01*
X178779669Y-76280888D01*
X179016362Y-76401823D01*
G37*
G36*
X179416175Y-74442693D02*
G01*
X179547766Y-74511858D01*
X179575198Y-75000053D01*
X179443744Y-75220151D01*
X179369466Y-75396170D01*
X178888916Y-75537835D01*
X178788179Y-75552357D01*
X178086310Y-75715073D01*
X177223878Y-75983928D01*
X176333341Y-76310936D01*
X175547156Y-76648111D01*
X174997780Y-76947469D01*
X174734493Y-77109922D01*
X174349780Y-77159336D01*
X174103922Y-77092618D01*
X173965112Y-76942654D01*
X173839363Y-76644330D01*
X174051114Y-76254398D01*
X174503488Y-75866724D01*
X175284094Y-75380326D01*
X175494001Y-75262881D01*
X176487901Y-74818062D01*
X177575939Y-74546162D01*
X177746245Y-74516643D01*
X178605063Y-74412395D01*
X179416175Y-74442693D01*
G37*
G36*
X172352926Y-65995888D02*
G01*
X172427455Y-66199970D01*
X172487762Y-67095189D01*
X172726319Y-68409694D01*
X173190001Y-69757653D01*
X173824246Y-71008116D01*
X174648134Y-71985258D01*
X175091724Y-72590012D01*
X174827366Y-73595212D01*
X174399194Y-74564887D01*
X173658888Y-75655034D01*
X172708077Y-76668694D01*
X172653660Y-76717262D01*
X171918432Y-77241704D01*
X171230552Y-77628366D01*
X170421210Y-77878708D01*
X169632833Y-76891499D01*
X169338318Y-76463269D01*
X168707995Y-75165566D01*
X168309888Y-73710147D01*
X168183848Y-72225341D01*
X168183906Y-72221815D01*
X168357320Y-70813008D01*
X168865688Y-69433595D01*
X169558457Y-68176323D01*
X170512147Y-66932650D01*
X171629324Y-66090711D01*
X171855211Y-66095285D01*
X172183858Y-65990618D01*
X172352926Y-65995888D01*
G37*
G36*
X175535038Y-65124537D02*
G01*
X176280507Y-65155041D01*
X177221621Y-65277065D01*
X178506265Y-65685795D01*
X179662471Y-66391997D01*
X180533135Y-67109746D01*
X181465807Y-68248319D01*
X182206761Y-69618569D01*
X182662572Y-71072712D01*
X182793703Y-72516195D01*
X182790668Y-72601573D01*
X182729523Y-73073295D01*
X182643639Y-73427619D01*
X182131204Y-73623800D01*
X181187157Y-73730153D01*
X180032227Y-73748883D01*
X178808028Y-73584408D01*
X177640518Y-73254383D01*
X176655654Y-72776470D01*
X175958833Y-72370187D01*
X175921353Y-70934010D01*
X175775799Y-69759029D01*
X175301395Y-67990943D01*
X174354895Y-66395260D01*
X174068845Y-65975720D01*
X173797087Y-65564601D01*
X173677894Y-65366535D01*
X173592744Y-65313890D01*
X173807476Y-65250760D01*
X174222203Y-65167882D01*
X174828960Y-65123537D01*
X175535038Y-65124537D01*
G37*
G36*
X182552636Y-91589207D02*
G01*
X182967445Y-91885743D01*
X183162698Y-92133411D01*
X183292113Y-92347967D01*
X183441989Y-92680216D01*
X183588994Y-93198130D01*
X183549887Y-93765439D01*
X181831116Y-93523299D01*
X180127970Y-93162063D01*
X180138365Y-92930348D01*
X180356058Y-92288545D01*
X180938660Y-91719927D01*
X181629823Y-91497570D01*
X182149435Y-91457186D01*
X182552636Y-91589207D01*
G37*
G36*
X180457699Y-102318426D02*
G01*
X180638816Y-102612733D01*
X180718778Y-102725099D01*
X180946727Y-103115453D01*
X181062527Y-103322530D01*
X181116499Y-103419554D01*
X180730688Y-103361679D01*
X180151388Y-103249379D01*
X179980497Y-103239555D01*
X179467045Y-103108402D01*
X179350791Y-103067595D01*
X179302692Y-102937262D01*
X179369026Y-102770753D01*
X179910275Y-102313288D01*
X180219037Y-102144338D01*
X180349347Y-102126698D01*
X180457699Y-102318426D01*
G37*
G36*
X181767583Y-95314892D02*
G01*
X181789500Y-95423305D01*
X181813381Y-96046513D01*
X181749607Y-96884043D01*
X181617447Y-97817534D01*
X181436167Y-98728627D01*
X181225031Y-99498959D01*
X181003307Y-100010170D01*
X180735692Y-100328424D01*
X180521757Y-100573033D01*
X180407782Y-99953773D01*
X180329307Y-99227584D01*
X180344548Y-98516910D01*
X180472679Y-97568870D01*
X180689376Y-96599416D01*
X180942675Y-95748424D01*
X181244910Y-95136647D01*
X181622710Y-94501978D01*
X181767583Y-95314892D01*
G37*
G36*
X179004641Y-105758365D02*
G01*
X179456603Y-105807595D01*
X180154080Y-105940734D01*
X180800009Y-106135863D01*
X181306050Y-106336423D01*
X181450565Y-106559503D01*
X181421898Y-106646280D01*
X181191517Y-106858259D01*
X180671849Y-107040771D01*
X180300042Y-107126492D01*
X179534826Y-107190651D01*
X178871324Y-107018583D01*
X178143265Y-106628269D01*
X178047091Y-106540231D01*
X177616224Y-106147851D01*
X177561561Y-105896134D01*
X177747129Y-105770180D01*
X178155515Y-105700030D01*
X179004641Y-105758365D01*
G37*
G36*
X178969582Y-103811969D02*
G01*
X180052734Y-103923694D01*
X181130952Y-104232241D01*
X181293202Y-104291830D01*
X182089084Y-104630957D01*
X182776378Y-105062753D01*
X182855758Y-105188446D01*
X182635416Y-105624952D01*
X182411525Y-105749835D01*
X182259189Y-105865134D01*
X181772187Y-105747543D01*
X181677686Y-105709751D01*
X180988491Y-105499733D01*
X180107176Y-105301352D01*
X179172444Y-105139281D01*
X178323000Y-105038191D01*
X177697548Y-105022754D01*
X177388308Y-105031799D01*
X177030430Y-104882237D01*
X176850869Y-104701528D01*
X176805639Y-104502250D01*
X176845899Y-104181020D01*
X177224246Y-103949204D01*
X177809851Y-103839656D01*
X178729075Y-103808725D01*
X178969582Y-103811969D01*
G37*
G36*
X180402096Y-94053203D02*
G01*
X180739045Y-94126882D01*
X180882828Y-94215980D01*
X180845331Y-94429985D01*
X180449949Y-95235420D01*
X179999293Y-96493093D01*
X179726874Y-97892301D01*
X179650914Y-99292356D01*
X179875852Y-100550531D01*
X179957635Y-101296058D01*
X179226094Y-102034408D01*
X178370448Y-102660085D01*
X177184251Y-103234026D01*
X175853995Y-103636477D01*
X175782584Y-103651329D01*
X174883637Y-103737895D01*
X174094584Y-103728814D01*
X173268503Y-103540946D01*
X173079353Y-102291810D01*
X173038410Y-101773694D01*
X173141386Y-100334689D01*
X173524325Y-98875206D01*
X174157574Y-97526305D01*
X174159387Y-97523281D01*
X175013971Y-96389925D01*
X176143938Y-95449503D01*
X177372529Y-94707058D01*
X178820286Y-94106851D01*
X180208759Y-93936298D01*
X180402096Y-94053203D01*
G37*
G36*
X182515069Y-94297955D02*
G01*
X182915672Y-94433544D01*
X183463311Y-94698518D01*
X184074294Y-95052424D01*
X184704636Y-95451576D01*
X185458652Y-96027809D01*
X186366822Y-97024101D01*
X187015025Y-98213793D01*
X187410168Y-99270714D01*
X187648599Y-100723082D01*
X187605159Y-102280232D01*
X187272831Y-103767461D01*
X186664653Y-105083120D01*
X186619336Y-105155542D01*
X186330521Y-105533493D01*
X186078981Y-105797405D01*
X185537109Y-105711084D01*
X184666364Y-105331166D01*
X183656800Y-104769922D01*
X182678850Y-104015382D01*
X181832769Y-103145817D01*
X181218809Y-102239500D01*
X180818485Y-101539238D01*
X181504115Y-100276733D01*
X181965552Y-99186392D01*
X182438749Y-97417983D01*
X182416898Y-95562831D01*
X182378941Y-95056474D01*
X182349151Y-94564555D01*
X182344960Y-94333428D01*
X182297541Y-94245261D01*
X182515069Y-94297955D01*
G37*
G36*
X138908167Y-119229040D02*
G01*
X139410255Y-119368810D01*
X139743986Y-119630771D01*
X140032358Y-120051297D01*
X140131128Y-120350809D01*
X140179356Y-120596689D01*
X140206558Y-120960162D01*
X140167559Y-121497120D01*
X139936780Y-122016841D01*
X138404481Y-121201450D01*
X136927597Y-120279488D01*
X137016616Y-120065303D01*
X137440690Y-119536661D01*
X138182636Y-119201596D01*
X138908167Y-119229040D01*
G37*
G36*
X134069537Y-128779205D02*
G01*
X134105781Y-128996429D01*
X134175316Y-129334932D01*
X134212024Y-129467871D01*
X134292717Y-129912647D01*
X134330709Y-130146841D01*
X134348242Y-130256474D01*
X134005492Y-130070134D01*
X133499537Y-129766474D01*
X133342313Y-129698794D01*
X132904683Y-129399940D01*
X132809396Y-129321833D01*
X132808775Y-129182910D01*
X132928058Y-129049129D01*
X133593127Y-128804371D01*
X133941053Y-128751212D01*
X134069537Y-128779205D01*
G37*
G36*
X137732019Y-122863267D02*
G01*
X137715534Y-122972637D01*
X137524825Y-123566429D01*
X137178445Y-124331638D01*
X136734983Y-125163631D01*
X136253023Y-125957777D01*
X135791151Y-126609440D01*
X135407954Y-127013987D01*
X135047629Y-127221518D01*
X134762935Y-127378205D01*
X134867632Y-126757310D01*
X135042262Y-126048075D01*
X135299648Y-125385472D01*
X135744300Y-124538430D01*
X136279502Y-123701556D01*
X136808582Y-122988518D01*
X137301830Y-122517006D01*
X137873916Y-122049828D01*
X137732019Y-122863267D01*
G37*
G36*
X130785858Y-131386704D02*
G01*
X131563824Y-131731939D01*
X131971691Y-131932781D01*
X132581569Y-132296441D01*
X133121806Y-132700723D01*
X133528734Y-133062264D01*
X133588236Y-133321318D01*
X133531618Y-133393057D01*
X133242629Y-133513457D01*
X132691879Y-133507225D01*
X132313176Y-133460612D01*
X131572164Y-133259182D01*
X131007527Y-132870559D01*
X130456870Y-132254773D01*
X130396608Y-132139151D01*
X130125927Y-131623070D01*
X130160653Y-131367837D01*
X130378108Y-131312947D01*
X130785858Y-131386704D01*
G37*
G36*
X131097326Y-129520300D02*
G01*
X131971693Y-129805628D01*
X132196586Y-129890934D01*
X133176204Y-130366381D01*
X134083868Y-131025093D01*
X134215952Y-131136581D01*
X134847848Y-131727464D01*
X135346011Y-132368287D01*
X135377614Y-132513550D01*
X135021266Y-132848370D01*
X134768165Y-132889146D01*
X134585582Y-132945390D01*
X134168168Y-132668327D01*
X134092292Y-132600492D01*
X133516491Y-132167421D01*
X132756176Y-131679577D01*
X131933247Y-131207582D01*
X131169606Y-130822062D01*
X130587152Y-130593639D01*
X130293468Y-130496372D01*
X130008326Y-130233428D01*
X129901400Y-130002204D01*
X129927055Y-129799475D01*
X130074754Y-129511387D01*
X130509570Y-129422953D01*
X131097326Y-129520300D01*
G37*
G36*
X136738709Y-121034663D02*
G01*
X136880403Y-121210642D01*
X137171833Y-121395122D01*
X137276471Y-121528023D01*
X137168041Y-121716297D01*
X136521028Y-122337930D01*
X135667400Y-123365623D01*
X134932853Y-124587276D01*
X134382627Y-125876917D01*
X134163679Y-127136147D01*
X133985544Y-127864686D01*
X133045590Y-128308305D01*
X132027552Y-128603601D01*
X130716592Y-128737227D01*
X129328913Y-128660432D01*
X129256729Y-128649965D01*
X128382388Y-128423852D01*
X127644027Y-128145447D01*
X126932020Y-127686372D01*
X127181506Y-126447875D01*
X127320239Y-125947002D01*
X127909173Y-124629999D01*
X128768191Y-123389507D01*
X129824601Y-122338539D01*
X129827339Y-122336317D01*
X131018016Y-121563596D01*
X132401481Y-121066359D01*
X133809910Y-120788892D01*
X135375639Y-120720044D01*
X136738709Y-121034663D01*
G37*
G36*
X138782238Y-122163314D02*
G01*
X139112308Y-122427740D01*
X139536294Y-122864038D01*
X139989387Y-123405569D01*
X140445197Y-123996238D01*
X140956657Y-124795609D01*
X141469305Y-126042430D01*
X141671518Y-127382073D01*
X141681343Y-128510401D01*
X141408655Y-129956729D01*
X140835259Y-131405113D01*
X140014311Y-132688989D01*
X138992828Y-133717295D01*
X138925474Y-133769850D01*
X138524811Y-134026227D01*
X138198177Y-134188191D01*
X137718507Y-133921745D01*
X137030214Y-133266927D01*
X136273491Y-132394238D01*
X135612587Y-131350725D01*
X135114939Y-130244224D01*
X134847984Y-129182578D01*
X134711306Y-128387628D01*
X135787390Y-127435761D01*
X136593917Y-126568996D01*
X137643409Y-125069078D01*
X138257374Y-123318332D01*
X138394892Y-122829529D01*
X138535144Y-122357089D01*
X138610256Y-122138467D01*
X138595851Y-122039399D01*
X138782238Y-122163314D01*
G37*
%TO.C,B1*%
G36*
X150330000Y-90180000D02*
G01*
X150790000Y-90400000D01*
X151025294Y-90610000D01*
X151190000Y-90798824D01*
X151395294Y-91100000D01*
X151630000Y-91584519D01*
X151690000Y-92150000D01*
X149955294Y-92210000D01*
X148215294Y-92150000D01*
X148185294Y-91920000D01*
X148288232Y-91250146D01*
X148763244Y-90588998D01*
X149405294Y-90250000D01*
X149910000Y-90120000D01*
X150330000Y-90180000D01*
G37*
G36*
X150130000Y-101110000D02*
G01*
X150359471Y-101368385D01*
X150457730Y-101465159D01*
X150750000Y-101810000D01*
X150900000Y-101993822D01*
X150970000Y-102080000D01*
X150580000Y-102090000D01*
X149990000Y-102080000D01*
X149820000Y-102100000D01*
X149291574Y-102060000D01*
X149170000Y-102040000D01*
X149100000Y-101920000D01*
X149136412Y-101744501D01*
X149590000Y-101200000D01*
X149864733Y-100980000D01*
X149990000Y-100940000D01*
X150130000Y-101110000D01*
G37*
G36*
X150203833Y-93985407D02*
G01*
X150244242Y-94088367D01*
X150375979Y-94697960D01*
X150458610Y-95533840D01*
X150490557Y-96476099D01*
X150470240Y-97404829D01*
X150396079Y-98200122D01*
X150266494Y-98742068D01*
X150058209Y-99101958D01*
X149890000Y-99380000D01*
X149670223Y-98789940D01*
X149466839Y-98088410D01*
X149358441Y-97385886D01*
X149320000Y-96430000D01*
X149365061Y-95437645D01*
X149466739Y-94555596D01*
X149658148Y-93900631D01*
X149920000Y-93210000D01*
X150203833Y-93985407D01*
G37*
G36*
X150460000Y-104730000D02*
G01*
X151130000Y-104810000D01*
X151663180Y-104919640D01*
X151844237Y-105114236D01*
X151831074Y-105204673D01*
X151641003Y-105453437D01*
X151160923Y-105723415D01*
X150809650Y-105872398D01*
X150067200Y-106068461D01*
X149383899Y-106014222D01*
X148599123Y-105756264D01*
X148489123Y-105686264D01*
X147996666Y-105374665D01*
X147899123Y-105136264D01*
X148060000Y-104980000D01*
X148450000Y-104840000D01*
X149296356Y-104750000D01*
X149750000Y-104720000D01*
X150460000Y-104730000D01*
G37*
G36*
X151125355Y-102877831D02*
G01*
X151295487Y-102908340D01*
X152138167Y-103104112D01*
X152890000Y-103410000D01*
X152990000Y-103520000D01*
X152848804Y-103988136D01*
X152650000Y-104150000D01*
X152520000Y-104290000D01*
X152019978Y-104258763D01*
X151920350Y-104237955D01*
X151205156Y-104150805D01*
X150302782Y-104108477D01*
X149354107Y-104111182D01*
X148500014Y-104159132D01*
X147881383Y-104252539D01*
X147578412Y-104315145D01*
X147200000Y-104230000D01*
X146991787Y-104083217D01*
X146912640Y-103894821D01*
X146896507Y-103571480D01*
X147228852Y-103277486D01*
X147786537Y-103067913D01*
X148686425Y-102877831D01*
X148923841Y-102839262D01*
X150009939Y-102761202D01*
X151125355Y-102877831D01*
G37*
G36*
X148640000Y-92980000D02*
G01*
X148984625Y-92994049D01*
X149141695Y-93056826D01*
X149141929Y-93274091D01*
X148892416Y-94135947D01*
X148666999Y-95452769D01*
X148641689Y-96878025D01*
X148810000Y-98270000D01*
X149250000Y-99470000D01*
X149460000Y-100190000D01*
X148867786Y-101044163D01*
X148133787Y-101808916D01*
X147065275Y-102580119D01*
X145825113Y-103207452D01*
X145757366Y-103234479D01*
X144887108Y-103475830D01*
X144108466Y-103603905D01*
X143262312Y-103562338D01*
X142859125Y-102365025D01*
X142728835Y-101861890D01*
X142580365Y-100426865D01*
X142704050Y-98923058D01*
X143093445Y-97484688D01*
X143094705Y-97481395D01*
X143739501Y-96216860D01*
X144688998Y-95094508D01*
X145770000Y-94150000D01*
X147091537Y-93307511D01*
X148429300Y-92898444D01*
X148640000Y-92980000D01*
G37*
G36*
X150763373Y-92854120D02*
G01*
X151181435Y-92918085D01*
X151766767Y-93083937D01*
X152429922Y-93326370D01*
X153120000Y-93610000D01*
X153962623Y-94046545D01*
X155030000Y-94870000D01*
X155874943Y-95929058D01*
X156447615Y-96901306D01*
X156934625Y-98290207D01*
X157162241Y-99831243D01*
X157093217Y-101353586D01*
X156722740Y-102754866D01*
X156690687Y-102834057D01*
X156471891Y-103256418D01*
X156270000Y-103560000D01*
X155721371Y-103569086D01*
X154797882Y-103346143D01*
X153706197Y-102968734D01*
X152612080Y-102395477D01*
X151627854Y-101686043D01*
X150865841Y-100900108D01*
X150350000Y-100280000D01*
X150805982Y-98917617D01*
X151071073Y-97763713D01*
X151230000Y-95940000D01*
X150886337Y-94116827D01*
X150761029Y-93624753D01*
X150646271Y-93145481D01*
X150602009Y-92918593D01*
X150540000Y-92840000D01*
X150763373Y-92854120D01*
G37*
%TD*%
D11*
%TO.C,LED1*%
X160400000Y-136000000D03*
%TD*%
D12*
%TO.C,B1*%
X143920000Y-102670000D03*
%TD*%
M02*
