%TF.GenerationSoftware,KiCad,Pcbnew,7.0.11*%
%TF.CreationDate,2025-03-11T10:56:17-07:00*%
%TF.ProjectId,nightLight,6e696768-744c-4696-9768-742e6b696361,rev?*%
%TF.SameCoordinates,Original*%
%TF.FileFunction,Legend,Bot*%
%TF.FilePolarity,Positive*%
%FSLAX46Y46*%
G04 Gerber Fmt 4.6, Leading zero omitted, Abs format (unit mm)*
G04 Created by KiCad (PCBNEW 7.0.11) date 2025-03-11 10:56:17*
%MOMM*%
%LPD*%
G01*
G04 APERTURE LIST*
G04 APERTURE END LIST*
%TO.C,REF\u002A\u002A*%
G36*
X106517719Y-110471583D02*
G01*
X106903510Y-110639914D01*
X107020870Y-110858812D01*
X106815830Y-111080270D01*
X106609858Y-111141167D01*
X106102182Y-111168259D01*
X105510999Y-111121622D01*
X104990176Y-111016605D01*
X104693578Y-110868558D01*
X104625274Y-110709615D01*
X104797970Y-110517617D01*
X105287044Y-110412426D01*
X106057643Y-110405867D01*
X106517719Y-110471583D01*
G37*
G36*
X105628737Y-108116500D02*
G01*
X106045186Y-108187327D01*
X106692597Y-108381704D01*
X107119937Y-108627314D01*
X107248070Y-108886526D01*
X107186742Y-108973238D01*
X106856317Y-109053203D01*
X106346218Y-109019306D01*
X105773227Y-108884673D01*
X105254122Y-108662428D01*
X104977818Y-108466777D01*
X104865186Y-108235851D01*
X105089922Y-108107779D01*
X105628737Y-108116500D01*
G37*
G36*
X107828456Y-103870019D02*
G01*
X108185290Y-104149558D01*
X108580906Y-104545547D01*
X108933636Y-104967210D01*
X109161815Y-105323768D01*
X109183776Y-105524441D01*
X108915388Y-105536211D01*
X108485895Y-105335625D01*
X108000689Y-104982929D01*
X107562662Y-104540566D01*
X107358498Y-104223600D01*
X107339912Y-103913152D01*
X107624581Y-103791268D01*
X107828456Y-103870019D01*
G37*
G36*
X112136098Y-101536112D02*
G01*
X112382136Y-101899720D01*
X112546648Y-102412659D01*
X112607945Y-102952670D01*
X112544333Y-103397493D01*
X112334121Y-103624872D01*
X112173854Y-103595352D01*
X111974911Y-103303401D01*
X111764478Y-102680880D01*
X111599569Y-102028446D01*
X111561544Y-101620768D01*
X111673985Y-101445187D01*
X111946167Y-101438281D01*
X112136098Y-101536112D01*
G37*
G36*
X107196857Y-112650130D02*
G01*
X107176971Y-112901868D01*
X107082487Y-112993805D01*
X106703498Y-113175278D01*
X106172339Y-113336774D01*
X105615591Y-113449471D01*
X105159833Y-113484544D01*
X104931644Y-113413168D01*
X104863011Y-113220929D01*
X104951355Y-113058517D01*
X105277309Y-112905497D01*
X105906789Y-112714648D01*
X106332038Y-112610956D01*
X106903313Y-112551405D01*
X107196857Y-112650130D01*
G37*
G36*
X109695497Y-102353857D02*
G01*
X109970988Y-102652952D01*
X110295731Y-103106639D01*
X110597795Y-103602594D01*
X110805253Y-104028486D01*
X110846175Y-104271994D01*
X110743188Y-104376697D01*
X110445721Y-104347285D01*
X110072267Y-104028851D01*
X109676752Y-103458889D01*
X109516180Y-103164789D01*
X109305036Y-102659274D01*
X109327678Y-102384361D01*
X109580404Y-102295332D01*
X109695497Y-102353857D01*
G37*
G36*
X106522279Y-105916339D02*
G01*
X107105618Y-106229373D01*
X107500539Y-106463817D01*
X107853942Y-106714814D01*
X107962483Y-106893792D01*
X107882246Y-107060793D01*
X107784576Y-107141145D01*
X107456994Y-107163518D01*
X106917191Y-106955179D01*
X106737430Y-106864219D01*
X106268280Y-106590105D01*
X105995423Y-106375147D01*
X105932742Y-106254220D01*
X105963499Y-105905155D01*
X105992093Y-105864516D01*
X106175421Y-105801622D01*
X106522279Y-105916339D01*
G37*
G36*
X115189722Y-102861625D02*
G01*
X115676122Y-102929098D01*
X116510547Y-103121008D01*
X117306514Y-103375973D01*
X117635596Y-103511330D01*
X119040984Y-104326560D01*
X120246834Y-105418018D01*
X121217336Y-106728777D01*
X121916685Y-108201915D01*
X122309072Y-109780506D01*
X122358691Y-111407627D01*
X122357458Y-111422712D01*
X122322428Y-112051161D01*
X122382115Y-112442906D01*
X122589509Y-112735545D01*
X122997599Y-113066680D01*
X123039426Y-113098052D01*
X123509973Y-113411508D01*
X123842030Y-113508202D01*
X124164405Y-113428023D01*
X124759874Y-113175604D01*
X125317235Y-112961514D01*
X125632646Y-112887893D01*
X125764794Y-112943371D01*
X125772366Y-113116584D01*
X125734748Y-113222137D01*
X125420850Y-113578982D01*
X124858637Y-113976561D01*
X124498178Y-114197927D01*
X124161166Y-114460708D01*
X124014164Y-114724465D01*
X123970077Y-115099243D01*
X123922408Y-115481852D01*
X123565903Y-116316514D01*
X122896438Y-116953158D01*
X122714716Y-117075241D01*
X122494151Y-117304698D01*
X122404300Y-117637812D01*
X122389847Y-118212040D01*
X122355545Y-118804358D01*
X122231159Y-119371458D01*
X122043189Y-119715746D01*
X121820389Y-119759100D01*
X121746208Y-119610485D01*
X121666839Y-119171015D01*
X121623852Y-118561423D01*
X121600029Y-118034303D01*
X121530285Y-117644211D01*
X121375171Y-117457908D01*
X121090923Y-117378232D01*
X120697857Y-117277436D01*
X120147757Y-117043217D01*
X120112775Y-117023605D01*
X120011726Y-116992103D01*
X119794271Y-116924311D01*
X119451485Y-117026612D01*
X118962286Y-117363504D01*
X118929141Y-117388457D01*
X118350264Y-117733997D01*
X117574572Y-118092078D01*
X116760304Y-118389007D01*
X116291747Y-118520224D01*
X114575839Y-118768639D01*
X112901011Y-118657734D01*
X111309322Y-118198317D01*
X109847527Y-117403751D01*
X109842828Y-117401198D01*
X108543591Y-116277187D01*
X108511874Y-116243251D01*
X107906148Y-115555117D01*
X107566428Y-115032440D01*
X107475568Y-114597425D01*
X108259773Y-114597425D01*
X108350623Y-114882501D01*
X108670702Y-115315647D01*
X109215055Y-115905863D01*
X110241232Y-116721835D01*
X111404055Y-117389212D01*
X112559037Y-117815114D01*
X113801891Y-118025380D01*
X115429566Y-117989700D01*
X116967722Y-117593286D01*
X118387292Y-116844585D01*
X118973252Y-116341261D01*
X120387490Y-116341261D01*
X120940896Y-116533587D01*
X121152780Y-116588923D01*
X121862230Y-116571841D01*
X122524920Y-116305912D01*
X122989433Y-115842238D01*
X123155494Y-115298918D01*
X123128054Y-114630087D01*
X122916954Y-114018700D01*
X122551733Y-113615060D01*
X122109030Y-113359465D01*
X121248260Y-114850362D01*
X120387490Y-116341261D01*
X118973252Y-116341261D01*
X119659212Y-115752039D01*
X120341179Y-115028039D01*
X119185916Y-114767434D01*
X117630026Y-114229899D01*
X117154098Y-113941186D01*
X116184515Y-113353006D01*
X114927089Y-112178269D01*
X114075111Y-111200651D01*
X115097232Y-111200651D01*
X115519597Y-111758316D01*
X115576415Y-111827321D01*
X116048221Y-112248540D01*
X116745015Y-112737703D01*
X117562160Y-113234402D01*
X118395020Y-113678226D01*
X119138961Y-114008768D01*
X119689347Y-114165619D01*
X120303729Y-114238790D01*
X119787854Y-113615894D01*
X119391989Y-113230969D01*
X118730650Y-112726271D01*
X117958722Y-112234789D01*
X117884944Y-112192663D01*
X117138202Y-111808998D01*
X116418179Y-111503353D01*
X115871349Y-111338615D01*
X115097232Y-111200651D01*
X114075111Y-111200651D01*
X114073745Y-111199083D01*
X114005501Y-111120775D01*
X112413663Y-111564280D01*
X111906549Y-111716855D01*
X111482376Y-111889463D01*
X110812000Y-112162260D01*
X109972335Y-112710449D01*
X109643068Y-112995113D01*
X109066622Y-113541796D01*
X108625328Y-114017872D01*
X108492563Y-114185080D01*
X108392911Y-114310584D01*
X108259773Y-114597425D01*
X107475568Y-114597425D01*
X107474803Y-114593763D01*
X107613356Y-114157627D01*
X107964173Y-113642576D01*
X108171290Y-113383965D01*
X108591118Y-112902014D01*
X108913829Y-112583444D01*
X109060077Y-112443094D01*
X109130587Y-112177118D01*
X108936765Y-111783850D01*
X108552115Y-111064720D01*
X108525003Y-110979438D01*
X109463971Y-110979438D01*
X109568166Y-111353279D01*
X109727660Y-111591151D01*
X109884779Y-111773692D01*
X110006833Y-111745305D01*
X110326762Y-111497195D01*
X110754769Y-111072231D01*
X111043956Y-110745917D01*
X112142603Y-110745917D01*
X112823803Y-110608583D01*
X112922567Y-110588853D01*
X113366101Y-110505241D01*
X113590837Y-110471376D01*
X113635522Y-110419636D01*
X113618225Y-110137295D01*
X113507663Y-109738020D01*
X113337915Y-109370189D01*
X113249480Y-109246805D01*
X113113961Y-109206449D01*
X112931210Y-109405045D01*
X112636339Y-109890741D01*
X112142603Y-110745917D01*
X111043956Y-110745917D01*
X111221417Y-110545672D01*
X111657272Y-109992774D01*
X111992897Y-109488797D01*
X112109099Y-109276313D01*
X112423814Y-108581213D01*
X112675353Y-107859533D01*
X112839009Y-107203606D01*
X112859056Y-107008157D01*
X113766469Y-107008157D01*
X113885559Y-108449079D01*
X114281013Y-109729176D01*
X114564291Y-110349433D01*
X115795886Y-110582172D01*
X116934500Y-110897556D01*
X118357911Y-111561876D01*
X119640255Y-112456148D01*
X120668421Y-113512350D01*
X120685459Y-113533232D01*
X120917595Y-113613182D01*
X121149706Y-113341017D01*
X121368532Y-112741594D01*
X121560808Y-111839772D01*
X121585270Y-111670801D01*
X121597995Y-110477131D01*
X121388555Y-109178432D01*
X120990144Y-107921819D01*
X120435953Y-106854405D01*
X120156358Y-106473081D01*
X119148821Y-105441064D01*
X117933483Y-104575067D01*
X116614782Y-103941124D01*
X115297160Y-103605270D01*
X114994957Y-103572552D01*
X114683171Y-103600932D01*
X114471041Y-103783501D01*
X114291913Y-104190723D01*
X114079138Y-104893072D01*
X113928050Y-105509602D01*
X113766469Y-107008157D01*
X112859056Y-107008157D01*
X112890072Y-106705759D01*
X112803837Y-106458328D01*
X112652238Y-106383638D01*
X112283863Y-106348578D01*
X112005689Y-106622427D01*
X111771380Y-107240278D01*
X111570912Y-107770767D01*
X111196477Y-108522829D01*
X110752134Y-109258097D01*
X110738748Y-109277971D01*
X110310329Y-109888105D01*
X109922989Y-110396335D01*
X109659096Y-110694430D01*
X109463971Y-110979438D01*
X108525003Y-110979438D01*
X108507964Y-110925839D01*
X108200590Y-109958972D01*
X108151032Y-109219673D01*
X108892553Y-109219673D01*
X108921504Y-109714037D01*
X109053693Y-109980608D01*
X109223572Y-109959173D01*
X109547069Y-109682402D01*
X109937770Y-109192056D01*
X110344116Y-108562369D01*
X110714550Y-107867575D01*
X110997511Y-107181911D01*
X111073381Y-106883891D01*
X111009801Y-106601642D01*
X110701276Y-106608468D01*
X110147546Y-106904285D01*
X110111225Y-106928535D01*
X109599012Y-107373848D01*
X109203096Y-107878105D01*
X109106237Y-108084151D01*
X108957309Y-108631661D01*
X108892553Y-109219673D01*
X108151032Y-109219673D01*
X108130227Y-108909309D01*
X108202169Y-108470408D01*
X108592424Y-107499913D01*
X109232856Y-106660404D01*
X110043529Y-106070486D01*
X110181222Y-106010031D01*
X110837944Y-105812622D01*
X111627160Y-105664073D01*
X112385469Y-105589950D01*
X112949469Y-105615819D01*
X113098176Y-105527514D01*
X113227184Y-105111996D01*
X113279157Y-104891356D01*
X113484881Y-104305966D01*
X113767984Y-103677770D01*
X114221048Y-102786244D01*
X115189722Y-102861625D01*
G37*
G36*
X165142340Y-132552334D02*
G01*
X165180190Y-132851754D01*
X165094443Y-133048683D01*
X164788869Y-133454999D01*
X164373137Y-133877893D01*
X163957911Y-134209364D01*
X163653851Y-134341408D01*
X163488189Y-134291566D01*
X163452116Y-134035858D01*
X163685906Y-133593591D01*
X164176214Y-132999062D01*
X164522285Y-132688864D01*
X164899217Y-132501533D01*
X165142340Y-132552334D01*
G37*
G36*
X163777522Y-131110528D02*
G01*
X163804527Y-131213246D01*
X163653390Y-131517766D01*
X163299539Y-131886736D01*
X162828092Y-132239133D01*
X162324169Y-132493934D01*
X161996686Y-132579833D01*
X161747388Y-132517677D01*
X161793737Y-132263196D01*
X162146761Y-131856046D01*
X162468706Y-131582554D01*
X163033755Y-131211552D01*
X163496592Y-131042066D01*
X163777522Y-131110528D01*
G37*
G36*
X161858613Y-127300022D02*
G01*
X162278423Y-127354418D01*
X162446263Y-127466585D01*
X162282764Y-127679747D01*
X161853033Y-127879824D01*
X161270967Y-128024804D01*
X160650540Y-128076008D01*
X160276496Y-128028664D01*
X160026732Y-127843350D01*
X160116345Y-127546935D01*
X160307720Y-127441378D01*
X160751228Y-127347711D01*
X161308870Y-127299189D01*
X161858613Y-127300022D01*
G37*
G36*
X161725433Y-122686573D02*
G01*
X162224113Y-122890261D01*
X162677186Y-123190417D01*
X162977051Y-123525073D01*
X163016112Y-123832261D01*
X162890480Y-123936058D01*
X162538955Y-123900795D01*
X161926813Y-123661846D01*
X161321018Y-123368798D01*
X160984276Y-123135876D01*
X160922049Y-122936880D01*
X161091714Y-122723937D01*
X161288743Y-122641326D01*
X161725433Y-122686573D01*
G37*
G36*
X166807751Y-133746005D02*
G01*
X166817446Y-133877480D01*
X166712852Y-134284451D01*
X166495144Y-134795151D01*
X166223604Y-135294084D01*
X165957515Y-135665759D01*
X165756162Y-135794683D01*
X165564781Y-135723690D01*
X165497154Y-135551618D01*
X165589452Y-135203563D01*
X165847875Y-134598679D01*
X166041787Y-134206267D01*
X166363377Y-133730366D01*
X166627691Y-133568957D01*
X166807751Y-133746005D01*
G37*
G36*
X161308871Y-125060645D02*
G01*
X161882957Y-125148044D01*
X162342561Y-125262880D01*
X162555403Y-125388056D01*
X162569412Y-125534250D01*
X162355673Y-125743218D01*
X161871686Y-125824615D01*
X161180838Y-125761232D01*
X160852331Y-125695194D01*
X160329363Y-125532001D01*
X160133321Y-125337945D01*
X160227570Y-125087119D01*
X160346383Y-125036571D01*
X160752586Y-125017788D01*
X161308871Y-125060645D01*
G37*
G36*
X162710215Y-129282351D02*
G01*
X162786571Y-129451162D01*
X162785343Y-129577631D01*
X162591916Y-129842955D01*
X162085339Y-130122550D01*
X161900113Y-130201787D01*
X161388565Y-130384980D01*
X161048508Y-130455827D01*
X160915582Y-130426114D01*
X160667953Y-130178178D01*
X160655201Y-130130152D01*
X160724863Y-129949287D01*
X161035697Y-129757317D01*
X161650459Y-129511667D01*
X162083903Y-129359838D01*
X162503341Y-129250453D01*
X162710215Y-129282351D01*
G37*
G36*
X171103862Y-119022476D02*
G01*
X172681884Y-119433658D01*
X174143377Y-120147771D01*
X175421718Y-121155653D01*
X175432481Y-121166295D01*
X175891384Y-121597089D01*
X176229844Y-121803174D01*
X176587329Y-121832406D01*
X177103308Y-121732640D01*
X177154227Y-121720765D01*
X177696810Y-121561790D01*
X177984323Y-121369574D01*
X178130121Y-121071081D01*
X178319518Y-120452674D01*
X178513780Y-119888096D01*
X178660125Y-119599154D01*
X178787566Y-119533584D01*
X178925123Y-119639123D01*
X178981801Y-119735788D01*
X179053390Y-120205623D01*
X178996569Y-120891862D01*
X178934447Y-121310281D01*
X178919122Y-121737360D01*
X179026680Y-122019510D01*
X179285439Y-122294185D01*
X179547893Y-122576638D01*
X179958124Y-123386247D01*
X180015498Y-124308313D01*
X179992210Y-124525994D01*
X180026208Y-124842449D01*
X180223633Y-125125401D01*
X180654227Y-125505579D01*
X181085920Y-125912590D01*
X181440390Y-126372400D01*
X181583305Y-126737698D01*
X181473303Y-126936240D01*
X181311775Y-126897538D01*
X180924104Y-126675852D01*
X180429498Y-126316945D01*
X180010387Y-125996367D01*
X179666729Y-125799048D01*
X179424307Y-125798119D01*
X179180561Y-125964651D01*
X178850689Y-126200967D01*
X178317669Y-126471814D01*
X178280159Y-126486006D01*
X178191074Y-126543165D01*
X177999366Y-126666169D01*
X177857394Y-126994516D01*
X177801017Y-127585815D01*
X177798827Y-127627245D01*
X177691431Y-128292799D01*
X177467132Y-129117183D01*
X177171191Y-129931811D01*
X176970526Y-130375092D01*
X176057859Y-131849232D01*
X174896342Y-133060936D01*
X173521290Y-133984933D01*
X171972994Y-134593995D01*
X171968018Y-134595953D01*
X170271842Y-134868727D01*
X170225458Y-134871210D01*
X169308964Y-134892899D01*
X168690203Y-134817169D01*
X168295260Y-134605382D01*
X168050222Y-134218902D01*
X167881170Y-133619092D01*
X167816195Y-133294198D01*
X167716859Y-132662800D01*
X167680255Y-132210816D01*
X167666748Y-132008568D01*
X167508321Y-131783588D01*
X167082473Y-131679277D01*
X166284340Y-131511688D01*
X166211187Y-131481590D01*
X168457941Y-131481590D01*
X168464358Y-131916802D01*
X168512609Y-132709786D01*
X168593646Y-133353853D01*
X168636395Y-133563036D01*
X168668482Y-133720047D01*
X168802634Y-134006414D01*
X169079413Y-134120062D01*
X169616965Y-134153288D01*
X170419000Y-134115673D01*
X171703685Y-133854073D01*
X172962373Y-133392280D01*
X174031042Y-132781277D01*
X174991006Y-131964352D01*
X176009923Y-130694546D01*
X176694960Y-129261441D01*
X177033903Y-127692730D01*
X177014539Y-126016109D01*
X176898283Y-125028313D01*
X175956058Y-125745783D01*
X174544177Y-126592142D01*
X174017088Y-126771143D01*
X172943281Y-127135812D01*
X171235123Y-127343950D01*
X169936503Y-127368241D01*
X169832649Y-127370183D01*
X169149180Y-128874682D01*
X168940092Y-129361226D01*
X168799665Y-129797112D01*
X168577730Y-130486001D01*
X168457941Y-131481590D01*
X166211187Y-131481590D01*
X166149571Y-131456239D01*
X165211332Y-131070211D01*
X164362014Y-130449401D01*
X164072040Y-130112171D01*
X163579450Y-129189395D01*
X163348010Y-128159170D01*
X163382632Y-127658652D01*
X164118015Y-127658652D01*
X164129900Y-128337271D01*
X164261693Y-128964691D01*
X164357274Y-129171332D01*
X164680962Y-129637351D01*
X165089781Y-130064923D01*
X165487095Y-130360518D01*
X165776270Y-130430603D01*
X165869046Y-130286690D01*
X165864967Y-129860972D01*
X165740478Y-129246489D01*
X165519304Y-128530455D01*
X165225171Y-127800081D01*
X164881806Y-127142585D01*
X164702278Y-126892901D01*
X164445194Y-126760180D01*
X164252107Y-127000911D01*
X164122785Y-127615241D01*
X164118015Y-127658652D01*
X163382632Y-127658652D01*
X163417197Y-127158966D01*
X163459393Y-127014629D01*
X163730301Y-126384658D01*
X164123805Y-125684598D01*
X164167020Y-125621525D01*
X165070287Y-125621525D01*
X165101260Y-126010645D01*
X165423951Y-126587283D01*
X165701471Y-127081843D01*
X166036902Y-127852093D01*
X166314531Y-128665101D01*
X166321151Y-128688129D01*
X166513158Y-129408504D01*
X166653508Y-130031908D01*
X166712235Y-130425673D01*
X166805140Y-130758348D01*
X167158494Y-130918830D01*
X167443235Y-130949551D01*
X167684063Y-130946527D01*
X167740773Y-130834781D01*
X167756356Y-130430219D01*
X167705932Y-129829185D01*
X167602520Y-129133246D01*
X167459138Y-128443966D01*
X167288805Y-127862912D01*
X167200726Y-127637314D01*
X166870543Y-126949426D01*
X166795010Y-126822638D01*
X167793119Y-126822638D01*
X167827783Y-127090288D01*
X168010308Y-127628371D01*
X168348044Y-128556291D01*
X168680706Y-127946186D01*
X168729076Y-127857846D01*
X168950124Y-127464335D01*
X169068640Y-127270409D01*
X169057728Y-127202921D01*
X168830324Y-127034685D01*
X168453393Y-126862731D01*
X168062506Y-126756329D01*
X167911144Y-126744764D01*
X167793119Y-126822638D01*
X166795010Y-126822638D01*
X166653564Y-126585212D01*
X170595588Y-126585212D01*
X171294276Y-126620122D01*
X171383659Y-126620953D01*
X172009603Y-126530282D01*
X172832214Y-126310935D01*
X173737957Y-126004238D01*
X174613299Y-125651514D01*
X175344705Y-125294091D01*
X175818641Y-124973292D01*
X176269610Y-124549682D01*
X175460846Y-124544475D01*
X174911519Y-124600301D01*
X174099798Y-124782502D01*
X173227115Y-125057915D01*
X173147421Y-125087354D01*
X172373520Y-125412776D01*
X171676560Y-125767881D01*
X171198869Y-126080885D01*
X170595588Y-126585212D01*
X166653564Y-126585212D01*
X166479391Y-126292850D01*
X166082116Y-125745860D01*
X165733567Y-125386734D01*
X165488593Y-125293748D01*
X165333931Y-125361870D01*
X165070287Y-125621525D01*
X164167020Y-125621525D01*
X164554455Y-125056054D01*
X164936804Y-124640633D01*
X164964745Y-124469955D01*
X164729365Y-124104040D01*
X164593753Y-123922402D01*
X164277554Y-123388526D01*
X163978303Y-122767861D01*
X163658810Y-122017396D01*
X164507713Y-122017396D01*
X164511214Y-122297250D01*
X164708024Y-122696227D01*
X165109285Y-123310684D01*
X165484457Y-123822721D01*
X166528554Y-124909753D01*
X167708914Y-125744732D01*
X168943719Y-126264626D01*
X169600950Y-126446316D01*
X170570893Y-125652462D01*
X171544378Y-124982957D01*
X172968228Y-124319578D01*
X174477555Y-123912072D01*
X175947544Y-123803366D01*
X175974493Y-123803736D01*
X176184952Y-123677301D01*
X176125660Y-123324548D01*
X175807134Y-122771617D01*
X175674412Y-122601522D01*
X176756434Y-122601522D01*
X177345235Y-124219240D01*
X177934037Y-125836960D01*
X178437090Y-125536651D01*
X178615676Y-125409908D01*
X179058616Y-124855457D01*
X179280872Y-124176871D01*
X179224260Y-123522990D01*
X178914795Y-123046540D01*
X178384803Y-122637644D01*
X177780760Y-122406364D01*
X177236794Y-122426685D01*
X176756434Y-122601522D01*
X175674412Y-122601522D01*
X175239890Y-122044645D01*
X175126175Y-121917293D01*
X174219951Y-121140269D01*
X173090464Y-120465922D01*
X171871749Y-119963387D01*
X170697835Y-119701801D01*
X170226004Y-119670874D01*
X168787800Y-119779324D01*
X167343204Y-120153675D01*
X166009931Y-120756367D01*
X164905701Y-121549841D01*
X164686385Y-121760312D01*
X164507713Y-122017396D01*
X163658810Y-122017396D01*
X163586579Y-121847732D01*
X164266976Y-121154138D01*
X164631315Y-120824905D01*
X165314685Y-120309056D01*
X166021637Y-119863198D01*
X166336857Y-119698112D01*
X167864725Y-119145542D01*
X169475935Y-118923383D01*
X171103862Y-119022476D01*
G37*
G36*
X136307901Y-70315349D02*
G01*
X136293181Y-70616792D01*
X136174541Y-70795839D01*
X135803053Y-71142920D01*
X135320203Y-71487199D01*
X134853726Y-71741531D01*
X134531355Y-71818769D01*
X134376865Y-71740917D01*
X134385744Y-71482831D01*
X134692781Y-71087879D01*
X135278878Y-70587524D01*
X135673558Y-70342133D01*
X136077293Y-70223101D01*
X136307901Y-70315349D01*
G37*
G36*
X135214184Y-68658449D02*
G01*
X135222942Y-68764295D01*
X135021222Y-69037945D01*
X134608676Y-69339863D01*
X134083198Y-69605040D01*
X133542685Y-69768465D01*
X133205261Y-69796192D01*
X132970544Y-69691691D01*
X133060378Y-69449124D01*
X133478741Y-69109462D01*
X133843286Y-68896030D01*
X134464175Y-68628784D01*
X134949411Y-68542244D01*
X135214184Y-68658449D01*
G37*
G36*
X133444869Y-64476335D02*
G01*
X133986115Y-64572618D01*
X134390101Y-64699087D01*
X134535914Y-64838694D01*
X134337884Y-65020227D01*
X133879939Y-65142642D01*
X133281540Y-65184345D01*
X132661647Y-65127035D01*
X132301506Y-65015459D01*
X132087717Y-64789588D01*
X132227441Y-64513238D01*
X132434238Y-64442517D01*
X132887273Y-64427287D01*
X133444869Y-64476335D01*
G37*
G36*
X134656075Y-60006131D02*
G01*
X135111809Y-60293319D01*
X135505878Y-60667591D01*
X135743075Y-61049234D01*
X135728200Y-61358538D01*
X135586452Y-61438942D01*
X135246391Y-61343173D01*
X134685042Y-61001557D01*
X134139337Y-60607765D01*
X133848158Y-60319908D01*
X133821432Y-60113129D01*
X134025496Y-59932883D01*
X134233876Y-59885741D01*
X134656075Y-60006131D01*
G37*
G36*
X137740732Y-71780081D02*
G01*
X137727449Y-71911242D01*
X137553775Y-72293867D01*
X137250691Y-72759004D01*
X136896638Y-73203205D01*
X136570051Y-73523028D01*
X136349369Y-73615028D01*
X136173224Y-73511881D01*
X136136504Y-73330679D01*
X136287839Y-73003939D01*
X136647373Y-72453120D01*
X136906480Y-72100342D01*
X137305825Y-71687515D01*
X137594151Y-71574455D01*
X137740732Y-71780081D01*
G37*
G36*
X133293197Y-62132996D02*
G01*
X133833589Y-62271800D01*
X134383776Y-62457560D01*
X134816457Y-62650462D01*
X135004329Y-62810695D01*
X134992738Y-62957101D01*
X134745960Y-63125778D01*
X134255192Y-63121895D01*
X133585845Y-62939511D01*
X133273796Y-62817431D01*
X132787111Y-62565905D01*
X132627745Y-62340755D01*
X132764118Y-62110106D01*
X132889904Y-62080958D01*
X133293197Y-62132996D01*
G37*
G36*
X134480552Y-66672710D02*
G01*
X134526434Y-66852216D01*
X134503263Y-66976550D01*
X134266702Y-67204255D01*
X133719270Y-67391636D01*
X133523098Y-67437505D01*
X132987511Y-67529085D01*
X132640318Y-67539806D01*
X132514571Y-67487462D01*
X132313758Y-67200292D01*
X132309539Y-67150781D01*
X132409550Y-66984761D01*
X132748997Y-66849683D01*
X133397075Y-66714518D01*
X133850299Y-66640262D01*
X134282360Y-66605374D01*
X134480552Y-66672710D01*
G37*
G36*
X142942301Y-57645973D02*
G01*
X144528289Y-58026246D01*
X146010936Y-58705202D01*
X147326221Y-59662252D01*
X148410125Y-60876804D01*
X148418876Y-60889153D01*
X148796001Y-61393090D01*
X149093533Y-61654817D01*
X149440511Y-61745682D01*
X149965975Y-61737030D01*
X150018182Y-61734177D01*
X150580128Y-61671836D01*
X150896651Y-61532466D01*
X151092067Y-61263826D01*
X151385971Y-60687703D01*
X151675321Y-60165435D01*
X151869616Y-59906295D01*
X152006508Y-59863852D01*
X152123648Y-59991673D01*
X152162679Y-60096712D01*
X152151595Y-60571841D01*
X151976473Y-61237787D01*
X151842637Y-61639062D01*
X151753383Y-62056991D01*
X151810312Y-62353532D01*
X152017443Y-62668967D01*
X152226863Y-62992704D01*
X152490274Y-63861249D01*
X152386661Y-64779270D01*
X152325927Y-64989600D01*
X152304457Y-65307150D01*
X152449748Y-65620086D01*
X152807784Y-66069261D01*
X153162241Y-66545051D01*
X153431481Y-67059429D01*
X153508791Y-67443993D01*
X153365985Y-67620418D01*
X153213631Y-67554254D01*
X152870344Y-67268618D01*
X152445576Y-66829276D01*
X152088501Y-66440791D01*
X151784327Y-66186794D01*
X151545750Y-66143783D01*
X151276789Y-66265459D01*
X150910893Y-66440902D01*
X150338938Y-66615077D01*
X150299534Y-66622540D01*
X150201877Y-66663361D01*
X149991721Y-66751207D01*
X149794889Y-67049913D01*
X149636691Y-67622438D01*
X149627340Y-67662858D01*
X149406003Y-68299652D01*
X149041959Y-69072563D01*
X148609055Y-69823425D01*
X148334464Y-70225126D01*
X147179681Y-71518388D01*
X145825400Y-72509988D01*
X144310788Y-73181172D01*
X142680251Y-73512123D01*
X142675010Y-73513187D01*
X140957237Y-73487279D01*
X140911126Y-73481670D01*
X140004789Y-73343882D01*
X139408579Y-73161856D01*
X139056413Y-72884705D01*
X138882209Y-72461546D01*
X138819882Y-71841493D01*
X138816739Y-71704003D01*
X139567591Y-71704003D01*
X139573366Y-71917432D01*
X139577701Y-72077629D01*
X139660089Y-72382941D01*
X139912928Y-72542924D01*
X140436543Y-72668991D01*
X141232926Y-72771220D01*
X142543519Y-72736677D01*
X143863275Y-72500469D01*
X145021807Y-72084321D01*
X146109045Y-71446502D01*
X147332982Y-70372920D01*
X148256468Y-69080543D01*
X148862665Y-67594521D01*
X149134738Y-65940009D01*
X149191777Y-64947033D01*
X148139280Y-65489986D01*
X146601879Y-66078317D01*
X146051715Y-66163071D01*
X144930897Y-66335735D01*
X143212547Y-66244092D01*
X141929438Y-66042511D01*
X141826825Y-66026390D01*
X140892485Y-67389349D01*
X140602087Y-67832194D01*
X140388102Y-68237073D01*
X140049914Y-68876957D01*
X139759063Y-69836620D01*
X139689808Y-70266334D01*
X139599626Y-71055650D01*
X139567591Y-71704003D01*
X138816739Y-71704003D01*
X138812310Y-71510252D01*
X138824125Y-70871197D01*
X138866563Y-70419724D01*
X138888381Y-70218202D01*
X138771428Y-69969130D01*
X138370164Y-69792456D01*
X137613258Y-69488818D01*
X137490164Y-69410809D01*
X136633212Y-68867722D01*
X135904600Y-68108862D01*
X135677591Y-67726401D01*
X135352722Y-66732107D01*
X135318159Y-65988513D01*
X136042780Y-65988513D01*
X136063621Y-66629287D01*
X136121867Y-66849387D01*
X136359713Y-67364533D01*
X136688074Y-67856601D01*
X137028023Y-68216697D01*
X137300635Y-68335932D01*
X137416991Y-68210316D01*
X137486899Y-67790358D01*
X137471005Y-67163593D01*
X137377530Y-66420030D01*
X137214694Y-65649677D01*
X136990718Y-64942544D01*
X136857274Y-64665479D01*
X136627143Y-64490132D01*
X136395187Y-64693677D01*
X136161152Y-65276217D01*
X136148916Y-65318140D01*
X136042780Y-65988513D01*
X135318159Y-65988513D01*
X135303696Y-65677345D01*
X135545515Y-64704350D01*
X135612134Y-64569533D01*
X135988320Y-63996175D01*
X136095095Y-63865909D01*
X137403398Y-63865909D01*
X137621053Y-64489821D01*
X137808478Y-65025059D01*
X138005060Y-65841854D01*
X138137294Y-66690720D01*
X138139815Y-66714548D01*
X138203814Y-67457320D01*
X138233778Y-68095625D01*
X138223236Y-68493606D01*
X138256961Y-68837359D01*
X138577080Y-69056762D01*
X138852160Y-69136462D01*
X139089855Y-69175303D01*
X139165108Y-69075102D01*
X139250706Y-68679392D01*
X139305416Y-68078734D01*
X139324424Y-67375410D01*
X139302911Y-66671704D01*
X139236066Y-66069899D01*
X139188500Y-65832434D01*
X139068160Y-65402606D01*
X139901021Y-65402606D01*
X139987335Y-65964209D01*
X140158808Y-66936679D01*
X140592360Y-66393609D01*
X140655336Y-66315011D01*
X140941358Y-65965862D01*
X141091748Y-65795462D01*
X141092721Y-65727105D01*
X140897985Y-65521936D01*
X140700109Y-65385827D01*
X142714482Y-65385827D01*
X143396493Y-65541533D01*
X143484373Y-65557872D01*
X144116553Y-65577273D01*
X144964756Y-65504103D01*
X145909996Y-65359346D01*
X146833289Y-65163983D01*
X147615649Y-64938996D01*
X148138091Y-64705370D01*
X148655769Y-64366505D01*
X147860196Y-64220937D01*
X147309520Y-64180525D01*
X146478492Y-64219004D01*
X145571242Y-64338693D01*
X145487647Y-64353846D01*
X144668994Y-64539938D01*
X143920959Y-64768622D01*
X143396172Y-64993921D01*
X142714482Y-65385827D01*
X140700109Y-65385827D01*
X140556641Y-65287142D01*
X140190169Y-65114479D01*
X140043114Y-65076807D01*
X139913360Y-65133002D01*
X139901021Y-65402606D01*
X139068160Y-65402606D01*
X138982783Y-65097661D01*
X138711586Y-64383137D01*
X138415332Y-63775471D01*
X138134439Y-63361276D01*
X137909334Y-63227163D01*
X137745192Y-63267394D01*
X137440464Y-63477322D01*
X137403398Y-63865909D01*
X136095095Y-63865909D01*
X136497409Y-63375082D01*
X137030662Y-62830869D01*
X137479339Y-62488153D01*
X137536495Y-62324920D01*
X137368230Y-61923690D01*
X137266220Y-61721263D01*
X137047532Y-61140591D01*
X136860604Y-60477390D01*
X136774555Y-60106468D01*
X137467140Y-60106468D01*
X137591678Y-60533560D01*
X137880144Y-61208360D01*
X138160701Y-61777766D01*
X139000176Y-63029589D01*
X140017611Y-64056850D01*
X141143377Y-64783268D01*
X141759073Y-65076324D01*
X142852132Y-64462959D01*
X143927086Y-63972670D01*
X145444498Y-63566618D01*
X147001658Y-63427395D01*
X148468192Y-63575601D01*
X148494667Y-63580645D01*
X148723884Y-63492676D01*
X148726747Y-63134987D01*
X148509076Y-62535144D01*
X148507661Y-62532478D01*
X149473490Y-62532478D01*
X149772433Y-64227864D01*
X150071375Y-65923251D01*
X150618934Y-65714858D01*
X150816816Y-65621052D01*
X151349306Y-65151940D01*
X151686020Y-64522258D01*
X151743814Y-63868480D01*
X151521785Y-63345530D01*
X151070848Y-62850815D01*
X150516144Y-62518158D01*
X149976913Y-62443711D01*
X149473490Y-62532478D01*
X148507661Y-62532478D01*
X148076688Y-61720716D01*
X147986814Y-61575553D01*
X147229287Y-60652969D01*
X146234059Y-59792734D01*
X145121122Y-59086205D01*
X144010467Y-58624746D01*
X143551174Y-58512356D01*
X142115988Y-58369417D01*
X140628333Y-58487229D01*
X139210659Y-58849244D01*
X137985419Y-59438916D01*
X137732887Y-59608105D01*
X137512288Y-59830258D01*
X137467140Y-60106468D01*
X136774555Y-60106468D01*
X136634609Y-59503218D01*
X137425111Y-58938312D01*
X137841087Y-58677347D01*
X138603650Y-58288001D01*
X139377285Y-57971677D01*
X139716382Y-57863837D01*
X141316992Y-57584973D01*
X142942301Y-57645973D01*
G37*
G36*
X108444022Y-86712569D02*
G01*
X108351784Y-86999931D01*
X108190846Y-87142171D01*
X107742185Y-87381277D01*
X107186682Y-87588854D01*
X106670273Y-87713786D01*
X106338897Y-87704957D01*
X106209821Y-87589773D01*
X106285194Y-87342779D01*
X106683990Y-87040752D01*
X107379618Y-86709139D01*
X107824361Y-86574260D01*
X108245147Y-86563778D01*
X108444022Y-86712569D01*
G37*
G36*
X107590735Y-84648278D02*
G01*
X107816410Y-84829051D01*
X107797474Y-84933558D01*
X107531802Y-85145674D01*
X107055170Y-85330530D01*
X106478965Y-85450668D01*
X105914572Y-85468629D01*
X105581470Y-85408080D01*
X105381797Y-85246390D01*
X105531351Y-85035339D01*
X106023369Y-84815531D01*
X106430733Y-84703723D01*
X107099634Y-84606281D01*
X107590735Y-84648278D01*
G37*
G36*
X106663891Y-80139814D02*
G01*
X107189793Y-80331508D01*
X107687677Y-80564594D01*
X108045165Y-80791313D01*
X108149877Y-80963903D01*
X107911610Y-81087996D01*
X107437585Y-81087715D01*
X106848783Y-80973120D01*
X106264845Y-80757323D01*
X105945854Y-80556337D01*
X105797809Y-80282830D01*
X106004296Y-80052059D01*
X106222351Y-80037271D01*
X106663891Y-80139814D01*
G37*
G36*
X109140049Y-76101544D02*
G01*
X109516702Y-76327105D01*
X109882578Y-76722460D01*
X110166350Y-77185971D01*
X110296689Y-77616001D01*
X110202267Y-77910916D01*
X110044539Y-77951893D01*
X109740852Y-77771373D01*
X109287047Y-77296110D01*
X108861858Y-76774497D01*
X108655103Y-76421086D01*
X108682806Y-76214436D01*
X108926568Y-76093147D01*
X109140049Y-76101544D01*
G37*
G36*
X109448930Y-88498235D02*
G01*
X109402152Y-88621489D01*
X109135365Y-88946127D01*
X108722223Y-89316970D01*
X108265266Y-89654400D01*
X107867031Y-89878798D01*
X107630057Y-89910546D01*
X107486610Y-89765325D01*
X107498040Y-89580793D01*
X107728785Y-89304355D01*
X108218631Y-88865359D01*
X108560215Y-88591663D01*
X109052799Y-88296261D01*
X109360564Y-88261678D01*
X109448930Y-88498235D01*
G37*
G36*
X107273707Y-77874115D02*
G01*
X107649790Y-78028760D01*
X108135844Y-78302698D01*
X108619206Y-78624528D01*
X108987216Y-78922842D01*
X109127216Y-79126241D01*
X109078127Y-79264658D01*
X108796100Y-79363717D01*
X108323060Y-79232946D01*
X107723725Y-78883537D01*
X107453906Y-78684853D01*
X107048904Y-78315934D01*
X106953241Y-78057208D01*
X107144664Y-77869715D01*
X107273707Y-77874115D01*
G37*
G36*
X106564344Y-82481056D02*
G01*
X107021343Y-82526633D01*
X107447712Y-82604759D01*
X107621722Y-82721097D01*
X107619581Y-82906361D01*
X107565020Y-83020462D01*
X107277585Y-83179182D01*
X106700309Y-83218492D01*
X106498950Y-83212025D01*
X105957910Y-83161864D01*
X105619772Y-83082360D01*
X105511858Y-82999254D01*
X105392212Y-82669894D01*
X105400951Y-82620979D01*
X105540523Y-82486501D01*
X105903364Y-82443880D01*
X106564344Y-82481056D01*
G37*
G36*
X116577296Y-75712418D02*
G01*
X118131436Y-76192001D01*
X119564960Y-76969800D01*
X120821361Y-78009359D01*
X121844126Y-79274219D01*
X122576747Y-80727921D01*
X122582004Y-80742114D01*
X122815851Y-81326487D01*
X123035504Y-81656303D01*
X123347142Y-81833875D01*
X123856941Y-81961519D01*
X123908107Y-81972275D01*
X124467040Y-82057501D01*
X124808850Y-82004802D01*
X125067136Y-81795893D01*
X125500138Y-81315469D01*
X125914800Y-80885886D01*
X126169546Y-80685864D01*
X126312758Y-80680296D01*
X126392824Y-80834081D01*
X126403339Y-80945642D01*
X126269660Y-81401712D01*
X125928146Y-81999642D01*
X125695013Y-82352605D01*
X125500632Y-82733193D01*
X125478871Y-83034364D01*
X125597303Y-83392660D01*
X125715798Y-83759567D01*
X125745438Y-84666693D01*
X125407754Y-85526617D01*
X125294652Y-85714060D01*
X125191726Y-86015234D01*
X125251072Y-86355111D01*
X125480653Y-86881646D01*
X125699889Y-87432965D01*
X125826824Y-87999500D01*
X125801968Y-88390970D01*
X125618365Y-88524422D01*
X125488327Y-88421081D01*
X125230666Y-88056329D01*
X124934081Y-87522018D01*
X124689720Y-87054353D01*
X124461651Y-86730285D01*
X124242335Y-86626991D01*
X123951046Y-86674909D01*
X123552209Y-86749673D01*
X122954664Y-86769881D01*
X122914670Y-86766891D01*
X122809776Y-86781045D01*
X122584045Y-86811505D01*
X122316609Y-87049089D01*
X122015621Y-87561162D01*
X121996127Y-87597784D01*
X121617518Y-88155594D01*
X121065834Y-88807947D01*
X120453344Y-89421180D01*
X120084141Y-89738124D01*
X118633986Y-90688439D01*
X117069206Y-91295737D01*
X115432487Y-91552041D01*
X113771853Y-91449701D01*
X113766516Y-91449373D01*
X112113979Y-90979755D01*
X112070892Y-90962402D01*
X111231100Y-90594732D01*
X110702317Y-90264598D01*
X110433882Y-89905744D01*
X110375135Y-89451915D01*
X110406248Y-89261087D01*
X111146295Y-89261087D01*
X111146854Y-89577319D01*
X111349671Y-89797291D01*
X111822816Y-90054583D01*
X112565604Y-90359448D01*
X113840481Y-90665288D01*
X115176402Y-90778707D01*
X116403166Y-90676589D01*
X117618436Y-90341901D01*
X119078532Y-89621679D01*
X120305042Y-88612354D01*
X121275195Y-87333863D01*
X121863886Y-86032377D01*
X122875276Y-86032377D01*
X123458113Y-85972804D01*
X123673531Y-85933410D01*
X124309292Y-85618101D01*
X124797507Y-85097023D01*
X125022541Y-84480480D01*
X124943427Y-83917884D01*
X124635898Y-83323315D01*
X124186192Y-82858424D01*
X123684604Y-82646951D01*
X123175360Y-82602398D01*
X123025318Y-84317387D01*
X122875276Y-86032377D01*
X121863886Y-86032377D01*
X121966216Y-85806144D01*
X122278312Y-84861766D01*
X121121152Y-85113813D01*
X119483865Y-85284188D01*
X118930512Y-85223661D01*
X117803196Y-85100353D01*
X116167116Y-84567091D01*
X114979902Y-84040285D01*
X114884957Y-83998155D01*
X113629695Y-85072847D01*
X113234575Y-85425442D01*
X112923091Y-85761142D01*
X112430812Y-86291693D01*
X111901493Y-87143379D01*
X111723379Y-87540526D01*
X111431981Y-88279606D01*
X111233231Y-88897576D01*
X111183570Y-89105227D01*
X111146295Y-89261087D01*
X110406248Y-89261087D01*
X110475414Y-88836859D01*
X110553832Y-88514945D01*
X110730644Y-87900723D01*
X110888486Y-87475617D01*
X110961717Y-87286610D01*
X110913214Y-87015755D01*
X110571349Y-86741246D01*
X109918821Y-86252053D01*
X109820113Y-86144843D01*
X109492850Y-85789394D01*
X110709201Y-85789394D01*
X110961626Y-86084174D01*
X111206706Y-86232354D01*
X111426249Y-86331391D01*
X111524871Y-86254082D01*
X111709970Y-85894010D01*
X111918277Y-85327978D01*
X112118671Y-84653539D01*
X112167604Y-84445713D01*
X113038176Y-84445713D01*
X113597513Y-84033359D01*
X113678685Y-83973738D01*
X114045328Y-83710514D01*
X114198052Y-83609162D01*
X115908158Y-83609162D01*
X116526631Y-83936079D01*
X116607288Y-83974606D01*
X117212904Y-84156966D01*
X118051144Y-84305821D01*
X119001642Y-84410642D01*
X119944037Y-84460902D01*
X120757970Y-84446071D01*
X121323078Y-84355624D01*
X121910820Y-84162290D01*
X121180031Y-83815773D01*
X120658579Y-83634213D01*
X119845908Y-83456295D01*
X118938595Y-83337091D01*
X118853926Y-83330092D01*
X118015004Y-83297960D01*
X117233270Y-83325246D01*
X116668053Y-83407044D01*
X115908158Y-83609162D01*
X114198052Y-83609162D01*
X114234696Y-83584844D01*
X114253328Y-83519068D01*
X114118329Y-83270489D01*
X113849385Y-82955349D01*
X113540089Y-82693719D01*
X113407795Y-82619270D01*
X113267918Y-82639968D01*
X113186220Y-82897191D01*
X113124240Y-83461998D01*
X113038176Y-84445713D01*
X112167604Y-84445713D01*
X112280025Y-83968243D01*
X112371215Y-83369644D01*
X112386730Y-83127959D01*
X112378197Y-82364980D01*
X112301173Y-81604611D01*
X112172288Y-80940975D01*
X112008169Y-80468193D01*
X111825445Y-80280388D01*
X111656483Y-80276765D01*
X111307805Y-80400671D01*
X111171428Y-80766424D01*
X111220187Y-81425410D01*
X111262696Y-81990919D01*
X111241178Y-82830762D01*
X111149203Y-83684928D01*
X111145471Y-83708597D01*
X111015045Y-84442623D01*
X110878783Y-85066934D01*
X110765595Y-85448626D01*
X110709201Y-85789394D01*
X109492850Y-85789394D01*
X109132922Y-85398466D01*
X108625544Y-84476884D01*
X108505258Y-84048701D01*
X108465684Y-83316557D01*
X109161383Y-83316557D01*
X109257796Y-83875710D01*
X109447612Y-84435996D01*
X109682777Y-84871808D01*
X109915240Y-85057537D01*
X110060143Y-84966317D01*
X110236363Y-84578762D01*
X110383229Y-83969240D01*
X110485387Y-83226820D01*
X110527481Y-82440571D01*
X110494156Y-81699564D01*
X110436970Y-81397402D01*
X110260063Y-81168467D01*
X109983329Y-81305042D01*
X109606497Y-81807160D01*
X109583827Y-81844488D01*
X109307802Y-82464548D01*
X109162088Y-83088882D01*
X109161383Y-83316557D01*
X108465684Y-83316557D01*
X108448801Y-83004205D01*
X108674438Y-81972693D01*
X109159847Y-81095440D01*
X109259089Y-80982459D01*
X109770853Y-80526002D01*
X110423346Y-80057834D01*
X111079281Y-79670180D01*
X111601372Y-79455269D01*
X111698827Y-79312391D01*
X111640143Y-78881283D01*
X111594000Y-78659351D01*
X111533052Y-78041864D01*
X111524143Y-77352881D01*
X111530959Y-77151580D01*
X112206013Y-77151580D01*
X112215768Y-77596352D01*
X112319754Y-78322820D01*
X112443379Y-78945437D01*
X112930253Y-80371877D01*
X113647145Y-81627467D01*
X114546541Y-82620502D01*
X115065409Y-83062927D01*
X116279973Y-82753366D01*
X117445195Y-82558001D01*
X119015997Y-82558521D01*
X120556132Y-82827064D01*
X121934336Y-83349787D01*
X121958604Y-83361511D01*
X122202778Y-83335866D01*
X122298121Y-82991106D01*
X122243117Y-82355365D01*
X122036252Y-81456777D01*
X121987011Y-81293299D01*
X121494078Y-80206089D01*
X120755407Y-79117581D01*
X119863256Y-78147078D01*
X118909880Y-77413884D01*
X118495326Y-77186450D01*
X117146038Y-76676928D01*
X115678582Y-76405692D01*
X114215517Y-76388451D01*
X112879408Y-76640915D01*
X112591691Y-76738979D01*
X112321112Y-76896467D01*
X112206013Y-77151580D01*
X111530959Y-77151580D01*
X111557983Y-76353411D01*
X112467758Y-76012350D01*
X112937102Y-75867939D01*
X113774452Y-75689226D01*
X114603596Y-75583912D01*
X114959050Y-75567512D01*
X116577296Y-75712418D01*
G37*
G36*
X181648683Y-77105557D02*
G01*
X182054999Y-77411131D01*
X182477893Y-77826863D01*
X182809364Y-78242089D01*
X182941408Y-78546149D01*
X182891566Y-78711811D01*
X182635858Y-78747884D01*
X182193591Y-78514094D01*
X181599062Y-78023786D01*
X181288864Y-77677715D01*
X181101533Y-77300783D01*
X181152334Y-77057660D01*
X181451754Y-77019810D01*
X181648683Y-77105557D01*
G37*
G36*
X180117766Y-78546610D02*
G01*
X180486736Y-78900461D01*
X180839133Y-79371908D01*
X181093934Y-79875831D01*
X181179833Y-80203314D01*
X181117677Y-80452612D01*
X180863196Y-80406263D01*
X180456046Y-80053239D01*
X180182554Y-79731294D01*
X179811552Y-79166245D01*
X179642066Y-78703408D01*
X179710528Y-78422478D01*
X179813246Y-78395473D01*
X180117766Y-78546610D01*
G37*
G36*
X176279747Y-79917236D02*
G01*
X176479824Y-80346967D01*
X176624804Y-80929033D01*
X176676008Y-81549460D01*
X176628664Y-81923504D01*
X176443350Y-82173268D01*
X176146935Y-82083655D01*
X176041378Y-81892280D01*
X175947711Y-81448772D01*
X175899189Y-80891130D01*
X175900022Y-80341387D01*
X175954418Y-79921577D01*
X176066585Y-79753737D01*
X176279747Y-79917236D01*
G37*
G36*
X172536058Y-79309520D02*
G01*
X172500795Y-79661045D01*
X172261846Y-80273187D01*
X171968798Y-80878982D01*
X171735876Y-81215724D01*
X171536880Y-81277951D01*
X171323937Y-81108286D01*
X171241326Y-80911257D01*
X171286573Y-80474567D01*
X171490261Y-79975887D01*
X171790417Y-79522814D01*
X172125073Y-79222949D01*
X172432261Y-79183888D01*
X172536058Y-79309520D01*
G37*
G36*
X182884451Y-75487148D02*
G01*
X183395151Y-75704856D01*
X183894084Y-75976396D01*
X184265759Y-76242485D01*
X184394683Y-76443838D01*
X184323690Y-76635219D01*
X184151618Y-76702846D01*
X183803563Y-76610548D01*
X183198679Y-76352125D01*
X182806267Y-76158213D01*
X182330366Y-75836623D01*
X182168957Y-75572309D01*
X182346005Y-75392249D01*
X182477480Y-75382554D01*
X182884451Y-75487148D01*
G37*
G36*
X174343218Y-79844327D02*
G01*
X174424615Y-80328314D01*
X174361232Y-81019162D01*
X174295194Y-81347669D01*
X174132001Y-81870637D01*
X173937945Y-82066679D01*
X173687119Y-81972430D01*
X173636571Y-81853617D01*
X173617788Y-81447414D01*
X173660645Y-80891129D01*
X173748044Y-80317043D01*
X173862880Y-79857439D01*
X173988056Y-79644597D01*
X174134250Y-79630588D01*
X174343218Y-79844327D01*
G37*
G36*
X178177631Y-79414657D02*
G01*
X178442955Y-79608084D01*
X178722550Y-80114661D01*
X178801787Y-80299887D01*
X178984980Y-80811435D01*
X179055827Y-81151492D01*
X179026114Y-81284418D01*
X178778178Y-81532047D01*
X178730152Y-81544799D01*
X178549287Y-81475137D01*
X178357317Y-81164303D01*
X178111667Y-80549541D01*
X177959838Y-80116097D01*
X177850453Y-79696659D01*
X177882351Y-79489785D01*
X178051162Y-79413429D01*
X178177631Y-79414657D01*
G37*
G36*
X175536240Y-60726697D02*
G01*
X175497538Y-60888225D01*
X175275852Y-61275896D01*
X174916945Y-61770502D01*
X174596367Y-62189613D01*
X174399048Y-62533271D01*
X174398119Y-62775693D01*
X174564651Y-63019439D01*
X174800967Y-63349311D01*
X175071814Y-63882331D01*
X175086006Y-63919841D01*
X175143165Y-64008926D01*
X175266169Y-64200634D01*
X175594516Y-64342606D01*
X176185815Y-64398983D01*
X176227245Y-64401173D01*
X176892799Y-64508569D01*
X177717183Y-64732868D01*
X178531811Y-65028809D01*
X178975092Y-65229474D01*
X180449232Y-66142141D01*
X181660936Y-67303658D01*
X182584933Y-68678710D01*
X183193995Y-70227006D01*
X183195953Y-70231982D01*
X183468727Y-71928158D01*
X183471210Y-71974542D01*
X183492899Y-72891036D01*
X183417169Y-73509797D01*
X183205382Y-73904740D01*
X182818902Y-74149778D01*
X182219092Y-74318830D01*
X181894198Y-74383805D01*
X181262800Y-74483141D01*
X180810816Y-74519745D01*
X180608568Y-74533252D01*
X180383588Y-74691679D01*
X180279277Y-75117527D01*
X180111688Y-75915660D01*
X180056239Y-76050429D01*
X179670211Y-76988668D01*
X179049401Y-77837986D01*
X178712171Y-78127960D01*
X177789395Y-78620550D01*
X176759170Y-78851990D01*
X175758966Y-78782803D01*
X175614629Y-78740607D01*
X174984658Y-78469699D01*
X174284598Y-78076195D01*
X173815523Y-77754806D01*
X175360180Y-77754806D01*
X175600911Y-77947893D01*
X176215241Y-78077215D01*
X176258652Y-78081985D01*
X176937271Y-78070100D01*
X177564691Y-77938307D01*
X177771332Y-77842726D01*
X178237351Y-77519038D01*
X178664923Y-77110219D01*
X178960518Y-76712905D01*
X179030603Y-76423730D01*
X178886690Y-76330954D01*
X178460972Y-76335033D01*
X177846489Y-76459522D01*
X177130455Y-76680696D01*
X176400081Y-76974829D01*
X175742585Y-77318194D01*
X175492901Y-77497722D01*
X175360180Y-77754806D01*
X173815523Y-77754806D01*
X173656054Y-77645545D01*
X173240633Y-77263196D01*
X173069955Y-77235255D01*
X172704040Y-77470635D01*
X172522402Y-77606247D01*
X171988526Y-77922446D01*
X171367861Y-78221697D01*
X170447732Y-78613421D01*
X169754138Y-77933024D01*
X169424905Y-77568685D01*
X168909056Y-76885315D01*
X168463198Y-76178363D01*
X168298112Y-75863143D01*
X167745542Y-74335275D01*
X167523383Y-72724065D01*
X167569040Y-71973996D01*
X168270874Y-71973996D01*
X168379324Y-73412200D01*
X168753675Y-74856796D01*
X169356367Y-76190069D01*
X170149841Y-77294299D01*
X170360312Y-77513615D01*
X170617396Y-77692287D01*
X170897250Y-77688786D01*
X171296227Y-77491976D01*
X171910684Y-77090715D01*
X172422721Y-76715543D01*
X172427027Y-76711407D01*
X173893748Y-76711407D01*
X173961870Y-76866069D01*
X174221525Y-77129713D01*
X174610645Y-77098740D01*
X175187283Y-76776049D01*
X175681843Y-76498529D01*
X176452093Y-76163098D01*
X177265101Y-75885469D01*
X177288129Y-75878849D01*
X178008504Y-75686842D01*
X178631908Y-75546492D01*
X179025673Y-75487765D01*
X179358348Y-75394860D01*
X179518830Y-75041506D01*
X179549551Y-74756765D01*
X179546527Y-74515937D01*
X179434781Y-74459227D01*
X179030219Y-74443644D01*
X178429185Y-74494068D01*
X177733246Y-74597480D01*
X177043966Y-74740862D01*
X176462912Y-74911195D01*
X176237314Y-74999274D01*
X175549426Y-75329457D01*
X174892850Y-75720609D01*
X174345860Y-76117884D01*
X173986734Y-76466433D01*
X173893748Y-76711407D01*
X172427027Y-76711407D01*
X173509753Y-75671446D01*
X174344732Y-74491086D01*
X174429878Y-74288856D01*
X175344764Y-74288856D01*
X175422638Y-74406881D01*
X175690288Y-74372217D01*
X176228371Y-74189692D01*
X177156291Y-73851956D01*
X176546186Y-73519294D01*
X176457846Y-73470924D01*
X176064335Y-73249876D01*
X175870409Y-73131360D01*
X175802921Y-73142272D01*
X175634685Y-73369676D01*
X175462731Y-73746607D01*
X175356329Y-74137494D01*
X175344764Y-74288856D01*
X174429878Y-74288856D01*
X174864626Y-73256281D01*
X175046316Y-72599050D01*
X174252462Y-71629107D01*
X173582957Y-70655622D01*
X172919578Y-69231772D01*
X172512072Y-67722445D01*
X172439357Y-66739154D01*
X173144475Y-66739154D01*
X173200301Y-67288481D01*
X173382502Y-68100202D01*
X173657915Y-68972885D01*
X173687354Y-69052579D01*
X174012776Y-69826480D01*
X174367881Y-70523440D01*
X174680885Y-71001131D01*
X175185212Y-71604412D01*
X175220122Y-70905724D01*
X175220953Y-70816341D01*
X175130282Y-70190397D01*
X174910935Y-69367786D01*
X174604238Y-68462043D01*
X174251514Y-67586701D01*
X173894091Y-66855295D01*
X173573292Y-66381359D01*
X173149682Y-65930390D01*
X173144475Y-66739154D01*
X172439357Y-66739154D01*
X172403366Y-66252456D01*
X172403736Y-66225507D01*
X172277301Y-66015048D01*
X171924548Y-66074340D01*
X171371617Y-66392866D01*
X170644645Y-66960110D01*
X170517293Y-67073825D01*
X169740269Y-67980049D01*
X169065922Y-69109536D01*
X168563387Y-70328251D01*
X168301801Y-71502165D01*
X168270874Y-71973996D01*
X167569040Y-71973996D01*
X167622476Y-71096138D01*
X168033658Y-69518116D01*
X168747771Y-68056623D01*
X169755653Y-66778282D01*
X169766295Y-66767519D01*
X170197089Y-66308616D01*
X170403174Y-65970156D01*
X170432406Y-65612671D01*
X170332640Y-65096692D01*
X170320765Y-65045773D01*
X170161790Y-64503190D01*
X170105665Y-64419240D01*
X171006364Y-64419240D01*
X171026685Y-64963206D01*
X171201522Y-65443566D01*
X171591249Y-65301717D01*
X173628313Y-65301717D01*
X174345783Y-66243942D01*
X175192142Y-67655823D01*
X175371143Y-68182912D01*
X175735812Y-69256719D01*
X175943950Y-70964877D01*
X175968241Y-72263497D01*
X175970183Y-72367351D01*
X177474682Y-73050820D01*
X177961226Y-73259908D01*
X178397112Y-73400335D01*
X179086001Y-73622270D01*
X180081590Y-73742059D01*
X180516802Y-73735642D01*
X181309786Y-73687391D01*
X181953853Y-73606354D01*
X182163036Y-73563605D01*
X182320047Y-73531518D01*
X182606414Y-73397366D01*
X182720062Y-73120587D01*
X182753288Y-72583035D01*
X182715673Y-71781000D01*
X182454073Y-70496315D01*
X181992280Y-69237627D01*
X181381277Y-68168958D01*
X180564352Y-67208994D01*
X179294546Y-66190077D01*
X177861441Y-65505040D01*
X176292730Y-65166097D01*
X174616109Y-65185461D01*
X173628313Y-65301717D01*
X171591249Y-65301717D01*
X172819240Y-64854765D01*
X174436960Y-64265963D01*
X174136651Y-63762910D01*
X174009908Y-63584324D01*
X173455457Y-63141384D01*
X172776871Y-62919128D01*
X172122990Y-62975740D01*
X171646540Y-63285205D01*
X171237644Y-63815197D01*
X171006364Y-64419240D01*
X170105665Y-64419240D01*
X169969574Y-64215677D01*
X169671081Y-64069879D01*
X169052674Y-63880482D01*
X168488096Y-63686220D01*
X168199154Y-63539875D01*
X168133584Y-63412434D01*
X168239123Y-63274877D01*
X168335788Y-63218199D01*
X168805623Y-63146610D01*
X169491862Y-63203431D01*
X169910281Y-63265553D01*
X170337360Y-63280878D01*
X170619510Y-63173320D01*
X170894185Y-62914561D01*
X171176638Y-62652107D01*
X171986247Y-62241876D01*
X172908313Y-62184502D01*
X173125994Y-62207790D01*
X173442449Y-62173792D01*
X173725401Y-61976367D01*
X174105579Y-61545773D01*
X174512590Y-61114080D01*
X174972400Y-60759610D01*
X175337698Y-60616695D01*
X175536240Y-60726697D01*
G37*
G36*
X183250683Y-108312391D02*
G01*
X183378355Y-108485114D01*
X183577448Y-108952907D01*
X183735819Y-109524388D01*
X183815268Y-110049720D01*
X183777592Y-110379066D01*
X183651596Y-110497612D01*
X183412111Y-110400998D01*
X183145990Y-109977397D01*
X182876267Y-109255514D01*
X182780664Y-108800708D01*
X182806896Y-108380610D01*
X182972453Y-108195459D01*
X183250683Y-108312391D01*
G37*
G36*
X181143861Y-108684495D02*
G01*
X181332016Y-108967644D01*
X181474627Y-109458573D01*
X181544088Y-110043057D01*
X181512791Y-110606868D01*
X181423440Y-110933425D01*
X181244963Y-111118246D01*
X181047750Y-110950866D01*
X180871660Y-110441563D01*
X180795782Y-110026005D01*
X180757009Y-109351156D01*
X180841648Y-108865585D01*
X181041403Y-108656524D01*
X181143861Y-108684495D01*
G37*
G36*
X177322880Y-108235632D02*
G01*
X177281287Y-108707828D01*
X177115811Y-109284402D01*
X176849941Y-109847310D01*
X176621918Y-110147570D01*
X176336549Y-110271214D01*
X176124653Y-110045399D01*
X176128925Y-109826885D01*
X176269561Y-109395963D01*
X176506361Y-108888769D01*
X176781953Y-108413095D01*
X177038967Y-108076727D01*
X177220026Y-107987456D01*
X177322880Y-108235632D01*
G37*
G36*
X174357534Y-105676790D02*
G01*
X174384609Y-105837489D01*
X174178307Y-106124287D01*
X173665301Y-106534944D01*
X173108616Y-106913053D01*
X172738529Y-107088220D01*
X172535080Y-107042611D01*
X172435498Y-106789206D01*
X172462470Y-106577269D01*
X172720000Y-106221708D01*
X173145738Y-105891682D01*
X173632218Y-105649387D01*
X174071971Y-105557024D01*
X174357534Y-105676790D01*
G37*
G36*
X184957616Y-107407348D02*
G01*
X185257766Y-107701414D01*
X185591191Y-108145306D01*
X185887510Y-108629932D01*
X186076346Y-109046210D01*
X186087320Y-109285049D01*
X185930148Y-109415293D01*
X185747315Y-109387824D01*
X185492040Y-109133864D01*
X185097407Y-108607620D01*
X184854524Y-108243482D01*
X184603177Y-107727026D01*
X184595550Y-107417419D01*
X184838908Y-107350007D01*
X184957616Y-107407348D01*
G37*
G36*
X175608150Y-106914639D02*
G01*
X175682251Y-107204226D01*
X175510750Y-107664069D01*
X175110435Y-108230670D01*
X174888990Y-108482146D01*
X174486177Y-108853454D01*
X174220099Y-108926203D01*
X174050002Y-108719167D01*
X174065633Y-108590999D01*
X174252467Y-108229825D01*
X174567725Y-107769496D01*
X174930458Y-107316023D01*
X175259711Y-106975413D01*
X175474538Y-106853673D01*
X175608150Y-106914639D01*
G37*
G36*
X179108875Y-108685030D02*
G01*
X179217786Y-108749328D01*
X179350850Y-109049503D01*
X179339698Y-109628008D01*
X179315706Y-109828037D01*
X179218581Y-110362647D01*
X179109909Y-110692568D01*
X179017713Y-110792829D01*
X178679180Y-110883314D01*
X178631212Y-110870344D01*
X178509410Y-110719583D01*
X178498575Y-110354408D01*
X178593218Y-109699184D01*
X178678452Y-109247896D01*
X178793441Y-108829959D01*
X178924502Y-108666750D01*
X179108875Y-108685030D01*
G37*
G36*
X179235413Y-89974781D02*
G01*
X179801303Y-90367109D01*
X180132603Y-90630118D01*
X180494801Y-90856930D01*
X180792930Y-90904856D01*
X181160184Y-90818102D01*
X181536023Y-90732036D01*
X182442281Y-90781571D01*
X183269500Y-91192916D01*
X183446373Y-91321925D01*
X183737430Y-91450709D01*
X184081186Y-91421210D01*
X184625728Y-91238394D01*
X185194056Y-91068043D01*
X185769498Y-90990967D01*
X186157312Y-91049848D01*
X186274254Y-91244383D01*
X186159973Y-91364920D01*
X185774152Y-91589810D01*
X185216026Y-91838698D01*
X184728843Y-92041369D01*
X184386130Y-92240327D01*
X184264114Y-92449805D01*
X184286462Y-92744162D01*
X184326182Y-93147997D01*
X184294233Y-93745030D01*
X184287768Y-93784610D01*
X184292727Y-93890340D01*
X184303397Y-94117866D01*
X184516768Y-94404991D01*
X185000660Y-94749464D01*
X185035444Y-94772076D01*
X185558133Y-95197860D01*
X186159921Y-95804301D01*
X186717439Y-96467908D01*
X187000999Y-96863329D01*
X187821308Y-98390791D01*
X188289916Y-100002546D01*
X188402595Y-101655375D01*
X188155910Y-103300770D01*
X188155118Y-103306059D01*
X187543259Y-104911377D01*
X187522217Y-104952788D01*
X187082754Y-105757340D01*
X186707789Y-106255338D01*
X186326905Y-106491475D01*
X185869683Y-106510444D01*
X185265707Y-106356942D01*
X184951853Y-106250765D01*
X184355378Y-106021093D01*
X183945647Y-105826802D01*
X183763741Y-105737375D01*
X183489690Y-105762087D01*
X183186430Y-106078726D01*
X182642227Y-106686135D01*
X182526821Y-106775124D01*
X181723392Y-107394649D01*
X180761096Y-107819775D01*
X180324059Y-107902285D01*
X179278617Y-107867493D01*
X178270696Y-107552813D01*
X177439088Y-106992793D01*
X177335186Y-106884082D01*
X176925069Y-106334483D01*
X176669360Y-105903129D01*
X177607727Y-105903129D01*
X177719663Y-106190712D01*
X178187027Y-106609873D01*
X178222237Y-106635710D01*
X178815881Y-106964727D01*
X179425139Y-107164300D01*
X179651886Y-107184846D01*
X180217314Y-107137533D01*
X180792012Y-106997272D01*
X181246661Y-106800985D01*
X181451944Y-106585594D01*
X181373701Y-106433292D01*
X181002979Y-106223965D01*
X180408576Y-106024535D01*
X179677885Y-105858059D01*
X178898297Y-105747599D01*
X178157205Y-105716214D01*
X177851209Y-105746848D01*
X177607727Y-105903129D01*
X176669360Y-105903129D01*
X176515551Y-105643669D01*
X176186541Y-104956443D01*
X176023174Y-104434305D01*
X176841124Y-104434305D01*
X176934169Y-104792455D01*
X177286644Y-104960191D01*
X177947373Y-104969052D01*
X178514434Y-104975993D01*
X179349205Y-105070626D01*
X180192105Y-105236696D01*
X180215359Y-105242477D01*
X180935225Y-105436381D01*
X181545284Y-105626536D01*
X181915658Y-105772561D01*
X182250215Y-105858440D01*
X182565873Y-105632667D01*
X182734850Y-105401435D01*
X182852644Y-105191359D01*
X182784224Y-105086374D01*
X182441655Y-104870597D01*
X181895933Y-104613749D01*
X181241526Y-104355337D01*
X180572900Y-104134870D01*
X179984527Y-103991855D01*
X179745113Y-103955335D01*
X178984294Y-103897338D01*
X178220106Y-103907798D01*
X177547762Y-103978352D01*
X177062475Y-104100642D01*
X176859459Y-104266302D01*
X176841124Y-104434305D01*
X176023174Y-104434305D01*
X176017950Y-104417609D01*
X175884110Y-104308071D01*
X175449528Y-104328959D01*
X175224418Y-104355584D01*
X174603969Y-104362482D01*
X173916832Y-104311308D01*
X172924114Y-104190487D01*
X172663643Y-103254449D01*
X172560689Y-102774305D01*
X172455635Y-101924565D01*
X172440841Y-101546120D01*
X173190641Y-101546120D01*
X173325695Y-102899149D01*
X173398309Y-103194317D01*
X173531615Y-103477593D01*
X173775726Y-103614488D01*
X174219656Y-103643535D01*
X174952422Y-103603261D01*
X175583445Y-103534371D01*
X177046891Y-103173672D01*
X177654644Y-102893820D01*
X179327352Y-102893820D01*
X179335779Y-103034969D01*
X179584904Y-103138774D01*
X180142160Y-103249745D01*
X181114630Y-103421217D01*
X180752595Y-102828070D01*
X180700275Y-102742011D01*
X180470008Y-102353822D01*
X180361321Y-102154221D01*
X180297419Y-102129928D01*
X180038020Y-102242747D01*
X179700639Y-102483202D01*
X179413048Y-102768519D01*
X179327352Y-102893820D01*
X177654644Y-102893820D01*
X178360183Y-102568940D01*
X179427827Y-101759515D01*
X179648347Y-101542457D01*
X180829733Y-101542457D01*
X181790932Y-102886608D01*
X182107748Y-103310956D01*
X182415023Y-103650512D01*
X182900650Y-104187158D01*
X183702962Y-104788693D01*
X184083075Y-105000742D01*
X184793945Y-105355447D01*
X185392241Y-105607300D01*
X185594774Y-105674870D01*
X185746792Y-105725588D01*
X186061870Y-105752591D01*
X186298681Y-105569718D01*
X186596232Y-105120798D01*
X186964674Y-104407407D01*
X187380464Y-103164038D01*
X187609884Y-101843085D01*
X187615074Y-100612090D01*
X187387578Y-99372274D01*
X186797352Y-97854963D01*
X185898765Y-96545151D01*
X184709694Y-95467262D01*
X183248015Y-94645721D01*
X182334431Y-94252504D01*
X182484665Y-95427229D01*
X182511694Y-97073134D01*
X182403169Y-97619107D01*
X182182078Y-98731386D01*
X181508251Y-100314763D01*
X180879978Y-101451546D01*
X180829733Y-101542457D01*
X179648347Y-101542457D01*
X179913791Y-101281181D01*
X179711264Y-100044259D01*
X179640164Y-99144432D01*
X180364054Y-99144432D01*
X180396278Y-99714628D01*
X180531398Y-100489247D01*
X180910975Y-99901620D01*
X180956385Y-99824628D01*
X181190834Y-99237210D01*
X181412180Y-98415134D01*
X181599443Y-97477388D01*
X181731647Y-96542959D01*
X181787812Y-95730831D01*
X181746960Y-95159991D01*
X181605588Y-94557635D01*
X181196697Y-95255442D01*
X180970380Y-95759086D01*
X180722310Y-96553157D01*
X180524483Y-97446629D01*
X180510131Y-97530366D01*
X180405004Y-98363295D01*
X180364054Y-99144432D01*
X179640164Y-99144432D01*
X179618199Y-98866444D01*
X179755621Y-97301664D01*
X180157374Y-95790795D01*
X180798226Y-94463394D01*
X180812021Y-94440241D01*
X180807754Y-94194760D01*
X180472616Y-94069733D01*
X179834500Y-94069119D01*
X178921302Y-94196880D01*
X178754155Y-94231685D01*
X177628120Y-94627985D01*
X176479375Y-95268976D01*
X175434809Y-96073147D01*
X174621312Y-96958993D01*
X174358613Y-97352148D01*
X173733431Y-98651893D01*
X173335331Y-100090126D01*
X173190641Y-101546120D01*
X172440841Y-101546120D01*
X172422987Y-101089398D01*
X172437628Y-100733867D01*
X172723023Y-99134409D01*
X173336233Y-97627981D01*
X174236012Y-96267701D01*
X175381117Y-95106685D01*
X176730304Y-94198052D01*
X178242326Y-93594917D01*
X178256924Y-93590917D01*
X178859454Y-93408891D01*
X179207159Y-93218819D01*
X179246497Y-93161954D01*
X180161843Y-93161954D01*
X181857229Y-93460896D01*
X183552616Y-93759838D01*
X183544068Y-93174027D01*
X183523598Y-92955995D01*
X183264900Y-92295172D01*
X182788355Y-91763400D01*
X182193771Y-91485487D01*
X181626421Y-91515267D01*
X181007311Y-91769806D01*
X180504995Y-92177282D01*
X180250610Y-92658531D01*
X180161843Y-93161954D01*
X179246497Y-93161954D01*
X179411217Y-92923844D01*
X179582807Y-92427110D01*
X179597982Y-92377076D01*
X179731597Y-91827698D01*
X179708889Y-91482596D01*
X179523287Y-91207084D01*
X179082429Y-90733859D01*
X178690621Y-90283334D01*
X178513562Y-90012125D01*
X178520498Y-89868972D01*
X178680675Y-89802613D01*
X178792728Y-89801862D01*
X179235413Y-89974781D01*
G37*
G36*
X134680270Y-135584171D02*
G01*
X134741167Y-135790143D01*
X134768259Y-136297819D01*
X134721622Y-136889002D01*
X134616605Y-137409825D01*
X134468558Y-137706423D01*
X134309615Y-137774727D01*
X134117617Y-137602031D01*
X134012426Y-137112957D01*
X134005867Y-136342358D01*
X134071583Y-135882282D01*
X134239914Y-135496491D01*
X134458812Y-135379131D01*
X134680270Y-135584171D01*
G37*
G36*
X132573238Y-135213259D02*
G01*
X132653203Y-135543684D01*
X132619306Y-136053783D01*
X132484673Y-136626774D01*
X132262428Y-137145879D01*
X132066777Y-137422183D01*
X131835851Y-137534815D01*
X131707779Y-137310079D01*
X131716500Y-136771264D01*
X131787327Y-136354815D01*
X131981704Y-135707404D01*
X132227314Y-135280064D01*
X132486526Y-135151931D01*
X132573238Y-135213259D01*
G37*
G36*
X129136211Y-133484613D02*
G01*
X128935625Y-133914106D01*
X128582929Y-134399312D01*
X128140566Y-134837339D01*
X127823600Y-135041503D01*
X127513152Y-135060089D01*
X127391268Y-134775420D01*
X127470019Y-134571545D01*
X127749558Y-134214711D01*
X128145547Y-133819095D01*
X128567210Y-133466365D01*
X128923768Y-133238186D01*
X129124441Y-133216225D01*
X129136211Y-133484613D01*
G37*
G36*
X126997493Y-129855668D02*
G01*
X127224872Y-130065880D01*
X127195352Y-130226147D01*
X126903401Y-130425090D01*
X126280880Y-130635523D01*
X125628446Y-130800432D01*
X125220768Y-130838457D01*
X125045187Y-130726016D01*
X125038281Y-130453834D01*
X125136112Y-130263903D01*
X125499720Y-130017865D01*
X126012659Y-129853353D01*
X126552670Y-129792056D01*
X126997493Y-129855668D01*
G37*
G36*
X136501868Y-135223030D02*
G01*
X136593805Y-135317514D01*
X136775278Y-135696503D01*
X136936774Y-136227662D01*
X137049471Y-136784410D01*
X137084544Y-137240168D01*
X137013168Y-137468357D01*
X136820929Y-137536990D01*
X136658517Y-137448646D01*
X136505497Y-137122692D01*
X136314648Y-136493212D01*
X136210956Y-136067963D01*
X136151405Y-135496688D01*
X136250130Y-135203144D01*
X136501868Y-135223030D01*
G37*
G36*
X127976697Y-131656813D02*
G01*
X127947285Y-131954280D01*
X127628851Y-132327734D01*
X127058889Y-132723249D01*
X126764789Y-132883821D01*
X126259274Y-133094965D01*
X125984361Y-133072323D01*
X125895332Y-132819597D01*
X125953857Y-132704504D01*
X126252952Y-132429013D01*
X126706639Y-132104270D01*
X127202594Y-131802206D01*
X127628486Y-131594748D01*
X127871994Y-131553826D01*
X127976697Y-131656813D01*
G37*
G36*
X130660793Y-134517755D02*
G01*
X130741145Y-134615425D01*
X130763518Y-134943007D01*
X130555179Y-135482810D01*
X130464219Y-135662571D01*
X130190105Y-136131721D01*
X129975147Y-136404578D01*
X129854220Y-136467259D01*
X129505155Y-136436502D01*
X129464516Y-136407908D01*
X129401622Y-136224580D01*
X129516339Y-135877722D01*
X129829373Y-135294383D01*
X130063817Y-134899462D01*
X130314814Y-134546059D01*
X130493792Y-134437518D01*
X130660793Y-134517755D01*
G37*
G36*
X136822137Y-116665253D02*
G01*
X137178982Y-116979151D01*
X137576561Y-117541364D01*
X137797927Y-117901823D01*
X138060708Y-118238835D01*
X138324465Y-118385837D01*
X138699243Y-118429924D01*
X139081852Y-118477593D01*
X139916514Y-118834098D01*
X140553158Y-119503563D01*
X140675241Y-119685285D01*
X140904698Y-119905850D01*
X141237812Y-119995701D01*
X141812040Y-120010154D01*
X142404358Y-120044456D01*
X142971458Y-120168842D01*
X143315746Y-120356812D01*
X143359100Y-120579612D01*
X143210485Y-120653793D01*
X142771015Y-120733162D01*
X142161423Y-120776149D01*
X141634303Y-120799972D01*
X141244211Y-120869716D01*
X141057908Y-121024830D01*
X140978232Y-121309078D01*
X140877436Y-121702144D01*
X140643217Y-122252244D01*
X140623605Y-122287226D01*
X140592103Y-122388275D01*
X140524311Y-122605730D01*
X140626612Y-122948516D01*
X140963504Y-123437715D01*
X140988457Y-123470860D01*
X141333997Y-124049737D01*
X141692078Y-124825429D01*
X141989007Y-125639697D01*
X142120224Y-126108254D01*
X142368639Y-127824162D01*
X142257734Y-129498990D01*
X141798317Y-131090679D01*
X141003751Y-132552474D01*
X141001198Y-132557173D01*
X139877187Y-133856410D01*
X139843251Y-133888127D01*
X139155117Y-134493853D01*
X138632440Y-134833573D01*
X138193763Y-134925198D01*
X137757627Y-134786645D01*
X137242576Y-134435828D01*
X136983965Y-134228711D01*
X136502014Y-133808883D01*
X136183444Y-133486172D01*
X136043094Y-133339924D01*
X135777118Y-133269414D01*
X135383850Y-133463236D01*
X134664720Y-133847886D01*
X134525839Y-133892037D01*
X133558972Y-134199411D01*
X132509309Y-134269774D01*
X132070408Y-134197832D01*
X131099913Y-133807577D01*
X130260404Y-133167145D01*
X129670486Y-132356472D01*
X129610031Y-132218779D01*
X129412622Y-131562057D01*
X129380274Y-131390200D01*
X130201642Y-131390200D01*
X130208468Y-131698725D01*
X130504285Y-132252455D01*
X130528535Y-132288776D01*
X130973848Y-132800989D01*
X131478105Y-133196905D01*
X131684151Y-133293764D01*
X132231661Y-133442692D01*
X132819673Y-133507448D01*
X133314037Y-133478497D01*
X133580608Y-133346308D01*
X133559173Y-133176429D01*
X133282402Y-132852932D01*
X132792056Y-132462231D01*
X132162369Y-132055885D01*
X131467575Y-131685451D01*
X130781911Y-131402490D01*
X130483891Y-131326620D01*
X130201642Y-131390200D01*
X129380274Y-131390200D01*
X129264073Y-130772841D01*
X129199882Y-130116138D01*
X129948578Y-130116138D01*
X130222427Y-130394312D01*
X130840278Y-130628621D01*
X131370767Y-130829089D01*
X132122829Y-131203524D01*
X132858097Y-131647867D01*
X132877971Y-131661253D01*
X133488105Y-132089672D01*
X133996335Y-132477012D01*
X134294430Y-132740905D01*
X134579438Y-132936030D01*
X134953279Y-132831835D01*
X135191151Y-132672341D01*
X135373692Y-132515222D01*
X135345305Y-132393168D01*
X135097195Y-132073239D01*
X134672231Y-131645232D01*
X134145672Y-131178584D01*
X133592774Y-130742729D01*
X133088797Y-130407104D01*
X132876313Y-130290902D01*
X132181213Y-129976187D01*
X131459533Y-129724648D01*
X130803606Y-129560992D01*
X130305759Y-129509929D01*
X130058328Y-129596164D01*
X129983638Y-129747763D01*
X129948578Y-130116138D01*
X129199882Y-130116138D01*
X129189950Y-130014532D01*
X129215819Y-129450532D01*
X129127514Y-129301825D01*
X129076673Y-129286040D01*
X132806449Y-129286040D01*
X133005045Y-129468791D01*
X133490741Y-129763662D01*
X134345917Y-130257398D01*
X134208583Y-129576198D01*
X134188853Y-129477434D01*
X134105241Y-129033900D01*
X134071376Y-128809164D01*
X134019636Y-128764479D01*
X133737295Y-128781776D01*
X133338020Y-128892338D01*
X132970189Y-129062086D01*
X132846805Y-129150521D01*
X132806449Y-129286040D01*
X129076673Y-129286040D01*
X128711996Y-129172817D01*
X128491356Y-129120844D01*
X127905966Y-128915120D01*
X127277770Y-128632017D01*
X126386244Y-128178953D01*
X126446469Y-127405044D01*
X127172552Y-127405044D01*
X127200932Y-127716830D01*
X127383501Y-127928960D01*
X127790723Y-128108088D01*
X128493072Y-128320863D01*
X129109602Y-128471951D01*
X130608157Y-128633532D01*
X132049079Y-128514442D01*
X132437335Y-128394500D01*
X134720775Y-128394500D01*
X135164280Y-129986338D01*
X135316855Y-130493452D01*
X135489463Y-130917625D01*
X135762260Y-131588001D01*
X136310449Y-132427666D01*
X136595113Y-132756933D01*
X137141796Y-133333379D01*
X137617872Y-133774673D01*
X137785080Y-133907438D01*
X137910584Y-134007090D01*
X138197425Y-134140228D01*
X138482501Y-134049378D01*
X138915647Y-133729299D01*
X139505863Y-133184946D01*
X140321835Y-132158769D01*
X140989212Y-130995946D01*
X141415114Y-129840964D01*
X141625380Y-128598110D01*
X141589700Y-126970435D01*
X141193286Y-125432279D01*
X140444585Y-124012709D01*
X139352039Y-122740789D01*
X138628039Y-122058822D01*
X138367434Y-123214085D01*
X137829899Y-124769975D01*
X137541186Y-125245903D01*
X136953006Y-126215486D01*
X135778269Y-127472912D01*
X134799083Y-128326256D01*
X134720775Y-128394500D01*
X132437335Y-128394500D01*
X133329176Y-128118988D01*
X133949433Y-127835710D01*
X134050145Y-127302769D01*
X134800651Y-127302769D01*
X135358316Y-126880404D01*
X135427321Y-126823586D01*
X135848540Y-126351780D01*
X136337703Y-125654986D01*
X136834402Y-124837841D01*
X137278226Y-124004981D01*
X137608768Y-123261040D01*
X137765619Y-122710654D01*
X137838790Y-122096272D01*
X137215894Y-122612147D01*
X136830969Y-123008012D01*
X136326271Y-123669351D01*
X135834789Y-124441279D01*
X135792663Y-124515057D01*
X135408998Y-125261799D01*
X135103353Y-125981822D01*
X134938615Y-126528652D01*
X134800651Y-127302769D01*
X134050145Y-127302769D01*
X134182172Y-126604115D01*
X134497556Y-125465501D01*
X135161876Y-124042090D01*
X136056148Y-122759746D01*
X137112350Y-121731580D01*
X137133232Y-121714542D01*
X137213182Y-121482406D01*
X136941017Y-121250295D01*
X136341594Y-121031469D01*
X135439772Y-120839193D01*
X135270801Y-120814731D01*
X134077131Y-120802006D01*
X132778432Y-121011446D01*
X131521819Y-121409857D01*
X130454405Y-121964048D01*
X130073081Y-122243643D01*
X129041064Y-123251180D01*
X128175067Y-124466518D01*
X127541124Y-125785219D01*
X127205270Y-127102841D01*
X127172552Y-127405044D01*
X126446469Y-127405044D01*
X126461625Y-127210279D01*
X126529098Y-126723879D01*
X126721008Y-125889454D01*
X126975973Y-125093487D01*
X127111330Y-124764405D01*
X127926560Y-123359017D01*
X129018018Y-122153167D01*
X130328777Y-121182665D01*
X131801915Y-120483316D01*
X132575728Y-120290971D01*
X136959465Y-120290971D01*
X138450362Y-121151741D01*
X139941261Y-122012511D01*
X140133587Y-121459105D01*
X140188923Y-121247221D01*
X140171841Y-120537771D01*
X139905912Y-119875081D01*
X139442238Y-119410568D01*
X138898918Y-119244507D01*
X138230087Y-119271947D01*
X137618700Y-119483047D01*
X137215060Y-119848268D01*
X136959465Y-120290971D01*
X132575728Y-120290971D01*
X133380506Y-120090929D01*
X135007627Y-120041310D01*
X135022712Y-120042543D01*
X135651161Y-120077573D01*
X136042906Y-120017886D01*
X136335545Y-119810492D01*
X136666680Y-119402402D01*
X136698052Y-119360575D01*
X137011508Y-118890028D01*
X137108202Y-118557971D01*
X137028023Y-118235596D01*
X136775604Y-117640127D01*
X136561514Y-117082766D01*
X136487893Y-116767355D01*
X136543371Y-116635207D01*
X136716584Y-116627635D01*
X136822137Y-116665253D01*
G37*
%TO.C,B1*%
G36*
X153921393Y-106527907D02*
G01*
X154077118Y-106675836D01*
X154354418Y-107101950D01*
X154609620Y-107637248D01*
X154779085Y-108140803D01*
X154799171Y-108471688D01*
X154695675Y-108610312D01*
X154443051Y-108556752D01*
X154107416Y-108185797D01*
X153716437Y-107521718D01*
X153543310Y-107090423D01*
X153496194Y-106672152D01*
X153627085Y-106461066D01*
X153921393Y-106527907D01*
G37*
G36*
X151911194Y-107260204D02*
G01*
X152145658Y-107506378D01*
X152371352Y-107965085D01*
X152541252Y-108528627D01*
X152608335Y-109089307D01*
X152577048Y-109426419D01*
X152433376Y-109639424D01*
X152210094Y-109508833D01*
X151948240Y-109037845D01*
X151801353Y-108641776D01*
X151645983Y-107983913D01*
X151645018Y-107491021D01*
X151805435Y-107250449D01*
X151911194Y-107260204D01*
G37*
G36*
X148070318Y-107481666D02*
G01*
X148111352Y-107953911D01*
X148048511Y-108550460D01*
X147884428Y-109150984D01*
X147712009Y-109486278D01*
X147452446Y-109657598D01*
X147204557Y-109472009D01*
X147170820Y-109256073D01*
X147234490Y-108807276D01*
X147379619Y-108266668D01*
X147568425Y-107750364D01*
X147763124Y-107374476D01*
X147925931Y-107255121D01*
X148070318Y-107481666D01*
G37*
G36*
X144705684Y-105476626D02*
G01*
X144760252Y-105630182D01*
X144606887Y-105948447D01*
X144172984Y-106441947D01*
X143690414Y-106910980D01*
X143356367Y-107147750D01*
X143148089Y-107138163D01*
X143006017Y-106905900D01*
X142995776Y-106692499D01*
X143187651Y-106297620D01*
X143549613Y-105898679D01*
X143986628Y-105575589D01*
X144403662Y-105408267D01*
X144705684Y-105476626D01*
G37*
G36*
X155445235Y-105340208D02*
G01*
X155791889Y-105577686D01*
X156197329Y-105956935D01*
X156573301Y-106382744D01*
X156831554Y-106759906D01*
X156883835Y-106993211D01*
X156751668Y-107148769D01*
X156566843Y-107153466D01*
X156271346Y-106947692D01*
X155791327Y-106497971D01*
X155488902Y-106181541D01*
X155151692Y-105716577D01*
X155090418Y-105412998D01*
X155318373Y-105304351D01*
X155445235Y-105340208D01*
G37*
G36*
X146152250Y-106478502D02*
G01*
X146275512Y-106750822D01*
X146186467Y-107233460D01*
X145890623Y-107860967D01*
X145716211Y-108147076D01*
X145383994Y-108582690D01*
X145134591Y-108700538D01*
X144931127Y-108526185D01*
X144924264Y-108397249D01*
X145045543Y-108009119D01*
X145276076Y-107501040D01*
X145554553Y-106991468D01*
X145819658Y-106598858D01*
X146010081Y-106441664D01*
X146152250Y-106478502D01*
G37*
G36*
X150025638Y-107658511D02*
G01*
X150208805Y-107931019D01*
X150298279Y-108502672D01*
X150309386Y-108703829D01*
X150306571Y-109247182D01*
X150256840Y-109590962D01*
X150183455Y-109705709D01*
X149865777Y-109853605D01*
X149816286Y-109849162D01*
X149670155Y-109721842D01*
X149596073Y-109364096D01*
X149575499Y-108702392D01*
X149581073Y-108243159D01*
X149621741Y-107811604D01*
X149722470Y-107628116D01*
X149907216Y-107614102D01*
X150025638Y-107658511D01*
G37*
G36*
X152493261Y-92366227D02*
G01*
X152753249Y-92611938D01*
X153289606Y-92867151D01*
X153327788Y-92883379D01*
X153916473Y-93211931D01*
X154614426Y-93704659D01*
X155278708Y-94261372D01*
X155626624Y-94601546D01*
X156699712Y-95963358D01*
X157441079Y-97469254D01*
X157839057Y-99077406D01*
X157881840Y-100740640D01*
X157881978Y-100745986D01*
X157558175Y-102433164D01*
X157544644Y-102477600D01*
X157251566Y-103346241D01*
X156968774Y-103901785D01*
X156634681Y-104200474D01*
X156187700Y-104298551D01*
X155566244Y-104252260D01*
X155238721Y-104202197D01*
X154611426Y-104079591D01*
X154174181Y-103959400D01*
X153979510Y-103902920D01*
X153713913Y-103974845D01*
X153470244Y-104339334D01*
X153039784Y-105032015D01*
X152941585Y-105139692D01*
X152257941Y-105889319D01*
X151384087Y-106475087D01*
X150968017Y-106632234D01*
X149932416Y-106779510D01*
X148885164Y-106644634D01*
X147968943Y-106237530D01*
X147847742Y-106148512D01*
X147348419Y-105678479D01*
X146881735Y-105135136D01*
X147945802Y-105135136D01*
X148105976Y-105398913D01*
X148639026Y-105730549D01*
X148678188Y-105749879D01*
X149319946Y-105970812D01*
X149954604Y-106061557D01*
X150181474Y-106042416D01*
X150730096Y-105897637D01*
X151271707Y-105659711D01*
X151685364Y-105387457D01*
X151850126Y-105139692D01*
X151746624Y-105003290D01*
X151345185Y-104861519D01*
X150725182Y-104768335D01*
X149976684Y-104731272D01*
X149189758Y-104757864D01*
X148454475Y-104855645D01*
X148158447Y-104938949D01*
X147945802Y-105135136D01*
X146881735Y-105135136D01*
X146825164Y-105069272D01*
X146381817Y-104449619D01*
X146122220Y-103948246D01*
X145971392Y-103863614D01*
X145547039Y-103959649D01*
X145329973Y-104024959D01*
X144720148Y-104139492D01*
X144034563Y-104208416D01*
X143035947Y-104261814D01*
X142744955Y-103653112D01*
X146924670Y-103653112D01*
X146935787Y-103821746D01*
X147089611Y-104158298D01*
X147465858Y-104262279D01*
X148118087Y-104156271D01*
X148677739Y-104064637D01*
X149516261Y-104012876D01*
X150375193Y-104030055D01*
X150399097Y-104031710D01*
X151141698Y-104097665D01*
X151775509Y-104178996D01*
X152165613Y-104258487D01*
X152510000Y-104284966D01*
X152781658Y-104007810D01*
X152907914Y-103750748D01*
X152987440Y-103523409D01*
X152901829Y-103431900D01*
X152526995Y-103278888D01*
X151944962Y-103120706D01*
X151255624Y-102979856D01*
X150558873Y-102878844D01*
X149954604Y-102840172D01*
X149712486Y-102845780D01*
X148953154Y-102920779D01*
X148202392Y-103063780D01*
X147552514Y-103250014D01*
X147095835Y-103454715D01*
X146924670Y-103653112D01*
X142744955Y-103653112D01*
X142616892Y-103385227D01*
X142432125Y-102930255D01*
X142181112Y-102111667D01*
X142003934Y-101294857D01*
X141956616Y-100942185D01*
X141958228Y-100152339D01*
X142728896Y-100152339D01*
X142839235Y-101611339D01*
X143207188Y-102920360D01*
X143329955Y-103198435D01*
X143510426Y-103454259D01*
X143774600Y-103546685D01*
X144216829Y-103498203D01*
X144931469Y-103331297D01*
X145540943Y-103153878D01*
X146919521Y-102544534D01*
X147888540Y-101872936D01*
X149116741Y-101872936D01*
X149149551Y-102010477D01*
X149412916Y-102069445D01*
X149980976Y-102081963D01*
X150968448Y-102081963D01*
X150508914Y-101560694D01*
X150442445Y-101485027D01*
X150148268Y-101142721D01*
X150006572Y-100965026D01*
X149939422Y-100952198D01*
X149703555Y-101108348D01*
X149413054Y-101403735D01*
X149179377Y-101734657D01*
X149116741Y-101872936D01*
X147888540Y-101872936D01*
X148107851Y-101720938D01*
X149018720Y-100738416D01*
X149344275Y-100281217D01*
X150361636Y-100281217D01*
X151541642Y-101438037D01*
X151927332Y-101800923D01*
X152288902Y-102081963D01*
X152860339Y-102526128D01*
X153754917Y-102979204D01*
X154166077Y-103122026D01*
X154927741Y-103347901D01*
X155560682Y-103492035D01*
X155771871Y-103523409D01*
X155930387Y-103546958D01*
X156245367Y-103518839D01*
X156446825Y-103297622D01*
X156661901Y-102803853D01*
X156900867Y-102037321D01*
X157094431Y-100740640D01*
X157090985Y-99399917D01*
X156882336Y-98186722D01*
X156443004Y-97005246D01*
X155598267Y-95613478D01*
X154485885Y-94479603D01*
X153127705Y-93624570D01*
X151545573Y-93069328D01*
X150577587Y-92840727D01*
X150929528Y-93971517D01*
X151241954Y-95587724D01*
X151229885Y-96144247D01*
X151205298Y-97278020D01*
X150816659Y-98954351D01*
X150395331Y-100182962D01*
X150361636Y-100281217D01*
X149344275Y-100281217D01*
X149414239Y-100182962D01*
X149000000Y-99000000D01*
X148703823Y-97856239D01*
X148568242Y-96300620D01*
X149349790Y-96300620D01*
X149350197Y-96385577D01*
X149391304Y-97224107D01*
X149486619Y-98000488D01*
X149617367Y-98556425D01*
X149884945Y-99295813D01*
X150156715Y-98651201D01*
X150188066Y-98567493D01*
X150316949Y-97948287D01*
X150392180Y-97100264D01*
X150413761Y-96144247D01*
X150381694Y-95201057D01*
X150295981Y-94391514D01*
X150156625Y-93836440D01*
X149912802Y-93267784D01*
X149631296Y-94025993D01*
X149495874Y-94561285D01*
X149389462Y-95386370D01*
X149349790Y-96300620D01*
X148568242Y-96300620D01*
X148567436Y-96291369D01*
X148700726Y-94733690D01*
X149101341Y-93315172D01*
X149110906Y-93289975D01*
X149064077Y-93048965D01*
X148712319Y-92984033D01*
X148083791Y-93094236D01*
X147206652Y-93378631D01*
X147048088Y-93441932D01*
X146007977Y-94027746D01*
X144987991Y-94858476D01*
X144098937Y-95831817D01*
X143451625Y-96845467D01*
X143261187Y-97278266D01*
X142871202Y-98666827D01*
X142728896Y-100152339D01*
X141958228Y-100152339D01*
X141959932Y-99317468D01*
X142302237Y-97727443D01*
X142952137Y-96231584D01*
X143878237Y-94889361D01*
X145049144Y-93760248D01*
X146433462Y-92903716D01*
X146447143Y-92897242D01*
X147008911Y-92613354D01*
X147318328Y-92365791D01*
X147420217Y-92144010D01*
X148248634Y-92144010D01*
X149970174Y-92144010D01*
X151691715Y-92144010D01*
X151581571Y-91568583D01*
X151523552Y-91357418D01*
X151154033Y-90751557D01*
X150592387Y-90310615D01*
X149958577Y-90140172D01*
X149405017Y-90268019D01*
X148839513Y-90626198D01*
X148415586Y-91114710D01*
X148248634Y-91632821D01*
X148248634Y-92144010D01*
X147420217Y-92144010D01*
X147468064Y-92039863D01*
X147550790Y-91520879D01*
X147557046Y-91468970D01*
X147593233Y-90904736D01*
X147510944Y-90568820D01*
X147280319Y-90329724D01*
X146763984Y-89940242D01*
X146299896Y-89564598D01*
X146078432Y-89328255D01*
X146060404Y-89186073D01*
X146206625Y-89092908D01*
X146316845Y-89072710D01*
X146782831Y-89166131D01*
X147408251Y-89454233D01*
X147780189Y-89655716D01*
X148176270Y-89816187D01*
X148478192Y-89811616D01*
X148824802Y-89662407D01*
X149179986Y-89512385D01*
X150081077Y-89403797D01*
X150967159Y-89665248D01*
X151163747Y-89761583D01*
X151472745Y-89837869D01*
X151806156Y-89749126D01*
X152310679Y-89474528D01*
X152840792Y-89208076D01*
X153394108Y-89032247D01*
X153786255Y-89022890D01*
X153935201Y-89194163D01*
X153843587Y-89332713D01*
X153502679Y-89621184D01*
X152996251Y-89963208D01*
X152551663Y-90247399D01*
X152248705Y-90502845D01*
X152164919Y-90730329D01*
X152238042Y-91016333D01*
X152347283Y-91407136D01*
X152419493Y-92000646D01*
X152420000Y-92040748D01*
X152443243Y-92144010D01*
X152493261Y-92366227D01*
G37*
%TD*%
M02*
