%TF.GenerationSoftware,KiCad,Pcbnew,7.0.11*%
%TF.CreationDate,2024-08-27T07:46:35-07:00*%
%TF.ProjectId,nightLight,6e696768-744c-4696-9768-742e6b696361,rev?*%
%TF.SameCoordinates,Original*%
%TF.FileFunction,Legend,Top*%
%TF.FilePolarity,Positive*%
%FSLAX46Y46*%
G04 Gerber Fmt 4.6, Leading zero omitted, Abs format (unit mm)*
G04 Created by KiCad (PCBNEW 7.0.11) date 2024-08-27 07:46:35*
%MOMM*%
%LPD*%
G01*
G04 APERTURE LIST*
%ADD10C,0.100000*%
%ADD11C,0.150000*%
%ADD12C,0.254000*%
%ADD13C,0.120000*%
%ADD14C,0.200000*%
G04 APERTURE END LIST*
D10*
X122808646Y-90472419D02*
X123427693Y-90472419D01*
X123427693Y-90472419D02*
X123094360Y-90853371D01*
X123094360Y-90853371D02*
X123237217Y-90853371D01*
X123237217Y-90853371D02*
X123332455Y-90900990D01*
X123332455Y-90900990D02*
X123380074Y-90948609D01*
X123380074Y-90948609D02*
X123427693Y-91043847D01*
X123427693Y-91043847D02*
X123427693Y-91281942D01*
X123427693Y-91281942D02*
X123380074Y-91377180D01*
X123380074Y-91377180D02*
X123332455Y-91424800D01*
X123332455Y-91424800D02*
X123237217Y-91472419D01*
X123237217Y-91472419D02*
X122951503Y-91472419D01*
X122951503Y-91472419D02*
X122856265Y-91424800D01*
X122856265Y-91424800D02*
X122808646Y-91377180D01*
X123856265Y-91377180D02*
X123903884Y-91424800D01*
X123903884Y-91424800D02*
X123856265Y-91472419D01*
X123856265Y-91472419D02*
X123808646Y-91424800D01*
X123808646Y-91424800D02*
X123856265Y-91377180D01*
X123856265Y-91377180D02*
X123856265Y-91472419D01*
X124237217Y-90472419D02*
X124903883Y-90472419D01*
X124903883Y-90472419D02*
X124475312Y-91472419D01*
X125141979Y-90472419D02*
X125475312Y-91472419D01*
X125475312Y-91472419D02*
X125808645Y-90472419D01*
X127380074Y-91472419D02*
X126903884Y-91472419D01*
X126903884Y-91472419D02*
X126903884Y-90472419D01*
X127713408Y-91472419D02*
X127713408Y-90472419D01*
X128189598Y-91472419D02*
X128189598Y-90472419D01*
X128189598Y-90472419D02*
X128570550Y-90472419D01*
X128570550Y-90472419D02*
X128665788Y-90520038D01*
X128665788Y-90520038D02*
X128713407Y-90567657D01*
X128713407Y-90567657D02*
X128761026Y-90662895D01*
X128761026Y-90662895D02*
X128761026Y-90805752D01*
X128761026Y-90805752D02*
X128713407Y-90900990D01*
X128713407Y-90900990D02*
X128665788Y-90948609D01*
X128665788Y-90948609D02*
X128570550Y-90996228D01*
X128570550Y-90996228D02*
X128189598Y-90996228D01*
X129380074Y-90472419D02*
X129570550Y-90472419D01*
X129570550Y-90472419D02*
X129665788Y-90520038D01*
X129665788Y-90520038D02*
X129761026Y-90615276D01*
X129761026Y-90615276D02*
X129808645Y-90805752D01*
X129808645Y-90805752D02*
X129808645Y-91139085D01*
X129808645Y-91139085D02*
X129761026Y-91329561D01*
X129761026Y-91329561D02*
X129665788Y-91424800D01*
X129665788Y-91424800D02*
X129570550Y-91472419D01*
X129570550Y-91472419D02*
X129380074Y-91472419D01*
X129380074Y-91472419D02*
X129284836Y-91424800D01*
X129284836Y-91424800D02*
X129189598Y-91329561D01*
X129189598Y-91329561D02*
X129141979Y-91139085D01*
X129141979Y-91139085D02*
X129141979Y-90805752D01*
X129141979Y-90805752D02*
X129189598Y-90615276D01*
X129189598Y-90615276D02*
X129284836Y-90520038D01*
X129284836Y-90520038D02*
X129380074Y-90472419D01*
X131189598Y-90472419D02*
X131380074Y-90472419D01*
X131380074Y-90472419D02*
X131475312Y-90520038D01*
X131475312Y-90520038D02*
X131570550Y-90615276D01*
X131570550Y-90615276D02*
X131618169Y-90805752D01*
X131618169Y-90805752D02*
X131618169Y-91139085D01*
X131618169Y-91139085D02*
X131570550Y-91329561D01*
X131570550Y-91329561D02*
X131475312Y-91424800D01*
X131475312Y-91424800D02*
X131380074Y-91472419D01*
X131380074Y-91472419D02*
X131189598Y-91472419D01*
X131189598Y-91472419D02*
X131094360Y-91424800D01*
X131094360Y-91424800D02*
X130999122Y-91329561D01*
X130999122Y-91329561D02*
X130951503Y-91139085D01*
X130951503Y-91139085D02*
X130951503Y-90805752D01*
X130951503Y-90805752D02*
X130999122Y-90615276D01*
X130999122Y-90615276D02*
X131094360Y-90520038D01*
X131094360Y-90520038D02*
X131189598Y-90472419D01*
X132046741Y-90805752D02*
X132046741Y-91472419D01*
X132046741Y-90900990D02*
X132094360Y-90853371D01*
X132094360Y-90853371D02*
X132189598Y-90805752D01*
X132189598Y-90805752D02*
X132332455Y-90805752D01*
X132332455Y-90805752D02*
X132427693Y-90853371D01*
X132427693Y-90853371D02*
X132475312Y-90948609D01*
X132475312Y-90948609D02*
X132475312Y-91472419D01*
X133094360Y-91472419D02*
X132999122Y-91424800D01*
X132999122Y-91424800D02*
X132951503Y-91329561D01*
X132951503Y-91329561D02*
X132951503Y-90472419D01*
X133380075Y-90805752D02*
X133618170Y-91472419D01*
X133856265Y-90805752D02*
X133618170Y-91472419D01*
X133618170Y-91472419D02*
X133522932Y-91710514D01*
X133522932Y-91710514D02*
X133475313Y-91758133D01*
X133475313Y-91758133D02*
X133380075Y-91805752D01*
D11*
X130833333Y-77454819D02*
X130500000Y-76978628D01*
X130261905Y-77454819D02*
X130261905Y-76454819D01*
X130261905Y-76454819D02*
X130642857Y-76454819D01*
X130642857Y-76454819D02*
X130738095Y-76502438D01*
X130738095Y-76502438D02*
X130785714Y-76550057D01*
X130785714Y-76550057D02*
X130833333Y-76645295D01*
X130833333Y-76645295D02*
X130833333Y-76788152D01*
X130833333Y-76788152D02*
X130785714Y-76883390D01*
X130785714Y-76883390D02*
X130738095Y-76931009D01*
X130738095Y-76931009D02*
X130642857Y-76978628D01*
X130642857Y-76978628D02*
X130261905Y-76978628D01*
X131214286Y-76550057D02*
X131261905Y-76502438D01*
X131261905Y-76502438D02*
X131357143Y-76454819D01*
X131357143Y-76454819D02*
X131595238Y-76454819D01*
X131595238Y-76454819D02*
X131690476Y-76502438D01*
X131690476Y-76502438D02*
X131738095Y-76550057D01*
X131738095Y-76550057D02*
X131785714Y-76645295D01*
X131785714Y-76645295D02*
X131785714Y-76740533D01*
X131785714Y-76740533D02*
X131738095Y-76883390D01*
X131738095Y-76883390D02*
X131166667Y-77454819D01*
X131166667Y-77454819D02*
X131785714Y-77454819D01*
X124633333Y-127854819D02*
X124300000Y-127378628D01*
X124061905Y-127854819D02*
X124061905Y-126854819D01*
X124061905Y-126854819D02*
X124442857Y-126854819D01*
X124442857Y-126854819D02*
X124538095Y-126902438D01*
X124538095Y-126902438D02*
X124585714Y-126950057D01*
X124585714Y-126950057D02*
X124633333Y-127045295D01*
X124633333Y-127045295D02*
X124633333Y-127188152D01*
X124633333Y-127188152D02*
X124585714Y-127283390D01*
X124585714Y-127283390D02*
X124538095Y-127331009D01*
X124538095Y-127331009D02*
X124442857Y-127378628D01*
X124442857Y-127378628D02*
X124061905Y-127378628D01*
X125490476Y-127188152D02*
X125490476Y-127854819D01*
X125252381Y-126807200D02*
X125014286Y-127521485D01*
X125014286Y-127521485D02*
X125633333Y-127521485D01*
X139833333Y-134209580D02*
X139785714Y-134257200D01*
X139785714Y-134257200D02*
X139642857Y-134304819D01*
X139642857Y-134304819D02*
X139547619Y-134304819D01*
X139547619Y-134304819D02*
X139404762Y-134257200D01*
X139404762Y-134257200D02*
X139309524Y-134161961D01*
X139309524Y-134161961D02*
X139261905Y-134066723D01*
X139261905Y-134066723D02*
X139214286Y-133876247D01*
X139214286Y-133876247D02*
X139214286Y-133733390D01*
X139214286Y-133733390D02*
X139261905Y-133542914D01*
X139261905Y-133542914D02*
X139309524Y-133447676D01*
X139309524Y-133447676D02*
X139404762Y-133352438D01*
X139404762Y-133352438D02*
X139547619Y-133304819D01*
X139547619Y-133304819D02*
X139642857Y-133304819D01*
X139642857Y-133304819D02*
X139785714Y-133352438D01*
X139785714Y-133352438D02*
X139833333Y-133400057D01*
X140785714Y-134304819D02*
X140214286Y-134304819D01*
X140500000Y-134304819D02*
X140500000Y-133304819D01*
X140500000Y-133304819D02*
X140404762Y-133447676D01*
X140404762Y-133447676D02*
X140309524Y-133542914D01*
X140309524Y-133542914D02*
X140214286Y-133590533D01*
D12*
X135988333Y-132774318D02*
X135383571Y-132774318D01*
X135383571Y-132774318D02*
X135383571Y-131504318D01*
X137076905Y-132774318D02*
X136351190Y-132774318D01*
X136714047Y-132774318D02*
X136714047Y-131504318D01*
X136714047Y-131504318D02*
X136593095Y-131685746D01*
X136593095Y-131685746D02*
X136472143Y-131806699D01*
X136472143Y-131806699D02*
X136351190Y-131867175D01*
D10*
X141238095Y-112957419D02*
X141238095Y-113766942D01*
X141238095Y-113766942D02*
X141285714Y-113862180D01*
X141285714Y-113862180D02*
X141333333Y-113909800D01*
X141333333Y-113909800D02*
X141428571Y-113957419D01*
X141428571Y-113957419D02*
X141619047Y-113957419D01*
X141619047Y-113957419D02*
X141714285Y-113909800D01*
X141714285Y-113909800D02*
X141761904Y-113862180D01*
X141761904Y-113862180D02*
X141809523Y-113766942D01*
X141809523Y-113766942D02*
X141809523Y-112957419D01*
X142809523Y-113957419D02*
X142238095Y-113957419D01*
X142523809Y-113957419D02*
X142523809Y-112957419D01*
X142523809Y-112957419D02*
X142428571Y-113100276D01*
X142428571Y-113100276D02*
X142333333Y-113195514D01*
X142333333Y-113195514D02*
X142238095Y-113243133D01*
D11*
X138033333Y-77454819D02*
X137700000Y-76978628D01*
X137461905Y-77454819D02*
X137461905Y-76454819D01*
X137461905Y-76454819D02*
X137842857Y-76454819D01*
X137842857Y-76454819D02*
X137938095Y-76502438D01*
X137938095Y-76502438D02*
X137985714Y-76550057D01*
X137985714Y-76550057D02*
X138033333Y-76645295D01*
X138033333Y-76645295D02*
X138033333Y-76788152D01*
X138033333Y-76788152D02*
X137985714Y-76883390D01*
X137985714Y-76883390D02*
X137938095Y-76931009D01*
X137938095Y-76931009D02*
X137842857Y-76978628D01*
X137842857Y-76978628D02*
X137461905Y-76978628D01*
X138985714Y-77454819D02*
X138414286Y-77454819D01*
X138700000Y-77454819D02*
X138700000Y-76454819D01*
X138700000Y-76454819D02*
X138604762Y-76597676D01*
X138604762Y-76597676D02*
X138509524Y-76692914D01*
X138509524Y-76692914D02*
X138414286Y-76740533D01*
X161819905Y-119156073D02*
X161819905Y-118153364D01*
X161819905Y-118153364D02*
X162058645Y-118153364D01*
X162058645Y-118153364D02*
X162201889Y-118201112D01*
X162201889Y-118201112D02*
X162297385Y-118296608D01*
X162297385Y-118296608D02*
X162345133Y-118392104D01*
X162345133Y-118392104D02*
X162392881Y-118583096D01*
X162392881Y-118583096D02*
X162392881Y-118726340D01*
X162392881Y-118726340D02*
X162345133Y-118917332D01*
X162345133Y-118917332D02*
X162297385Y-119012828D01*
X162297385Y-119012828D02*
X162201889Y-119108325D01*
X162201889Y-119108325D02*
X162058645Y-119156073D01*
X162058645Y-119156073D02*
X161819905Y-119156073D01*
X163347842Y-119156073D02*
X162774866Y-119156073D01*
X163061354Y-119156073D02*
X163061354Y-118153364D01*
X163061354Y-118153364D02*
X162965858Y-118296608D01*
X162965858Y-118296608D02*
X162870362Y-118392104D01*
X162870362Y-118392104D02*
X162774866Y-118439852D01*
X171633333Y-123359580D02*
X171585714Y-123407200D01*
X171585714Y-123407200D02*
X171442857Y-123454819D01*
X171442857Y-123454819D02*
X171347619Y-123454819D01*
X171347619Y-123454819D02*
X171204762Y-123407200D01*
X171204762Y-123407200D02*
X171109524Y-123311961D01*
X171109524Y-123311961D02*
X171061905Y-123216723D01*
X171061905Y-123216723D02*
X171014286Y-123026247D01*
X171014286Y-123026247D02*
X171014286Y-122883390D01*
X171014286Y-122883390D02*
X171061905Y-122692914D01*
X171061905Y-122692914D02*
X171109524Y-122597676D01*
X171109524Y-122597676D02*
X171204762Y-122502438D01*
X171204762Y-122502438D02*
X171347619Y-122454819D01*
X171347619Y-122454819D02*
X171442857Y-122454819D01*
X171442857Y-122454819D02*
X171585714Y-122502438D01*
X171585714Y-122502438D02*
X171633333Y-122550057D01*
X172490476Y-122788152D02*
X172490476Y-123454819D01*
X172252381Y-122407200D02*
X172014286Y-123121485D01*
X172014286Y-123121485D02*
X172633333Y-123121485D01*
D12*
X131760237Y-132574318D02*
X131760237Y-131304318D01*
X133090714Y-132453365D02*
X133030238Y-132513842D01*
X133030238Y-132513842D02*
X132848809Y-132574318D01*
X132848809Y-132574318D02*
X132727857Y-132574318D01*
X132727857Y-132574318D02*
X132546428Y-132513842D01*
X132546428Y-132513842D02*
X132425476Y-132392889D01*
X132425476Y-132392889D02*
X132364999Y-132271937D01*
X132364999Y-132271937D02*
X132304523Y-132030032D01*
X132304523Y-132030032D02*
X132304523Y-131848603D01*
X132304523Y-131848603D02*
X132364999Y-131606699D01*
X132364999Y-131606699D02*
X132425476Y-131485746D01*
X132425476Y-131485746D02*
X132546428Y-131364794D01*
X132546428Y-131364794D02*
X132727857Y-131304318D01*
X132727857Y-131304318D02*
X132848809Y-131304318D01*
X132848809Y-131304318D02*
X133030238Y-131364794D01*
X133030238Y-131364794D02*
X133090714Y-131425270D01*
X134300238Y-132574318D02*
X133574523Y-132574318D01*
X133937380Y-132574318D02*
X133937380Y-131304318D01*
X133937380Y-131304318D02*
X133816428Y-131485746D01*
X133816428Y-131485746D02*
X133695476Y-131606699D01*
X133695476Y-131606699D02*
X133574523Y-131667175D01*
D11*
X149238095Y-74174819D02*
X149238095Y-74984342D01*
X149238095Y-74984342D02*
X149285714Y-75079580D01*
X149285714Y-75079580D02*
X149333333Y-75127200D01*
X149333333Y-75127200D02*
X149428571Y-75174819D01*
X149428571Y-75174819D02*
X149619047Y-75174819D01*
X149619047Y-75174819D02*
X149714285Y-75127200D01*
X149714285Y-75127200D02*
X149761904Y-75079580D01*
X149761904Y-75079580D02*
X149809523Y-74984342D01*
X149809523Y-74984342D02*
X149809523Y-74174819D01*
X150238095Y-74270057D02*
X150285714Y-74222438D01*
X150285714Y-74222438D02*
X150380952Y-74174819D01*
X150380952Y-74174819D02*
X150619047Y-74174819D01*
X150619047Y-74174819D02*
X150714285Y-74222438D01*
X150714285Y-74222438D02*
X150761904Y-74270057D01*
X150761904Y-74270057D02*
X150809523Y-74365295D01*
X150809523Y-74365295D02*
X150809523Y-74460533D01*
X150809523Y-74460533D02*
X150761904Y-74603390D01*
X150761904Y-74603390D02*
X150190476Y-75174819D01*
X150190476Y-75174819D02*
X150809523Y-75174819D01*
X163833333Y-115636069D02*
X163500000Y-115159878D01*
X163261905Y-115636069D02*
X163261905Y-114636069D01*
X163261905Y-114636069D02*
X163642857Y-114636069D01*
X163642857Y-114636069D02*
X163738095Y-114683688D01*
X163738095Y-114683688D02*
X163785714Y-114731307D01*
X163785714Y-114731307D02*
X163833333Y-114826545D01*
X163833333Y-114826545D02*
X163833333Y-114969402D01*
X163833333Y-114969402D02*
X163785714Y-115064640D01*
X163785714Y-115064640D02*
X163738095Y-115112259D01*
X163738095Y-115112259D02*
X163642857Y-115159878D01*
X163642857Y-115159878D02*
X163261905Y-115159878D01*
X164690476Y-114636069D02*
X164500000Y-114636069D01*
X164500000Y-114636069D02*
X164404762Y-114683688D01*
X164404762Y-114683688D02*
X164357143Y-114731307D01*
X164357143Y-114731307D02*
X164261905Y-114874164D01*
X164261905Y-114874164D02*
X164214286Y-115064640D01*
X164214286Y-115064640D02*
X164214286Y-115445592D01*
X164214286Y-115445592D02*
X164261905Y-115540830D01*
X164261905Y-115540830D02*
X164309524Y-115588450D01*
X164309524Y-115588450D02*
X164404762Y-115636069D01*
X164404762Y-115636069D02*
X164595238Y-115636069D01*
X164595238Y-115636069D02*
X164690476Y-115588450D01*
X164690476Y-115588450D02*
X164738095Y-115540830D01*
X164738095Y-115540830D02*
X164785714Y-115445592D01*
X164785714Y-115445592D02*
X164785714Y-115207497D01*
X164785714Y-115207497D02*
X164738095Y-115112259D01*
X164738095Y-115112259D02*
X164690476Y-115064640D01*
X164690476Y-115064640D02*
X164595238Y-115017021D01*
X164595238Y-115017021D02*
X164404762Y-115017021D01*
X164404762Y-115017021D02*
X164309524Y-115064640D01*
X164309524Y-115064640D02*
X164261905Y-115112259D01*
X164261905Y-115112259D02*
X164214286Y-115207497D01*
X167784819Y-79333333D02*
X168499104Y-79333333D01*
X168499104Y-79333333D02*
X168641961Y-79380952D01*
X168641961Y-79380952D02*
X168737200Y-79476190D01*
X168737200Y-79476190D02*
X168784819Y-79619047D01*
X168784819Y-79619047D02*
X168784819Y-79714285D01*
X168118152Y-78428571D02*
X168784819Y-78428571D01*
X167737200Y-78666666D02*
X168451485Y-78904761D01*
X168451485Y-78904761D02*
X168451485Y-78285714D01*
X127833333Y-130054819D02*
X127500000Y-129578628D01*
X127261905Y-130054819D02*
X127261905Y-129054819D01*
X127261905Y-129054819D02*
X127642857Y-129054819D01*
X127642857Y-129054819D02*
X127738095Y-129102438D01*
X127738095Y-129102438D02*
X127785714Y-129150057D01*
X127785714Y-129150057D02*
X127833333Y-129245295D01*
X127833333Y-129245295D02*
X127833333Y-129388152D01*
X127833333Y-129388152D02*
X127785714Y-129483390D01*
X127785714Y-129483390D02*
X127738095Y-129531009D01*
X127738095Y-129531009D02*
X127642857Y-129578628D01*
X127642857Y-129578628D02*
X127261905Y-129578628D01*
X128738095Y-129054819D02*
X128261905Y-129054819D01*
X128261905Y-129054819D02*
X128214286Y-129531009D01*
X128214286Y-129531009D02*
X128261905Y-129483390D01*
X128261905Y-129483390D02*
X128357143Y-129435771D01*
X128357143Y-129435771D02*
X128595238Y-129435771D01*
X128595238Y-129435771D02*
X128690476Y-129483390D01*
X128690476Y-129483390D02*
X128738095Y-129531009D01*
X128738095Y-129531009D02*
X128785714Y-129626247D01*
X128785714Y-129626247D02*
X128785714Y-129864342D01*
X128785714Y-129864342D02*
X128738095Y-129959580D01*
X128738095Y-129959580D02*
X128690476Y-130007200D01*
X128690476Y-130007200D02*
X128595238Y-130054819D01*
X128595238Y-130054819D02*
X128357143Y-130054819D01*
X128357143Y-130054819D02*
X128261905Y-130007200D01*
X128261905Y-130007200D02*
X128214286Y-129959580D01*
X176666666Y-110584819D02*
X176666666Y-111299104D01*
X176666666Y-111299104D02*
X176619047Y-111441961D01*
X176619047Y-111441961D02*
X176523809Y-111537200D01*
X176523809Y-111537200D02*
X176380952Y-111584819D01*
X176380952Y-111584819D02*
X176285714Y-111584819D01*
X177095238Y-110680057D02*
X177142857Y-110632438D01*
X177142857Y-110632438D02*
X177238095Y-110584819D01*
X177238095Y-110584819D02*
X177476190Y-110584819D01*
X177476190Y-110584819D02*
X177571428Y-110632438D01*
X177571428Y-110632438D02*
X177619047Y-110680057D01*
X177619047Y-110680057D02*
X177666666Y-110775295D01*
X177666666Y-110775295D02*
X177666666Y-110870533D01*
X177666666Y-110870533D02*
X177619047Y-111013390D01*
X177619047Y-111013390D02*
X177047619Y-111584819D01*
X177047619Y-111584819D02*
X177666666Y-111584819D01*
X171653333Y-126254819D02*
X171320000Y-125778628D01*
X171081905Y-126254819D02*
X171081905Y-125254819D01*
X171081905Y-125254819D02*
X171462857Y-125254819D01*
X171462857Y-125254819D02*
X171558095Y-125302438D01*
X171558095Y-125302438D02*
X171605714Y-125350057D01*
X171605714Y-125350057D02*
X171653333Y-125445295D01*
X171653333Y-125445295D02*
X171653333Y-125588152D01*
X171653333Y-125588152D02*
X171605714Y-125683390D01*
X171605714Y-125683390D02*
X171558095Y-125731009D01*
X171558095Y-125731009D02*
X171462857Y-125778628D01*
X171462857Y-125778628D02*
X171081905Y-125778628D01*
X171986667Y-125254819D02*
X172653333Y-125254819D01*
X172653333Y-125254819D02*
X172224762Y-126254819D01*
X127066666Y-111854819D02*
X127066666Y-112569104D01*
X127066666Y-112569104D02*
X127019047Y-112711961D01*
X127019047Y-112711961D02*
X126923809Y-112807200D01*
X126923809Y-112807200D02*
X126780952Y-112854819D01*
X126780952Y-112854819D02*
X126685714Y-112854819D01*
X127447619Y-111854819D02*
X128066666Y-111854819D01*
X128066666Y-111854819D02*
X127733333Y-112235771D01*
X127733333Y-112235771D02*
X127876190Y-112235771D01*
X127876190Y-112235771D02*
X127971428Y-112283390D01*
X127971428Y-112283390D02*
X128019047Y-112331009D01*
X128019047Y-112331009D02*
X128066666Y-112426247D01*
X128066666Y-112426247D02*
X128066666Y-112664342D01*
X128066666Y-112664342D02*
X128019047Y-112759580D01*
X128019047Y-112759580D02*
X127971428Y-112807200D01*
X127971428Y-112807200D02*
X127876190Y-112854819D01*
X127876190Y-112854819D02*
X127590476Y-112854819D01*
X127590476Y-112854819D02*
X127495238Y-112807200D01*
X127495238Y-112807200D02*
X127447619Y-112759580D01*
X170238095Y-117854819D02*
X170238095Y-118664342D01*
X170238095Y-118664342D02*
X170285714Y-118759580D01*
X170285714Y-118759580D02*
X170333333Y-118807200D01*
X170333333Y-118807200D02*
X170428571Y-118854819D01*
X170428571Y-118854819D02*
X170619047Y-118854819D01*
X170619047Y-118854819D02*
X170714285Y-118807200D01*
X170714285Y-118807200D02*
X170761904Y-118759580D01*
X170761904Y-118759580D02*
X170809523Y-118664342D01*
X170809523Y-118664342D02*
X170809523Y-117854819D01*
X171190476Y-117854819D02*
X171809523Y-117854819D01*
X171809523Y-117854819D02*
X171476190Y-118235771D01*
X171476190Y-118235771D02*
X171619047Y-118235771D01*
X171619047Y-118235771D02*
X171714285Y-118283390D01*
X171714285Y-118283390D02*
X171761904Y-118331009D01*
X171761904Y-118331009D02*
X171809523Y-118426247D01*
X171809523Y-118426247D02*
X171809523Y-118664342D01*
X171809523Y-118664342D02*
X171761904Y-118759580D01*
X171761904Y-118759580D02*
X171714285Y-118807200D01*
X171714285Y-118807200D02*
X171619047Y-118854819D01*
X171619047Y-118854819D02*
X171333333Y-118854819D01*
X171333333Y-118854819D02*
X171238095Y-118807200D01*
X171238095Y-118807200D02*
X171190476Y-118759580D01*
X135433333Y-122159580D02*
X135385714Y-122207200D01*
X135385714Y-122207200D02*
X135242857Y-122254819D01*
X135242857Y-122254819D02*
X135147619Y-122254819D01*
X135147619Y-122254819D02*
X135004762Y-122207200D01*
X135004762Y-122207200D02*
X134909524Y-122111961D01*
X134909524Y-122111961D02*
X134861905Y-122016723D01*
X134861905Y-122016723D02*
X134814286Y-121826247D01*
X134814286Y-121826247D02*
X134814286Y-121683390D01*
X134814286Y-121683390D02*
X134861905Y-121492914D01*
X134861905Y-121492914D02*
X134909524Y-121397676D01*
X134909524Y-121397676D02*
X135004762Y-121302438D01*
X135004762Y-121302438D02*
X135147619Y-121254819D01*
X135147619Y-121254819D02*
X135242857Y-121254819D01*
X135242857Y-121254819D02*
X135385714Y-121302438D01*
X135385714Y-121302438D02*
X135433333Y-121350057D01*
X135766667Y-121254819D02*
X136385714Y-121254819D01*
X136385714Y-121254819D02*
X136052381Y-121635771D01*
X136052381Y-121635771D02*
X136195238Y-121635771D01*
X136195238Y-121635771D02*
X136290476Y-121683390D01*
X136290476Y-121683390D02*
X136338095Y-121731009D01*
X136338095Y-121731009D02*
X136385714Y-121826247D01*
X136385714Y-121826247D02*
X136385714Y-122064342D01*
X136385714Y-122064342D02*
X136338095Y-122159580D01*
X136338095Y-122159580D02*
X136290476Y-122207200D01*
X136290476Y-122207200D02*
X136195238Y-122254819D01*
X136195238Y-122254819D02*
X135909524Y-122254819D01*
X135909524Y-122254819D02*
X135814286Y-122207200D01*
X135814286Y-122207200D02*
X135766667Y-122159580D01*
X164033333Y-112359580D02*
X163985714Y-112407200D01*
X163985714Y-112407200D02*
X163842857Y-112454819D01*
X163842857Y-112454819D02*
X163747619Y-112454819D01*
X163747619Y-112454819D02*
X163604762Y-112407200D01*
X163604762Y-112407200D02*
X163509524Y-112311961D01*
X163509524Y-112311961D02*
X163461905Y-112216723D01*
X163461905Y-112216723D02*
X163414286Y-112026247D01*
X163414286Y-112026247D02*
X163414286Y-111883390D01*
X163414286Y-111883390D02*
X163461905Y-111692914D01*
X163461905Y-111692914D02*
X163509524Y-111597676D01*
X163509524Y-111597676D02*
X163604762Y-111502438D01*
X163604762Y-111502438D02*
X163747619Y-111454819D01*
X163747619Y-111454819D02*
X163842857Y-111454819D01*
X163842857Y-111454819D02*
X163985714Y-111502438D01*
X163985714Y-111502438D02*
X164033333Y-111550057D01*
X164938095Y-111454819D02*
X164461905Y-111454819D01*
X164461905Y-111454819D02*
X164414286Y-111931009D01*
X164414286Y-111931009D02*
X164461905Y-111883390D01*
X164461905Y-111883390D02*
X164557143Y-111835771D01*
X164557143Y-111835771D02*
X164795238Y-111835771D01*
X164795238Y-111835771D02*
X164890476Y-111883390D01*
X164890476Y-111883390D02*
X164938095Y-111931009D01*
X164938095Y-111931009D02*
X164985714Y-112026247D01*
X164985714Y-112026247D02*
X164985714Y-112264342D01*
X164985714Y-112264342D02*
X164938095Y-112359580D01*
X164938095Y-112359580D02*
X164890476Y-112407200D01*
X164890476Y-112407200D02*
X164795238Y-112454819D01*
X164795238Y-112454819D02*
X164557143Y-112454819D01*
X164557143Y-112454819D02*
X164461905Y-112407200D01*
X164461905Y-112407200D02*
X164414286Y-112359580D01*
D10*
X120214285Y-90933609D02*
X120357142Y-90981228D01*
X120357142Y-90981228D02*
X120404761Y-91028847D01*
X120404761Y-91028847D02*
X120452380Y-91124085D01*
X120452380Y-91124085D02*
X120452380Y-91266942D01*
X120452380Y-91266942D02*
X120404761Y-91362180D01*
X120404761Y-91362180D02*
X120357142Y-91409800D01*
X120357142Y-91409800D02*
X120261904Y-91457419D01*
X120261904Y-91457419D02*
X119880952Y-91457419D01*
X119880952Y-91457419D02*
X119880952Y-90457419D01*
X119880952Y-90457419D02*
X120214285Y-90457419D01*
X120214285Y-90457419D02*
X120309523Y-90505038D01*
X120309523Y-90505038D02*
X120357142Y-90552657D01*
X120357142Y-90552657D02*
X120404761Y-90647895D01*
X120404761Y-90647895D02*
X120404761Y-90743133D01*
X120404761Y-90743133D02*
X120357142Y-90838371D01*
X120357142Y-90838371D02*
X120309523Y-90885990D01*
X120309523Y-90885990D02*
X120214285Y-90933609D01*
X120214285Y-90933609D02*
X119880952Y-90933609D01*
X120738095Y-90457419D02*
X121309523Y-90457419D01*
X121023809Y-91457419D02*
X121023809Y-90457419D01*
X122166666Y-91457419D02*
X121595238Y-91457419D01*
X121880952Y-91457419D02*
X121880952Y-90457419D01*
X121880952Y-90457419D02*
X121785714Y-90600276D01*
X121785714Y-90600276D02*
X121690476Y-90695514D01*
X121690476Y-90695514D02*
X121595238Y-90743133D01*
D11*
X129066667Y-81407200D02*
X129209524Y-81454819D01*
X129209524Y-81454819D02*
X129447619Y-81454819D01*
X129447619Y-81454819D02*
X129542857Y-81407200D01*
X129542857Y-81407200D02*
X129590476Y-81359580D01*
X129590476Y-81359580D02*
X129638095Y-81264342D01*
X129638095Y-81264342D02*
X129638095Y-81169104D01*
X129638095Y-81169104D02*
X129590476Y-81073866D01*
X129590476Y-81073866D02*
X129542857Y-81026247D01*
X129542857Y-81026247D02*
X129447619Y-80978628D01*
X129447619Y-80978628D02*
X129257143Y-80931009D01*
X129257143Y-80931009D02*
X129161905Y-80883390D01*
X129161905Y-80883390D02*
X129114286Y-80835771D01*
X129114286Y-80835771D02*
X129066667Y-80740533D01*
X129066667Y-80740533D02*
X129066667Y-80645295D01*
X129066667Y-80645295D02*
X129114286Y-80550057D01*
X129114286Y-80550057D02*
X129161905Y-80502438D01*
X129161905Y-80502438D02*
X129257143Y-80454819D01*
X129257143Y-80454819D02*
X129495238Y-80454819D01*
X129495238Y-80454819D02*
X129638095Y-80502438D01*
X129971429Y-80454819D02*
X130209524Y-81454819D01*
X130209524Y-81454819D02*
X130400000Y-80740533D01*
X130400000Y-80740533D02*
X130590476Y-81454819D01*
X130590476Y-81454819D02*
X130828572Y-80454819D01*
X131161905Y-80550057D02*
X131209524Y-80502438D01*
X131209524Y-80502438D02*
X131304762Y-80454819D01*
X131304762Y-80454819D02*
X131542857Y-80454819D01*
X131542857Y-80454819D02*
X131638095Y-80502438D01*
X131638095Y-80502438D02*
X131685714Y-80550057D01*
X131685714Y-80550057D02*
X131733333Y-80645295D01*
X131733333Y-80645295D02*
X131733333Y-80740533D01*
X131733333Y-80740533D02*
X131685714Y-80883390D01*
X131685714Y-80883390D02*
X131114286Y-81454819D01*
X131114286Y-81454819D02*
X131733333Y-81454819D01*
X135433333Y-124959580D02*
X135385714Y-125007200D01*
X135385714Y-125007200D02*
X135242857Y-125054819D01*
X135242857Y-125054819D02*
X135147619Y-125054819D01*
X135147619Y-125054819D02*
X135004762Y-125007200D01*
X135004762Y-125007200D02*
X134909524Y-124911961D01*
X134909524Y-124911961D02*
X134861905Y-124816723D01*
X134861905Y-124816723D02*
X134814286Y-124626247D01*
X134814286Y-124626247D02*
X134814286Y-124483390D01*
X134814286Y-124483390D02*
X134861905Y-124292914D01*
X134861905Y-124292914D02*
X134909524Y-124197676D01*
X134909524Y-124197676D02*
X135004762Y-124102438D01*
X135004762Y-124102438D02*
X135147619Y-124054819D01*
X135147619Y-124054819D02*
X135242857Y-124054819D01*
X135242857Y-124054819D02*
X135385714Y-124102438D01*
X135385714Y-124102438D02*
X135433333Y-124150057D01*
X135814286Y-124150057D02*
X135861905Y-124102438D01*
X135861905Y-124102438D02*
X135957143Y-124054819D01*
X135957143Y-124054819D02*
X136195238Y-124054819D01*
X136195238Y-124054819D02*
X136290476Y-124102438D01*
X136290476Y-124102438D02*
X136338095Y-124150057D01*
X136338095Y-124150057D02*
X136385714Y-124245295D01*
X136385714Y-124245295D02*
X136385714Y-124340533D01*
X136385714Y-124340533D02*
X136338095Y-124483390D01*
X136338095Y-124483390D02*
X135766667Y-125054819D01*
X135766667Y-125054819D02*
X136385714Y-125054819D01*
X149666666Y-62584819D02*
X149666666Y-63299104D01*
X149666666Y-63299104D02*
X149619047Y-63441961D01*
X149619047Y-63441961D02*
X149523809Y-63537200D01*
X149523809Y-63537200D02*
X149380952Y-63584819D01*
X149380952Y-63584819D02*
X149285714Y-63584819D01*
X150666666Y-63584819D02*
X150095238Y-63584819D01*
X150380952Y-63584819D02*
X150380952Y-62584819D01*
X150380952Y-62584819D02*
X150285714Y-62727676D01*
X150285714Y-62727676D02*
X150190476Y-62822914D01*
X150190476Y-62822914D02*
X150095238Y-62870533D01*
X139833333Y-122454819D02*
X139500000Y-121978628D01*
X139261905Y-122454819D02*
X139261905Y-121454819D01*
X139261905Y-121454819D02*
X139642857Y-121454819D01*
X139642857Y-121454819D02*
X139738095Y-121502438D01*
X139738095Y-121502438D02*
X139785714Y-121550057D01*
X139785714Y-121550057D02*
X139833333Y-121645295D01*
X139833333Y-121645295D02*
X139833333Y-121788152D01*
X139833333Y-121788152D02*
X139785714Y-121883390D01*
X139785714Y-121883390D02*
X139738095Y-121931009D01*
X139738095Y-121931009D02*
X139642857Y-121978628D01*
X139642857Y-121978628D02*
X139261905Y-121978628D01*
X140166667Y-121454819D02*
X140785714Y-121454819D01*
X140785714Y-121454819D02*
X140452381Y-121835771D01*
X140452381Y-121835771D02*
X140595238Y-121835771D01*
X140595238Y-121835771D02*
X140690476Y-121883390D01*
X140690476Y-121883390D02*
X140738095Y-121931009D01*
X140738095Y-121931009D02*
X140785714Y-122026247D01*
X140785714Y-122026247D02*
X140785714Y-122264342D01*
X140785714Y-122264342D02*
X140738095Y-122359580D01*
X140738095Y-122359580D02*
X140690476Y-122407200D01*
X140690476Y-122407200D02*
X140595238Y-122454819D01*
X140595238Y-122454819D02*
X140309524Y-122454819D01*
X140309524Y-122454819D02*
X140214286Y-122407200D01*
X140214286Y-122407200D02*
X140166667Y-122359580D01*
D13*
%TO.C,R2*%
X133735436Y-76090000D02*
X135189564Y-76090000D01*
X133735436Y-77910000D02*
X135189564Y-77910000D01*
%TO.C,R4*%
X124090000Y-124727064D02*
X124090000Y-123272936D01*
X125910000Y-124727064D02*
X125910000Y-123272936D01*
%TO.C,C1*%
X140711252Y-132910000D02*
X139288748Y-132910000D01*
X140711252Y-131090000D02*
X139288748Y-131090000D01*
D10*
%TO.C,L1*%
X140000000Y-125800000D02*
X140000000Y-125800000D01*
X140000000Y-125900000D02*
X140000000Y-125900000D01*
X140000000Y-125900000D02*
G75*
G03*
X140000000Y-125800000I0J50000D01*
G01*
X140000000Y-125800000D02*
G75*
G03*
X140000000Y-125900000I0J-50000D01*
G01*
D13*
%TO.C,R1*%
X142189564Y-77910000D02*
X140735436Y-77910000D01*
X142189564Y-76090000D02*
X140735436Y-76090000D01*
D14*
%TO.C,D1*%
X160100000Y-115700000D02*
G75*
G03*
X159900000Y-115700000I-100000J0D01*
G01*
X159900000Y-115700000D02*
G75*
G03*
X160100000Y-115700000I100000J0D01*
G01*
D13*
%TO.C,C4*%
X167288748Y-121890000D02*
X168711252Y-121890000D01*
X167288748Y-123710000D02*
X168711252Y-123710000D01*
D14*
%TO.C,IC1*%
X135925000Y-130550000D02*
X134500000Y-130550000D01*
X134150000Y-130500000D02*
X131850000Y-130500000D01*
X134150000Y-127500000D02*
X134150000Y-130500000D01*
X131850000Y-130500000D02*
X131850000Y-127500000D01*
X131850000Y-127500000D02*
X134150000Y-127500000D01*
D13*
%TO.C,U2*%
X150000000Y-75565000D02*
X148050000Y-75565000D01*
X150000000Y-75565000D02*
X151950000Y-75565000D01*
X150000000Y-84435000D02*
X148050000Y-84435000D01*
X150000000Y-84435000D02*
X151950000Y-84435000D01*
X147300000Y-75630000D02*
X147060000Y-75300000D01*
X147540000Y-75300000D01*
X147300000Y-75630000D01*
G36*
X147300000Y-75630000D02*
G01*
X147060000Y-75300000D01*
X147540000Y-75300000D01*
X147300000Y-75630000D01*
G37*
%TO.C,R6*%
X168707064Y-116091250D02*
X167252936Y-116091250D01*
X168707064Y-114271250D02*
X167252936Y-114271250D01*
%TO.C,J4*%
X167330000Y-77670000D02*
X166760000Y-77670000D01*
X167330000Y-77670000D02*
X167330000Y-80330000D01*
X166760000Y-77670000D02*
X166760000Y-76150000D01*
X165240000Y-77670000D02*
X161680000Y-77670000D01*
X159590000Y-77670000D02*
X159590000Y-80330000D01*
X167330000Y-80330000D02*
X164220000Y-80330000D01*
X162700000Y-80330000D02*
X159590000Y-80330000D01*
X160160000Y-80330000D02*
X159590000Y-80330000D01*
%TO.C,R5*%
X127090000Y-126727064D02*
X127090000Y-125272936D01*
X128910000Y-126727064D02*
X128910000Y-125272936D01*
%TO.C,J2*%
X175670000Y-112130000D02*
X175670000Y-112700000D01*
X175670000Y-112130000D02*
X178330000Y-112130000D01*
X175670000Y-112700000D02*
X174150000Y-112700000D01*
X175670000Y-114220000D02*
X175670000Y-117780000D01*
X175670000Y-119870000D02*
X178330000Y-119870000D01*
X178330000Y-112130000D02*
X178330000Y-115240000D01*
X178330000Y-116760000D02*
X178330000Y-119870000D01*
X178330000Y-119300000D02*
X178330000Y-119870000D01*
%TO.C,R7*%
X168727064Y-126710000D02*
X167272936Y-126710000D01*
X168727064Y-124890000D02*
X167272936Y-124890000D01*
%TO.C,J3*%
X121670000Y-112130000D02*
X121670000Y-112700000D01*
X121670000Y-112130000D02*
X124330000Y-112130000D01*
X121670000Y-112700000D02*
X120150000Y-112700000D01*
X121670000Y-114220000D02*
X121670000Y-117780000D01*
X121670000Y-119870000D02*
X124330000Y-119870000D01*
X124330000Y-112130000D02*
X124330000Y-115240000D01*
X124330000Y-116760000D02*
X124330000Y-119870000D01*
X124330000Y-119300000D02*
X124330000Y-119870000D01*
%TO.C,U3*%
X167750000Y-117527500D02*
X166950000Y-117527500D01*
X167750000Y-117527500D02*
X168550000Y-117527500D01*
X167750000Y-120647500D02*
X166950000Y-120647500D01*
X167750000Y-120647500D02*
X168550000Y-120647500D01*
X166450000Y-117577500D02*
X166210000Y-117247500D01*
X166690000Y-117247500D01*
X166450000Y-117577500D01*
G36*
X166450000Y-117577500D02*
G01*
X166210000Y-117247500D01*
X166690000Y-117247500D01*
X166450000Y-117577500D01*
G37*
%TO.C,C3*%
X131288748Y-121090000D02*
X132711252Y-121090000D01*
X131288748Y-122910000D02*
X132711252Y-122910000D01*
%TO.C,C5*%
X168711252Y-112910000D02*
X167288748Y-112910000D01*
X168711252Y-111090000D02*
X167288748Y-111090000D01*
D10*
%TO.C,BT1*%
X119000000Y-105000000D02*
X117000000Y-105000000D01*
X180480000Y-105080000D02*
X183020000Y-105080000D01*
X181750000Y-103810000D02*
X181750000Y-106350000D01*
X120000000Y-108000000D02*
X180000000Y-108000000D01*
X180000000Y-108000000D02*
X180000000Y-92000000D01*
X180000000Y-92000000D02*
X120000000Y-92000000D01*
X120000000Y-92000000D02*
X120000000Y-108000000D01*
D13*
%TO.C,SW2*%
X142040000Y-81760000D02*
X140600000Y-81760000D01*
X140600000Y-82330000D02*
X140600000Y-81760000D01*
X140600000Y-82330000D02*
X135400000Y-82330000D01*
X140600000Y-80240000D02*
X140600000Y-79670000D01*
X140600000Y-79670000D02*
X135400000Y-79670000D01*
X135400000Y-82330000D02*
X135400000Y-81760000D01*
X135400000Y-80240000D02*
X135400000Y-79670000D01*
%TO.C,C2*%
X131288748Y-124265000D02*
X132711252Y-124265000D01*
X131288748Y-126085000D02*
X132711252Y-126085000D01*
%TO.C,J1*%
X148670000Y-64130000D02*
X148670000Y-64700000D01*
X148670000Y-64130000D02*
X151330000Y-64130000D01*
X148670000Y-64700000D02*
X147150000Y-64700000D01*
X148670000Y-66220000D02*
X148670000Y-69780000D01*
X148670000Y-71870000D02*
X151330000Y-71870000D01*
X151330000Y-64130000D02*
X151330000Y-67240000D01*
X151330000Y-68760000D02*
X151330000Y-71870000D01*
X151330000Y-71300000D02*
X151330000Y-71870000D01*
%TO.C,R3*%
X140727064Y-124910000D02*
X139272936Y-124910000D01*
X140727064Y-123090000D02*
X139272936Y-123090000D01*
%TD*%
M02*
