%TF.GenerationSoftware,KiCad,Pcbnew,7.0.11*%
%TF.CreationDate,2025-03-11T10:56:17-07:00*%
%TF.ProjectId,nightLight,6e696768-744c-4696-9768-742e6b696361,rev?*%
%TF.SameCoordinates,Original*%
%TF.FileFunction,Legend,Top*%
%TF.FilePolarity,Positive*%
%FSLAX46Y46*%
G04 Gerber Fmt 4.6, Leading zero omitted, Abs format (unit mm)*
G04 Created by KiCad (PCBNEW 7.0.11) date 2025-03-11 10:56:17*
%MOMM*%
%LPD*%
G01*
G04 APERTURE LIST*
%ADD10C,0.300000*%
%ADD11C,0.150000*%
%ADD12C,0.254000*%
%ADD13C,0.100000*%
%ADD14C,0.200000*%
%ADD15C,0.127000*%
%ADD16C,0.120000*%
G04 APERTURE END LIST*
D10*
X139354510Y-63370828D02*
X139354510Y-61870828D01*
X139354510Y-61870828D02*
X140211653Y-63370828D01*
X140211653Y-63370828D02*
X140211653Y-61870828D01*
X140925939Y-63370828D02*
X140925939Y-62370828D01*
X140925939Y-61870828D02*
X140854511Y-61942257D01*
X140854511Y-61942257D02*
X140925939Y-62013685D01*
X140925939Y-62013685D02*
X140997368Y-61942257D01*
X140997368Y-61942257D02*
X140925939Y-61870828D01*
X140925939Y-61870828D02*
X140925939Y-62013685D01*
X142283083Y-62370828D02*
X142283083Y-63585114D01*
X142283083Y-63585114D02*
X142211654Y-63727971D01*
X142211654Y-63727971D02*
X142140225Y-63799400D01*
X142140225Y-63799400D02*
X141997368Y-63870828D01*
X141997368Y-63870828D02*
X141783083Y-63870828D01*
X141783083Y-63870828D02*
X141640225Y-63799400D01*
X142283083Y-63299400D02*
X142140225Y-63370828D01*
X142140225Y-63370828D02*
X141854511Y-63370828D01*
X141854511Y-63370828D02*
X141711654Y-63299400D01*
X141711654Y-63299400D02*
X141640225Y-63227971D01*
X141640225Y-63227971D02*
X141568797Y-63085114D01*
X141568797Y-63085114D02*
X141568797Y-62656542D01*
X141568797Y-62656542D02*
X141640225Y-62513685D01*
X141640225Y-62513685D02*
X141711654Y-62442257D01*
X141711654Y-62442257D02*
X141854511Y-62370828D01*
X141854511Y-62370828D02*
X142140225Y-62370828D01*
X142140225Y-62370828D02*
X142283083Y-62442257D01*
X142997368Y-63370828D02*
X142997368Y-61870828D01*
X143640226Y-63370828D02*
X143640226Y-62585114D01*
X143640226Y-62585114D02*
X143568797Y-62442257D01*
X143568797Y-62442257D02*
X143425940Y-62370828D01*
X143425940Y-62370828D02*
X143211654Y-62370828D01*
X143211654Y-62370828D02*
X143068797Y-62442257D01*
X143068797Y-62442257D02*
X142997368Y-62513685D01*
X144140226Y-62370828D02*
X144711654Y-62370828D01*
X144354511Y-61870828D02*
X144354511Y-63156542D01*
X144354511Y-63156542D02*
X144425940Y-63299400D01*
X144425940Y-63299400D02*
X144568797Y-63370828D01*
X144568797Y-63370828D02*
X144711654Y-63370828D01*
X147068797Y-63370828D02*
X146354511Y-63370828D01*
X146354511Y-63370828D02*
X146354511Y-61870828D01*
X147568797Y-63370828D02*
X147568797Y-62370828D01*
X147568797Y-61870828D02*
X147497369Y-61942257D01*
X147497369Y-61942257D02*
X147568797Y-62013685D01*
X147568797Y-62013685D02*
X147640226Y-61942257D01*
X147640226Y-61942257D02*
X147568797Y-61870828D01*
X147568797Y-61870828D02*
X147568797Y-62013685D01*
X148925941Y-62370828D02*
X148925941Y-63585114D01*
X148925941Y-63585114D02*
X148854512Y-63727971D01*
X148854512Y-63727971D02*
X148783083Y-63799400D01*
X148783083Y-63799400D02*
X148640226Y-63870828D01*
X148640226Y-63870828D02*
X148425941Y-63870828D01*
X148425941Y-63870828D02*
X148283083Y-63799400D01*
X148925941Y-63299400D02*
X148783083Y-63370828D01*
X148783083Y-63370828D02*
X148497369Y-63370828D01*
X148497369Y-63370828D02*
X148354512Y-63299400D01*
X148354512Y-63299400D02*
X148283083Y-63227971D01*
X148283083Y-63227971D02*
X148211655Y-63085114D01*
X148211655Y-63085114D02*
X148211655Y-62656542D01*
X148211655Y-62656542D02*
X148283083Y-62513685D01*
X148283083Y-62513685D02*
X148354512Y-62442257D01*
X148354512Y-62442257D02*
X148497369Y-62370828D01*
X148497369Y-62370828D02*
X148783083Y-62370828D01*
X148783083Y-62370828D02*
X148925941Y-62442257D01*
X149640226Y-63370828D02*
X149640226Y-61870828D01*
X150283084Y-63370828D02*
X150283084Y-62585114D01*
X150283084Y-62585114D02*
X150211655Y-62442257D01*
X150211655Y-62442257D02*
X150068798Y-62370828D01*
X150068798Y-62370828D02*
X149854512Y-62370828D01*
X149854512Y-62370828D02*
X149711655Y-62442257D01*
X149711655Y-62442257D02*
X149640226Y-62513685D01*
X150783084Y-62370828D02*
X151354512Y-62370828D01*
X150997369Y-61870828D02*
X150997369Y-63156542D01*
X150997369Y-63156542D02*
X151068798Y-63299400D01*
X151068798Y-63299400D02*
X151211655Y-63370828D01*
X151211655Y-63370828D02*
X151354512Y-63370828D01*
X153854512Y-63370828D02*
X153354512Y-62656542D01*
X152997369Y-63370828D02*
X152997369Y-61870828D01*
X152997369Y-61870828D02*
X153568798Y-61870828D01*
X153568798Y-61870828D02*
X153711655Y-61942257D01*
X153711655Y-61942257D02*
X153783084Y-62013685D01*
X153783084Y-62013685D02*
X153854512Y-62156542D01*
X153854512Y-62156542D02*
X153854512Y-62370828D01*
X153854512Y-62370828D02*
X153783084Y-62513685D01*
X153783084Y-62513685D02*
X153711655Y-62585114D01*
X153711655Y-62585114D02*
X153568798Y-62656542D01*
X153568798Y-62656542D02*
X152997369Y-62656542D01*
X154425941Y-62013685D02*
X154497369Y-61942257D01*
X154497369Y-61942257D02*
X154640227Y-61870828D01*
X154640227Y-61870828D02*
X154997369Y-61870828D01*
X154997369Y-61870828D02*
X155140227Y-61942257D01*
X155140227Y-61942257D02*
X155211655Y-62013685D01*
X155211655Y-62013685D02*
X155283084Y-62156542D01*
X155283084Y-62156542D02*
X155283084Y-62299400D01*
X155283084Y-62299400D02*
X155211655Y-62513685D01*
X155211655Y-62513685D02*
X154354512Y-63370828D01*
X154354512Y-63370828D02*
X155283084Y-63370828D01*
X140211653Y-65642971D02*
X140140225Y-65714400D01*
X140140225Y-65714400D02*
X139925939Y-65785828D01*
X139925939Y-65785828D02*
X139783082Y-65785828D01*
X139783082Y-65785828D02*
X139568796Y-65714400D01*
X139568796Y-65714400D02*
X139425939Y-65571542D01*
X139425939Y-65571542D02*
X139354510Y-65428685D01*
X139354510Y-65428685D02*
X139283082Y-65142971D01*
X139283082Y-65142971D02*
X139283082Y-64928685D01*
X139283082Y-64928685D02*
X139354510Y-64642971D01*
X139354510Y-64642971D02*
X139425939Y-64500114D01*
X139425939Y-64500114D02*
X139568796Y-64357257D01*
X139568796Y-64357257D02*
X139783082Y-64285828D01*
X139783082Y-64285828D02*
X139925939Y-64285828D01*
X139925939Y-64285828D02*
X140140225Y-64357257D01*
X140140225Y-64357257D02*
X140211653Y-64428685D01*
X141497368Y-65785828D02*
X141497368Y-65000114D01*
X141497368Y-65000114D02*
X141425939Y-64857257D01*
X141425939Y-64857257D02*
X141283082Y-64785828D01*
X141283082Y-64785828D02*
X140997368Y-64785828D01*
X140997368Y-64785828D02*
X140854510Y-64857257D01*
X141497368Y-65714400D02*
X141354510Y-65785828D01*
X141354510Y-65785828D02*
X140997368Y-65785828D01*
X140997368Y-65785828D02*
X140854510Y-65714400D01*
X140854510Y-65714400D02*
X140783082Y-65571542D01*
X140783082Y-65571542D02*
X140783082Y-65428685D01*
X140783082Y-65428685D02*
X140854510Y-65285828D01*
X140854510Y-65285828D02*
X140997368Y-65214400D01*
X140997368Y-65214400D02*
X141354510Y-65214400D01*
X141354510Y-65214400D02*
X141497368Y-65142971D01*
X142211653Y-65785828D02*
X142211653Y-64785828D01*
X142211653Y-64928685D02*
X142283082Y-64857257D01*
X142283082Y-64857257D02*
X142425939Y-64785828D01*
X142425939Y-64785828D02*
X142640225Y-64785828D01*
X142640225Y-64785828D02*
X142783082Y-64857257D01*
X142783082Y-64857257D02*
X142854511Y-65000114D01*
X142854511Y-65000114D02*
X142854511Y-65785828D01*
X142854511Y-65000114D02*
X142925939Y-64857257D01*
X142925939Y-64857257D02*
X143068796Y-64785828D01*
X143068796Y-64785828D02*
X143283082Y-64785828D01*
X143283082Y-64785828D02*
X143425939Y-64857257D01*
X143425939Y-64857257D02*
X143497368Y-65000114D01*
X143497368Y-65000114D02*
X143497368Y-65785828D01*
X144783082Y-65714400D02*
X144640225Y-65785828D01*
X144640225Y-65785828D02*
X144354511Y-65785828D01*
X144354511Y-65785828D02*
X144211653Y-65714400D01*
X144211653Y-65714400D02*
X144140225Y-65571542D01*
X144140225Y-65571542D02*
X144140225Y-65000114D01*
X144140225Y-65000114D02*
X144211653Y-64857257D01*
X144211653Y-64857257D02*
X144354511Y-64785828D01*
X144354511Y-64785828D02*
X144640225Y-64785828D01*
X144640225Y-64785828D02*
X144783082Y-64857257D01*
X144783082Y-64857257D02*
X144854511Y-65000114D01*
X144854511Y-65000114D02*
X144854511Y-65142971D01*
X144854511Y-65142971D02*
X144140225Y-65285828D01*
X145497367Y-65785828D02*
X145497367Y-64785828D01*
X145497367Y-65071542D02*
X145568796Y-64928685D01*
X145568796Y-64928685D02*
X145640225Y-64857257D01*
X145640225Y-64857257D02*
X145783082Y-64785828D01*
X145783082Y-64785828D02*
X145925939Y-64785828D01*
X146640224Y-65785828D02*
X146497367Y-65714400D01*
X146497367Y-65714400D02*
X146425938Y-65642971D01*
X146425938Y-65642971D02*
X146354510Y-65500114D01*
X146354510Y-65500114D02*
X146354510Y-65071542D01*
X146354510Y-65071542D02*
X146425938Y-64928685D01*
X146425938Y-64928685D02*
X146497367Y-64857257D01*
X146497367Y-64857257D02*
X146640224Y-64785828D01*
X146640224Y-64785828D02*
X146854510Y-64785828D01*
X146854510Y-64785828D02*
X146997367Y-64857257D01*
X146997367Y-64857257D02*
X147068796Y-64928685D01*
X147068796Y-64928685D02*
X147140224Y-65071542D01*
X147140224Y-65071542D02*
X147140224Y-65500114D01*
X147140224Y-65500114D02*
X147068796Y-65642971D01*
X147068796Y-65642971D02*
X146997367Y-65714400D01*
X146997367Y-65714400D02*
X146854510Y-65785828D01*
X146854510Y-65785828D02*
X146640224Y-65785828D01*
X147783081Y-64785828D02*
X147783081Y-65785828D01*
X147783081Y-64928685D02*
X147854510Y-64857257D01*
X147854510Y-64857257D02*
X147997367Y-64785828D01*
X147997367Y-64785828D02*
X148211653Y-64785828D01*
X148211653Y-64785828D02*
X148354510Y-64857257D01*
X148354510Y-64857257D02*
X148425939Y-65000114D01*
X148425939Y-65000114D02*
X148425939Y-65785828D01*
X151068796Y-64357257D02*
X150925939Y-64285828D01*
X150925939Y-64285828D02*
X150711653Y-64285828D01*
X150711653Y-64285828D02*
X150497367Y-64357257D01*
X150497367Y-64357257D02*
X150354510Y-64500114D01*
X150354510Y-64500114D02*
X150283081Y-64642971D01*
X150283081Y-64642971D02*
X150211653Y-64928685D01*
X150211653Y-64928685D02*
X150211653Y-65142971D01*
X150211653Y-65142971D02*
X150283081Y-65428685D01*
X150283081Y-65428685D02*
X150354510Y-65571542D01*
X150354510Y-65571542D02*
X150497367Y-65714400D01*
X150497367Y-65714400D02*
X150711653Y-65785828D01*
X150711653Y-65785828D02*
X150854510Y-65785828D01*
X150854510Y-65785828D02*
X151068796Y-65714400D01*
X151068796Y-65714400D02*
X151140224Y-65642971D01*
X151140224Y-65642971D02*
X151140224Y-65142971D01*
X151140224Y-65142971D02*
X150854510Y-65142971D01*
X151783081Y-65785828D02*
X151783081Y-64785828D01*
X151783081Y-64285828D02*
X151711653Y-64357257D01*
X151711653Y-64357257D02*
X151783081Y-64428685D01*
X151783081Y-64428685D02*
X151854510Y-64357257D01*
X151854510Y-64357257D02*
X151783081Y-64285828D01*
X151783081Y-64285828D02*
X151783081Y-64428685D01*
X152711653Y-65785828D02*
X152568796Y-65714400D01*
X152568796Y-65714400D02*
X152497367Y-65571542D01*
X152497367Y-65571542D02*
X152497367Y-64285828D01*
X153497367Y-65785828D02*
X153354510Y-65714400D01*
X153354510Y-65714400D02*
X153283081Y-65571542D01*
X153283081Y-65571542D02*
X153283081Y-64285828D01*
X154068795Y-65785828D02*
X154068795Y-64785828D01*
X154068795Y-64285828D02*
X153997367Y-64357257D01*
X153997367Y-64357257D02*
X154068795Y-64428685D01*
X154068795Y-64428685D02*
X154140224Y-64357257D01*
X154140224Y-64357257D02*
X154068795Y-64285828D01*
X154068795Y-64285828D02*
X154068795Y-64428685D01*
X154783081Y-64785828D02*
X154783081Y-65785828D01*
X154783081Y-64928685D02*
X154854510Y-64857257D01*
X154854510Y-64857257D02*
X154997367Y-64785828D01*
X154997367Y-64785828D02*
X155211653Y-64785828D01*
X155211653Y-64785828D02*
X155354510Y-64857257D01*
X155354510Y-64857257D02*
X155425939Y-65000114D01*
X155425939Y-65000114D02*
X155425939Y-65785828D01*
X156783082Y-64785828D02*
X156783082Y-66000114D01*
X156783082Y-66000114D02*
X156711653Y-66142971D01*
X156711653Y-66142971D02*
X156640224Y-66214400D01*
X156640224Y-66214400D02*
X156497367Y-66285828D01*
X156497367Y-66285828D02*
X156283082Y-66285828D01*
X156283082Y-66285828D02*
X156140224Y-66214400D01*
X156783082Y-65714400D02*
X156640224Y-65785828D01*
X156640224Y-65785828D02*
X156354510Y-65785828D01*
X156354510Y-65785828D02*
X156211653Y-65714400D01*
X156211653Y-65714400D02*
X156140224Y-65642971D01*
X156140224Y-65642971D02*
X156068796Y-65500114D01*
X156068796Y-65500114D02*
X156068796Y-65071542D01*
X156068796Y-65071542D02*
X156140224Y-64928685D01*
X156140224Y-64928685D02*
X156211653Y-64857257D01*
X156211653Y-64857257D02*
X156354510Y-64785828D01*
X156354510Y-64785828D02*
X156640224Y-64785828D01*
X156640224Y-64785828D02*
X156783082Y-64857257D01*
X157497367Y-65785828D02*
X157497367Y-64285828D01*
X158140225Y-65785828D02*
X158140225Y-65000114D01*
X158140225Y-65000114D02*
X158068796Y-64857257D01*
X158068796Y-64857257D02*
X157925939Y-64785828D01*
X157925939Y-64785828D02*
X157711653Y-64785828D01*
X157711653Y-64785828D02*
X157568796Y-64857257D01*
X157568796Y-64857257D02*
X157497367Y-64928685D01*
X159497368Y-65785828D02*
X159497368Y-65000114D01*
X159497368Y-65000114D02*
X159425939Y-64857257D01*
X159425939Y-64857257D02*
X159283082Y-64785828D01*
X159283082Y-64785828D02*
X158997368Y-64785828D01*
X158997368Y-64785828D02*
X158854510Y-64857257D01*
X159497368Y-65714400D02*
X159354510Y-65785828D01*
X159354510Y-65785828D02*
X158997368Y-65785828D01*
X158997368Y-65785828D02*
X158854510Y-65714400D01*
X158854510Y-65714400D02*
X158783082Y-65571542D01*
X158783082Y-65571542D02*
X158783082Y-65428685D01*
X158783082Y-65428685D02*
X158854510Y-65285828D01*
X158854510Y-65285828D02*
X158997368Y-65214400D01*
X158997368Y-65214400D02*
X159354510Y-65214400D01*
X159354510Y-65214400D02*
X159497368Y-65142971D01*
X160211653Y-65785828D02*
X160211653Y-64785828D01*
X160211653Y-64928685D02*
X160283082Y-64857257D01*
X160283082Y-64857257D02*
X160425939Y-64785828D01*
X160425939Y-64785828D02*
X160640225Y-64785828D01*
X160640225Y-64785828D02*
X160783082Y-64857257D01*
X160783082Y-64857257D02*
X160854511Y-65000114D01*
X160854511Y-65000114D02*
X160854511Y-65785828D01*
X160854511Y-65000114D02*
X160925939Y-64857257D01*
X160925939Y-64857257D02*
X161068796Y-64785828D01*
X161068796Y-64785828D02*
X161283082Y-64785828D01*
X161283082Y-64785828D02*
X161425939Y-64857257D01*
X161425939Y-64857257D02*
X161497368Y-65000114D01*
X161497368Y-65000114D02*
X161497368Y-65785828D01*
X139354510Y-68200828D02*
X139354510Y-66700828D01*
X139354510Y-66700828D02*
X139854510Y-67772257D01*
X139854510Y-67772257D02*
X140354510Y-66700828D01*
X140354510Y-66700828D02*
X140354510Y-68200828D01*
X141711654Y-68200828D02*
X141711654Y-67415114D01*
X141711654Y-67415114D02*
X141640225Y-67272257D01*
X141640225Y-67272257D02*
X141497368Y-67200828D01*
X141497368Y-67200828D02*
X141211654Y-67200828D01*
X141211654Y-67200828D02*
X141068796Y-67272257D01*
X141711654Y-68129400D02*
X141568796Y-68200828D01*
X141568796Y-68200828D02*
X141211654Y-68200828D01*
X141211654Y-68200828D02*
X141068796Y-68129400D01*
X141068796Y-68129400D02*
X140997368Y-67986542D01*
X140997368Y-67986542D02*
X140997368Y-67843685D01*
X140997368Y-67843685D02*
X141068796Y-67700828D01*
X141068796Y-67700828D02*
X141211654Y-67629400D01*
X141211654Y-67629400D02*
X141568796Y-67629400D01*
X141568796Y-67629400D02*
X141711654Y-67557971D01*
X142425939Y-68200828D02*
X142425939Y-67200828D01*
X142425939Y-67486542D02*
X142497368Y-67343685D01*
X142497368Y-67343685D02*
X142568797Y-67272257D01*
X142568797Y-67272257D02*
X142711654Y-67200828D01*
X142711654Y-67200828D02*
X142854511Y-67200828D01*
X143997368Y-68129400D02*
X143854510Y-68200828D01*
X143854510Y-68200828D02*
X143568796Y-68200828D01*
X143568796Y-68200828D02*
X143425939Y-68129400D01*
X143425939Y-68129400D02*
X143354510Y-68057971D01*
X143354510Y-68057971D02*
X143283082Y-67915114D01*
X143283082Y-67915114D02*
X143283082Y-67486542D01*
X143283082Y-67486542D02*
X143354510Y-67343685D01*
X143354510Y-67343685D02*
X143425939Y-67272257D01*
X143425939Y-67272257D02*
X143568796Y-67200828D01*
X143568796Y-67200828D02*
X143854510Y-67200828D01*
X143854510Y-67200828D02*
X143997368Y-67272257D01*
X144640224Y-68200828D02*
X144640224Y-66700828D01*
X145283082Y-68200828D02*
X145283082Y-67415114D01*
X145283082Y-67415114D02*
X145211653Y-67272257D01*
X145211653Y-67272257D02*
X145068796Y-67200828D01*
X145068796Y-67200828D02*
X144854510Y-67200828D01*
X144854510Y-67200828D02*
X144711653Y-67272257D01*
X144711653Y-67272257D02*
X144640224Y-67343685D01*
X147925939Y-68200828D02*
X147068796Y-68200828D01*
X147497367Y-68200828D02*
X147497367Y-66700828D01*
X147497367Y-66700828D02*
X147354510Y-66915114D01*
X147354510Y-66915114D02*
X147211653Y-67057971D01*
X147211653Y-67057971D02*
X147068796Y-67129400D01*
X149354510Y-68200828D02*
X148497367Y-68200828D01*
X148925938Y-68200828D02*
X148925938Y-66700828D01*
X148925938Y-66700828D02*
X148783081Y-66915114D01*
X148783081Y-66915114D02*
X148640224Y-67057971D01*
X148640224Y-67057971D02*
X148497367Y-67129400D01*
X150068795Y-68129400D02*
X150068795Y-68200828D01*
X150068795Y-68200828D02*
X149997366Y-68343685D01*
X149997366Y-68343685D02*
X149925938Y-68415114D01*
X151783081Y-66843685D02*
X151854509Y-66772257D01*
X151854509Y-66772257D02*
X151997367Y-66700828D01*
X151997367Y-66700828D02*
X152354509Y-66700828D01*
X152354509Y-66700828D02*
X152497367Y-66772257D01*
X152497367Y-66772257D02*
X152568795Y-66843685D01*
X152568795Y-66843685D02*
X152640224Y-66986542D01*
X152640224Y-66986542D02*
X152640224Y-67129400D01*
X152640224Y-67129400D02*
X152568795Y-67343685D01*
X152568795Y-67343685D02*
X151711652Y-68200828D01*
X151711652Y-68200828D02*
X152640224Y-68200828D01*
X153568795Y-66700828D02*
X153711652Y-66700828D01*
X153711652Y-66700828D02*
X153854509Y-66772257D01*
X153854509Y-66772257D02*
X153925938Y-66843685D01*
X153925938Y-66843685D02*
X153997366Y-66986542D01*
X153997366Y-66986542D02*
X154068795Y-67272257D01*
X154068795Y-67272257D02*
X154068795Y-67629400D01*
X154068795Y-67629400D02*
X153997366Y-67915114D01*
X153997366Y-67915114D02*
X153925938Y-68057971D01*
X153925938Y-68057971D02*
X153854509Y-68129400D01*
X153854509Y-68129400D02*
X153711652Y-68200828D01*
X153711652Y-68200828D02*
X153568795Y-68200828D01*
X153568795Y-68200828D02*
X153425938Y-68129400D01*
X153425938Y-68129400D02*
X153354509Y-68057971D01*
X153354509Y-68057971D02*
X153283080Y-67915114D01*
X153283080Y-67915114D02*
X153211652Y-67629400D01*
X153211652Y-67629400D02*
X153211652Y-67272257D01*
X153211652Y-67272257D02*
X153283080Y-66986542D01*
X153283080Y-66986542D02*
X153354509Y-66843685D01*
X153354509Y-66843685D02*
X153425938Y-66772257D01*
X153425938Y-66772257D02*
X153568795Y-66700828D01*
X154640223Y-66843685D02*
X154711651Y-66772257D01*
X154711651Y-66772257D02*
X154854509Y-66700828D01*
X154854509Y-66700828D02*
X155211651Y-66700828D01*
X155211651Y-66700828D02*
X155354509Y-66772257D01*
X155354509Y-66772257D02*
X155425937Y-66843685D01*
X155425937Y-66843685D02*
X155497366Y-66986542D01*
X155497366Y-66986542D02*
X155497366Y-67129400D01*
X155497366Y-67129400D02*
X155425937Y-67343685D01*
X155425937Y-67343685D02*
X154568794Y-68200828D01*
X154568794Y-68200828D02*
X155497366Y-68200828D01*
X156854508Y-66700828D02*
X156140222Y-66700828D01*
X156140222Y-66700828D02*
X156068794Y-67415114D01*
X156068794Y-67415114D02*
X156140222Y-67343685D01*
X156140222Y-67343685D02*
X156283080Y-67272257D01*
X156283080Y-67272257D02*
X156640222Y-67272257D01*
X156640222Y-67272257D02*
X156783080Y-67343685D01*
X156783080Y-67343685D02*
X156854508Y-67415114D01*
X156854508Y-67415114D02*
X156925937Y-67557971D01*
X156925937Y-67557971D02*
X156925937Y-67915114D01*
X156925937Y-67915114D02*
X156854508Y-68057971D01*
X156854508Y-68057971D02*
X156783080Y-68129400D01*
X156783080Y-68129400D02*
X156640222Y-68200828D01*
X156640222Y-68200828D02*
X156283080Y-68200828D01*
X156283080Y-68200828D02*
X156140222Y-68129400D01*
X156140222Y-68129400D02*
X156068794Y-68057971D01*
D11*
X119651064Y-104256200D02*
X119727255Y-104294295D01*
X119727255Y-104294295D02*
X119879636Y-104294295D01*
X119879636Y-104294295D02*
X119955826Y-104256200D01*
X119955826Y-104256200D02*
X119993922Y-104180009D01*
X119993922Y-104180009D02*
X119993922Y-104141914D01*
X119993922Y-104141914D02*
X119955826Y-104065723D01*
X119955826Y-104065723D02*
X119879636Y-104027628D01*
X119879636Y-104027628D02*
X119765350Y-104027628D01*
X119765350Y-104027628D02*
X119689160Y-103989533D01*
X119689160Y-103989533D02*
X119651064Y-103913342D01*
X119651064Y-103913342D02*
X119651064Y-103875247D01*
X119651064Y-103875247D02*
X119689160Y-103799057D01*
X119689160Y-103799057D02*
X119765350Y-103760961D01*
X119765350Y-103760961D02*
X119879636Y-103760961D01*
X119879636Y-103760961D02*
X119955826Y-103799057D01*
X120336779Y-103760961D02*
X120336779Y-104560961D01*
X120336779Y-103799057D02*
X120412969Y-103760961D01*
X120412969Y-103760961D02*
X120565350Y-103760961D01*
X120565350Y-103760961D02*
X120641541Y-103799057D01*
X120641541Y-103799057D02*
X120679636Y-103837152D01*
X120679636Y-103837152D02*
X120717731Y-103913342D01*
X120717731Y-103913342D02*
X120717731Y-104141914D01*
X120717731Y-104141914D02*
X120679636Y-104218104D01*
X120679636Y-104218104D02*
X120641541Y-104256200D01*
X120641541Y-104256200D02*
X120565350Y-104294295D01*
X120565350Y-104294295D02*
X120412969Y-104294295D01*
X120412969Y-104294295D02*
X120336779Y-104256200D01*
X121403446Y-104294295D02*
X121403446Y-103875247D01*
X121403446Y-103875247D02*
X121365351Y-103799057D01*
X121365351Y-103799057D02*
X121289160Y-103760961D01*
X121289160Y-103760961D02*
X121136779Y-103760961D01*
X121136779Y-103760961D02*
X121060589Y-103799057D01*
X121403446Y-104256200D02*
X121327255Y-104294295D01*
X121327255Y-104294295D02*
X121136779Y-104294295D01*
X121136779Y-104294295D02*
X121060589Y-104256200D01*
X121060589Y-104256200D02*
X121022493Y-104180009D01*
X121022493Y-104180009D02*
X121022493Y-104103819D01*
X121022493Y-104103819D02*
X121060589Y-104027628D01*
X121060589Y-104027628D02*
X121136779Y-103989533D01*
X121136779Y-103989533D02*
X121327255Y-103989533D01*
X121327255Y-103989533D02*
X121403446Y-103951438D01*
X121784399Y-104294295D02*
X121784399Y-103760961D01*
X121784399Y-103913342D02*
X121822494Y-103837152D01*
X121822494Y-103837152D02*
X121860589Y-103799057D01*
X121860589Y-103799057D02*
X121936780Y-103760961D01*
X121936780Y-103760961D02*
X122012970Y-103760961D01*
X122584399Y-104256200D02*
X122508208Y-104294295D01*
X122508208Y-104294295D02*
X122355827Y-104294295D01*
X122355827Y-104294295D02*
X122279637Y-104256200D01*
X122279637Y-104256200D02*
X122241541Y-104180009D01*
X122241541Y-104180009D02*
X122241541Y-103875247D01*
X122241541Y-103875247D02*
X122279637Y-103799057D01*
X122279637Y-103799057D02*
X122355827Y-103760961D01*
X122355827Y-103760961D02*
X122508208Y-103760961D01*
X122508208Y-103760961D02*
X122584399Y-103799057D01*
X122584399Y-103799057D02*
X122622494Y-103875247D01*
X122622494Y-103875247D02*
X122622494Y-103951438D01*
X122622494Y-103951438D02*
X122241541Y-104027628D01*
X123574875Y-104294295D02*
X123574875Y-103760961D01*
X123574875Y-103494295D02*
X123536779Y-103532390D01*
X123536779Y-103532390D02*
X123574875Y-103570485D01*
X123574875Y-103570485D02*
X123612970Y-103532390D01*
X123612970Y-103532390D02*
X123574875Y-103494295D01*
X123574875Y-103494295D02*
X123574875Y-103570485D01*
X124070112Y-104294295D02*
X123993922Y-104256200D01*
X123993922Y-104256200D02*
X123955827Y-104218104D01*
X123955827Y-104218104D02*
X123917731Y-104141914D01*
X123917731Y-104141914D02*
X123917731Y-103913342D01*
X123917731Y-103913342D02*
X123955827Y-103837152D01*
X123955827Y-103837152D02*
X123993922Y-103799057D01*
X123993922Y-103799057D02*
X124070112Y-103760961D01*
X124070112Y-103760961D02*
X124184398Y-103760961D01*
X124184398Y-103760961D02*
X124260589Y-103799057D01*
X124260589Y-103799057D02*
X124298684Y-103837152D01*
X124298684Y-103837152D02*
X124336779Y-103913342D01*
X124336779Y-103913342D02*
X124336779Y-104141914D01*
X124336779Y-104141914D02*
X124298684Y-104218104D01*
X124298684Y-104218104D02*
X124260589Y-104256200D01*
X124260589Y-104256200D02*
X124184398Y-104294295D01*
X124184398Y-104294295D02*
X124070112Y-104294295D01*
X129136779Y-89688866D02*
X129898684Y-89688866D01*
X129517731Y-90069819D02*
X129517731Y-89307914D01*
X130851064Y-89069819D02*
X130374874Y-89069819D01*
X130374874Y-89069819D02*
X130327255Y-89546009D01*
X130327255Y-89546009D02*
X130374874Y-89498390D01*
X130374874Y-89498390D02*
X130470112Y-89450771D01*
X130470112Y-89450771D02*
X130708207Y-89450771D01*
X130708207Y-89450771D02*
X130803445Y-89498390D01*
X130803445Y-89498390D02*
X130851064Y-89546009D01*
X130851064Y-89546009D02*
X130898683Y-89641247D01*
X130898683Y-89641247D02*
X130898683Y-89879342D01*
X130898683Y-89879342D02*
X130851064Y-89974580D01*
X130851064Y-89974580D02*
X130803445Y-90022200D01*
X130803445Y-90022200D02*
X130708207Y-90069819D01*
X130708207Y-90069819D02*
X130470112Y-90069819D01*
X130470112Y-90069819D02*
X130374874Y-90022200D01*
X130374874Y-90022200D02*
X130327255Y-89974580D01*
X131184398Y-89069819D02*
X131517731Y-90069819D01*
X131517731Y-90069819D02*
X131851064Y-89069819D01*
X129136779Y-87669819D02*
X129136779Y-88479342D01*
X129136779Y-88479342D02*
X129184398Y-88574580D01*
X129184398Y-88574580D02*
X129232017Y-88622200D01*
X129232017Y-88622200D02*
X129327255Y-88669819D01*
X129327255Y-88669819D02*
X129517731Y-88669819D01*
X129517731Y-88669819D02*
X129612969Y-88622200D01*
X129612969Y-88622200D02*
X129660588Y-88574580D01*
X129660588Y-88574580D02*
X129708207Y-88479342D01*
X129708207Y-88479342D02*
X129708207Y-87669819D01*
X130184398Y-88669819D02*
X130184398Y-87669819D01*
X130184398Y-87669819D02*
X130565350Y-87669819D01*
X130565350Y-87669819D02*
X130660588Y-87717438D01*
X130660588Y-87717438D02*
X130708207Y-87765057D01*
X130708207Y-87765057D02*
X130755826Y-87860295D01*
X130755826Y-87860295D02*
X130755826Y-88003152D01*
X130755826Y-88003152D02*
X130708207Y-88098390D01*
X130708207Y-88098390D02*
X130660588Y-88146009D01*
X130660588Y-88146009D02*
X130565350Y-88193628D01*
X130565350Y-88193628D02*
X130184398Y-88193628D01*
X131184398Y-88669819D02*
X131184398Y-87669819D01*
X131184398Y-87669819D02*
X131422493Y-87669819D01*
X131422493Y-87669819D02*
X131565350Y-87717438D01*
X131565350Y-87717438D02*
X131660588Y-87812676D01*
X131660588Y-87812676D02*
X131708207Y-87907914D01*
X131708207Y-87907914D02*
X131755826Y-88098390D01*
X131755826Y-88098390D02*
X131755826Y-88241247D01*
X131755826Y-88241247D02*
X131708207Y-88431723D01*
X131708207Y-88431723D02*
X131660588Y-88526961D01*
X131660588Y-88526961D02*
X131565350Y-88622200D01*
X131565350Y-88622200D02*
X131422493Y-88669819D01*
X131422493Y-88669819D02*
X131184398Y-88669819D01*
X132184398Y-88669819D02*
X132184398Y-87669819D01*
X129708207Y-87259819D02*
X129374874Y-86783628D01*
X129136779Y-87259819D02*
X129136779Y-86259819D01*
X129136779Y-86259819D02*
X129517731Y-86259819D01*
X129517731Y-86259819D02*
X129612969Y-86307438D01*
X129612969Y-86307438D02*
X129660588Y-86355057D01*
X129660588Y-86355057D02*
X129708207Y-86450295D01*
X129708207Y-86450295D02*
X129708207Y-86593152D01*
X129708207Y-86593152D02*
X129660588Y-86688390D01*
X129660588Y-86688390D02*
X129612969Y-86736009D01*
X129612969Y-86736009D02*
X129517731Y-86783628D01*
X129517731Y-86783628D02*
X129136779Y-86783628D01*
X130041541Y-86259819D02*
X130708207Y-87259819D01*
X130708207Y-86259819D02*
X130041541Y-87259819D01*
X128993922Y-84869819D02*
X129565350Y-84869819D01*
X129279636Y-85869819D02*
X129279636Y-84869819D01*
X129803446Y-84869819D02*
X130470112Y-85869819D01*
X130470112Y-84869819D02*
X129803446Y-85869819D01*
X129660588Y-83517438D02*
X129565350Y-83469819D01*
X129565350Y-83469819D02*
X129422493Y-83469819D01*
X129422493Y-83469819D02*
X129279636Y-83517438D01*
X129279636Y-83517438D02*
X129184398Y-83612676D01*
X129184398Y-83612676D02*
X129136779Y-83707914D01*
X129136779Y-83707914D02*
X129089160Y-83898390D01*
X129089160Y-83898390D02*
X129089160Y-84041247D01*
X129089160Y-84041247D02*
X129136779Y-84231723D01*
X129136779Y-84231723D02*
X129184398Y-84326961D01*
X129184398Y-84326961D02*
X129279636Y-84422200D01*
X129279636Y-84422200D02*
X129422493Y-84469819D01*
X129422493Y-84469819D02*
X129517731Y-84469819D01*
X129517731Y-84469819D02*
X129660588Y-84422200D01*
X129660588Y-84422200D02*
X129708207Y-84374580D01*
X129708207Y-84374580D02*
X129708207Y-84041247D01*
X129708207Y-84041247D02*
X129517731Y-84041247D01*
X130136779Y-84469819D02*
X130136779Y-83469819D01*
X130136779Y-83469819D02*
X130708207Y-84469819D01*
X130708207Y-84469819D02*
X130708207Y-83469819D01*
X131184398Y-84469819D02*
X131184398Y-83469819D01*
X131184398Y-83469819D02*
X131422493Y-83469819D01*
X131422493Y-83469819D02*
X131565350Y-83517438D01*
X131565350Y-83517438D02*
X131660588Y-83612676D01*
X131660588Y-83612676D02*
X131708207Y-83707914D01*
X131708207Y-83707914D02*
X131755826Y-83898390D01*
X131755826Y-83898390D02*
X131755826Y-84041247D01*
X131755826Y-84041247D02*
X131708207Y-84231723D01*
X131708207Y-84231723D02*
X131660588Y-84326961D01*
X131660588Y-84326961D02*
X131565350Y-84422200D01*
X131565350Y-84422200D02*
X131422493Y-84469819D01*
X131422493Y-84469819D02*
X131184398Y-84469819D01*
D10*
X174554510Y-73429400D02*
X175697368Y-73429400D01*
X175125939Y-74000828D02*
X175125939Y-72857971D01*
X177554510Y-74000828D02*
X177554510Y-72500828D01*
X177554510Y-72500828D02*
X177911653Y-72500828D01*
X177911653Y-72500828D02*
X178125939Y-72572257D01*
X178125939Y-72572257D02*
X178268796Y-72715114D01*
X178268796Y-72715114D02*
X178340225Y-72857971D01*
X178340225Y-72857971D02*
X178411653Y-73143685D01*
X178411653Y-73143685D02*
X178411653Y-73357971D01*
X178411653Y-73357971D02*
X178340225Y-73643685D01*
X178340225Y-73643685D02*
X178268796Y-73786542D01*
X178268796Y-73786542D02*
X178125939Y-73929400D01*
X178125939Y-73929400D02*
X177911653Y-74000828D01*
X177911653Y-74000828D02*
X177554510Y-74000828D01*
X180197367Y-73429400D02*
X181340225Y-73429400D01*
X119554510Y-73429400D02*
X120697368Y-73429400D01*
X120125939Y-74000828D02*
X120125939Y-72857971D01*
X122554510Y-74000828D02*
X122554510Y-72500828D01*
X122554510Y-72500828D02*
X122911653Y-72500828D01*
X122911653Y-72500828D02*
X123125939Y-72572257D01*
X123125939Y-72572257D02*
X123268796Y-72715114D01*
X123268796Y-72715114D02*
X123340225Y-72857971D01*
X123340225Y-72857971D02*
X123411653Y-73143685D01*
X123411653Y-73143685D02*
X123411653Y-73357971D01*
X123411653Y-73357971D02*
X123340225Y-73643685D01*
X123340225Y-73643685D02*
X123268796Y-73786542D01*
X123268796Y-73786542D02*
X123125939Y-73929400D01*
X123125939Y-73929400D02*
X122911653Y-74000828D01*
X122911653Y-74000828D02*
X122554510Y-74000828D01*
X125197367Y-73429400D02*
X126340225Y-73429400D01*
X131554510Y-136829400D02*
X132697368Y-136829400D01*
X132125939Y-137400828D02*
X132125939Y-136257971D01*
X134554510Y-137400828D02*
X134554510Y-135900828D01*
X134554510Y-135900828D02*
X134911653Y-135900828D01*
X134911653Y-135900828D02*
X135125939Y-135972257D01*
X135125939Y-135972257D02*
X135268796Y-136115114D01*
X135268796Y-136115114D02*
X135340225Y-136257971D01*
X135340225Y-136257971D02*
X135411653Y-136543685D01*
X135411653Y-136543685D02*
X135411653Y-136757971D01*
X135411653Y-136757971D02*
X135340225Y-137043685D01*
X135340225Y-137043685D02*
X135268796Y-137186542D01*
X135268796Y-137186542D02*
X135125939Y-137329400D01*
X135125939Y-137329400D02*
X134911653Y-137400828D01*
X134911653Y-137400828D02*
X134554510Y-137400828D01*
X137197367Y-136829400D02*
X138340225Y-136829400D01*
D12*
X163478809Y-136574318D02*
X162874047Y-136574318D01*
X162874047Y-136574318D02*
X162874047Y-135304318D01*
X163902142Y-135909080D02*
X164325476Y-135909080D01*
X164506904Y-136574318D02*
X163902142Y-136574318D01*
X163902142Y-136574318D02*
X163902142Y-135304318D01*
X163902142Y-135304318D02*
X164506904Y-135304318D01*
X165051190Y-136574318D02*
X165051190Y-135304318D01*
X165051190Y-135304318D02*
X165353571Y-135304318D01*
X165353571Y-135304318D02*
X165535000Y-135364794D01*
X165535000Y-135364794D02*
X165655952Y-135485746D01*
X165655952Y-135485746D02*
X165716429Y-135606699D01*
X165716429Y-135606699D02*
X165776905Y-135848603D01*
X165776905Y-135848603D02*
X165776905Y-136030032D01*
X165776905Y-136030032D02*
X165716429Y-136271937D01*
X165716429Y-136271937D02*
X165655952Y-136392889D01*
X165655952Y-136392889D02*
X165535000Y-136513842D01*
X165535000Y-136513842D02*
X165353571Y-136574318D01*
X165353571Y-136574318D02*
X165051190Y-136574318D01*
X166986429Y-136574318D02*
X166260714Y-136574318D01*
X166623571Y-136574318D02*
X166623571Y-135304318D01*
X166623571Y-135304318D02*
X166502619Y-135485746D01*
X166502619Y-135485746D02*
X166381667Y-135606699D01*
X166381667Y-135606699D02*
X166260714Y-135667175D01*
D11*
X113852380Y-89854819D02*
X113519047Y-89378628D01*
X113280952Y-89854819D02*
X113280952Y-88854819D01*
X113280952Y-88854819D02*
X113661904Y-88854819D01*
X113661904Y-88854819D02*
X113757142Y-88902438D01*
X113757142Y-88902438D02*
X113804761Y-88950057D01*
X113804761Y-88950057D02*
X113852380Y-89045295D01*
X113852380Y-89045295D02*
X113852380Y-89188152D01*
X113852380Y-89188152D02*
X113804761Y-89283390D01*
X113804761Y-89283390D02*
X113757142Y-89331009D01*
X113757142Y-89331009D02*
X113661904Y-89378628D01*
X113661904Y-89378628D02*
X113280952Y-89378628D01*
X114233333Y-89807200D02*
X114376190Y-89854819D01*
X114376190Y-89854819D02*
X114614285Y-89854819D01*
X114614285Y-89854819D02*
X114709523Y-89807200D01*
X114709523Y-89807200D02*
X114757142Y-89759580D01*
X114757142Y-89759580D02*
X114804761Y-89664342D01*
X114804761Y-89664342D02*
X114804761Y-89569104D01*
X114804761Y-89569104D02*
X114757142Y-89473866D01*
X114757142Y-89473866D02*
X114709523Y-89426247D01*
X114709523Y-89426247D02*
X114614285Y-89378628D01*
X114614285Y-89378628D02*
X114423809Y-89331009D01*
X114423809Y-89331009D02*
X114328571Y-89283390D01*
X114328571Y-89283390D02*
X114280952Y-89235771D01*
X114280952Y-89235771D02*
X114233333Y-89140533D01*
X114233333Y-89140533D02*
X114233333Y-89045295D01*
X114233333Y-89045295D02*
X114280952Y-88950057D01*
X114280952Y-88950057D02*
X114328571Y-88902438D01*
X114328571Y-88902438D02*
X114423809Y-88854819D01*
X114423809Y-88854819D02*
X114661904Y-88854819D01*
X114661904Y-88854819D02*
X114804761Y-88902438D01*
X115090476Y-88854819D02*
X115661904Y-88854819D01*
X115376190Y-89854819D02*
X115376190Y-88854819D01*
X138633333Y-104359580D02*
X138585714Y-104407200D01*
X138585714Y-104407200D02*
X138442857Y-104454819D01*
X138442857Y-104454819D02*
X138347619Y-104454819D01*
X138347619Y-104454819D02*
X138204762Y-104407200D01*
X138204762Y-104407200D02*
X138109524Y-104311961D01*
X138109524Y-104311961D02*
X138061905Y-104216723D01*
X138061905Y-104216723D02*
X138014286Y-104026247D01*
X138014286Y-104026247D02*
X138014286Y-103883390D01*
X138014286Y-103883390D02*
X138061905Y-103692914D01*
X138061905Y-103692914D02*
X138109524Y-103597676D01*
X138109524Y-103597676D02*
X138204762Y-103502438D01*
X138204762Y-103502438D02*
X138347619Y-103454819D01*
X138347619Y-103454819D02*
X138442857Y-103454819D01*
X138442857Y-103454819D02*
X138585714Y-103502438D01*
X138585714Y-103502438D02*
X138633333Y-103550057D01*
X139490476Y-103454819D02*
X139300000Y-103454819D01*
X139300000Y-103454819D02*
X139204762Y-103502438D01*
X139204762Y-103502438D02*
X139157143Y-103550057D01*
X139157143Y-103550057D02*
X139061905Y-103692914D01*
X139061905Y-103692914D02*
X139014286Y-103883390D01*
X139014286Y-103883390D02*
X139014286Y-104264342D01*
X139014286Y-104264342D02*
X139061905Y-104359580D01*
X139061905Y-104359580D02*
X139109524Y-104407200D01*
X139109524Y-104407200D02*
X139204762Y-104454819D01*
X139204762Y-104454819D02*
X139395238Y-104454819D01*
X139395238Y-104454819D02*
X139490476Y-104407200D01*
X139490476Y-104407200D02*
X139538095Y-104359580D01*
X139538095Y-104359580D02*
X139585714Y-104264342D01*
X139585714Y-104264342D02*
X139585714Y-104026247D01*
X139585714Y-104026247D02*
X139538095Y-103931009D01*
X139538095Y-103931009D02*
X139490476Y-103883390D01*
X139490476Y-103883390D02*
X139395238Y-103835771D01*
X139395238Y-103835771D02*
X139204762Y-103835771D01*
X139204762Y-103835771D02*
X139109524Y-103883390D01*
X139109524Y-103883390D02*
X139061905Y-103931009D01*
X139061905Y-103931009D02*
X139014286Y-104026247D01*
X155833333Y-107704819D02*
X155500000Y-107228628D01*
X155261905Y-107704819D02*
X155261905Y-106704819D01*
X155261905Y-106704819D02*
X155642857Y-106704819D01*
X155642857Y-106704819D02*
X155738095Y-106752438D01*
X155738095Y-106752438D02*
X155785714Y-106800057D01*
X155785714Y-106800057D02*
X155833333Y-106895295D01*
X155833333Y-106895295D02*
X155833333Y-107038152D01*
X155833333Y-107038152D02*
X155785714Y-107133390D01*
X155785714Y-107133390D02*
X155738095Y-107181009D01*
X155738095Y-107181009D02*
X155642857Y-107228628D01*
X155642857Y-107228628D02*
X155261905Y-107228628D01*
X156309524Y-107704819D02*
X156500000Y-107704819D01*
X156500000Y-107704819D02*
X156595238Y-107657200D01*
X156595238Y-107657200D02*
X156642857Y-107609580D01*
X156642857Y-107609580D02*
X156738095Y-107466723D01*
X156738095Y-107466723D02*
X156785714Y-107276247D01*
X156785714Y-107276247D02*
X156785714Y-106895295D01*
X156785714Y-106895295D02*
X156738095Y-106800057D01*
X156738095Y-106800057D02*
X156690476Y-106752438D01*
X156690476Y-106752438D02*
X156595238Y-106704819D01*
X156595238Y-106704819D02*
X156404762Y-106704819D01*
X156404762Y-106704819D02*
X156309524Y-106752438D01*
X156309524Y-106752438D02*
X156261905Y-106800057D01*
X156261905Y-106800057D02*
X156214286Y-106895295D01*
X156214286Y-106895295D02*
X156214286Y-107133390D01*
X156214286Y-107133390D02*
X156261905Y-107228628D01*
X156261905Y-107228628D02*
X156309524Y-107276247D01*
X156309524Y-107276247D02*
X156404762Y-107323866D01*
X156404762Y-107323866D02*
X156595238Y-107323866D01*
X156595238Y-107323866D02*
X156690476Y-107276247D01*
X156690476Y-107276247D02*
X156738095Y-107228628D01*
X156738095Y-107228628D02*
X156785714Y-107133390D01*
X163683333Y-130754819D02*
X163350000Y-130278628D01*
X163111905Y-130754819D02*
X163111905Y-129754819D01*
X163111905Y-129754819D02*
X163492857Y-129754819D01*
X163492857Y-129754819D02*
X163588095Y-129802438D01*
X163588095Y-129802438D02*
X163635714Y-129850057D01*
X163635714Y-129850057D02*
X163683333Y-129945295D01*
X163683333Y-129945295D02*
X163683333Y-130088152D01*
X163683333Y-130088152D02*
X163635714Y-130183390D01*
X163635714Y-130183390D02*
X163588095Y-130231009D01*
X163588095Y-130231009D02*
X163492857Y-130278628D01*
X163492857Y-130278628D02*
X163111905Y-130278628D01*
X164064286Y-129850057D02*
X164111905Y-129802438D01*
X164111905Y-129802438D02*
X164207143Y-129754819D01*
X164207143Y-129754819D02*
X164445238Y-129754819D01*
X164445238Y-129754819D02*
X164540476Y-129802438D01*
X164540476Y-129802438D02*
X164588095Y-129850057D01*
X164588095Y-129850057D02*
X164635714Y-129945295D01*
X164635714Y-129945295D02*
X164635714Y-130040533D01*
X164635714Y-130040533D02*
X164588095Y-130183390D01*
X164588095Y-130183390D02*
X164016667Y-130754819D01*
X164016667Y-130754819D02*
X164635714Y-130754819D01*
X166333333Y-128854819D02*
X166000000Y-128378628D01*
X165761905Y-128854819D02*
X165761905Y-127854819D01*
X165761905Y-127854819D02*
X166142857Y-127854819D01*
X166142857Y-127854819D02*
X166238095Y-127902438D01*
X166238095Y-127902438D02*
X166285714Y-127950057D01*
X166285714Y-127950057D02*
X166333333Y-128045295D01*
X166333333Y-128045295D02*
X166333333Y-128188152D01*
X166333333Y-128188152D02*
X166285714Y-128283390D01*
X166285714Y-128283390D02*
X166238095Y-128331009D01*
X166238095Y-128331009D02*
X166142857Y-128378628D01*
X166142857Y-128378628D02*
X165761905Y-128378628D01*
X167190476Y-128188152D02*
X167190476Y-128854819D01*
X166952381Y-127807200D02*
X166714286Y-128521485D01*
X166714286Y-128521485D02*
X167333333Y-128521485D01*
X165083333Y-92859580D02*
X165035714Y-92907200D01*
X165035714Y-92907200D02*
X164892857Y-92954819D01*
X164892857Y-92954819D02*
X164797619Y-92954819D01*
X164797619Y-92954819D02*
X164654762Y-92907200D01*
X164654762Y-92907200D02*
X164559524Y-92811961D01*
X164559524Y-92811961D02*
X164511905Y-92716723D01*
X164511905Y-92716723D02*
X164464286Y-92526247D01*
X164464286Y-92526247D02*
X164464286Y-92383390D01*
X164464286Y-92383390D02*
X164511905Y-92192914D01*
X164511905Y-92192914D02*
X164559524Y-92097676D01*
X164559524Y-92097676D02*
X164654762Y-92002438D01*
X164654762Y-92002438D02*
X164797619Y-91954819D01*
X164797619Y-91954819D02*
X164892857Y-91954819D01*
X164892857Y-91954819D02*
X165035714Y-92002438D01*
X165035714Y-92002438D02*
X165083333Y-92050057D01*
X166035714Y-92954819D02*
X165464286Y-92954819D01*
X165750000Y-92954819D02*
X165750000Y-91954819D01*
X165750000Y-91954819D02*
X165654762Y-92097676D01*
X165654762Y-92097676D02*
X165559524Y-92192914D01*
X165559524Y-92192914D02*
X165464286Y-92240533D01*
D12*
X166888333Y-107074318D02*
X166283571Y-107074318D01*
X166283571Y-107074318D02*
X166283571Y-105804318D01*
X167976905Y-107074318D02*
X167251190Y-107074318D01*
X167614047Y-107074318D02*
X167614047Y-105804318D01*
X167614047Y-105804318D02*
X167493095Y-105985746D01*
X167493095Y-105985746D02*
X167372143Y-106106699D01*
X167372143Y-106106699D02*
X167251190Y-106167175D01*
D11*
X175333333Y-101454819D02*
X175000000Y-100978628D01*
X174761905Y-101454819D02*
X174761905Y-100454819D01*
X174761905Y-100454819D02*
X175142857Y-100454819D01*
X175142857Y-100454819D02*
X175238095Y-100502438D01*
X175238095Y-100502438D02*
X175285714Y-100550057D01*
X175285714Y-100550057D02*
X175333333Y-100645295D01*
X175333333Y-100645295D02*
X175333333Y-100788152D01*
X175333333Y-100788152D02*
X175285714Y-100883390D01*
X175285714Y-100883390D02*
X175238095Y-100931009D01*
X175238095Y-100931009D02*
X175142857Y-100978628D01*
X175142857Y-100978628D02*
X174761905Y-100978628D01*
X176285714Y-101454819D02*
X175714286Y-101454819D01*
X176000000Y-101454819D02*
X176000000Y-100454819D01*
X176000000Y-100454819D02*
X175904762Y-100597676D01*
X175904762Y-100597676D02*
X175809524Y-100692914D01*
X175809524Y-100692914D02*
X175714286Y-100740533D01*
X155857142Y-104454819D02*
X155523809Y-103978628D01*
X155285714Y-104454819D02*
X155285714Y-103454819D01*
X155285714Y-103454819D02*
X155666666Y-103454819D01*
X155666666Y-103454819D02*
X155761904Y-103502438D01*
X155761904Y-103502438D02*
X155809523Y-103550057D01*
X155809523Y-103550057D02*
X155857142Y-103645295D01*
X155857142Y-103645295D02*
X155857142Y-103788152D01*
X155857142Y-103788152D02*
X155809523Y-103883390D01*
X155809523Y-103883390D02*
X155761904Y-103931009D01*
X155761904Y-103931009D02*
X155666666Y-103978628D01*
X155666666Y-103978628D02*
X155285714Y-103978628D01*
X156809523Y-104454819D02*
X156238095Y-104454819D01*
X156523809Y-104454819D02*
X156523809Y-103454819D01*
X156523809Y-103454819D02*
X156428571Y-103597676D01*
X156428571Y-103597676D02*
X156333333Y-103692914D01*
X156333333Y-103692914D02*
X156238095Y-103740533D01*
X157428571Y-103454819D02*
X157523809Y-103454819D01*
X157523809Y-103454819D02*
X157619047Y-103502438D01*
X157619047Y-103502438D02*
X157666666Y-103550057D01*
X157666666Y-103550057D02*
X157714285Y-103645295D01*
X157714285Y-103645295D02*
X157761904Y-103835771D01*
X157761904Y-103835771D02*
X157761904Y-104073866D01*
X157761904Y-104073866D02*
X157714285Y-104264342D01*
X157714285Y-104264342D02*
X157666666Y-104359580D01*
X157666666Y-104359580D02*
X157619047Y-104407200D01*
X157619047Y-104407200D02*
X157523809Y-104454819D01*
X157523809Y-104454819D02*
X157428571Y-104454819D01*
X157428571Y-104454819D02*
X157333333Y-104407200D01*
X157333333Y-104407200D02*
X157285714Y-104359580D01*
X157285714Y-104359580D02*
X157238095Y-104264342D01*
X157238095Y-104264342D02*
X157190476Y-104073866D01*
X157190476Y-104073866D02*
X157190476Y-103835771D01*
X157190476Y-103835771D02*
X157238095Y-103645295D01*
X157238095Y-103645295D02*
X157285714Y-103550057D01*
X157285714Y-103550057D02*
X157333333Y-103502438D01*
X157333333Y-103502438D02*
X157428571Y-103454819D01*
X145357142Y-95954819D02*
X145023809Y-95478628D01*
X144785714Y-95954819D02*
X144785714Y-94954819D01*
X144785714Y-94954819D02*
X145166666Y-94954819D01*
X145166666Y-94954819D02*
X145261904Y-95002438D01*
X145261904Y-95002438D02*
X145309523Y-95050057D01*
X145309523Y-95050057D02*
X145357142Y-95145295D01*
X145357142Y-95145295D02*
X145357142Y-95288152D01*
X145357142Y-95288152D02*
X145309523Y-95383390D01*
X145309523Y-95383390D02*
X145261904Y-95431009D01*
X145261904Y-95431009D02*
X145166666Y-95478628D01*
X145166666Y-95478628D02*
X144785714Y-95478628D01*
X146309523Y-95954819D02*
X145738095Y-95954819D01*
X146023809Y-95954819D02*
X146023809Y-94954819D01*
X146023809Y-94954819D02*
X145928571Y-95097676D01*
X145928571Y-95097676D02*
X145833333Y-95192914D01*
X145833333Y-95192914D02*
X145738095Y-95240533D01*
X146690476Y-95050057D02*
X146738095Y-95002438D01*
X146738095Y-95002438D02*
X146833333Y-94954819D01*
X146833333Y-94954819D02*
X147071428Y-94954819D01*
X147071428Y-94954819D02*
X147166666Y-95002438D01*
X147166666Y-95002438D02*
X147214285Y-95050057D01*
X147214285Y-95050057D02*
X147261904Y-95145295D01*
X147261904Y-95145295D02*
X147261904Y-95240533D01*
X147261904Y-95240533D02*
X147214285Y-95383390D01*
X147214285Y-95383390D02*
X146642857Y-95954819D01*
X146642857Y-95954819D02*
X147261904Y-95954819D01*
X177083333Y-109359580D02*
X177035714Y-109407200D01*
X177035714Y-109407200D02*
X176892857Y-109454819D01*
X176892857Y-109454819D02*
X176797619Y-109454819D01*
X176797619Y-109454819D02*
X176654762Y-109407200D01*
X176654762Y-109407200D02*
X176559524Y-109311961D01*
X176559524Y-109311961D02*
X176511905Y-109216723D01*
X176511905Y-109216723D02*
X176464286Y-109026247D01*
X176464286Y-109026247D02*
X176464286Y-108883390D01*
X176464286Y-108883390D02*
X176511905Y-108692914D01*
X176511905Y-108692914D02*
X176559524Y-108597676D01*
X176559524Y-108597676D02*
X176654762Y-108502438D01*
X176654762Y-108502438D02*
X176797619Y-108454819D01*
X176797619Y-108454819D02*
X176892857Y-108454819D01*
X176892857Y-108454819D02*
X177035714Y-108502438D01*
X177035714Y-108502438D02*
X177083333Y-108550057D01*
X177940476Y-108788152D02*
X177940476Y-109454819D01*
X177702381Y-108407200D02*
X177464286Y-109121485D01*
X177464286Y-109121485D02*
X178083333Y-109121485D01*
X133238095Y-102734819D02*
X133238095Y-103544342D01*
X133238095Y-103544342D02*
X133285714Y-103639580D01*
X133285714Y-103639580D02*
X133333333Y-103687200D01*
X133333333Y-103687200D02*
X133428571Y-103734819D01*
X133428571Y-103734819D02*
X133619047Y-103734819D01*
X133619047Y-103734819D02*
X133714285Y-103687200D01*
X133714285Y-103687200D02*
X133761904Y-103639580D01*
X133761904Y-103639580D02*
X133809523Y-103544342D01*
X133809523Y-103544342D02*
X133809523Y-102734819D01*
X134238095Y-102830057D02*
X134285714Y-102782438D01*
X134285714Y-102782438D02*
X134380952Y-102734819D01*
X134380952Y-102734819D02*
X134619047Y-102734819D01*
X134619047Y-102734819D02*
X134714285Y-102782438D01*
X134714285Y-102782438D02*
X134761904Y-102830057D01*
X134761904Y-102830057D02*
X134809523Y-102925295D01*
X134809523Y-102925295D02*
X134809523Y-103020533D01*
X134809523Y-103020533D02*
X134761904Y-103163390D01*
X134761904Y-103163390D02*
X134190476Y-103734819D01*
X134190476Y-103734819D02*
X134809523Y-103734819D01*
X115557142Y-102704819D02*
X115223809Y-102228628D01*
X114985714Y-102704819D02*
X114985714Y-101704819D01*
X114985714Y-101704819D02*
X115366666Y-101704819D01*
X115366666Y-101704819D02*
X115461904Y-101752438D01*
X115461904Y-101752438D02*
X115509523Y-101800057D01*
X115509523Y-101800057D02*
X115557142Y-101895295D01*
X115557142Y-101895295D02*
X115557142Y-102038152D01*
X115557142Y-102038152D02*
X115509523Y-102133390D01*
X115509523Y-102133390D02*
X115461904Y-102181009D01*
X115461904Y-102181009D02*
X115366666Y-102228628D01*
X115366666Y-102228628D02*
X114985714Y-102228628D01*
X116509523Y-102704819D02*
X115938095Y-102704819D01*
X116223809Y-102704819D02*
X116223809Y-101704819D01*
X116223809Y-101704819D02*
X116128571Y-101847676D01*
X116128571Y-101847676D02*
X116033333Y-101942914D01*
X116033333Y-101942914D02*
X115938095Y-101990533D01*
X117461904Y-102704819D02*
X116890476Y-102704819D01*
X117176190Y-102704819D02*
X117176190Y-101704819D01*
X117176190Y-101704819D02*
X117080952Y-101847676D01*
X117080952Y-101847676D02*
X116985714Y-101942914D01*
X116985714Y-101942914D02*
X116890476Y-101990533D01*
X189088333Y-110504819D02*
X188755000Y-110028628D01*
X188516905Y-110504819D02*
X188516905Y-109504819D01*
X188516905Y-109504819D02*
X188897857Y-109504819D01*
X188897857Y-109504819D02*
X188993095Y-109552438D01*
X188993095Y-109552438D02*
X189040714Y-109600057D01*
X189040714Y-109600057D02*
X189088333Y-109695295D01*
X189088333Y-109695295D02*
X189088333Y-109838152D01*
X189088333Y-109838152D02*
X189040714Y-109933390D01*
X189040714Y-109933390D02*
X188993095Y-109981009D01*
X188993095Y-109981009D02*
X188897857Y-110028628D01*
X188897857Y-110028628D02*
X188516905Y-110028628D01*
X189945476Y-109504819D02*
X189755000Y-109504819D01*
X189755000Y-109504819D02*
X189659762Y-109552438D01*
X189659762Y-109552438D02*
X189612143Y-109600057D01*
X189612143Y-109600057D02*
X189516905Y-109742914D01*
X189516905Y-109742914D02*
X189469286Y-109933390D01*
X189469286Y-109933390D02*
X189469286Y-110314342D01*
X189469286Y-110314342D02*
X189516905Y-110409580D01*
X189516905Y-110409580D02*
X189564524Y-110457200D01*
X189564524Y-110457200D02*
X189659762Y-110504819D01*
X189659762Y-110504819D02*
X189850238Y-110504819D01*
X189850238Y-110504819D02*
X189945476Y-110457200D01*
X189945476Y-110457200D02*
X189993095Y-110409580D01*
X189993095Y-110409580D02*
X190040714Y-110314342D01*
X190040714Y-110314342D02*
X190040714Y-110076247D01*
X190040714Y-110076247D02*
X189993095Y-109981009D01*
X189993095Y-109981009D02*
X189945476Y-109933390D01*
X189945476Y-109933390D02*
X189850238Y-109885771D01*
X189850238Y-109885771D02*
X189659762Y-109885771D01*
X189659762Y-109885771D02*
X189564524Y-109933390D01*
X189564524Y-109933390D02*
X189516905Y-109981009D01*
X189516905Y-109981009D02*
X189469286Y-110076247D01*
X185608333Y-105604819D02*
X185275000Y-105128628D01*
X185036905Y-105604819D02*
X185036905Y-104604819D01*
X185036905Y-104604819D02*
X185417857Y-104604819D01*
X185417857Y-104604819D02*
X185513095Y-104652438D01*
X185513095Y-104652438D02*
X185560714Y-104700057D01*
X185560714Y-104700057D02*
X185608333Y-104795295D01*
X185608333Y-104795295D02*
X185608333Y-104938152D01*
X185608333Y-104938152D02*
X185560714Y-105033390D01*
X185560714Y-105033390D02*
X185513095Y-105081009D01*
X185513095Y-105081009D02*
X185417857Y-105128628D01*
X185417857Y-105128628D02*
X185036905Y-105128628D01*
X186513095Y-104604819D02*
X186036905Y-104604819D01*
X186036905Y-104604819D02*
X185989286Y-105081009D01*
X185989286Y-105081009D02*
X186036905Y-105033390D01*
X186036905Y-105033390D02*
X186132143Y-104985771D01*
X186132143Y-104985771D02*
X186370238Y-104985771D01*
X186370238Y-104985771D02*
X186465476Y-105033390D01*
X186465476Y-105033390D02*
X186513095Y-105081009D01*
X186513095Y-105081009D02*
X186560714Y-105176247D01*
X186560714Y-105176247D02*
X186560714Y-105414342D01*
X186560714Y-105414342D02*
X186513095Y-105509580D01*
X186513095Y-105509580D02*
X186465476Y-105557200D01*
X186465476Y-105557200D02*
X186370238Y-105604819D01*
X186370238Y-105604819D02*
X186132143Y-105604819D01*
X186132143Y-105604819D02*
X186036905Y-105557200D01*
X186036905Y-105557200D02*
X185989286Y-105509580D01*
X139666666Y-136454819D02*
X139666666Y-137169104D01*
X139666666Y-137169104D02*
X139619047Y-137311961D01*
X139619047Y-137311961D02*
X139523809Y-137407200D01*
X139523809Y-137407200D02*
X139380952Y-137454819D01*
X139380952Y-137454819D02*
X139285714Y-137454819D01*
X140095238Y-136550057D02*
X140142857Y-136502438D01*
X140142857Y-136502438D02*
X140238095Y-136454819D01*
X140238095Y-136454819D02*
X140476190Y-136454819D01*
X140476190Y-136454819D02*
X140571428Y-136502438D01*
X140571428Y-136502438D02*
X140619047Y-136550057D01*
X140619047Y-136550057D02*
X140666666Y-136645295D01*
X140666666Y-136645295D02*
X140666666Y-136740533D01*
X140666666Y-136740533D02*
X140619047Y-136883390D01*
X140619047Y-136883390D02*
X140047619Y-137454819D01*
X140047619Y-137454819D02*
X140666666Y-137454819D01*
X155833333Y-99454819D02*
X155500000Y-98978628D01*
X155261905Y-99454819D02*
X155261905Y-98454819D01*
X155261905Y-98454819D02*
X155642857Y-98454819D01*
X155642857Y-98454819D02*
X155738095Y-98502438D01*
X155738095Y-98502438D02*
X155785714Y-98550057D01*
X155785714Y-98550057D02*
X155833333Y-98645295D01*
X155833333Y-98645295D02*
X155833333Y-98788152D01*
X155833333Y-98788152D02*
X155785714Y-98883390D01*
X155785714Y-98883390D02*
X155738095Y-98931009D01*
X155738095Y-98931009D02*
X155642857Y-98978628D01*
X155642857Y-98978628D02*
X155261905Y-98978628D01*
X156166667Y-98454819D02*
X156833333Y-98454819D01*
X156833333Y-98454819D02*
X156404762Y-99454819D01*
D12*
X159010237Y-100274318D02*
X159010237Y-99004318D01*
X160340714Y-100153365D02*
X160280238Y-100213842D01*
X160280238Y-100213842D02*
X160098809Y-100274318D01*
X160098809Y-100274318D02*
X159977857Y-100274318D01*
X159977857Y-100274318D02*
X159796428Y-100213842D01*
X159796428Y-100213842D02*
X159675476Y-100092889D01*
X159675476Y-100092889D02*
X159614999Y-99971937D01*
X159614999Y-99971937D02*
X159554523Y-99730032D01*
X159554523Y-99730032D02*
X159554523Y-99548603D01*
X159554523Y-99548603D02*
X159614999Y-99306699D01*
X159614999Y-99306699D02*
X159675476Y-99185746D01*
X159675476Y-99185746D02*
X159796428Y-99064794D01*
X159796428Y-99064794D02*
X159977857Y-99004318D01*
X159977857Y-99004318D02*
X160098809Y-99004318D01*
X160098809Y-99004318D02*
X160280238Y-99064794D01*
X160280238Y-99064794D02*
X160340714Y-99125270D01*
X161550238Y-100274318D02*
X160824523Y-100274318D01*
X161187380Y-100274318D02*
X161187380Y-99004318D01*
X161187380Y-99004318D02*
X161066428Y-99185746D01*
X161066428Y-99185746D02*
X160945476Y-99306699D01*
X160945476Y-99306699D02*
X160824523Y-99367175D01*
D11*
X122916666Y-85704819D02*
X122916666Y-86419104D01*
X122916666Y-86419104D02*
X122869047Y-86561961D01*
X122869047Y-86561961D02*
X122773809Y-86657200D01*
X122773809Y-86657200D02*
X122630952Y-86704819D01*
X122630952Y-86704819D02*
X122535714Y-86704819D01*
X123821428Y-85704819D02*
X123630952Y-85704819D01*
X123630952Y-85704819D02*
X123535714Y-85752438D01*
X123535714Y-85752438D02*
X123488095Y-85800057D01*
X123488095Y-85800057D02*
X123392857Y-85942914D01*
X123392857Y-85942914D02*
X123345238Y-86133390D01*
X123345238Y-86133390D02*
X123345238Y-86514342D01*
X123345238Y-86514342D02*
X123392857Y-86609580D01*
X123392857Y-86609580D02*
X123440476Y-86657200D01*
X123440476Y-86657200D02*
X123535714Y-86704819D01*
X123535714Y-86704819D02*
X123726190Y-86704819D01*
X123726190Y-86704819D02*
X123821428Y-86657200D01*
X123821428Y-86657200D02*
X123869047Y-86609580D01*
X123869047Y-86609580D02*
X123916666Y-86514342D01*
X123916666Y-86514342D02*
X123916666Y-86276247D01*
X123916666Y-86276247D02*
X123869047Y-86181009D01*
X123869047Y-86181009D02*
X123821428Y-86133390D01*
X123821428Y-86133390D02*
X123726190Y-86085771D01*
X123726190Y-86085771D02*
X123535714Y-86085771D01*
X123535714Y-86085771D02*
X123440476Y-86133390D01*
X123440476Y-86133390D02*
X123392857Y-86181009D01*
X123392857Y-86181009D02*
X123345238Y-86276247D01*
X117266666Y-75654819D02*
X117266666Y-76369104D01*
X117266666Y-76369104D02*
X117219047Y-76511961D01*
X117219047Y-76511961D02*
X117123809Y-76607200D01*
X117123809Y-76607200D02*
X116980952Y-76654819D01*
X116980952Y-76654819D02*
X116885714Y-76654819D01*
X117647619Y-75654819D02*
X118266666Y-75654819D01*
X118266666Y-75654819D02*
X117933333Y-76035771D01*
X117933333Y-76035771D02*
X118076190Y-76035771D01*
X118076190Y-76035771D02*
X118171428Y-76083390D01*
X118171428Y-76083390D02*
X118219047Y-76131009D01*
X118219047Y-76131009D02*
X118266666Y-76226247D01*
X118266666Y-76226247D02*
X118266666Y-76464342D01*
X118266666Y-76464342D02*
X118219047Y-76559580D01*
X118219047Y-76559580D02*
X118171428Y-76607200D01*
X118171428Y-76607200D02*
X118076190Y-76654819D01*
X118076190Y-76654819D02*
X117790476Y-76654819D01*
X117790476Y-76654819D02*
X117695238Y-76607200D01*
X117695238Y-76607200D02*
X117647619Y-76559580D01*
X153083333Y-102359580D02*
X153035714Y-102407200D01*
X153035714Y-102407200D02*
X152892857Y-102454819D01*
X152892857Y-102454819D02*
X152797619Y-102454819D01*
X152797619Y-102454819D02*
X152654762Y-102407200D01*
X152654762Y-102407200D02*
X152559524Y-102311961D01*
X152559524Y-102311961D02*
X152511905Y-102216723D01*
X152511905Y-102216723D02*
X152464286Y-102026247D01*
X152464286Y-102026247D02*
X152464286Y-101883390D01*
X152464286Y-101883390D02*
X152511905Y-101692914D01*
X152511905Y-101692914D02*
X152559524Y-101597676D01*
X152559524Y-101597676D02*
X152654762Y-101502438D01*
X152654762Y-101502438D02*
X152797619Y-101454819D01*
X152797619Y-101454819D02*
X152892857Y-101454819D01*
X152892857Y-101454819D02*
X153035714Y-101502438D01*
X153035714Y-101502438D02*
X153083333Y-101550057D01*
X153416667Y-101454819D02*
X154035714Y-101454819D01*
X154035714Y-101454819D02*
X153702381Y-101835771D01*
X153702381Y-101835771D02*
X153845238Y-101835771D01*
X153845238Y-101835771D02*
X153940476Y-101883390D01*
X153940476Y-101883390D02*
X153988095Y-101931009D01*
X153988095Y-101931009D02*
X154035714Y-102026247D01*
X154035714Y-102026247D02*
X154035714Y-102264342D01*
X154035714Y-102264342D02*
X153988095Y-102359580D01*
X153988095Y-102359580D02*
X153940476Y-102407200D01*
X153940476Y-102407200D02*
X153845238Y-102454819D01*
X153845238Y-102454819D02*
X153559524Y-102454819D01*
X153559524Y-102454819D02*
X153464286Y-102407200D01*
X153464286Y-102407200D02*
X153416667Y-102359580D01*
X181238095Y-100054819D02*
X181238095Y-100864342D01*
X181238095Y-100864342D02*
X181285714Y-100959580D01*
X181285714Y-100959580D02*
X181333333Y-101007200D01*
X181333333Y-101007200D02*
X181428571Y-101054819D01*
X181428571Y-101054819D02*
X181619047Y-101054819D01*
X181619047Y-101054819D02*
X181714285Y-101007200D01*
X181714285Y-101007200D02*
X181761904Y-100959580D01*
X181761904Y-100959580D02*
X181809523Y-100864342D01*
X181809523Y-100864342D02*
X181809523Y-100054819D01*
X182809523Y-101054819D02*
X182238095Y-101054819D01*
X182523809Y-101054819D02*
X182523809Y-100054819D01*
X182523809Y-100054819D02*
X182428571Y-100197676D01*
X182428571Y-100197676D02*
X182333333Y-100292914D01*
X182333333Y-100292914D02*
X182238095Y-100340533D01*
X138916667Y-81657200D02*
X139059524Y-81704819D01*
X139059524Y-81704819D02*
X139297619Y-81704819D01*
X139297619Y-81704819D02*
X139392857Y-81657200D01*
X139392857Y-81657200D02*
X139440476Y-81609580D01*
X139440476Y-81609580D02*
X139488095Y-81514342D01*
X139488095Y-81514342D02*
X139488095Y-81419104D01*
X139488095Y-81419104D02*
X139440476Y-81323866D01*
X139440476Y-81323866D02*
X139392857Y-81276247D01*
X139392857Y-81276247D02*
X139297619Y-81228628D01*
X139297619Y-81228628D02*
X139107143Y-81181009D01*
X139107143Y-81181009D02*
X139011905Y-81133390D01*
X139011905Y-81133390D02*
X138964286Y-81085771D01*
X138964286Y-81085771D02*
X138916667Y-80990533D01*
X138916667Y-80990533D02*
X138916667Y-80895295D01*
X138916667Y-80895295D02*
X138964286Y-80800057D01*
X138964286Y-80800057D02*
X139011905Y-80752438D01*
X139011905Y-80752438D02*
X139107143Y-80704819D01*
X139107143Y-80704819D02*
X139345238Y-80704819D01*
X139345238Y-80704819D02*
X139488095Y-80752438D01*
X139821429Y-80704819D02*
X140059524Y-81704819D01*
X140059524Y-81704819D02*
X140250000Y-80990533D01*
X140250000Y-80990533D02*
X140440476Y-81704819D01*
X140440476Y-81704819D02*
X140678572Y-80704819D01*
X141583333Y-81704819D02*
X141011905Y-81704819D01*
X141297619Y-81704819D02*
X141297619Y-80704819D01*
X141297619Y-80704819D02*
X141202381Y-80847676D01*
X141202381Y-80847676D02*
X141107143Y-80942914D01*
X141107143Y-80942914D02*
X141011905Y-80990533D01*
X150083333Y-102359580D02*
X150035714Y-102407200D01*
X150035714Y-102407200D02*
X149892857Y-102454819D01*
X149892857Y-102454819D02*
X149797619Y-102454819D01*
X149797619Y-102454819D02*
X149654762Y-102407200D01*
X149654762Y-102407200D02*
X149559524Y-102311961D01*
X149559524Y-102311961D02*
X149511905Y-102216723D01*
X149511905Y-102216723D02*
X149464286Y-102026247D01*
X149464286Y-102026247D02*
X149464286Y-101883390D01*
X149464286Y-101883390D02*
X149511905Y-101692914D01*
X149511905Y-101692914D02*
X149559524Y-101597676D01*
X149559524Y-101597676D02*
X149654762Y-101502438D01*
X149654762Y-101502438D02*
X149797619Y-101454819D01*
X149797619Y-101454819D02*
X149892857Y-101454819D01*
X149892857Y-101454819D02*
X150035714Y-101502438D01*
X150035714Y-101502438D02*
X150083333Y-101550057D01*
X150988095Y-101454819D02*
X150511905Y-101454819D01*
X150511905Y-101454819D02*
X150464286Y-101931009D01*
X150464286Y-101931009D02*
X150511905Y-101883390D01*
X150511905Y-101883390D02*
X150607143Y-101835771D01*
X150607143Y-101835771D02*
X150845238Y-101835771D01*
X150845238Y-101835771D02*
X150940476Y-101883390D01*
X150940476Y-101883390D02*
X150988095Y-101931009D01*
X150988095Y-101931009D02*
X151035714Y-102026247D01*
X151035714Y-102026247D02*
X151035714Y-102264342D01*
X151035714Y-102264342D02*
X150988095Y-102359580D01*
X150988095Y-102359580D02*
X150940476Y-102407200D01*
X150940476Y-102407200D02*
X150845238Y-102454819D01*
X150845238Y-102454819D02*
X150607143Y-102454819D01*
X150607143Y-102454819D02*
X150511905Y-102407200D01*
X150511905Y-102407200D02*
X150464286Y-102359580D01*
D13*
X120414285Y-109133609D02*
X120557142Y-109181228D01*
X120557142Y-109181228D02*
X120604761Y-109228847D01*
X120604761Y-109228847D02*
X120652380Y-109324085D01*
X120652380Y-109324085D02*
X120652380Y-109466942D01*
X120652380Y-109466942D02*
X120604761Y-109562180D01*
X120604761Y-109562180D02*
X120557142Y-109609800D01*
X120557142Y-109609800D02*
X120461904Y-109657419D01*
X120461904Y-109657419D02*
X120080952Y-109657419D01*
X120080952Y-109657419D02*
X120080952Y-108657419D01*
X120080952Y-108657419D02*
X120414285Y-108657419D01*
X120414285Y-108657419D02*
X120509523Y-108705038D01*
X120509523Y-108705038D02*
X120557142Y-108752657D01*
X120557142Y-108752657D02*
X120604761Y-108847895D01*
X120604761Y-108847895D02*
X120604761Y-108943133D01*
X120604761Y-108943133D02*
X120557142Y-109038371D01*
X120557142Y-109038371D02*
X120509523Y-109085990D01*
X120509523Y-109085990D02*
X120414285Y-109133609D01*
X120414285Y-109133609D02*
X120080952Y-109133609D01*
X120938095Y-108657419D02*
X121509523Y-108657419D01*
X121223809Y-109657419D02*
X121223809Y-108657419D01*
X122366666Y-109657419D02*
X121795238Y-109657419D01*
X122080952Y-109657419D02*
X122080952Y-108657419D01*
X122080952Y-108657419D02*
X121985714Y-108800276D01*
X121985714Y-108800276D02*
X121890476Y-108895514D01*
X121890476Y-108895514D02*
X121795238Y-108943133D01*
D11*
X123066666Y-102054819D02*
X123066666Y-102769104D01*
X123066666Y-102769104D02*
X123019047Y-102911961D01*
X123019047Y-102911961D02*
X122923809Y-103007200D01*
X122923809Y-103007200D02*
X122780952Y-103054819D01*
X122780952Y-103054819D02*
X122685714Y-103054819D01*
X124019047Y-102054819D02*
X123542857Y-102054819D01*
X123542857Y-102054819D02*
X123495238Y-102531009D01*
X123495238Y-102531009D02*
X123542857Y-102483390D01*
X123542857Y-102483390D02*
X123638095Y-102435771D01*
X123638095Y-102435771D02*
X123876190Y-102435771D01*
X123876190Y-102435771D02*
X123971428Y-102483390D01*
X123971428Y-102483390D02*
X124019047Y-102531009D01*
X124019047Y-102531009D02*
X124066666Y-102626247D01*
X124066666Y-102626247D02*
X124066666Y-102864342D01*
X124066666Y-102864342D02*
X124019047Y-102959580D01*
X124019047Y-102959580D02*
X123971428Y-103007200D01*
X123971428Y-103007200D02*
X123876190Y-103054819D01*
X123876190Y-103054819D02*
X123638095Y-103054819D01*
X123638095Y-103054819D02*
X123542857Y-103007200D01*
X123542857Y-103007200D02*
X123495238Y-102959580D01*
X173666666Y-81654819D02*
X173666666Y-82369104D01*
X173666666Y-82369104D02*
X173619047Y-82511961D01*
X173619047Y-82511961D02*
X173523809Y-82607200D01*
X173523809Y-82607200D02*
X173380952Y-82654819D01*
X173380952Y-82654819D02*
X173285714Y-82654819D01*
X174571428Y-81988152D02*
X174571428Y-82654819D01*
X174333333Y-81607200D02*
X174095238Y-82321485D01*
X174095238Y-82321485D02*
X174714285Y-82321485D01*
X145607142Y-99954819D02*
X145273809Y-99478628D01*
X145035714Y-99954819D02*
X145035714Y-98954819D01*
X145035714Y-98954819D02*
X145416666Y-98954819D01*
X145416666Y-98954819D02*
X145511904Y-99002438D01*
X145511904Y-99002438D02*
X145559523Y-99050057D01*
X145559523Y-99050057D02*
X145607142Y-99145295D01*
X145607142Y-99145295D02*
X145607142Y-99288152D01*
X145607142Y-99288152D02*
X145559523Y-99383390D01*
X145559523Y-99383390D02*
X145511904Y-99431009D01*
X145511904Y-99431009D02*
X145416666Y-99478628D01*
X145416666Y-99478628D02*
X145035714Y-99478628D01*
X146559523Y-99954819D02*
X145988095Y-99954819D01*
X146273809Y-99954819D02*
X146273809Y-98954819D01*
X146273809Y-98954819D02*
X146178571Y-99097676D01*
X146178571Y-99097676D02*
X146083333Y-99192914D01*
X146083333Y-99192914D02*
X145988095Y-99240533D01*
X146892857Y-98954819D02*
X147511904Y-98954819D01*
X147511904Y-98954819D02*
X147178571Y-99335771D01*
X147178571Y-99335771D02*
X147321428Y-99335771D01*
X147321428Y-99335771D02*
X147416666Y-99383390D01*
X147416666Y-99383390D02*
X147464285Y-99431009D01*
X147464285Y-99431009D02*
X147511904Y-99526247D01*
X147511904Y-99526247D02*
X147511904Y-99764342D01*
X147511904Y-99764342D02*
X147464285Y-99859580D01*
X147464285Y-99859580D02*
X147416666Y-99907200D01*
X147416666Y-99907200D02*
X147321428Y-99954819D01*
X147321428Y-99954819D02*
X147035714Y-99954819D01*
X147035714Y-99954819D02*
X146940476Y-99907200D01*
X146940476Y-99907200D02*
X146892857Y-99859580D01*
X188708333Y-106834580D02*
X188660714Y-106882200D01*
X188660714Y-106882200D02*
X188517857Y-106929819D01*
X188517857Y-106929819D02*
X188422619Y-106929819D01*
X188422619Y-106929819D02*
X188279762Y-106882200D01*
X188279762Y-106882200D02*
X188184524Y-106786961D01*
X188184524Y-106786961D02*
X188136905Y-106691723D01*
X188136905Y-106691723D02*
X188089286Y-106501247D01*
X188089286Y-106501247D02*
X188089286Y-106358390D01*
X188089286Y-106358390D02*
X188136905Y-106167914D01*
X188136905Y-106167914D02*
X188184524Y-106072676D01*
X188184524Y-106072676D02*
X188279762Y-105977438D01*
X188279762Y-105977438D02*
X188422619Y-105929819D01*
X188422619Y-105929819D02*
X188517857Y-105929819D01*
X188517857Y-105929819D02*
X188660714Y-105977438D01*
X188660714Y-105977438D02*
X188708333Y-106025057D01*
X189089286Y-106025057D02*
X189136905Y-105977438D01*
X189136905Y-105977438D02*
X189232143Y-105929819D01*
X189232143Y-105929819D02*
X189470238Y-105929819D01*
X189470238Y-105929819D02*
X189565476Y-105977438D01*
X189565476Y-105977438D02*
X189613095Y-106025057D01*
X189613095Y-106025057D02*
X189660714Y-106120295D01*
X189660714Y-106120295D02*
X189660714Y-106215533D01*
X189660714Y-106215533D02*
X189613095Y-106358390D01*
X189613095Y-106358390D02*
X189041667Y-106929819D01*
X189041667Y-106929819D02*
X189660714Y-106929819D01*
D13*
X142266666Y-130457419D02*
X142266666Y-131171704D01*
X142266666Y-131171704D02*
X142219047Y-131314561D01*
X142219047Y-131314561D02*
X142123809Y-131409800D01*
X142123809Y-131409800D02*
X141980952Y-131457419D01*
X141980952Y-131457419D02*
X141885714Y-131457419D01*
X143266666Y-131457419D02*
X142695238Y-131457419D01*
X142980952Y-131457419D02*
X142980952Y-130457419D01*
X142980952Y-130457419D02*
X142885714Y-130600276D01*
X142885714Y-130600276D02*
X142790476Y-130695514D01*
X142790476Y-130695514D02*
X142695238Y-130743133D01*
X145372419Y-129696115D02*
X144372419Y-129696115D01*
X144372419Y-129696115D02*
X144372419Y-129315163D01*
X144372419Y-129315163D02*
X144420038Y-129219925D01*
X144420038Y-129219925D02*
X144467657Y-129172306D01*
X144467657Y-129172306D02*
X144562895Y-129124687D01*
X144562895Y-129124687D02*
X144705752Y-129124687D01*
X144705752Y-129124687D02*
X144800990Y-129172306D01*
X144800990Y-129172306D02*
X144848609Y-129219925D01*
X144848609Y-129219925D02*
X144896228Y-129315163D01*
X144896228Y-129315163D02*
X144896228Y-129696115D01*
X144372419Y-128791353D02*
X145372419Y-128553258D01*
X145372419Y-128553258D02*
X144658133Y-128362782D01*
X144658133Y-128362782D02*
X145372419Y-128172306D01*
X145372419Y-128172306D02*
X144372419Y-127934211D01*
X145372419Y-126981830D02*
X144896228Y-127315163D01*
X145372419Y-127553258D02*
X144372419Y-127553258D01*
X144372419Y-127553258D02*
X144372419Y-127172306D01*
X144372419Y-127172306D02*
X144420038Y-127077068D01*
X144420038Y-127077068D02*
X144467657Y-127029449D01*
X144467657Y-127029449D02*
X144562895Y-126981830D01*
X144562895Y-126981830D02*
X144705752Y-126981830D01*
X144705752Y-126981830D02*
X144800990Y-127029449D01*
X144800990Y-127029449D02*
X144848609Y-127077068D01*
X144848609Y-127077068D02*
X144896228Y-127172306D01*
X144896228Y-127172306D02*
X144896228Y-127553258D01*
X153420038Y-129172306D02*
X153372419Y-129267544D01*
X153372419Y-129267544D02*
X153372419Y-129410401D01*
X153372419Y-129410401D02*
X153420038Y-129553258D01*
X153420038Y-129553258D02*
X153515276Y-129648496D01*
X153515276Y-129648496D02*
X153610514Y-129696115D01*
X153610514Y-129696115D02*
X153800990Y-129743734D01*
X153800990Y-129743734D02*
X153943847Y-129743734D01*
X153943847Y-129743734D02*
X154134323Y-129696115D01*
X154134323Y-129696115D02*
X154229561Y-129648496D01*
X154229561Y-129648496D02*
X154324800Y-129553258D01*
X154324800Y-129553258D02*
X154372419Y-129410401D01*
X154372419Y-129410401D02*
X154372419Y-129315163D01*
X154372419Y-129315163D02*
X154324800Y-129172306D01*
X154324800Y-129172306D02*
X154277180Y-129124687D01*
X154277180Y-129124687D02*
X153943847Y-129124687D01*
X153943847Y-129124687D02*
X153943847Y-129315163D01*
X154372419Y-128696115D02*
X153372419Y-128696115D01*
X153372419Y-128696115D02*
X154372419Y-128124687D01*
X154372419Y-128124687D02*
X153372419Y-128124687D01*
X154372419Y-127648496D02*
X153372419Y-127648496D01*
X153372419Y-127648496D02*
X153372419Y-127410401D01*
X153372419Y-127410401D02*
X153420038Y-127267544D01*
X153420038Y-127267544D02*
X153515276Y-127172306D01*
X153515276Y-127172306D02*
X153610514Y-127124687D01*
X153610514Y-127124687D02*
X153800990Y-127077068D01*
X153800990Y-127077068D02*
X153943847Y-127077068D01*
X153943847Y-127077068D02*
X154134323Y-127124687D01*
X154134323Y-127124687D02*
X154229561Y-127172306D01*
X154229561Y-127172306D02*
X154324800Y-127267544D01*
X154324800Y-127267544D02*
X154372419Y-127410401D01*
X154372419Y-127410401D02*
X154372419Y-127648496D01*
X148277180Y-129124687D02*
X148324800Y-129172306D01*
X148324800Y-129172306D02*
X148372419Y-129315163D01*
X148372419Y-129315163D02*
X148372419Y-129410401D01*
X148372419Y-129410401D02*
X148324800Y-129553258D01*
X148324800Y-129553258D02*
X148229561Y-129648496D01*
X148229561Y-129648496D02*
X148134323Y-129696115D01*
X148134323Y-129696115D02*
X147943847Y-129743734D01*
X147943847Y-129743734D02*
X147800990Y-129743734D01*
X147800990Y-129743734D02*
X147610514Y-129696115D01*
X147610514Y-129696115D02*
X147515276Y-129648496D01*
X147515276Y-129648496D02*
X147420038Y-129553258D01*
X147420038Y-129553258D02*
X147372419Y-129410401D01*
X147372419Y-129410401D02*
X147372419Y-129315163D01*
X147372419Y-129315163D02*
X147420038Y-129172306D01*
X147420038Y-129172306D02*
X147467657Y-129124687D01*
X148277180Y-128124687D02*
X148324800Y-128172306D01*
X148324800Y-128172306D02*
X148372419Y-128315163D01*
X148372419Y-128315163D02*
X148372419Y-128410401D01*
X148372419Y-128410401D02*
X148324800Y-128553258D01*
X148324800Y-128553258D02*
X148229561Y-128648496D01*
X148229561Y-128648496D02*
X148134323Y-128696115D01*
X148134323Y-128696115D02*
X147943847Y-128743734D01*
X147943847Y-128743734D02*
X147800990Y-128743734D01*
X147800990Y-128743734D02*
X147610514Y-128696115D01*
X147610514Y-128696115D02*
X147515276Y-128648496D01*
X147515276Y-128648496D02*
X147420038Y-128553258D01*
X147420038Y-128553258D02*
X147372419Y-128410401D01*
X147372419Y-128410401D02*
X147372419Y-128315163D01*
X147372419Y-128315163D02*
X147420038Y-128172306D01*
X147420038Y-128172306D02*
X147467657Y-128124687D01*
X148372419Y-127172306D02*
X148372419Y-127743734D01*
X148372419Y-127458020D02*
X147372419Y-127458020D01*
X147372419Y-127458020D02*
X147515276Y-127553258D01*
X147515276Y-127553258D02*
X147610514Y-127648496D01*
X147610514Y-127648496D02*
X147658133Y-127743734D01*
X151277180Y-129124687D02*
X151324800Y-129172306D01*
X151324800Y-129172306D02*
X151372419Y-129315163D01*
X151372419Y-129315163D02*
X151372419Y-129410401D01*
X151372419Y-129410401D02*
X151324800Y-129553258D01*
X151324800Y-129553258D02*
X151229561Y-129648496D01*
X151229561Y-129648496D02*
X151134323Y-129696115D01*
X151134323Y-129696115D02*
X150943847Y-129743734D01*
X150943847Y-129743734D02*
X150800990Y-129743734D01*
X150800990Y-129743734D02*
X150610514Y-129696115D01*
X150610514Y-129696115D02*
X150515276Y-129648496D01*
X150515276Y-129648496D02*
X150420038Y-129553258D01*
X150420038Y-129553258D02*
X150372419Y-129410401D01*
X150372419Y-129410401D02*
X150372419Y-129315163D01*
X150372419Y-129315163D02*
X150420038Y-129172306D01*
X150420038Y-129172306D02*
X150467657Y-129124687D01*
X151277180Y-128124687D02*
X151324800Y-128172306D01*
X151324800Y-128172306D02*
X151372419Y-128315163D01*
X151372419Y-128315163D02*
X151372419Y-128410401D01*
X151372419Y-128410401D02*
X151324800Y-128553258D01*
X151324800Y-128553258D02*
X151229561Y-128648496D01*
X151229561Y-128648496D02*
X151134323Y-128696115D01*
X151134323Y-128696115D02*
X150943847Y-128743734D01*
X150943847Y-128743734D02*
X150800990Y-128743734D01*
X150800990Y-128743734D02*
X150610514Y-128696115D01*
X150610514Y-128696115D02*
X150515276Y-128648496D01*
X150515276Y-128648496D02*
X150420038Y-128553258D01*
X150420038Y-128553258D02*
X150372419Y-128410401D01*
X150372419Y-128410401D02*
X150372419Y-128315163D01*
X150372419Y-128315163D02*
X150420038Y-128172306D01*
X150420038Y-128172306D02*
X150467657Y-128124687D01*
X150467657Y-127743734D02*
X150420038Y-127696115D01*
X150420038Y-127696115D02*
X150372419Y-127600877D01*
X150372419Y-127600877D02*
X150372419Y-127362782D01*
X150372419Y-127362782D02*
X150420038Y-127267544D01*
X150420038Y-127267544D02*
X150467657Y-127219925D01*
X150467657Y-127219925D02*
X150562895Y-127172306D01*
X150562895Y-127172306D02*
X150658133Y-127172306D01*
X150658133Y-127172306D02*
X150800990Y-127219925D01*
X150800990Y-127219925D02*
X151372419Y-127791353D01*
X151372419Y-127791353D02*
X151372419Y-127172306D01*
D11*
X170133333Y-99604819D02*
X169800000Y-99128628D01*
X169561905Y-99604819D02*
X169561905Y-98604819D01*
X169561905Y-98604819D02*
X169942857Y-98604819D01*
X169942857Y-98604819D02*
X170038095Y-98652438D01*
X170038095Y-98652438D02*
X170085714Y-98700057D01*
X170085714Y-98700057D02*
X170133333Y-98795295D01*
X170133333Y-98795295D02*
X170133333Y-98938152D01*
X170133333Y-98938152D02*
X170085714Y-99033390D01*
X170085714Y-99033390D02*
X170038095Y-99081009D01*
X170038095Y-99081009D02*
X169942857Y-99128628D01*
X169942857Y-99128628D02*
X169561905Y-99128628D01*
X170466667Y-98604819D02*
X171085714Y-98604819D01*
X171085714Y-98604819D02*
X170752381Y-98985771D01*
X170752381Y-98985771D02*
X170895238Y-98985771D01*
X170895238Y-98985771D02*
X170990476Y-99033390D01*
X170990476Y-99033390D02*
X171038095Y-99081009D01*
X171038095Y-99081009D02*
X171085714Y-99176247D01*
X171085714Y-99176247D02*
X171085714Y-99414342D01*
X171085714Y-99414342D02*
X171038095Y-99509580D01*
X171038095Y-99509580D02*
X170990476Y-99557200D01*
X170990476Y-99557200D02*
X170895238Y-99604819D01*
X170895238Y-99604819D02*
X170609524Y-99604819D01*
X170609524Y-99604819D02*
X170514286Y-99557200D01*
X170514286Y-99557200D02*
X170466667Y-99509580D01*
X136433333Y-104359580D02*
X136385714Y-104407200D01*
X136385714Y-104407200D02*
X136242857Y-104454819D01*
X136242857Y-104454819D02*
X136147619Y-104454819D01*
X136147619Y-104454819D02*
X136004762Y-104407200D01*
X136004762Y-104407200D02*
X135909524Y-104311961D01*
X135909524Y-104311961D02*
X135861905Y-104216723D01*
X135861905Y-104216723D02*
X135814286Y-104026247D01*
X135814286Y-104026247D02*
X135814286Y-103883390D01*
X135814286Y-103883390D02*
X135861905Y-103692914D01*
X135861905Y-103692914D02*
X135909524Y-103597676D01*
X135909524Y-103597676D02*
X136004762Y-103502438D01*
X136004762Y-103502438D02*
X136147619Y-103454819D01*
X136147619Y-103454819D02*
X136242857Y-103454819D01*
X136242857Y-103454819D02*
X136385714Y-103502438D01*
X136385714Y-103502438D02*
X136433333Y-103550057D01*
X136766667Y-103454819D02*
X137433333Y-103454819D01*
X137433333Y-103454819D02*
X137004762Y-104454819D01*
X156333333Y-90454819D02*
X156000000Y-89978628D01*
X155761905Y-90454819D02*
X155761905Y-89454819D01*
X155761905Y-89454819D02*
X156142857Y-89454819D01*
X156142857Y-89454819D02*
X156238095Y-89502438D01*
X156238095Y-89502438D02*
X156285714Y-89550057D01*
X156285714Y-89550057D02*
X156333333Y-89645295D01*
X156333333Y-89645295D02*
X156333333Y-89788152D01*
X156333333Y-89788152D02*
X156285714Y-89883390D01*
X156285714Y-89883390D02*
X156238095Y-89931009D01*
X156238095Y-89931009D02*
X156142857Y-89978628D01*
X156142857Y-89978628D02*
X155761905Y-89978628D01*
X156904762Y-89883390D02*
X156809524Y-89835771D01*
X156809524Y-89835771D02*
X156761905Y-89788152D01*
X156761905Y-89788152D02*
X156714286Y-89692914D01*
X156714286Y-89692914D02*
X156714286Y-89645295D01*
X156714286Y-89645295D02*
X156761905Y-89550057D01*
X156761905Y-89550057D02*
X156809524Y-89502438D01*
X156809524Y-89502438D02*
X156904762Y-89454819D01*
X156904762Y-89454819D02*
X157095238Y-89454819D01*
X157095238Y-89454819D02*
X157190476Y-89502438D01*
X157190476Y-89502438D02*
X157238095Y-89550057D01*
X157238095Y-89550057D02*
X157285714Y-89645295D01*
X157285714Y-89645295D02*
X157285714Y-89692914D01*
X157285714Y-89692914D02*
X157238095Y-89788152D01*
X157238095Y-89788152D02*
X157190476Y-89835771D01*
X157190476Y-89835771D02*
X157095238Y-89883390D01*
X157095238Y-89883390D02*
X156904762Y-89883390D01*
X156904762Y-89883390D02*
X156809524Y-89931009D01*
X156809524Y-89931009D02*
X156761905Y-89978628D01*
X156761905Y-89978628D02*
X156714286Y-90073866D01*
X156714286Y-90073866D02*
X156714286Y-90264342D01*
X156714286Y-90264342D02*
X156761905Y-90359580D01*
X156761905Y-90359580D02*
X156809524Y-90407200D01*
X156809524Y-90407200D02*
X156904762Y-90454819D01*
X156904762Y-90454819D02*
X157095238Y-90454819D01*
X157095238Y-90454819D02*
X157190476Y-90407200D01*
X157190476Y-90407200D02*
X157238095Y-90359580D01*
X157238095Y-90359580D02*
X157285714Y-90264342D01*
X157285714Y-90264342D02*
X157285714Y-90073866D01*
X157285714Y-90073866D02*
X157238095Y-89978628D01*
X157238095Y-89978628D02*
X157190476Y-89931009D01*
X157190476Y-89931009D02*
X157095238Y-89883390D01*
D14*
%TO.C,LED1*%
X160400000Y-138700000D02*
X160400000Y-138700000D01*
X160400000Y-138700000D02*
X160400000Y-138700000D01*
X160400000Y-138600000D02*
X160400000Y-138600000D01*
X160400000Y-138600000D02*
G75*
G03*
X160400000Y-138700000I0J-50000D01*
G01*
X160400000Y-138700000D02*
G75*
G03*
X160400000Y-138600000I0J50000D01*
G01*
X160400000Y-138700000D02*
G75*
G03*
X160400000Y-138600000I0J50000D01*
G01*
D15*
%TO.C,RST*%
X114600000Y-92000000D02*
X114600000Y-94000000D01*
X114900000Y-94800000D02*
X115500000Y-95400000D01*
X115500000Y-90600000D02*
X114900000Y-91200000D01*
X115500000Y-95400000D02*
X118500000Y-95400000D01*
X118500000Y-90600000D02*
X115500000Y-90600000D01*
X118500000Y-90600000D02*
X119100000Y-91200000D01*
X118500000Y-95400000D02*
X119100000Y-94800000D01*
X119400000Y-92000000D02*
X119400000Y-94000000D01*
D14*
X112700000Y-91100000D02*
G75*
G03*
X112500000Y-91100000I-100000J0D01*
G01*
X112500000Y-91100000D02*
G75*
G03*
X112700000Y-91100000I100000J0D01*
G01*
D16*
%TO.C,C6*%
X139910000Y-106288748D02*
X139910000Y-107711252D01*
X138090000Y-106288748D02*
X138090000Y-107711252D01*
%TO.C,R9*%
X153227064Y-107910000D02*
X151772936Y-107910000D01*
X153227064Y-106090000D02*
X151772936Y-106090000D01*
%TO.C,R2*%
X159872936Y-129890000D02*
X161327064Y-129890000D01*
X159872936Y-131710000D02*
X161327064Y-131710000D01*
%TO.C,R4*%
X162272936Y-127090000D02*
X163727064Y-127090000D01*
X162272936Y-128910000D02*
X163727064Y-128910000D01*
%TO.C,C1*%
X167711252Y-95410000D02*
X166288748Y-95410000D01*
X167711252Y-93590000D02*
X166288748Y-93590000D01*
D13*
%TO.C,L1*%
X167000000Y-100800000D02*
X167000000Y-100800000D01*
X167000000Y-100900000D02*
X167000000Y-100900000D01*
X167000000Y-100900000D02*
G75*
G03*
X167000000Y-100800000I0J50000D01*
G01*
X167000000Y-100800000D02*
G75*
G03*
X167000000Y-100900000I0J-50000D01*
G01*
D16*
%TO.C,R1*%
X173272936Y-102090000D02*
X174727064Y-102090000D01*
X173272936Y-103910000D02*
X174727064Y-103910000D01*
%TO.C,R10*%
X151772936Y-103090000D02*
X153227064Y-103090000D01*
X151772936Y-104910000D02*
X153227064Y-104910000D01*
%TO.C,R12*%
X142977064Y-96410000D02*
X141522936Y-96410000D01*
X142977064Y-94590000D02*
X141522936Y-94590000D01*
%TO.C,C4*%
X179986252Y-107960000D02*
X178563748Y-107960000D01*
X179986252Y-106140000D02*
X178563748Y-106140000D01*
%TO.C,U2*%
X134000000Y-102435000D02*
X135950000Y-102435000D01*
X134000000Y-102435000D02*
X132050000Y-102435000D01*
X134000000Y-93565000D02*
X135950000Y-93565000D01*
X134000000Y-93565000D02*
X132050000Y-93565000D01*
X136940000Y-102700000D02*
X136460000Y-102700000D01*
X136700000Y-102370000D01*
X136940000Y-102700000D01*
G36*
X136940000Y-102700000D02*
G01*
X136460000Y-102700000D01*
X136700000Y-102370000D01*
X136940000Y-102700000D01*
G37*
%TO.C,R11*%
X113090000Y-99727064D02*
X113090000Y-98272936D01*
X114910000Y-99727064D02*
X114910000Y-98272936D01*
%TO.C,R6*%
X184547936Y-109140000D02*
X186002064Y-109140000D01*
X184547936Y-110960000D02*
X186002064Y-110960000D01*
%TO.C,R5*%
X184865000Y-102277064D02*
X184865000Y-100822936D01*
X186685000Y-102277064D02*
X186685000Y-100822936D01*
%TO.C,J2*%
X131130000Y-133580000D02*
X131700000Y-133580000D01*
X131130000Y-133580000D02*
X131130000Y-130920000D01*
X131700000Y-133580000D02*
X131700000Y-135100000D01*
X133220000Y-133580000D02*
X136780000Y-133580000D01*
X138870000Y-133580000D02*
X138870000Y-130920000D01*
X131130000Y-130920000D02*
X134240000Y-130920000D01*
X135760000Y-130920000D02*
X138870000Y-130920000D01*
X138300000Y-130920000D02*
X138870000Y-130920000D01*
%TO.C,R7*%
X157110000Y-95122936D02*
X157110000Y-96577064D01*
X155290000Y-95122936D02*
X155290000Y-96577064D01*
D14*
%TO.C,IC1*%
X163925000Y-98550000D02*
X162500000Y-98550000D01*
X162150000Y-98500000D02*
X159850000Y-98500000D01*
X162150000Y-95500000D02*
X162150000Y-98500000D01*
X159850000Y-98500000D02*
X159850000Y-95500000D01*
X159850000Y-95500000D02*
X162150000Y-95500000D01*
D16*
%TO.C,J6*%
X122960000Y-88160000D02*
X124170000Y-88160000D01*
X124170000Y-87490000D02*
X124170000Y-88160000D01*
X124170000Y-87490000D02*
X126830000Y-87490000D01*
X124170000Y-89680000D02*
X124170000Y-93240000D01*
X124170000Y-94760000D02*
X124170000Y-98320000D01*
X124170000Y-99840000D02*
X124170000Y-100510000D01*
X124170000Y-100510000D02*
X126830000Y-100510000D01*
X126830000Y-87490000D02*
X126830000Y-90700000D01*
X126830000Y-92220000D02*
X126830000Y-95780000D01*
X126830000Y-97300000D02*
X126830000Y-100510000D01*
%TO.C,J3*%
X119130000Y-79330000D02*
X119700000Y-79330000D01*
X119130000Y-79330000D02*
X119130000Y-76670000D01*
X119700000Y-79330000D02*
X119700000Y-80850000D01*
X121220000Y-79330000D02*
X124780000Y-79330000D01*
X126870000Y-79330000D02*
X126870000Y-76670000D01*
X119130000Y-76670000D02*
X122240000Y-76670000D01*
X123760000Y-76670000D02*
X126870000Y-76670000D01*
X126300000Y-76670000D02*
X126870000Y-76670000D01*
%TO.C,C3*%
X154160000Y-98038748D02*
X154160000Y-99461252D01*
X152340000Y-98038748D02*
X152340000Y-99461252D01*
%TO.C,U1*%
X182137500Y-102440000D02*
X181337500Y-102440000D01*
X182137500Y-102440000D02*
X182937500Y-102440000D01*
X182137500Y-105560000D02*
X181337500Y-105560000D01*
X182137500Y-105560000D02*
X182937500Y-105560000D01*
X180837500Y-102490000D02*
X180597500Y-102160000D01*
X181077500Y-102160000D01*
X180837500Y-102490000D01*
G36*
X180837500Y-102490000D02*
G01*
X180597500Y-102160000D01*
X181077500Y-102160000D01*
X180837500Y-102490000D01*
G37*
%TO.C,SW1*%
X139990000Y-91790000D02*
X139990000Y-90350000D01*
X139420000Y-90350000D02*
X139990000Y-90350000D01*
X139420000Y-90350000D02*
X139420000Y-85150000D01*
X141510000Y-90350000D02*
X142080000Y-90350000D01*
X142080000Y-90350000D02*
X142080000Y-85150000D01*
X139420000Y-85150000D02*
X139990000Y-85150000D01*
X141510000Y-85150000D02*
X142080000Y-85150000D01*
%TO.C,C5*%
X151160000Y-98038748D02*
X151160000Y-99461252D01*
X149340000Y-98038748D02*
X149340000Y-99461252D01*
D13*
%TO.C,BT1*%
X119000000Y-123000000D02*
X117000000Y-123000000D01*
X120000000Y-110000000D02*
X180000000Y-110000000D01*
X120000000Y-114500000D02*
X120000000Y-110000000D01*
X120000000Y-126000000D02*
X120000000Y-121500000D01*
X180000000Y-110000000D02*
X180000000Y-114500000D01*
X180000000Y-121500000D02*
X180000000Y-126000000D01*
X180000000Y-126000000D02*
X120000000Y-126000000D01*
X180480000Y-123080000D02*
X183020000Y-123080000D01*
X181750000Y-121810000D02*
X181750000Y-124350000D01*
D16*
%TO.C,J5*%
X125130000Y-107580000D02*
X125700000Y-107580000D01*
X125130000Y-107580000D02*
X125130000Y-104920000D01*
X125700000Y-107580000D02*
X125700000Y-109100000D01*
X127220000Y-107580000D02*
X130780000Y-107580000D01*
X132870000Y-107580000D02*
X132870000Y-104920000D01*
X125130000Y-104920000D02*
X128240000Y-104920000D01*
X129760000Y-104920000D02*
X132870000Y-104920000D01*
X132300000Y-104920000D02*
X132870000Y-104920000D01*
%TO.C,J4*%
X174130000Y-79330000D02*
X174700000Y-79330000D01*
X174130000Y-79330000D02*
X174130000Y-76670000D01*
X174700000Y-79330000D02*
X174700000Y-80850000D01*
X176220000Y-79330000D02*
X179780000Y-79330000D01*
X181870000Y-79330000D02*
X181870000Y-76670000D01*
X174130000Y-76670000D02*
X177240000Y-76670000D01*
X178760000Y-76670000D02*
X181870000Y-76670000D01*
X181300000Y-76670000D02*
X181870000Y-76670000D01*
%TO.C,R13*%
X141522936Y-98590000D02*
X142977064Y-98590000D01*
X141522936Y-100410000D02*
X142977064Y-100410000D01*
%TO.C,C2*%
X184563748Y-106140000D02*
X185986252Y-106140000D01*
X184563748Y-107960000D02*
X185986252Y-107960000D01*
%TO.C,R3*%
X167707064Y-99910000D02*
X166252936Y-99910000D01*
X167707064Y-98090000D02*
X166252936Y-98090000D01*
%TO.C,C7*%
X137510000Y-106288748D02*
X137510000Y-107711252D01*
X135690000Y-106288748D02*
X135690000Y-107711252D01*
%TO.C,R8*%
X158727064Y-92910000D02*
X157272936Y-92910000D01*
X158727064Y-91090000D02*
X157272936Y-91090000D01*
%TD*%
M02*
